<?xml version="1.0" encoding="UTF-8"?> <svg xmlns="http://www.w3.org/2000/svg" width="81" height="78" viewBox="0 0 81 78" fill="none"><path d="M41.6032 1.19264C41.3163 2.69877 41.4956 9.87082 41.8542 10.1936C41.9976 10.337 42.2487 10.337 42.4638 10.1936C42.8941 9.94254 43.0376 1.55125 42.6431 0.54716C42.2845 -0.385206 41.8183 -0.0983248 41.6032 1.19264Z" fill="#007CE0"></path><path d="M61.8279 7.39652C60.3576 8.93851 57.5605 13.3493 57.5605 14.0307C57.5605 15.6085 59.0308 14.0307 61.7203 9.54814C63.2265 7.10964 63.2623 5.81867 61.8279 7.39652Z" fill="#007CE0"></path><path d="M21.3418 13.3138C21.3418 14.1027 28.3704 20.7727 29.1951 20.7727C30.3427 20.7727 29.8048 20.0196 25.896 16.1826C22.7762 13.1345 21.3418 12.238 21.3418 13.3138Z" fill="#007CE0"></path><path d="M45.2962 20.0553C42.8577 22.6372 39.451 26.8329 37.8014 29.379L37.2277 30.2396L30.2708 29.0921C21.8078 27.6935 17.2176 27.3349 15.9625 28.0163C14.8509 28.59 14.5998 30.1679 15.4246 31.3871C16.1418 32.4988 20.5885 36.0131 24.7483 38.8102C26.5054 39.9936 28.1192 41.0694 28.2985 41.2487C28.4778 41.3921 27.5813 42.6831 26.2903 44.1534C21.4491 49.6041 18.1141 54.517 18.1141 56.2024C18.1141 56.561 18.2934 57.0272 18.5445 57.2782C19.5844 58.3182 21.9871 57.601 31.239 53.5846C34.6099 52.1144 37.6221 50.8951 37.9807 50.8951C38.3035 50.8951 39.3434 51.7199 40.2758 52.7598C45.5831 58.5692 51.1414 63.3028 53.1137 63.6614C55.875 64.1634 55.9826 62.8007 53.9385 54.768C52.2531 48.2414 52.1814 48.6718 55.5522 47.4884C58.0983 46.5919 62.4733 44.3685 64.3021 43.0417C65.4497 42.1811 65.8083 41.679 65.8083 40.8901C65.8083 39.4557 64.9118 38.9536 59.6403 37.4475C51.4283 35.0449 50.8546 34.8297 50.4242 33.7539C50.1732 33.1443 50.0656 30.2037 50.1015 25.5061C50.2091 18.6567 50.1732 18.1906 49.5277 17.6885C49.1333 17.4016 48.6312 17.1865 48.4519 17.1865C48.2368 17.1865 46.8023 18.4774 45.2962 20.0553ZM48.2368 27.5501V34.6863L49.1691 35.7979C50.1015 36.9455 51.9304 37.591 60.0348 39.8501C61.7202 40.3163 63.1188 40.8542 63.1905 41.0694C63.2622 41.2846 61.4333 42.3962 59.1024 43.5079C56.7715 44.6554 53.9744 46.0181 52.8986 46.5202C50.2449 47.847 50.1373 48.4566 51.5359 53.7281C53.2213 60.1829 53.4006 60.936 53.1496 61.1511C52.7193 61.5815 51.0339 60.1829 45.6907 54.9832C42.786 52.1861 39.9889 49.6041 39.4869 49.2455C38.1242 48.3849 37.0125 48.6718 29.697 51.7558C23.1704 54.4811 21.3416 55.1266 21.3416 54.6604C21.3416 54.0508 24.2104 50.1779 27.4737 46.4126C29.8046 43.7231 31.0238 42.0376 31.0238 41.4639C31.0238 40.4239 30.0556 39.5274 25.1069 36.0848C22.9553 34.5428 20.3733 32.6064 19.3693 31.7099L17.5762 30.132L19.4768 30.0962C20.5168 30.0962 24.8559 30.6699 29.0874 31.3871C33.3189 32.1043 37.0125 32.5705 37.2994 32.4629C37.5504 32.3912 40.0248 29.63 42.7501 26.3667C45.4755 23.0676 47.8064 20.4139 47.9499 20.4139C48.1292 20.4139 48.2368 23.6413 48.2368 27.5501Z" fill="#007CE0"></path><path d="M67.2423 24.3942C62.1143 27.263 61.433 27.8009 62.3295 28.1595C63.1901 28.4823 72.98 22.9957 72.98 22.2067C72.98 21.4178 71.5456 21.9916 67.2423 24.3942Z" fill="#007CE0"></path><path d="M0.0408657 24.1079C0.256027 24.7175 7.21292 27.5864 8.36044 27.5864C10.0817 27.5864 8.86249 26.654 5.16888 25.1837C1.29597 23.6059 -0.281877 23.2831 0.0408657 24.1079Z" fill="#007CE0"></path><path d="M10.9422 43.1496C6.99756 44.6557 5.81417 45.2295 5.63487 45.7674C5.56315 46.0543 5.77831 46.2336 6.17277 46.2336C7.21272 46.1977 14.9944 42.8627 15.1737 42.3607C15.3889 41.6793 14.2055 41.8586 10.9422 43.1496Z" fill="#007CE0"></path><path d="M70.3994 42.8987C70.0408 42.9704 69.7539 43.1855 69.7539 43.3648C69.7539 43.9386 72.1207 44.4048 76.3163 44.6558C79.9382 44.871 80.512 44.8351 80.512 44.3331C80.512 43.7593 79.5796 43.5083 75.6708 43.1855C74.3082 43.078 72.6944 42.9345 72.0848 42.8628C71.5111 42.7911 70.7221 42.7911 70.3994 42.8987Z" fill="#007CE0"></path><path d="M63.2988 55.8803C63.2988 56.5976 71.0446 63.0883 71.8694 63.0883C72.0846 63.0883 72.2639 62.9448 72.2639 62.8014C72.2639 62.3711 69.5385 59.825 66.7056 57.5658C64.3388 55.6652 63.2988 55.1631 63.2988 55.8803Z" fill="#007CE0"></path><path d="M13.8114 61.546C12.6639 62.2991 8.68337 65.6699 8.36063 66.1361C8.00202 66.6023 8.00202 67.3912 8.36063 67.3912C8.93439 67.3912 15.2458 61.9763 15.2458 61.4743C15.2458 60.7929 14.8872 60.7929 13.8114 61.546Z" fill="#007CE0"></path><path d="M35.9732 68.7176C35.8656 74.2042 36.1883 76.3558 37.0131 75.5311C37.8379 74.6704 37.4434 65.5978 36.5469 65.5978C36.1525 65.5978 36.0449 66.315 35.9732 68.7176Z" fill="#007CE0"></path><path d="M55.6242 67.3553C55.4808 67.5704 56.2697 69.6145 57.3814 71.9454C59.3178 75.9976 60.2143 77.432 60.8598 77.432C61.5053 77.432 61.075 76.141 59.1385 72.304C57.0586 68.1083 56.0187 66.6739 55.6242 67.3553Z" fill="#007CE0"></path></svg> 