<?xml version="1.0" encoding="UTF-8"?> <svg xmlns="http://www.w3.org/2000/svg" width="261" height="238" viewBox="0 0 261 238" fill="none"><g clip-path="url(#clip0_1655_1340)"><path d="M222.225 63.835C225.364 64.559 228.432 65.5678 231.533 66.4331C233.954 67.1084 236.521 67.632 238.877 68.488C239.403 68.6791 240.181 68.9809 240.523 69.4336C240.875 69.8996 241.087 70.5687 241.055 71.1542C241.015 71.8742 240.45 72.5119 240.322 73.2351C239.258 79.3498 237.845 85.3569 236.561 91.4269C235.334 97.2367 234.313 103.049 232.902 108.826C231.245 115.623 229.197 122.327 227.545 129.125C225.759 136.484 224.314 143.922 222.502 151.277C221.249 156.359 219.764 161.391 218.401 166.445L213.533 184.894C211.575 192.148 208.924 199.23 207.13 206.526C206.297 209.906 205.535 213.459 205.062 216.909C204.972 217.568 205.39 218.213 205.26 218.882C205.119 219.603 204.782 220.21 204.144 220.603C203.546 220.971 202.757 221.084 202.068 221.007C200.439 220.826 196.717 219.385 194.916 218.837C192.17 218.002 189.356 217.342 186.57 216.654C179.311 214.862 171.944 213.504 164.691 211.69C155.362 209.356 146.104 206.668 136.832 204.111C124.785 200.876 112.776 197.506 100.804 194.001C87.725 190.127 74.8975 185.519 61.8785 181.46C55.2353 179.417 48.5441 177.545 41.8051 175.845C34.3102 173.942 26.8459 172.16 19.6942 169.158C18.8932 168.822 17.7211 168.505 17.1015 167.881C16.4783 167.253 16.5305 165.56 16.5787 164.734C16.7172 162.356 17.5924 160.012 18.2506 157.739C18.852 155.632 19.4155 153.515 19.941 151.388C23.9667 134.177 28.2544 117.03 32.804 99.9491C35.4926 90.0808 38.9566 80.4446 42.0083 70.6867C46.309 56.9348 49.8242 42.9317 55.0875 29.4972C55.4008 28.6974 55.9164 26.7333 56.624 26.2543C56.8595 26.0948 57.2198 26.0343 57.495 26.005C59.3711 25.8053 65.9727 27.304 68.2278 27.6981C79.3623 29.6445 90.3668 31.8276 101.338 34.5627C117.655 38.6304 133.772 43.488 150.131 47.3899C159.706 49.6165 169.301 51.7469 178.918 53.7809C193.409 56.893 207.845 60.2444 222.225 63.835ZM194.857 80.7274L92.777 56.6102C88.1226 55.4975 83.5264 54.3366 78.9767 52.8372C78.3591 52.6335 76.1146 51.658 75.6104 51.9089C75.5395 52.0086 75.4787 52.0895 75.4387 52.207C75.0518 53.3385 74.8968 54.6421 74.593 55.8094C73.9563 58.2565 73.2044 60.6971 72.4672 63.1159L62.3335 97.0316C59.6299 105.906 56.7254 114.741 54.2566 123.684C52.1624 131.304 50.1674 138.95 48.2716 146.622C47.368 150.259 46.7016 154.001 45.6091 157.584C54.2645 158.684 62.914 160.755 71.3526 162.942C75.1766 163.751 78.9677 164.912 82.7423 165.928L103.629 171.563C124.755 177.133 145.926 182.528 167.141 187.747C172.002 188.959 176.837 190.271 181.644 191.683C184.732 192.597 187.878 193.839 191.054 194.368C191.362 194.036 191.447 193.632 191.577 193.21C193.595 186.523 195.398 179.779 196.988 172.977C197.824 169.535 198.593 166.087 199.377 162.633C199.802 160.76 200.284 158.894 200.653 157.01C201.731 151.512 202.557 145.972 203.566 140.464C204.715 133.996 206.096 127.579 207.709 121.211C208.666 117.325 209.834 113.491 210.924 109.642L213.737 100.027C214.248 98.2695 214.686 96.4914 215.223 94.7422C215.869 92.6395 216.522 90.4532 217.413 88.4428C217.567 88.0953 217.793 87.74 217.805 87.3537C217.588 87.0598 217.313 86.9642 216.977 86.8381C214.524 85.9195 211.753 85.3364 209.216 84.615C204.456 83.2619 199.688 81.8015 194.857 80.7274ZM216.65 67.3601C203.608 64.1738 190.526 61.1644 177.403 58.3318C167.586 56.2563 157.795 54.0656 148.029 51.7597C131.593 47.7945 115.414 42.7898 98.9947 38.7371C91.8083 36.9644 84.5825 35.3695 77.3172 33.9526L67.7868 32.0943C65.851 31.6974 63.8797 31.3307 61.9952 30.729C63.0834 32.0839 64.0355 33.5581 65.034 34.9803C66.6907 37.3408 68.3705 39.7027 70.11 42.0025C71.6757 44.0726 74.0976 46.3738 75.3694 48.4454L75.8402 49.0416C90.8531 52.9257 106.007 56.125 121.127 59.5589L172.819 71.5656C184.02 74.148 195.193 76.6832 206.292 79.6878C209.196 80.474 212.087 81.2658 214.97 82.1298C216.449 82.573 217.972 82.9802 219.398 83.5733C222.395 80.3606 225.695 77.364 229.035 74.5129C229.623 74.0115 232.105 72.2289 232.293 71.7134C229.658 71.025 227.074 70.1796 224.459 69.4224C221.865 68.6991 219.262 68.0117 216.65 67.3601ZM57.988 31.4969C56.7207 37.1969 54.6682 42.7812 53.0472 48.393C50.7079 56.4914 48.5685 64.6227 46.0868 72.6834C44.2848 78.5367 42.2856 84.3247 40.4601 90.169C39.0388 94.7174 37.7246 99.2964 36.5174 103.906C35.0918 109.197 33.8799 114.572 32.5788 119.896C30.8578 126.939 29.0736 133.959 27.468 141.031C26.1807 146.7 25.0267 152.395 23.4992 158.009C23.0428 159.686 22.6633 161.555 21.9765 163.145C24.5363 161.524 31.1478 159.402 34.2065 158.652C36.7372 157.874 39.4184 157.125 42.0529 156.829C42.1857 154.948 42.7786 152.978 43.178 151.133C43.8461 148.047 44.4634 144.961 45.2015 141.889C45.6672 139.952 46.0598 137.998 46.5327 136.062C47.7034 131.27 49.0096 126.461 50.3428 121.712C52.5695 113.783 55.0709 105.935 57.4392 98.0471C60.5081 87.8268 63.4538 77.5877 66.738 67.4322C68.4514 62.134 70.128 56.7575 72.3142 51.6304C68.5728 48.402 63.2782 40.6835 60.6255 36.2758C59.9979 35.2102 59.3957 34.1303 58.8188 33.0362C58.562 32.5541 58.3136 31.9241 57.988 31.4969ZM165.852 192.15C156.019 189.722 146.199 187.243 136.392 184.714L85.2131 171.952L62.0269 165.942C55.893 164.383 49.4857 163.076 43.6032 160.711C38.6104 163.265 27.1897 166.369 21.6546 166.485L37.8397 170.295C45.6693 172.118 53.5732 173.926 61.2441 176.342C72.2299 179.649 83.0475 183.468 94.023 186.792C114.312 192.735 134.663 198.454 155.078 203.949C158.957 205.006 162.845 206.025 166.744 207.005C171.256 208.095 175.813 209.043 180.347 210.038C184.577 210.944 188.786 211.933 192.976 213.005C195.093 213.538 197.45 214.009 199.464 214.847C199.125 214.008 197.728 211.896 197.169 210.899L191.953 201.426C191.6 200.794 191.234 199.869 190.712 199.381C189.187 199.089 187.711 198.538 186.235 198.067L178.912 195.75C174.594 194.426 170.187 193.416 165.852 192.15ZM235.401 75.0367C233.656 76.478 222.76 85.4366 221.63 85.7764C222.379 87.181 221.282 91.0832 220.907 92.6746C217.817 105.787 213.256 118.533 210.006 131.6C207.803 140.454 206.066 149.397 204.061 158.293C203.618 160.259 203.055 162.195 202.591 164.155C200.493 173.016 198.314 181.916 195.682 190.635C194.982 192.954 193.823 195.339 193.856 197.781C194.744 198.638 197.346 201.226 197.529 202.272C198.223 202.987 201.2 207.595 201.202 208.52C201.202 208.533 201.201 208.547 201.2 208.561C201.302 208.418 201.38 208.279 201.437 208.111C201.81 207.001 201.9 205.652 202.156 204.49C202.67 202.153 203.319 199.814 203.989 197.515C208.449 182.594 212.546 167.574 216.279 152.455C218.268 144.437 219.806 136.33 221.702 128.294C223.433 120.958 225.52 113.711 227.403 106.414C229.573 98.0036 231.015 89.4354 233.506 81.1002C234.1 79.1102 234.654 77.087 235.427 75.1575L235.401 75.0367Z" fill="#FCD404"></path><path d="M174.847 98.3069C175.054 98.3585 175.26 98.4134 175.466 98.4716C175.83 98.576 176.026 98.6613 176.216 99.0029C176.187 99.2779 176.18 99.3667 176.01 99.5836C175.502 100.231 169.494 102.789 168.506 102.815C167.562 102.84 165.682 100.692 165.04 100.069C164.48 99.5492 163.497 98.8521 163.194 98.1594C163.076 97.8892 163.108 97.7938 163.227 97.5348C163.407 97.4096 163.554 97.3069 163.777 97.278C165.237 97.0882 167.494 98.8636 168.653 99.7156C170.599 98.4668 172.601 98.3776 174.847 98.3069Z" fill="#FCD404"></path><path d="M208.18 91.3922C209.054 91.6046 209.784 91.8719 210.537 92.3694C210.862 92.5841 211.046 92.7424 211.124 93.1304L210.963 93.347C209.477 94.1115 207.416 93.6359 205.809 94.1608C203.598 94.8827 202.168 96.4703 200.53 97.0515C200.174 97.1777 199.744 97.1858 199.369 97.2125C197.691 96.2448 196.962 94.2315 195.826 92.7099C195.183 91.8754 194.396 91.137 193.789 90.2826C193.57 89.9749 193.368 89.6514 193.442 89.2586C193.507 88.9093 193.751 88.5935 194.045 88.4012C194.353 88.1998 194.715 88.1616 195.07 88.2353C197.181 88.6746 199.224 91.649 200.339 93.357C203.06 91.5936 204.945 91.0205 208.18 91.3922Z" fill="#FCD404"></path><path d="M199.883 106.112C200.286 106.185 200.682 106.269 201.067 106.41C201.68 106.635 202.287 106.945 202.571 107.559C202.589 107.874 202.565 107.975 202.401 108.244C201.623 108.876 199.823 108.924 198.829 109.201C198.008 109.43 197.181 109.728 196.405 110.081C195.059 110.692 193.45 112.356 192.1 112.582C191.912 112.613 191.57 112.637 191.39 112.565C190.444 112.192 189.553 110.375 188.831 109.613C188.189 108.935 187.446 108.416 186.687 107.88C185.728 107.219 183.142 106.523 182.709 105.647C182.733 105.405 182.751 105.296 182.952 105.14C183.526 104.693 184.639 104.639 185.344 104.682C187.992 104.842 190.684 106.572 192.388 108.526C194.402 106.796 197.272 105.979 199.883 106.112Z" fill="#FCD404"></path><path d="M79.4827 99.0152C81.266 99.4739 84.3417 102.29 85.7824 103.541C91.3571 108.381 97.33 113.995 101.147 120.346C101.935 121.657 102.844 123.181 102.911 124.75C102.928 125.159 102.906 125.321 102.631 125.615C101.225 125.293 100.012 124.327 98.9959 123.345C95.8457 120.301 78.8629 102.225 78.9395 99.9489C78.954 99.5158 79.1711 99.2852 79.4827 99.0152Z" fill="#FCD404"></path><path d="M171.049 107.311C171.252 107.362 171.462 107.412 171.657 107.49C172.014 107.631 172.399 107.94 172.542 108.306C172.715 108.75 172.566 109.267 172.375 109.68C171.828 110.865 170.644 111.825 169.639 112.603C166.396 115.114 161.872 117.601 158.277 119.699C154.845 121.703 150.172 124.663 146.555 125.919C146.084 126.012 145.81 126.008 145.39 125.762C145.228 125.56 145.141 125.412 145.117 125.148C145.055 124.467 145.559 123.792 145.979 123.3C149.305 119.404 162.431 110.453 167.181 108.349C168.442 107.791 169.677 107.427 171.049 107.311Z" fill="#FCD404"></path><path d="M135.179 75.5892C135.216 75.6107 135.257 75.6266 135.291 75.6539C135.458 75.7898 135.515 75.9221 135.544 76.1306C135.688 77.1566 134.658 81.4981 134.422 82.8891C133.314 89.4093 130.395 110.11 126.972 114.663C126.587 115.176 126.089 115.696 125.435 115.792C123.94 113.173 124.955 108.102 125.464 105.216C126.288 100.546 127.517 95.9707 128.724 91.3903C129.803 87.2931 131.219 81.0367 133.327 77.4621C133.805 76.651 134.416 76.1246 135.179 75.5892Z" fill="#FCD404"></path><path d="M188.801 140.077C189.966 140.324 191.703 140.861 192.495 141.794C192.791 142.143 193.045 142.688 192.986 143.158C192.942 143.497 192.727 143.779 192.458 143.978C191.464 144.717 189.883 144.821 188.696 144.853C184.856 144.957 180.645 144.298 176.814 143.89C170.978 143.323 165.155 142.656 159.343 141.889C158.12 141.7 156.07 141.668 155.123 140.797C154.915 140.605 154.832 140.437 154.82 140.15C154.883 139.971 154.948 139.859 155.099 139.745C157.429 137.981 180.769 139.212 185.084 139.578C186.336 139.684 187.565 139.857 188.801 140.077Z" fill="#FCD404"></path><path d="M90.2912 82.623C90.6028 82.6964 90.8359 82.7766 91.0653 83.0093C91.886 83.8417 92.5261 85.1074 93.1568 86.1013C94.3633 87.9976 95.5588 89.9009 96.7433 91.8112C100.767 98.347 107.259 109.099 107.593 116.743C107.623 117.431 107.691 118.296 107.503 118.964C107.441 119.185 107.406 119.215 107.221 119.325L106.94 119.222C104.599 117.122 103.345 114.18 101.928 111.439L99.3217 106.507L94.4714 97.0579C92.6276 93.4522 90.4628 89.6093 89.4308 85.681C89.265 85.0499 89.0893 84.1309 89.3197 83.5046C89.4949 83.0278 89.8618 82.8405 90.2912 82.623Z" fill="#FCD404"></path><path d="M111.339 71.7377C111.469 71.7994 111.59 71.8631 111.707 71.9488C112.856 72.7925 113.595 75.5251 114.059 76.8566C114.715 78.7317 115.327 80.6209 115.896 82.5243C116.465 84.4275 116.991 86.3429 117.473 88.2705C117.954 90.198 118.392 92.1356 118.786 94.0833C119.179 96.0311 119.528 97.9869 119.832 99.9508C120.307 103.163 121.298 111.936 119.335 114.588C119.062 114.714 119.083 114.71 118.799 114.61C116.902 111.543 116.518 107.908 115.807 104.431L111.727 84.1172C111.229 81.6598 110.77 79.1951 110.349 76.7231C110.196 75.7906 109.974 74.8009 109.934 73.8602C109.911 73.3238 109.955 72.6869 110.283 72.2367C110.551 71.8686 110.911 71.7843 111.339 71.7377Z" fill="#FCD404"></path><path d="M160.214 87.9993C160.39 88.073 160.584 88.151 160.729 88.2801C160.914 88.4452 161.017 88.7107 161.036 88.954C161.209 91.1 147.406 114.635 145.366 117.82C144.084 119.822 142.657 121.684 141.153 123.521C144.151 126.567 146.236 130.178 147.711 134.178C148.774 133.375 149.988 132.788 151.233 132.329C153.385 131.536 155.658 130.972 157.869 130.367C163.453 128.868 169.072 127.516 174.726 126.309L181.445 124.827C183.545 124.373 185.7 123.86 187.853 123.777C188.865 123.739 190.276 123.765 191.036 124.532C191.297 124.796 191.451 125.129 191.446 125.504C191.439 126.077 191.096 126.614 190.691 126.995C190.085 127.565 189.225 127.882 188.449 128.141C186.67 128.735 184.809 129.105 182.985 129.529C179.572 130.322 176.147 131.033 172.717 131.748C166.249 133.095 159.774 134.575 153.215 135.396C151.601 135.598 149.913 135.911 148.29 135.889C149.095 138.914 149.255 141.74 148.609 144.805C150.075 145.416 151.648 145.876 153.151 146.397L161.485 149.33C170.01 152.377 178.476 155.58 186.883 158.939C189.257 159.898 194.305 161.683 196.062 163.238C196.702 163.805 197.08 164.538 197.098 165.403C197.11 165.978 196.922 166.498 196.496 166.892C195.674 167.653 194.421 167.754 193.36 167.665C189.725 167.36 185.262 165.848 181.765 164.753C174.436 162.458 167.21 159.832 159.955 157.314C138.073 149.718 115.972 142.771 93.2987 137.932C85.7174 136.314 76.7089 134.421 68.98 134.215C72.7285 136.037 76.7718 137.378 80.7362 138.651C87.112 140.699 93.5693 142.451 100.026 144.219L120.938 149.971C137.199 154.426 153.687 159.174 168.86 166.654C171.773 168.09 177.093 170.75 179.08 173.351C179.645 174.09 180.004 174.979 179.851 175.923C179.742 176.591 179.414 177.179 178.857 177.572C177.236 178.714 174.521 178.137 172.732 177.761C168.737 176.921 164.829 175.682 160.944 174.435C156.624 173.044 152.314 171.623 148.012 170.175C135.848 166.117 123.693 162.028 111.283 158.772C106.807 157.562 102.295 156.504 97.7463 155.6C100.29 156.598 102.961 157.338 105.558 158.186C110.905 159.931 116.28 161.665 121.546 163.644C126.315 165.152 148.041 173.365 150.367 176.751C150.83 177.425 151.072 178.218 150.891 179.034C150.767 179.592 150.438 180.061 149.943 180.351C147.962 181.509 143.561 180.171 141.428 179.645C139.35 179.134 127.331 175.799 126.501 174.418L126.597 174.25C128.269 173.593 139.724 176.005 142.147 176.428C135.233 173.425 128.226 170.659 121.126 168.129C114.384 165.738 107.605 163.456 100.79 161.283C96.5439 159.903 92.1906 158.617 88.0572 156.925C86.772 156.399 85.1929 155.801 84.1995 154.812C83.4502 154.067 83.2709 153.216 83.2493 152.201C83.6263 151.469 83.9884 150.816 84.7228 150.379C86.4449 149.357 90.1695 149.86 92.1505 150.097C99.9686 151.032 107.812 153.118 115.379 155.252C130.826 159.608 145.859 165.14 161.079 170.187C165.247 171.569 169.432 172.77 173.655 173.959C170.197 171.649 166.251 169.822 162.45 168.151C158.649 166.508 154.807 164.968 150.923 163.532C147.039 162.095 143.12 160.764 139.164 159.538C133.119 157.637 127.04 155.852 120.927 154.182L106.938 150.307C99.129 148.17 67.4967 140.008 63.6258 135.024C63.1711 134.439 62.882 133.75 62.996 132.996C63.0096 132.907 63.0277 132.819 63.0504 132.732C63.0731 132.645 63.1002 132.559 63.1318 132.475C63.1635 132.391 63.1993 132.308 63.2394 132.228C63.2795 132.147 63.3237 132.069 63.3719 131.993C63.4202 131.917 63.4722 131.844 63.528 131.773C63.5838 131.703 63.6431 131.636 63.7059 131.571C63.7687 131.507 63.8345 131.446 63.9036 131.388C63.9727 131.331 64.0446 131.277 64.1193 131.227C68.5324 128.311 94.0807 133.974 99.7175 135.264C104.024 136.25 108.301 137.497 112.621 138.399C111.876 137.968 110.668 137.77 109.831 137.522C107.37 136.79 104.905 136.073 102.435 135.372L74.79 127.488L66.4198 125.132C64.9638 124.726 63.3655 124.407 61.9667 123.842C61.3384 123.589 60.5392 123.237 60.2624 122.584C60.3113 122.329 60.3492 122.225 60.5709 122.073C61.2288 121.621 62.3684 121.64 63.1327 121.685C65.29 121.809 67.429 122.276 69.5431 122.697C72.5115 123.279 75.4664 123.923 78.4079 124.629C86.7049 126.616 94.9372 128.801 103.207 130.892C103.393 130.286 103.605 129.689 103.841 129.101C104.078 128.513 104.339 127.936 104.624 127.37C104.909 126.804 105.218 126.251 105.55 125.711C105.882 125.171 106.236 124.646 106.612 124.137C109.769 119.777 114.346 117.133 119.622 116.316C126.188 115.298 133.103 117.229 138.431 121.118C139.066 119.449 139.786 117.817 140.592 116.224C143.108 111.286 146.203 106.559 149.178 101.888C151.537 98.1818 154.875 92.6963 157.828 89.6244C158.545 88.878 159.221 88.3234 160.214 87.9993ZM127.781 122.014C123 120.958 118.287 121.218 114.065 123.941C111.041 125.892 108.741 129.047 106.6 131.89C113.523 133.64 120.439 135.739 127.245 137.903C132.648 139.637 138.104 141.245 143.461 143.12C143.495 141.643 143.489 140.207 143.237 138.745C142.535 134.683 140.224 130.464 137.416 127.51C134.858 124.818 131.416 122.812 127.781 122.014Z" fill="#FCD404"></path></g><defs><clipPath id="clip0_1655_1340"><rect width="219.82" height="187.629" fill="white" transform="translate(48.3661) rotate(14.9381)"></rect></clipPath></defs></svg> 