<?xml version="1.0" encoding="UTF-8"?> <svg xmlns="http://www.w3.org/2000/svg" width="32" height="32" viewBox="0 0 32 32" fill="none"><g clip-path="url(#clip0_724_2911)"><path d="M0.686762 15.8086C0.686012 18.4972 1.39383 21.1224 2.73974 23.4363L0.558044 31.3423L8.70998 29.2209C10.9647 30.4391 13.4909 31.0775 16.0581 31.0776H16.0649C24.5396 31.0776 31.4382 24.2332 31.4418 15.8206C31.4435 11.7441 29.8454 7.91076 26.9418 5.02679C24.0388 2.14307 20.1779 0.554107 16.0642 0.552246C7.58851 0.552246 0.690386 7.39628 0.686887 15.8086" fill="url(#paint0_linear_724_2911)"></path><path d="M0.137744 15.8035C0.13687 18.5889 0.870058 21.308 2.26395 23.7048L0.00402832 31.8942L8.44826 29.6967C10.7749 30.9558 13.3945 31.6196 16.0601 31.6206H16.0669C24.8457 31.6206 31.9922 24.53 31.9959 15.8162C31.9974 11.5932 30.3418 7.62208 27.3346 4.63479C24.327 1.64788 20.328 0.00173643 16.0669 0C7.28668 0 0.141243 7.08961 0.137744 15.8035ZM5.16659 23.292L4.8513 22.7953C3.52588 20.7036 2.82631 18.2865 2.82731 15.8045C2.83006 8.56174 8.76905 2.66915 16.0719 2.66915C19.6086 2.67064 22.9322 4.03895 25.4321 6.52155C27.9318 9.0044 29.3073 12.3049 29.3065 15.8152C29.3032 23.058 23.3641 28.9513 16.0669 28.9513H16.0617C13.6857 28.9501 11.3554 28.3168 9.32316 27.12L8.83954 26.8353L3.82856 28.1393L5.16659 23.292Z" fill="url(#paint1_linear_724_2911)"></path><path d="M12.0857 9.19662C11.7876 8.53888 11.4738 8.52561 11.1902 8.51407C10.958 8.50415 10.6926 8.5049 10.4274 8.5049C10.162 8.5049 9.73072 8.604 9.36618 8.99904C9.00128 9.39445 7.97304 10.35 7.97304 12.2934C7.97304 14.2369 9.3993 16.1152 9.59813 16.379C9.7972 16.6423 12.3516 20.7582 16.397 22.3415C19.7592 23.6574 20.4434 23.3957 21.1731 23.3297C21.9029 23.264 23.528 22.3744 23.8595 21.452C24.1913 20.5297 24.1913 19.7391 24.0918 19.5739C23.9923 19.4093 23.7269 19.3105 23.3289 19.113C22.9309 18.9156 20.974 17.9598 20.6092 17.8279C20.2443 17.6962 19.979 17.6305 19.7136 18.026C19.4481 18.4209 18.6859 19.3105 18.4536 19.5739C18.2216 19.838 17.9892 19.8708 17.5913 19.6733C17.1931 19.4751 15.9113 19.0584 14.3905 17.7128C13.2073 16.6658 12.4085 15.3727 12.1763 14.9772C11.9442 14.5823 12.1515 14.3682 12.3511 14.1714C12.5299 13.9944 12.7492 13.7101 12.9484 13.4795C13.1468 13.2488 13.2131 13.0842 13.3458 12.8208C13.4786 12.5571 13.4122 12.3264 13.3128 12.1288C13.2131 11.9313 12.4397 9.97764 12.0857 9.19662Z" fill="white"></path></g><defs><linearGradient id="paint0_linear_724_2911" x1="1544.75" y1="3079.56" x2="1544.75" y2="0.552246" gradientUnits="userSpaceOnUse"><stop stop-color="#1FAF38"></stop><stop offset="1" stop-color="#60D669"></stop></linearGradient><linearGradient id="paint1_linear_724_2911" x1="1599.6" y1="3189.42" x2="1599.6" y2="0" gradientUnits="userSpaceOnUse"><stop stop-color="#F9F9F9"></stop><stop offset="1" stop-color="white"></stop></linearGradient><clipPath id="clip0_724_2911"><rect width="32" height="32" fill="white"></rect></clipPath></defs></svg> 