<?xml version="1.0" encoding="UTF-8"?> <svg xmlns="http://www.w3.org/2000/svg" width="132" height="164" viewBox="0 0 132 164" fill="none"><path d="M86.741 6.33514C86.7578 6.3327 86.7745 6.32972 86.7913 6.32785C86.8193 6.32476 86.8474 6.32298 86.8754 6.32027C87.5664 6.2538 88.3812 6.60317 89.0291 6.83913C91.7042 7.81332 92.3163 7.82638 92.4897 10.8629C92.5116 11.2455 92.4559 11.7428 92.6223 12.0854C92.6635 12.1703 92.7095 12.248 92.7379 12.3387C92.8648 12.7452 92.5926 13.2905 92.4307 13.6604C91.3633 16.1004 89.9199 18.4077 88.7565 20.8092C85.5991 27.3266 82.5062 33.9069 79.11 40.3041C81.6363 38.9671 84.1329 37.6135 86.5746 36.1263C88.2062 35.1326 89.7782 34.0461 91.3995 33.0361C90.7514 31.3923 90.6485 29.6861 91.3162 28.0285C92.2245 25.7739 94.1211 24.3035 96.3066 23.3713C100.612 21.5347 105.587 22.288 109.802 23.9887C116.941 26.869 122.406 31.2468 125.448 38.4326C128.09 44.6754 128.753 51.8589 126.168 58.2172C124.958 61.1919 122.389 64.7211 119.323 65.9841C118.511 66.3184 117.591 66.4491 116.765 66.0829C115.927 65.7119 115.455 64.9745 115.125 64.1585C113.712 66.2596 111.766 68.0138 109.902 69.7045C107.629 71.7844 105.299 73.7987 102.912 75.7473C100.474 77.7497 97.898 79.7129 95.7119 81.9914C94.1814 83.5868 92.9776 85.4309 91.734 87.2478C88.0718 92.5984 85.2919 97.1578 79.8208 100.925C77.3383 102.635 74.5675 104.208 71.6781 105.116C69.8782 105.681 68.0498 106.071 66.2832 106.755C64.0663 107.612 62.0461 108.757 60.0323 110.006C61.7809 110.077 63.4723 110.62 64.7943 111.798C65.8652 112.753 66.5637 114.014 66.6244 115.461C66.6773 116.723 66.2482 117.897 65.3811 118.817C63.9751 120.309 61.6632 121.223 59.6348 121.296C59.5919 121.994 59.4677 122.649 59.1514 123.279C58.4175 124.739 57.0035 125.489 55.5142 125.991C52.4082 127.005 48.6299 126.662 45.4849 126.031C45.4317 126.578 45.354 127.077 45.1334 127.586C44.478 129.095 42.8952 130.085 41.4154 130.66C38.778 131.686 35.8935 131.934 33.2701 130.775C32.7611 131.854 32.274 133.043 31.5602 134.002C30.8936 134.899 30.0299 135.724 29.2971 136.576C26.664 139.639 23.9201 142.574 21.1953 145.553C20.0096 146.849 17.7301 149.794 16.4153 150.647C16.0893 150.859 15.6755 151.016 15.2837 150.921C15.0555 150.865 14.7533 150.645 14.662 150.423C14.4101 149.809 15.1431 147.858 15.3009 147.168C15.5381 146.13 15.6738 145.073 15.9195 144.036C16.4158 141.939 17.095 139.887 17.6522 137.807C18.1302 136.021 18.5064 134.21 18.989 132.424C19.4402 130.756 19.9934 129.107 20.516 127.46L20.3832 127.442C19.0736 127.268 17.9651 126.807 17.1524 125.725C14.9462 122.791 15.8828 118.353 16.3487 114.982C14.8753 113.767 12.9987 110.128 12.3313 108.304C11.6287 106.384 11.4029 104.297 11.0969 102.286C10.7967 100.312 10.4838 98.3365 10.2741 96.3511C10.0536 94.2642 9.94255 92.1557 9.80112 90.0618C9.65058 87.8332 9.44194 85.5104 9.61872 83.2811C9.72923 81.8875 10.0374 80.4453 10.6418 79.1797C11.7821 76.7925 14.2506 75.5017 16.6311 74.6627C16.3383 74.0415 16.0564 73.4153 15.7854 72.7841C14.849 70.5455 14.0921 67.7461 15.0796 65.4096C16.0722 63.0609 18.4169 61.0504 20.5655 59.7384C22.3296 58.6611 24.424 58.3792 26.3479 57.7002C29.3485 56.6122 32.3057 55.4173 35.2196 54.1155C36.7311 53.4476 38.1917 52.6828 39.6015 51.8212C42.6645 49.9583 45.6195 47.7709 48.9714 46.4407C49.9409 46.0559 50.8652 45.8515 51.909 45.7992C53.6858 45.7101 55.4945 46.0675 57.2662 46.1879C58.5978 46.2785 59.9578 46.2075 61.2802 46.3786C61.6697 46.429 62.0015 46.5425 62.3604 46.6981C62.3861 46.6369 62.4124 46.5759 62.4393 46.5151C67.2105 35.8766 73.2267 25.9766 78.8524 15.8046C79.6267 14.4044 80.3686 12.971 81.0789 11.5375C81.5484 10.5901 81.9544 9.3609 82.6343 8.55551C83.4299 7.61309 85.575 6.78083 86.741 6.33514ZM93.6775 34.0182C88.5637 37.0368 83.7092 40.6208 78.0161 42.5303C77.2852 43.7041 76.7031 45.0325 76.0737 46.2658L72.3751 53.528C70.3295 57.5726 68.3081 61.6293 66.311 65.6981C64.9906 68.3687 63.601 71.0385 62.3982 73.7631C63.3166 73.7379 64.0936 73.8403 64.7864 74.5069C65.4915 75.1854 65.7474 76.1729 65.7586 77.1247C65.7602 77.2293 65.7583 77.3338 65.7529 77.4383C65.7475 77.5428 65.7386 77.647 65.7262 77.7509C65.7139 77.8547 65.6981 77.958 65.6789 78.0609C65.6597 78.1637 65.6371 78.2658 65.611 78.3671C65.585 78.4685 65.5556 78.5688 65.5229 78.6682C65.4902 78.7676 65.4542 78.8658 65.4149 78.9628C65.3757 79.0597 65.3333 79.1553 65.2877 79.2495C65.242 79.3437 65.1933 79.4362 65.1416 79.5271C64.3688 80.9087 63.0811 81.9769 62.1408 83.2424C60.1133 85.9714 58.6271 89.2106 56.2256 91.6297C54.706 93.1605 53.0228 94.5247 51.3992 95.9419C49.7334 97.3961 48.1045 98.9026 46.408 100.321C42.3802 103.687 36.2701 107.951 34.4263 112.993C34.0139 114.121 33.8602 115.304 33.861 116.501C33.862 118.173 34.225 120.383 35.4584 121.619C36.3302 122.492 37.6698 122.995 38.8975 122.995C41.3781 122.994 45.7524 120.316 47.4781 118.547C47.497 118.529 47.5156 118.509 47.5342 118.489C53.4771 112.73 57.6038 107.727 65.6417 104.686C67.4823 103.989 69.3629 103.616 71.2373 103.057C73.8622 102.275 76.3462 100.865 78.5606 99.2753C83.7795 95.5292 86.2219 91.7515 89.6402 86.4355C90.9083 84.4634 92.1202 82.4794 93.6966 80.7288C96.1344 78.0216 99.1421 75.8039 101.965 73.5135C105.207 70.8825 108.847 67.7586 111.717 64.762C112.518 63.9253 113.216 63.0251 113.863 62.0655C114.23 61.5218 114.567 60.9156 114.978 60.4077C115.246 53.7953 112.305 47.2406 107.852 42.4353C107.646 42.2167 107.436 42.0012 107.224 41.789C107.011 41.5767 106.795 41.3677 106.576 41.162C106.357 40.9562 106.135 40.7538 105.91 40.5548C105.685 40.3558 105.457 40.1603 105.225 39.9682C104.994 39.776 104.76 39.5874 104.524 39.4024C104.287 39.2174 104.047 39.036 103.805 38.8583C103.562 38.6805 103.318 38.5064 103.07 38.3361C102.822 38.1658 102.572 37.9992 102.319 37.8364C102.067 37.6736 101.812 37.5147 101.554 37.3597C101.297 37.2046 101.037 37.0535 100.775 36.9064C100.513 36.7592 100.248 36.616 99.9819 36.4767C99.7155 36.3376 99.447 36.2025 99.1763 36.0714C98.9058 35.9404 98.6334 35.8134 98.359 35.6906C98.0846 35.5679 97.8084 35.4492 97.5304 35.3348C97.2524 35.2204 96.9727 35.1102 96.6913 35.0042C96.41 34.8982 96.1271 34.7966 95.8426 34.6992C95.2377 34.4866 94.381 34.0741 93.7492 34.0191C93.7254 34.017 93.7014 34.0185 93.6775 34.0182ZM52.1109 47.6797C47.8569 47.9357 42.4414 52.4766 38.5487 54.4996C34.8446 56.4245 30.7756 57.9777 26.808 59.2774C25.1625 59.8164 23.332 60.0595 21.7698 60.8105C20.5349 61.404 19.2951 62.4386 18.3905 63.4641C17.3391 64.656 16.5894 66.1041 16.7066 67.726C16.9251 70.7485 18.6258 73.2818 19.758 75.9989C19.9451 76.4559 20.1193 76.9179 20.2806 77.3846C20.4418 77.8514 20.5899 78.3223 20.7248 78.7973C20.8597 79.2724 20.9813 79.7508 21.0894 80.2327C21.1975 80.7145 21.292 81.199 21.373 81.6861C22.316 87.1172 21.1572 92.5372 20.3898 97.9193C19.77 102.267 19.1385 106.673 18.8019 111.051C20.0467 111.068 21.0335 111.517 21.9044 112.41C23.5801 114.128 24.5048 117.093 24.446 119.455C24.3978 121.39 23.611 123.638 22.2284 125.024C24.5492 124.042 25.9292 122 27.0634 119.848C27.6683 118.734 28.1605 117.552 28.6726 116.393C29.2919 114.99 29.9332 113.591 30.4731 112.156C31.8591 108.471 33.3079 103.234 33.7005 99.3409C33.9952 96.4187 33.8556 93.4784 33.7726 90.5488C33.7326 89.1374 33.7592 87.7305 33.6817 86.3191C33.5732 84.3453 33.5406 82.2809 33.1838 80.335C32.9147 78.8672 32.0196 76.6145 32.0147 75.2676C32.0131 74.8287 32.1782 74.231 32.6578 74.0962C32.9482 74.0147 33.2657 74.1465 33.5113 74.2939C34.8761 75.1139 35.3803 76.2528 37.3261 75.8215C38.5901 75.5412 39.6354 74.502 40.3077 73.442C40.99 72.3661 41.3993 68.8203 42.6313 68.5279C42.8242 68.4821 43.0056 68.5089 43.1636 68.633C43.542 68.9302 43.6751 69.7057 43.6921 70.1674C43.7432 71.547 42.8879 72.9519 42.2036 74.1091C43.2251 74.3105 44.2495 74.5307 45.2957 74.5375C46.2174 74.5435 47.1435 74.4224 48.0636 74.4812C50.1095 70.4511 52.3263 66.5014 54.4344 62.5027C56.862 57.89 59.2019 53.2333 61.4541 48.5328C59.7383 48.4128 58.0117 48.2329 56.3019 48.0408C54.9048 47.8838 53.52 47.691 52.1109 47.6797ZM17.1432 76.2418C15.2664 76.8637 13.2816 77.9723 12.3674 79.8162C11.7153 81.1313 11.536 82.6981 11.4696 84.1496C11.3868 85.9577 11.5381 87.8163 11.6598 89.6223C11.8048 91.7741 11.9275 93.9399 12.1909 96.0808C12.4197 97.9399 12.769 99.7944 13.0666 101.644C13.3565 103.446 13.5397 105.354 14.1491 107.082C14.5208 108.137 15.1383 109.091 15.6995 110.052C16.0635 110.672 16.413 111.3 16.7479 111.936C16.8038 110.289 17.0575 108.61 17.2523 106.973C17.598 104.034 17.9777 101.099 18.3913 98.1686C19.254 92.026 20.0855 86.9584 18.7279 80.7878C18.3904 79.2537 17.9779 77.7386 17.3477 76.2957C17.2774 76.2709 17.2183 76.2429 17.1432 76.2418ZM22.3588 127.319C21.1794 130.379 20.2876 133.453 19.4757 136.625C19.4974 136.631 19.5188 136.638 19.541 136.641C19.9271 136.713 20.3858 136.62 20.7913 136.661C22.6458 136.849 24.1388 137.417 25.3925 138.816C26.016 138.437 27.1691 136.977 27.5541 136.343C28.0966 136.033 29.987 133.574 30.3722 132.952C30.7423 132.354 31.0294 131.727 31.3111 131.085C30.4034 131.256 29.0772 131.626 28.2665 131.032C27.7585 130.662 27.6095 130.016 27.5403 129.427C27.486 128.939 27.4449 128.45 27.417 127.961C26.4125 128.469 25.5694 129.103 24.4584 129.371C23.7005 129.18 23.233 128.98 22.8127 128.281C22.6319 127.982 22.4885 127.644 22.3588 127.319ZM53.5381 115.683C51.904 117.35 50.2797 119.229 48.4578 120.689C50.2165 120.98 51.9392 121.805 53.0049 123.281C53.1813 123.525 53.3261 123.795 53.4558 124.065C53.5153 124.304 53.5096 124.414 53.696 124.582C54.4973 124.702 55.9738 124.018 56.623 123.533C57.2347 123.077 57.696 122.451 57.8015 121.679C57.992 120.284 57.2008 118.776 56.3722 117.712C55.7598 116.926 54.6524 115.789 53.5902 115.685C53.573 115.683 53.5555 115.684 53.5381 115.683ZM18.6357 112.558L18.2339 116.427C17.9783 118.819 17.3803 122.353 19.0421 124.361C19.2546 124.618 19.4995 124.801 19.7695 124.992C20.0967 124.619 20.4441 124.253 20.7484 123.861C21.9364 122.704 22.5197 121.29 22.5309 119.621C22.5442 117.618 21.7075 115.114 20.274 113.676C19.7813 113.182 19.2552 112.871 18.6357 112.558ZM58.3867 111.583C57.4324 111.623 55.3815 113.872 54.6472 114.592C55.7621 114.981 56.5924 115.557 57.4109 116.406C58.9028 115.86 60.5561 115.768 62.0317 116.434C62.7604 116.842 63.2276 117.234 63.5731 118.007C64.2309 117.36 64.6919 116.705 64.7095 115.749C64.7267 114.819 64.2828 113.993 63.6437 113.342C62.3193 111.991 60.5307 111.586 58.7012 111.575C58.5957 111.575 58.4921 111.578 58.3867 111.583ZM61.9336 75.6168C61.7153 75.6554 61.5421 75.6395 61.3955 75.8269C60.878 76.4888 59.733 79.2683 59.3001 80.1785C57.4313 84.1077 55.6193 88.1247 53.5309 91.9407L54.7938 90.7048C57.0154 88.4212 58.4463 85.45 60.306 82.8749C61.3892 81.3751 62.8013 80.0675 63.7385 78.4797C64.0001 78.0363 64.041 77.5779 64.0328 77.0718C64.0263 76.675 63.934 76.2623 63.6471 75.9702C63.3821 75.7002 63.0392 75.5677 62.6643 75.5767C62.4204 75.5847 62.1769 75.5981 61.9336 75.6168ZM41.561 75.4257C41.0764 76.6558 40.3256 78.1117 40.8859 79.4164C41.1876 80.119 41.6075 80.7639 41.9213 81.4607C42.3408 82.3929 42.6496 83.3678 43.1166 84.2795C43.4614 83.4901 43.8306 82.7123 44.2242 81.946C45.1561 80.0443 46.12 78.1589 47.1158 76.2898C45.2383 76.465 43.2563 76.3411 41.561 75.4257ZM39.1972 76.8923C37.5477 77.6276 36.2297 77.7018 34.5191 77.0997C34.7602 78.2729 34.9592 79.4533 35.116 80.6409C35.2727 81.8284 35.387 83.0199 35.4586 84.2155C35.7077 84.3574 36.1735 84.2335 36.4444 84.1596C37.9155 83.7583 38.6528 82.8317 39.8911 82.1263C39.3614 80.8712 38.7369 79.6663 38.8974 78.2593C38.9491 77.8054 39.1816 77.3289 39.1972 76.8923ZM40.5464 84.4056C39.3999 85.5398 37.8364 86.3011 36.1994 86.2906C36.0024 86.2894 35.8096 86.2669 35.6151 86.2356C35.8306 88.3307 35.7367 90.4741 35.6733 92.577L36.2951 92.1696C37.4571 91.3654 38.4911 90.5115 39.4454 89.4673C40.248 88.5889 40.9727 87.6235 41.9072 86.8768C41.3552 86.1002 40.8523 85.3176 40.5464 84.4056ZM43.1185 123.973C40.5418 125.069 38.9191 125.437 36.2263 124.437C36.0583 124.984 35.8558 125.498 35.623 126.02C36.4796 126.362 37.1731 126.815 37.8799 127.405C38.5914 128.08 39.1125 128.698 39.4861 129.609C40.8801 129.087 42.773 128.413 43.4461 126.956C43.8248 126.137 43.6452 125.166 43.326 124.357C43.2696 124.213 43.2092 124.097 43.1185 123.973ZM39.1295 92.6665C37.9987 93.4442 36.8846 93.9892 35.5431 94.3059C35.4637 96.0772 35.3167 97.8429 35.1022 99.603C35.0166 100.323 34.6166 102.046 34.6886 102.679L37.8134 95.6766C38.237 94.719 38.84 93.6653 39.1295 92.6665ZM46.3015 122.358C45.679 122.695 45.0603 123.053 44.4196 123.354C44.6209 123.655 44.8293 123.954 45.0143 124.265C46.7756 124.524 48.5969 124.877 50.3821 124.85C50.9555 124.842 51.5306 124.843 52.1037 124.822C50.9297 123.414 49.4923 122.568 47.6386 122.402C47.1978 122.364 46.7439 122.357 46.3015 122.358ZM35.0722 127.122C34.6464 128.059 34.1725 128.973 33.741 129.906C34.5737 129.902 35.3971 129.916 36.2283 129.967L37.5942 129.952C36.9036 128.833 36.1273 127.921 35.0722 127.122ZM58.3525 117.648C58.7165 118.257 59.0618 118.905 59.2911 119.58C60.1422 119.426 60.9677 119.272 61.7928 119.008C61.9647 118.876 61.9951 118.876 62.051 118.657C61.915 118.361 61.5815 118.218 61.2855 118.105C60.2929 117.727 59.3713 117.774 58.3525 117.648Z" fill="#F26422"></path><path d="M42.7389 108.543C44.1181 108.442 45.6437 108.787 46.8545 109.444C47.9573 110.042 48.988 110.996 49.347 112.232C49.7024 113.456 49.3869 114.701 48.778 115.788C47.237 118.538 43.6984 121.437 40.6784 122.31C40.4027 122.394 40.0967 122.438 39.8096 122.463C39.7225 122.471 39.6352 122.476 39.5477 122.479C39.4602 122.483 39.3728 122.485 39.2853 122.484C39.1978 122.482 39.1103 122.479 39.023 122.474C38.9357 122.469 38.8485 122.461 38.7615 122.451C38.6746 122.442 38.5879 122.43 38.5015 122.416C38.4151 122.402 38.3291 122.386 38.2436 122.368C38.158 122.35 38.0729 122.329 37.9883 122.307C37.9038 122.284 37.8198 122.26 37.7365 122.233C37.6531 122.207 37.5705 122.178 37.4886 122.147C37.4067 122.117 37.3256 122.084 37.2453 122.049C37.1651 122.014 37.0858 121.977 37.0074 121.938C36.9289 121.899 36.8516 121.859 36.7752 121.816C36.6988 121.773 36.6236 121.729 36.5494 121.683C36.4753 121.636 36.4023 121.588 36.3306 121.537C36.2588 121.488 36.1884 121.436 36.1192 121.382C36.05 121.329 35.9823 121.273 35.9159 121.217C34.7989 120.253 34.1857 118.912 34.094 117.45C33.9375 114.951 35.5009 112.884 37.0813 111.112C38.6372 109.368 40.4298 108.678 42.7389 108.543ZM42.6319 110.622C40.6253 110.765 38.9716 111.514 37.6405 113.054C36.6477 114.203 35.8144 115.836 35.9496 117.391C36.0319 118.338 36.4692 119.278 37.208 119.89C37.8896 120.454 38.7863 120.667 39.6582 120.586C40.0416 120.55 40.4066 120.446 40.7701 120.325C43.0034 119.353 46.4016 116.663 47.3111 114.389C47.5321 113.837 47.6034 113.219 47.3688 112.658C47.0239 111.833 46.1266 111.278 45.3208 110.976C44.4882 110.664 43.5175 110.537 42.6319 110.622Z" fill="#F26422"></path></svg> 