<?xml version="1.0" encoding="UTF-8"?> <svg xmlns="http://www.w3.org/2000/svg" width="112" height="70" viewBox="0 0 112 70" fill="none"><path d="M65.3152 65.3256C60.5982 65.4992 58.0424 65.2697 53.4294 64.3385L49.2824 63.4538L47.3133 65.2232C41.9824 69.9248 34.9484 70.7694 25.6674 67.8443C17.6146 65.274 11.0725 60.4889 3.85428 52.0846C1.44715 49.2078 0.591144 47.9041 0.902612 47.368C1.33088 46.6308 3.42903 48.3422 9.82375 54.9239C21.048 66.4613 39.1886 70.7223 45.2119 63.2858C45.983 62.3444 45.8879 62.1995 43.0697 60.3388C39.07 57.6576 37.0963 55.3462 35.8094 51.7756C34.772 48.9326 34.7548 48.6537 35.9228 46.6432C37.0659 44.7527 37.3946 44.4954 39.6899 44.1703C42.8999 43.6594 46.7355 45.0802 49.1924 47.717C50.7716 49.3959 51.1834 50.3072 51.6456 52.9059C51.9361 54.6431 51.9292 56.9693 51.5743 58.1973C51.2054 59.3723 51.1295 60.5829 51.4116 60.7916C52.1802 61.5516 56.377 62.1963 61.5383 62.4152C66.0606 62.5768 67.3743 62.3986 74.5263 60.5022C81.6113 58.567 82.8937 58.0569 86.8478 55.6478C89.2331 54.165 92.8241 51.4554 94.885 49.605C101.644 43.4474 107.289 31.8027 108.292 21.8989C108.478 20.0353 108.037 15.1633 107.244 9.81778C106.562 4.89603 106.064 0.662874 106.18 0.461825C106.803 -0.610434 107.574 1.22623 109.223 7.87549C110.589 13.2394 111.058 16.29 111.102 19.4529C111.119 31.9209 105.382 44.4974 95.9147 52.8469C93.2882 55.1308 89.8422 57.7453 88.2203 58.6855C84.291 60.9746 69.6473 65.1975 65.3152 65.3256ZM48.8685 56.7604C49.3956 53.6159 48.9289 51.642 47.1844 49.5533C44.7243 46.6906 39.4194 45.7161 38.1346 47.9276C37.4337 49.1339 38.4743 52.2029 40.2469 54.3975C41.9245 56.4472 46.8095 59.6874 47.8161 59.4205C48.1869 59.3222 48.6617 58.1191 48.8685 56.7604Z" fill="#01B06F"></path></svg> 