<?xml version="1.0" encoding="UTF-8"?> <svg xmlns="http://www.w3.org/2000/svg" width="192" height="203" viewBox="0 0 192 203" fill="none"><g clip-path="url(#clip0_1655_903)"><path d="M87.7964 17.38C85.4117 17.4118 82.9744 19.0138 80.9878 20.2197C76.9444 22.6744 73.0954 25.5191 69.3613 28.4158C67.7747 29.6464 66.0192 30.8794 64.6893 32.3865C64.0222 33.1423 63.4917 34.038 63.2691 35.0272C62.9925 36.2567 63.3374 37.4815 63.8423 38.6018C64.7083 40.5234 65.8983 42.2918 67.0206 44.0708C68.5715 46.4976 70.0945 48.9418 71.5895 51.4033C76.378 59.4091 80.891 67.5619 85.8308 75.4815L79.4726 70.9455C72.9271 66.2621 66.275 61.7342 59.5162 57.3617C56.6985 55.5618 53.8846 53.8608 50.9219 52.3052C49.6679 51.6468 48.4124 50.9567 47.0726 50.4857C45.7787 50.0309 44.5121 49.7935 43.1473 50.0353C41.5869 50.3116 40.2673 51.2439 39.1636 52.3398C36.563 54.9223 34.9175 58.2338 32.8438 61.2052C30.6627 64.3292 28.234 67.2858 26.0629 70.422C24.6631 72.445 22.8594 74.9358 23.3628 77.5288C23.8157 79.8551 25.9106 81.7786 27.7074 83.156C31.3842 85.9748 35.5719 88.2879 39.5359 90.6849C45.3994 94.1637 51.1871 97.7634 56.899 101.484C64.4969 106.528 71.9966 111.712 79.3982 117.038L89.0741 123.735C91.7821 125.624 94.4451 127.559 97.1873 129.402C94.6579 129.54 92.1304 129.887 89.6102 130.14C77.6058 131.344 65.7419 133.448 53.8183 135.235C48.7851 136.002 43.7428 136.705 38.6916 137.342C34.0217 137.944 29.277 138.49 24.6673 139.458C21.4654 140.129 17.8268 140.861 15.0523 142.657C14.2051 143.279 13.5706 144.187 13.2142 145.167C12.6839 146.62 12.6015 148.247 12.5906 149.779C12.5691 152.677 13.1542 155.436 13.3429 158.306C13.4669 160.212 13.2094 162.079 13.2617 163.978C13.3137 165.908 13.7556 167.776 13.9748 169.685C14.2362 171.953 13.7563 174.29 14.7775 176.431C15.3391 177.609 16.1962 178.459 17.4442 178.894C19.5741 179.634 22.3213 179.826 24.5659 179.69C26.8161 179.553 29.0736 179.172 31.3143 178.915C33.3751 178.679 35.459 178.537 37.5114 178.257C43.3042 177.469 49.0779 176.484 54.887 175.811C62.5772 174.922 70.3066 174.349 78.0003 173.486C101.258 170.78 124.491 167.884 147.702 164.8C151.072 164.335 154.485 164.042 157.865 163.617C160.556 163.279 163.52 163.111 165.992 161.925C167.252 161.321 168.221 160.468 168.675 159.108C168.954 158.271 169.031 157.348 169.01 156.469C168.989 155.591 168.815 154.716 168.733 153.842C168.628 152.718 168.587 151.591 168.461 150.47C168.198 148.144 167.806 145.829 167.486 143.51C166.628 137.495 165.664 131.497 164.597 125.516C163.678 120.025 162.703 114.544 161.673 109.073L156.541 83.6214L149.196 46.9146C147.97 41.034 146.8 35.0702 145.106 29.3044C144.637 27.7084 144.22 26.0348 143.465 24.5439C142.805 23.24 141.977 22.3439 140.548 21.8843C138.13 21.1062 135.668 21.5035 133.224 21.8719C132.132 22.0364 131.054 22.1147 130.058 22.6227C128.99 21.0456 127.9 19.921 126.045 19.3149C123.512 18.4872 119.819 18.9126 117.456 20.0915C116.468 18.6111 115.472 17.1279 113.62 16.7059C111.969 16.3298 110.277 16.812 108.684 17.2424C104.972 18.2461 102.87 19.2061 99.4686 20.9837C98.0257 21.7377 96.6037 22.4708 95.2269 23.3421C94.5034 22.4479 93.7926 21.5407 93.0462 20.6654C91.5764 18.9416 90.149 17.5725 87.7964 17.38ZM84.5654 133.755C99.6039 132.003 114.705 130.904 129.781 129.53L143.947 128.267C147.732 127.904 154.839 126.785 158.389 127.504C159.434 129.05 161.195 131.842 162.669 132.899C163.451 137.219 164.154 141.552 164.78 145.897C165.168 148.466 165.685 151.056 165.867 153.648C165.95 154.831 166.03 158.288 165.401 159.198C164.94 159.867 161.894 160.369 161.055 160.488C149.248 162.04 137.428 163.486 125.595 164.824C118.963 165.455 112.341 166.172 105.729 166.973C102.921 167.287 100.107 167.543 97.3071 167.925C89.3103 168.982 81.2984 169.909 73.2717 170.708C66.4758 171.37 59.6535 171.899 52.8672 172.646C46.0593 173.395 39.2831 174.399 32.482 175.195C30.0229 175.482 27.606 175.891 25.1274 176.022C23.6343 176.102 21.7494 176.352 20.5142 175.4C19.8197 174.864 19.2393 174.199 18.5214 173.692C18.5008 171.987 18.5013 170.272 18.2896 168.579C18.111 167.15 17.7535 165.738 17.6366 164.304C17.4863 162.47 17.673 160.625 17.5137 158.787C17.2965 156.275 15.3702 147.553 17.131 145.823C18.5818 144.396 24.4761 143.132 26.5714 142.687C34.6286 140.976 42.8833 140.137 51.0225 138.902C62.2019 137.206 73.3522 135.206 84.5654 133.755ZM44.35 54.0101C50.2161 54.6614 74.2667 72.128 80.0559 76.2073C83.4898 78.627 86.9964 80.9442 90.3915 83.4193C91.785 84.4352 93.039 85.6424 94.433 86.6574C95.5415 87.4648 96.8449 87.9358 97.9529 88.727C104.108 93.1227 110.126 97.693 116.365 101.979C124.1 107.217 131.915 112.333 139.81 117.326C143.613 119.714 147.368 122.141 151.253 124.398C148.176 124.586 145.109 124.892 142.036 125.147C138.817 125.389 135.599 125.653 132.384 125.939L102.154 128.863C100.276 127.266 98.1611 125.927 96.1418 124.516L85.7868 117.299C77.089 111.252 68.5368 105.032 59.7185 99.1559C55.8214 96.5588 51.8627 93.9972 47.9034 91.496C43.9501 88.9987 30.051 80.9064 28.0544 77.8187C27.8751 77.5412 27.671 77.1906 27.6566 76.8516C27.6294 76.231 27.9633 75.5782 28.2662 75.0498C30.4006 71.3297 33.2285 67.9696 35.6466 64.4287C37.6787 61.4531 39.2967 57.9208 41.8604 55.3485C42.5654 54.641 43.3113 54.051 44.35 54.0101ZM87.8957 20.648C90.0326 21.452 93.6638 26.3864 95.029 28.2942C97.5708 31.8464 99.8332 35.5675 102.13 39.2781C104.771 43.5573 107.441 47.8186 110.14 52.062L128.832 81.412L143.333 104.666C147.397 111.07 151.567 117.405 155.841 123.672L135.948 110.838C132.714 108.715 129.535 106.483 126.271 104.408C124.186 103.016 122.105 101.61 120.046 100.179C118.692 99.2382 117.36 98.2394 115.965 97.3602C119.292 96.4314 126.184 92.6906 127.921 89.6614C128.535 88.5915 128.61 87.3928 128.285 86.2223C127.548 83.5657 120.249 71.0422 118.022 69.7343C117.388 69.3621 116.729 69.5274 116.061 69.7196C113.597 70.4284 109.548 73.1951 107.226 74.5486C104.809 75.9579 102.19 77.2594 99.9278 78.8974C99.2121 79.4156 98.4548 80.0415 98.0296 80.8301C97.6158 81.5977 97.6138 82.3836 97.8724 83.2018C98.0188 83.6652 98.2818 84.1245 98.5186 84.5466C97.297 83.5623 93.7448 81.2677 93.006 80.3369C92.3444 79.5036 91.7978 78.5228 91.2308 77.6218C90.1507 75.9068 89.0841 74.1835 88.0311 72.4517C84.4963 66.6574 81.0435 60.8148 77.6727 54.9242C76.05 52.0933 74.3763 49.2927 72.6517 46.5224C71.1638 44.1208 69.6229 41.7412 68.2509 39.2708C67.7962 38.4523 66.9713 37.1032 66.9183 36.1697C66.8818 35.5266 67.7253 34.6908 68.1575 34.2668C71.3611 31.1238 83.8251 20.862 87.8957 20.648ZM117.026 71.6496C117.709 72.2264 124.709 84.1072 125.441 85.5707C125.742 86.1717 126.037 86.8288 126.089 87.5071C126.148 88.2757 125.697 88.9724 125.2 89.5192C123.451 91.4439 120.874 93.0136 118.58 94.2102C117.32 94.8672 115.726 95.4222 114.727 96.4544C113.75 95.711 112.783 94.9789 111.767 94.2898C110.135 93.0373 108.488 91.8038 106.827 90.5893C105.955 89.9483 104.456 89.0314 103.801 88.2794C103.277 87.678 102.984 86.7707 102.587 86.0715C101.882 84.8286 101.015 83.6915 100.452 82.3716C102.919 79.9361 113.873 72.757 117.026 71.6496ZM112.731 19.5798C113.495 19.8997 113.939 20.4156 114.424 21.0601C116.724 24.1192 118.903 29.0068 120.585 32.5474C125.349 42.5816 129.607 52.8819 133.807 63.1606C141.306 81.7164 148.709 100.309 156.018 118.94C154.301 116.431 152.72 113.821 151.075 111.264C147.401 105.615 143.806 99.9172 140.289 94.1701C141.092 94.0639 141.779 93.842 142.293 93.1632C142.679 92.6544 142.847 92.0542 142.957 91.4367C142.963 90.9291 142.91 90.4801 142.773 89.9917C142.246 88.1152 141.372 86.2705 140.646 84.4584C139.524 81.6559 138.478 78.7394 137.07 76.0675C136.651 75.274 136.154 74.453 135.505 73.8236C134.93 73.2669 133.971 73.1061 133.199 73.1345C131.555 73.195 129.509 73.9197 128.197 74.9101C127.778 74.2347 127.369 73.5491 126.927 72.8887C128.664 72.373 132.318 70.8128 133.176 69.1927C133.801 68.0108 133.111 66.0704 132.714 64.9052C131.756 62.098 126.723 50.6014 124.232 49.4217C122.76 48.7247 118.483 50.4593 116.965 51.064C115.9 51.4882 114.835 51.9569 113.871 52.5803C113.421 51.8528 112.955 51.1304 112.525 50.3913C114.195 50.0923 119.684 48.145 121.116 47.3382C121.713 47.0021 122.319 46.555 122.699 45.9787C123.267 45.1175 123.19 44.0447 122.956 43.0887C122.285 40.3558 120.715 37.3334 119.556 34.7363C118.147 31.5823 116.832 28.242 115.051 25.2757C114.619 24.5577 114.026 23.6101 113.29 23.1675C111.658 22.1851 108.639 23.0524 106.882 23.5508C104.402 24.2543 100.029 25.8337 98.2786 27.6594L97.417 26.337C97.9199 25.9999 98.3621 25.5899 98.8668 25.2603C102.118 23.1367 105.515 21.4112 109.243 20.3019C110.37 19.9664 111.548 19.6159 112.731 19.5798ZM122.624 22.2411C124.142 22.1848 125.429 22.2709 126.601 23.3742C133.432 29.8077 149.229 83.5994 152.881 95.929C155.902 106.125 159.038 116.345 161.602 126.666C161.302 126.372 160.93 126.06 160.717 125.697C160.048 124.559 159.735 123.085 159.333 121.828C158.852 120.336 158.36 118.848 157.857 117.364C154.78 108.642 151.637 99.8789 148.062 91.3464C148.545 91.197 149.032 91.0139 149.268 90.5312C149.473 90.112 149.344 89.5704 149.245 89.1354C148.867 87.4732 148.165 85.8314 147.633 84.2082C146.951 82.1244 146.381 79.9632 145.603 77.9168C145.144 76.7094 144.499 75.1626 143.242 74.6113C142.664 74.3583 142.057 74.3273 141.448 74.4735L140.949 73.2226C141.629 72.9858 142.059 72.6108 142.366 71.9539C142.66 71.326 142.786 70.5558 142.688 69.869C142.392 67.8091 141.041 64.4967 140.364 62.4496C139.333 59.3335 138.461 56.1365 137.259 53.0811C136.732 51.7393 136.048 49.9816 134.613 49.4018C133.657 49.0161 132.652 49.1928 131.738 49.6C131.629 49.6486 131.527 49.7025 131.423 49.76L131.004 48.7419C132.091 48.5082 133.024 48.1895 133.679 47.2163C134.412 46.1276 134.381 44.9616 134.112 43.7331C133.376 40.3773 127.285 24.8443 124.666 23.2983C123.527 22.6255 121.898 22.8164 120.68 23.173C120.278 23.2909 119.899 23.4599 119.519 23.6342L119.055 22.7408C120.236 22.5638 121.433 22.3051 122.624 22.2411ZM131.764 25.3564L131.895 25.3709C134.227 25.6216 138.878 23.5872 140.609 25.7956C142.508 28.2195 145.543 44.524 146.398 48.6404C147.542 54.1455 148.824 59.6257 149.906 65.1431C151.357 72.5424 152.587 79.982 154.027 87.3838C154.642 90.5377 155.278 93.6873 155.936 96.8325C156.132 97.7843 156.658 99.5845 156.666 100.475C156.034 98.7138 155.534 96.8582 155.109 95.0359C153.02 88.3749 151.429 81.5317 149.143 74.9308C149.748 74.5554 150.235 74.152 150.418 73.429C150.564 72.8562 150.471 72.2637 150.381 71.6897C150.016 69.3594 146.708 54.936 145.749 53.4432C145.459 52.9914 144.844 52.7002 144.329 52.6089C143.6 52.4795 142.838 52.6408 142.126 52.8046L141.85 52.0128C143.041 51.8721 144.374 51.6777 145.181 50.6792C145.896 49.7952 145.806 48.5036 145.662 47.4427C145.155 43.7263 141.583 28.2085 139.196 26.4262C137.826 25.4042 135.635 25.5598 134.051 25.8278C133.398 25.9384 132.771 26.115 132.14 26.3136L131.718 25.4129L131.764 25.3564Z" fill="#FF9AD4"></path><path d="M87.5286 23.7218C87.1679 23.7415 86.85 23.7841 86.515 23.9267C85.4745 24.3699 84.4954 25.1102 83.5137 25.6767C79.9813 27.7154 76.1477 29.695 73.0173 32.3234C71.9531 33.217 70.8639 34.3806 70.7789 35.8397C70.7698 35.9982 70.7697 36.1567 70.7787 36.3152C70.7878 36.4737 70.8059 36.6311 70.833 36.7876C70.8601 36.9439 70.8961 37.0983 70.9408 37.2506C70.9857 37.4029 71.039 37.5521 71.1009 37.6984C71.8488 39.4698 73.0268 41.122 73.9759 42.7941C75.4397 45.3732 77.3363 49.4977 79.2556 51.6507C80.0078 52.4945 80.8835 52.9003 82.0064 52.9707C82.6863 52.8898 83.2851 52.6458 83.9008 52.3584C87.403 50.7233 97.4822 45.7246 98.7446 41.9916C99.3588 40.1751 97.9146 37.716 97.1018 36.1436C95.7136 33.4586 91.7265 26.6833 89.5666 24.8368C89.0237 24.3726 88.2102 23.9385 87.5286 23.7218ZM88.1432 26.4121C89.4376 28.901 97.3198 39.3988 96.6708 41.285C95.7589 43.936 85.6712 49.3759 83.0741 50.5248C82.7525 50.6676 82.4219 50.7852 82.0822 50.8775C81.4107 50.7826 81.0333 50.3143 80.6463 49.7995C78.9222 47.5058 77.7015 44.6294 76.4193 42.0799C75.631 40.5128 74.7011 38.9353 74.0547 37.3077C73.8895 36.8918 73.6885 36.3768 73.7435 35.9253C73.8777 34.82 75.4529 33.8455 76.2942 33.2467C78.6575 31.5645 81.2379 30.1413 83.8015 28.7902C85.0314 28.1419 87.1308 27.239 88.1432 26.4121Z" fill="#FF9AD4"></path><path d="M102.589 46.0052C102.13 46.0368 101.744 46.1159 101.317 46.2914C99.5871 47.0025 97.9344 48.0629 96.2708 48.9256C93.1603 50.5385 87.876 52.7271 85.4406 55.028C84.7892 55.6434 84.1564 56.4776 84.1568 57.4091C84.1569 57.8235 84.2664 58.1933 84.457 58.5591C85.209 60.0027 86.2939 61.3077 87.104 62.7358C87.9719 64.279 88.8172 65.8345 89.6399 67.4021C90.5987 69.2661 92.9449 74.4797 94.2879 75.7488C94.8566 76.2864 95.3804 76.384 96.1437 76.3472C98.0466 75.9075 99.822 74.5054 101.533 73.5903C103.673 72.446 105.874 71.4164 107.986 70.2211C110.066 69.0446 113.779 66.8869 114.356 64.4324C114.796 62.5578 112.505 59.0117 111.53 57.4135C110.288 55.3757 108.881 53.433 107.516 51.4753C106.417 49.8991 105.344 48.0701 103.939 46.7545C103.522 46.364 103.15 46.1411 102.589 46.0052ZM102.767 48.309C103.983 50.8379 112.763 62.2521 112.056 64.025C111.138 66.3266 102.842 70.4984 100.554 71.7907C99.1714 72.5721 97.808 73.5023 96.3773 74.1839C96.0727 74.2565 95.9846 74.3245 95.6942 74.1898C94.262 72.1655 92.9215 68.9138 91.7608 66.624C90.2295 63.604 88.5369 60.6739 86.905 57.7085C88.7825 55.3718 94.6664 52.6597 97.5095 51.1519L102.767 48.309Z" fill="#FF9AD4"></path><path d="M91.2276 89.8731C90.9357 89.9145 90.6149 90.0005 90.3492 90.1282C88.635 90.9527 80.887 102.964 79.7275 104.962C79.3046 105.691 78.9141 106.449 78.6654 107.256C78.3851 108.166 78.3161 108.885 78.804 109.75C79.1698 110.397 79.7481 110.932 80.3424 111.373C81.6704 112.358 83.21 113.107 84.6213 113.969C87.2865 115.597 93.6448 119.868 96.2664 120.603C97.2624 120.687 98.0873 120.511 98.9076 119.906C99.9289 119.153 100.795 118.057 101.563 117.053C103.205 114.91 108.915 106.269 109.206 103.964C109.322 103.045 109.15 102.224 108.581 101.491C107.339 99.8914 95.9672 92.1102 93.8713 90.9206C93.04 90.449 92.1894 89.9877 91.2276 89.8731ZM92.0048 92.3872C95.3456 94.8681 98.8653 97.1148 102.301 99.4621C103.553 100.317 105.005 101.098 106.147 102.087C106.481 102.376 106.746 102.728 106.812 103.174C106.876 103.605 106.758 104.039 106.598 104.436C105.884 106.202 104.638 107.902 103.597 109.495C102.188 111.652 100.794 113.865 99.1732 115.872C98.7254 116.427 97.5416 118.059 96.8616 118.148C96.6258 118.178 96.2171 117.995 96.0146 117.882C94.0627 116.804 81.4189 110.065 81.1061 108.809C81.0329 108.515 81.7063 107.436 81.8649 107.175C83.1266 105.098 84.6098 103.106 85.9515 101.074C87.861 98.1825 89.7146 95.0869 91.9587 92.4378C91.9735 92.4204 91.9894 92.4041 92.0048 92.3872Z" fill="#FF9AD4"></path><path d="M46.4976 57.9911C46.2436 58.05 45.9664 58.1035 45.7376 58.2332C44.5596 58.9012 34.9865 72.2741 33.8143 74.1713C33.2793 75.0371 32.7253 75.9768 32.4888 76.976C32.325 77.6647 32.4194 78.2343 32.8064 78.8352C33.0826 79.2637 33.5111 79.5754 33.9324 79.8531C35.5131 80.8958 37.2947 81.6694 38.9097 82.6785C41.7793 84.4717 44.5266 86.5014 47.5027 88.1186C48.3291 88.5676 49.1605 88.904 50.0759 89.1229C50.5362 89.1635 51.0493 89.1585 51.4791 88.9696C51.9601 88.7583 52.3972 88.4341 52.7564 88.0554C54.5871 86.1253 56.0736 83.8032 57.6452 81.6611C59.3787 79.2981 62.9529 74.9619 63.8688 72.4349C64.1609 71.6295 64.3079 70.6759 63.9126 69.8813C63.6628 69.3791 63.2472 68.9809 62.8112 68.6372C61.7113 67.7701 60.3842 67.1682 59.2275 66.3731C56.3336 64.3837 49.4794 58.9588 46.4976 57.9911ZM47.1922 60.2194C48.8119 61.4829 50.629 62.5426 52.3356 63.6885C54.2502 64.9741 56.0952 66.3537 57.9952 67.6583C59.0665 68.3937 60.2496 69.0537 61.2499 69.8815C61.5549 70.1338 61.8887 70.4245 62.041 70.7976C61.77 72.232 60.6981 73.7046 59.9061 74.9218C58.8957 76.475 51.5592 86.345 50.5925 86.9575C50.4522 87.0464 50.4787 87.0287 50.3347 87.089C46.6237 86.2826 42.2885 82.3099 39.2526 80.0721C38.0675 79.1987 36.7151 78.4376 35.6005 77.4878C37.0785 74.4323 39.3184 71.6513 41.1963 68.8268C42.715 66.5424 44.2368 64.2827 45.8423 62.0565C46.2527 61.4875 46.6892 60.6844 47.1922 60.2194Z" fill="#FF9AD4"></path><path d="M68.7611 73.1651C68.608 73.1753 68.453 73.1868 68.3023 73.2169C67.7923 73.3188 67.3633 73.6614 67.0195 74.0348C66.0259 75.1138 65.1842 76.3976 64.3239 77.585C62.3031 80.374 60.3898 83.2187 58.4495 86.0623C57.1914 87.9065 55.711 89.6551 54.5609 91.5621C54.2275 92.1147 54.0858 92.8428 54.29 93.4718C54.4634 94.0059 55.2705 94.629 55.7137 94.9556C57.649 96.3818 59.8953 97.5377 61.9435 98.8124C65.7596 101.188 69.4282 103.808 73.5795 105.594L73.6682 105.622C74.8122 105.971 75.7922 105.917 76.8324 105.319C77.6038 104.876 78.3421 103.945 78.8808 103.25C80.3447 101.364 81.5744 99.2569 82.8718 97.2547C84.165 95.2589 87.0613 91.3579 87.6588 89.1633C87.9406 88.1281 87.8934 86.9373 87.33 86.0022C87.0346 85.5122 86.5692 85.0755 86.1192 84.7238C85.3029 84.0857 84.389 83.5428 83.5284 82.9634L78.615 79.6323C76.1053 77.9173 73.6825 76.0105 71.1204 74.3826C70.3847 73.915 69.6165 73.3718 68.7611 73.1651ZM69.0356 75.8168C70.8874 77.2252 72.8748 78.4937 74.8049 79.7925C76.6904 81.0613 78.5372 82.3723 80.4013 83.6701C81.7234 84.5906 83.1919 85.4723 84.4105 86.5219C84.7503 86.8147 85.2558 87.2783 85.3399 87.7327C85.4532 88.3453 85.0588 89.2889 84.8044 89.8498C83.7634 92.1449 82.2563 94.2922 80.9037 96.4149C79.5955 98.468 78.3023 100.733 76.6988 102.567C76.221 103.113 75.7495 103.551 75.109 103.904C74.6727 103.791 74.2431 103.684 73.823 103.518C71.7408 102.574 69.7302 101.573 67.8245 100.306C66.1108 99.1663 64.5019 97.8705 62.7956 96.7182C60.9188 95.4508 58.8301 94.2766 57.1336 92.7701C58.0552 91.4712 58.9923 90.1783 59.8754 88.853C62.2548 85.2823 64.5542 81.7206 67.0948 78.2565C67.6355 77.5194 68.3117 76.3716 69.0356 75.8168Z" fill="#FF9AD4"></path><path d="M92.6933 136.803C90.3786 137.047 79.9962 138.223 78.7609 139.441C78.4404 139.757 78.3943 140.66 78.3797 141.102C78.3206 142.884 78.6839 144.724 78.7936 146.509C79.0089 150.008 79.1625 161.907 81.1964 163.943C81.6382 164.386 82.1621 164.569 82.7737 164.652C84.101 164.83 85.6456 164.523 86.984 164.406C88.3705 164.294 89.759 164.219 91.1495 164.182C94.0936 164.094 103.013 164.243 104.875 162.182C105.433 161.564 105.53 160.934 105.489 160.137C105.378 157.96 104.79 155.813 104.564 153.646C104.32 151.206 104.106 148.764 103.92 146.319C103.761 144.302 103.658 142.168 103.167 140.2C102.923 139.217 102.467 138.046 101.678 137.371C99.8606 135.817 95.0163 136.614 92.6933 136.803ZM81.5522 140.823C85.911 140.772 90.2797 139.889 94.6051 139.395C95.7958 139.259 97.017 139.072 98.2148 139.042C98.7892 139.028 99.6661 139.003 100.129 139.366C100.664 140.2 100.875 141.212 101.07 142.17C101.451 144.034 103.554 159.457 103.347 160.332C103.306 160.505 103.279 160.521 103.119 160.595C102.815 160.737 102.444 160.773 102.115 160.827C97.8677 160.954 93.591 161.011 89.3497 161.273C87.2995 161.4 85.2529 161.64 83.2072 161.828C81.4994 156.306 81.6857 150.459 81.333 144.765C81.2832 143.962 80.9148 141.551 81.0905 140.905C81.2872 140.79 81.3323 140.819 81.5522 140.823Z" fill="#FF9AD4"></path><path d="M36.1342 144.031C33.92 144.261 23.9163 145.194 22.8854 146.538C22.6033 146.906 22.5184 147.57 22.4812 148.016C22.3404 149.73 22.519 151.587 22.5702 153.308C22.6836 157.098 22.7691 160.924 23.2292 164.69C23.4656 166.635 23.8436 169.266 25.5396 170.517C27.2277 171.762 30.4411 170.766 32.3202 170.448C33.4631 170.255 34.6108 170.092 35.7631 169.959C37.2893 169.753 38.8197 169.588 40.3544 169.464C42.9221 169.252 45.9047 169.188 48.3478 168.325C49.0007 168.093 49.5639 167.792 50.0097 167.244C50.3603 166.813 50.5021 166.312 50.5349 165.764C50.609 164.541 50.2347 163.245 50.1334 162.023C49.9684 160.035 49.9583 158.038 49.7689 156.052C49.4713 152.928 48.868 146.29 46.2741 144.256C44.1333 142.577 38.7637 143.725 36.1342 144.031ZM24.8688 147.689C29.2131 147.559 33.5773 146.823 37.8913 146.317C39.625 146.114 41.5288 145.767 43.2691 145.841C43.7599 145.861 44.2272 145.953 44.6012 146.293C46.2785 147.817 48.2972 162.422 48.3189 164.919C48.3215 165.202 48.3136 165.466 48.2346 165.74C48.0624 165.867 47.9175 165.953 47.7162 166.029C45.2918 166.772 42.5056 166.732 39.9864 166.991L34.7718 167.515C32.6674 167.742 29.6612 168.225 27.6083 167.928C27.5938 167.925 27.5796 167.924 27.5665 167.922C25.7281 164.63 25.5059 157.301 25.1922 153.416C25.0424 151.552 24.7771 149.636 24.8205 147.766L24.8688 147.689Z" fill="#FF9AD4"></path><path d="M67.8657 139.932C65.6773 140.112 51.6941 141.73 50.8499 142.631C50.3196 143.197 50.2351 144.021 50.2598 144.759C50.3233 146.646 50.7411 148.575 50.9068 150.466C51.2625 154.522 51.3084 164.372 54.395 167.205C56.0855 168.757 58.4095 168.624 60.546 168.538C64.0261 168.286 74.791 167.445 77.0278 164.949C77.5146 164.407 77.718 163.677 77.7908 162.969C77.9805 161.117 77.5886 159.159 77.4886 157.302C77.3635 154.985 77.4208 152.665 77.2585 150.346C77.057 147.47 76.34 142.429 74.0117 140.52C72.43 139.223 69.7516 139.777 67.8657 139.932ZM53.6113 143.688C56.8094 143.479 59.9996 143.186 63.182 142.807C65.6139 142.529 68.0998 142.14 70.5469 142.078C71.0199 142.065 71.8814 142.022 72.2471 142.335C74.2601 144.055 74.7082 153.197 74.9873 155.948C75.1781 157.829 75.5178 159.749 75.5866 161.632C75.6098 162.268 75.6492 163.145 75.2114 163.649C74.4746 164.017 73.753 164.263 72.9499 164.447C70.0765 165.109 60.6745 166.223 57.9269 165.382C57.1418 165.143 56.7152 164.72 56.3533 163.996C54.6736 160.642 54.4954 151.785 54.1221 147.626C54.004 146.307 53.7229 145.004 53.6113 143.688Z" fill="#FF9AD4"></path></g><defs><clipPath id="clip0_1655_903"><rect width="198" height="179" fill="white" transform="matrix(-0.992165 0.124933 0.124933 0.992165 169.043 0.332764)"></rect></clipPath></defs></svg> 