<?xml version="1.0" encoding="UTF-8"?> <svg xmlns="http://www.w3.org/2000/svg" width="112" height="70" viewBox="0 0 112 70" fill="none"><path d="M65.3152 4.37724C60.5982 4.20372 58.0424 4.43316 53.4294 5.36438L49.2824 6.24907L47.3133 4.47973C41.9824 -0.221932 34.9484 -1.06649 25.6674 1.85856C17.6146 4.42891 11.0725 9.21402 3.85428 17.6183C1.44715 20.495 0.591144 21.7988 0.902612 22.3349C1.33088 23.0721 3.42903 21.3607 9.82375 14.779C21.048 3.24163 39.1886 -1.01939 45.2119 6.41707C45.983 7.35851 45.8879 7.50337 43.0697 9.36404C39.07 12.0453 37.0963 14.3566 35.8094 17.9272C34.772 20.7703 34.7548 21.0492 35.9228 23.0597C37.0659 24.9502 37.3946 25.2074 39.6899 25.5326C42.8999 26.0435 46.7355 24.6227 49.1924 21.9859C50.7716 20.307 51.1834 19.3957 51.6456 16.797C51.9361 15.0598 51.9292 12.7336 51.5743 11.5056C51.2054 10.3306 51.1295 9.11994 51.4116 8.91128C52.1802 8.15127 56.377 7.50656 61.5383 7.28764C66.0606 7.12608 67.3743 7.3043 74.5263 9.20063C81.6113 11.1359 82.8937 11.646 86.8478 14.055C89.2331 15.5379 92.8241 18.2475 94.885 20.0979C101.644 26.2555 107.289 37.9002 108.292 47.804C108.478 49.6676 108.037 54.5396 107.244 59.8851C106.562 64.8069 106.064 69.04 106.18 69.2411C106.803 70.3133 107.574 68.4767 109.223 61.8274C110.589 56.4634 111.058 53.4129 111.102 50.2499C111.119 37.782 105.382 25.2054 95.9147 16.8559C93.2882 14.5721 89.8422 11.9576 88.2203 11.0173C84.291 8.72827 69.6473 4.5054 65.3152 4.37724ZM48.8685 12.9425C49.3956 16.087 48.9289 18.0609 47.1844 20.1496C44.7243 23.0123 39.4194 23.9868 38.1346 21.7753C37.4337 20.569 38.4743 17.5 40.2469 15.3054C41.9245 13.2557 46.8095 10.0155 47.8161 10.2824C48.1869 10.3807 48.6617 11.5838 48.8685 12.9425Z" fill="#01B06F"></path></svg> 