<?xml version="1.0" encoding="UTF-8"?> <svg xmlns="http://www.w3.org/2000/svg" width="333" height="333" viewBox="0 0 333 333" fill="none"><path d="M146.007 118.895C146.007 118.895 140.32 137.203 144.202 147.186C148.085 157.17 163.896 156.617 170.689 148.851" stroke="black" stroke-width="0.961371" stroke-miterlimit="10" stroke-linecap="round" stroke-linejoin="round"></path><path d="M158.621 131.582C158.621 131.582 159.314 137.196 164.582 132.827" stroke="black" stroke-width="0.961371" stroke-miterlimit="10" stroke-linecap="round" stroke-linejoin="round"></path><path d="M145.434 131.582C145.434 131.582 145.947 137.196 149.817 132.827" stroke="black" stroke-width="0.961371" stroke-miterlimit="10" stroke-linecap="round" stroke-linejoin="round"></path><path d="M159.594 125.481C159.594 125.481 163.756 122.917 166.387 127.006" stroke="black" stroke-width="0.961371" stroke-miterlimit="10" stroke-linecap="round" stroke-linejoin="round"></path><path d="M146.234 124.969C146.234 124.969 149.544 122.065 152.201 125.914" stroke="black" stroke-width="0.961371" stroke-miterlimit="10" stroke-linecap="round" stroke-linejoin="round"></path><path d="M154.252 130.263C154.252 130.263 150.782 133.386 150.649 134.772C150.509 136.157 153.493 137.895 153.493 137.895" stroke="black" stroke-width="0.961371" stroke-miterlimit="10" stroke-linecap="round" stroke-linejoin="round"></path><path d="M162.091 140.733C162.091 140.733 162.038 141.632 161.658 142.784C161.645 142.784 161.645 142.784 161.645 142.784C161.045 144.595 159.614 147.02 156.27 147.532C151.435 148.258 148.425 146.294 147.179 142.098C147.006 141.545 146.873 140.946 146.766 140.313C146.76 140.32 154.532 141.565 162.091 140.733Z" fill="white" stroke="black" stroke-width="0.961371" stroke-miterlimit="10" stroke-linecap="round" stroke-linejoin="round"></path><path d="M161.645 142.784C161.045 144.595 159.614 147.019 156.27 147.532C151.435 148.258 148.425 146.293 147.179 142.098C148.385 143.376 151.568 144.269 154.432 144.335C157.309 144.409 159.82 143.543 161.645 142.784Z" fill="black" stroke="black" stroke-width="0.961371" stroke-miterlimit="10" stroke-linecap="round" stroke-linejoin="round"></path><path d="M145.774 119.667C145.774 119.667 154.945 122.358 158.621 115.425C158.621 115.425 162.504 126.034 173.946 127.006L176.37 131.922L184.342 136.157C184.342 136.157 189.264 129.224 189.404 120.906C189.544 112.588 188.851 102.251 181.432 100.659C174.013 99.0677 169.71 100.659 169.71 100.659C169.71 100.659 166.034 96.7101 159.933 97.6092C153.833 98.5083 149.377 102.604 147.166 106.487C144.962 110.363 142.218 119.614 145.774 119.667Z" fill="black" stroke="black" stroke-width="0.961371" stroke-miterlimit="10" stroke-linecap="round" stroke-linejoin="round"></path><path d="M175.198 131.995C175.198 131.995 179.287 127.832 183.796 128.318C188.305 128.804 188.098 142.604 175.891 141.285" fill="white"></path><path d="M175.198 131.995C175.198 131.995 179.287 127.832 183.796 128.318C188.305 128.804 188.098 142.604 175.891 141.285" stroke="black" stroke-width="0.961371" stroke-miterlimit="10" stroke-linecap="round" stroke-linejoin="round"></path><path d="M181.438 131.921C181.438 131.921 178.734 134.485 177.835 136.637C176.936 138.788 181.438 137.123 181.438 137.123" fill="white"></path><path d="M181.438 131.921C181.438 131.921 178.734 134.485 177.835 136.637C176.936 138.788 181.438 137.123 181.438 137.123" stroke="black" stroke-width="0.961371" stroke-miterlimit="10" stroke-linecap="round" stroke-linejoin="round"></path><path d="M179.574 141.192C179.574 141.192 179.147 151.775 181.438 154.678C181.438 154.678 175.964 167.705 167.499 168.538C159.034 169.37 155.851 164.102 155.851 164.102V154.645" stroke="black" stroke-width="0.961371" stroke-miterlimit="10" stroke-linecap="round" stroke-linejoin="round"></path><path d="M155.857 159.667C154.339 157.396 152.794 155.445 151.242 153.76" stroke="black" stroke-width="0.961371" stroke-miterlimit="10" stroke-linecap="round" stroke-linejoin="round"></path><path d="M181.438 154.679C181.438 154.679 192.321 142.324 201.751 139.001C211.182 135.664 218.108 137.895 218.108 137.895C218.108 137.895 225.461 143.576 227.406 152.181C227.406 152.181 222.264 171.595 198.974 176.164L193.833 199.734C193.833 199.734 165.401 220.679 140.166 200.573L138.362 180.606C138.362 180.606 122.291 178.495 114.246 164.422C114.246 164.422 114.166 155.191 118.495 147.912C118.495 147.912 130.316 140.666 144.642 148.185" stroke="black" stroke-width="0.961371" stroke-miterlimit="10" stroke-linecap="round" stroke-linejoin="round"></path><path d="M186.22 103.823C186.22 103.823 190.383 96.4367 196.83 97.4757C203.277 98.508 206.813 128.811 209.723 137.895C212.634 146.979 222.411 162.997 222.617 174.439C222.824 185.881 214.086 199.24 217.416 209.304C220.746 219.367 231.568 224.981 227.406 236.217C227.406 236.217 228.025 228.418 221.165 223.736C214.299 219.054 208.371 212.814 208.997 203.037C209.623 193.26 209.623 193.26 209.623 193.26C209.623 193.26 204.322 205.328 208.898 218.641C208.898 218.641 202.138 213.127 203.07 199.4C204.009 185.674 206.607 177.143 203.59 172.461C200.573 167.779 191.622 162.371 193.293 152.494C194.965 142.61 188.405 117.549 188.405 117.549L186.22 103.823Z" fill="black" stroke="black" stroke-width="0.961371" stroke-miterlimit="10" stroke-linecap="round" stroke-linejoin="round"></path><path d="M154.259 101.732C154.259 101.732 153.486 109.99 152.554 119.893C149.111 120.646 145.774 119.667 145.774 119.667C144.755 123.243 140.799 138.415 144.196 147.186C145.228 149.817 147.073 151.715 149.377 152.94C148.944 156.61 145.448 165.281 144.062 170.583C142.671 175.897 145.341 182.025 142.837 192.221C140.34 202.411 136.503 205.428 133.486 214.166C130.469 222.897 133.073 235.178 133.073 235.178C125.581 227.273 128.078 213.127 128.078 213.127C124.442 216.037 125.375 228.205 125.375 228.205C119.867 218.948 127.04 208.238 125.801 200.027C124.549 191.801 123.303 176.93 128.192 167.359C133.08 157.802 139.84 144.689 137.862 135.431C135.884 126.174 138.068 121.698 140.466 115.984C142.857 110.256 140.879 94.2458 148.365 94.6587C152.96 94.9185 154.132 97.5025 154.359 99.4806C154.499 100.733 154.259 101.732 154.259 101.732Z" fill="black" stroke="black" stroke-width="0.961371" stroke-miterlimit="10" stroke-linecap="round" stroke-linejoin="round"></path><path d="M218.108 137.895C218.108 137.895 255.697 119.514 257.775 115.564C259.853 111.615 259.021 105.681 261.418 102.664C263.816 99.647 264.229 102.771 264.016 105.788C263.809 108.804 264.062 118.894 264.062 118.894" stroke="black" stroke-width="0.961371" stroke-miterlimit="10" stroke-linecap="round" stroke-linejoin="round"></path><path d="M263.942 111.056C263.942 111.056 272.481 103.47 275.811 101.439C279.141 99.4074 279.554 101.212 278.375 102.737C277.196 104.263 270.609 111.056 270.609 111.056C270.609 111.056 280.18 105.095 282.95 105.022C285.721 104.949 284.196 107.313 282.464 108.279C280.732 109.244 272.62 114.239 272.62 114.239C272.62 114.239 284.895 109.038 286.56 109.804C288.225 110.57 286.353 112.301 283.716 113.407C281.079 114.519 274.911 117.496 274.911 117.496C274.911 117.496 284.275 115.485 285.521 116.803C286.766 118.122 282.537 119.367 275.571 121.172C275.571 121.172 268.118 124.296 263.609 127.346C259.101 130.396 227.419 152.175 227.419 152.175" stroke="black" stroke-width="0.961371" stroke-miterlimit="10" stroke-linecap="round" stroke-linejoin="round"></path><path d="M70.4162 145.734C70.4162 145.734 69.1575 141.845 67.9254 138.302C67.2194 136.284 66.5334 134.372 66.1005 133.36C64.8951 130.59 64.2424 127.506 67.5124 129.544C70.7692 131.595 71.9547 137.463 75.238 140.493C78.1152 143.144 110.383 147.173 118.322 148.119" stroke="black" stroke-width="0.961371" stroke-miterlimit="10" stroke-linecap="round" stroke-linejoin="round"></path><path d="M61.6183 140.513C61.0656 140.393 50.5694 138.116 47.9986 138.948C45.3613 139.807 47.5857 141.526 49.5438 141.859C51.5018 142.198 60.8191 144.203 60.8191 144.203C60.8191 144.203 47.5125 143.39 46.2004 144.662C44.8884 145.935 47.2194 146.947 50.0766 147.12C52.9337 147.28 59.7469 148.046 59.7469 148.046C59.7469 148.046 50.2497 149.265 49.5171 150.923C48.7779 152.588 53.1868 152.348 60.3596 151.729C60.3596 151.729 68.4182 152.188 73.6863 153.567C78.2484 154.759 106.773 162.418 114.272 164.429" stroke="black" stroke-width="0.961371" stroke-miterlimit="10" stroke-linecap="round" stroke-linejoin="round"></path><path d="M61.6383 140.527C61.6383 140.527 61.625 140.527 61.6183 140.514C61.1188 140.26 53.1135 136.278 51.5484 135.265C49.93 134.22 49.7235 132.388 53.5331 133.188C57.3492 133.993 67.9253 138.302 67.9253 138.302" stroke="black" stroke-width="0.961371" stroke-miterlimit="10" stroke-linecap="round" stroke-linejoin="round"></path><path d="M111.282 163.616C111.442 155.065 113.779 149.81 114.945 147.712" stroke="black" stroke-width="0.961371" stroke-miterlimit="10" stroke-linecap="round" stroke-linejoin="round"></path><path d="M221.698 136.11C223.849 138.275 228.598 143.563 230.629 149.97" stroke="black" stroke-width="0.961371" stroke-miterlimit="10" stroke-linecap="round" stroke-linejoin="round"></path><path d="M193.846 199.74C193.846 199.74 207.406 234.459 215.298 260.573C215.731 261.998 215.637 263.536 215.071 264.908C213.433 268.884 209.464 276.93 203.49 278.894C195.464 281.525 192.66 275.385 184.435 278.894C176.21 282.404 165.954 294.472 155.544 292.934C145.128 291.395 147.339 282.184 137.909 281.965C128.971 281.758 120.666 280.759 114.778 267.179C114.152 265.741 114.099 264.076 114.605 262.577C117.396 254.326 127.512 225.268 138.948 202.464" stroke="black" stroke-width="0.961371" stroke-miterlimit="10" stroke-linecap="round" stroke-linejoin="round"></path><path d="M207.599 276.423L212.947 304.682L190.369 306.66L183.25 279.454" stroke="black" stroke-width="0.961371" stroke-miterlimit="10" stroke-linecap="round" stroke-linejoin="round"></path><path d="M123.496 278.581L118.555 304.682L141.132 306.66L146.307 286.873" stroke="black" stroke-width="0.961371" stroke-miterlimit="10" stroke-linecap="round" stroke-linejoin="round"></path><path d="M136.377 281.911L147.952 233.32" stroke="black" stroke-width="0.961371" stroke-miterlimit="10" stroke-linecap="round" stroke-linejoin="round"></path><path d="M182.091 280.073L176.643 232.294" stroke="black" stroke-width="0.961371" stroke-miterlimit="10" stroke-linecap="round" stroke-linejoin="round"></path><path d="M194.672 195.957C191.049 197.895 176.503 205.261 164.515 205.248C153.879 205.248 142.997 198.361 139.78 196.17C139.161 195.737 138.828 195.484 138.828 195.484" stroke="black" stroke-width="0.961371" stroke-miterlimit="10" stroke-linecap="round" stroke-linejoin="round"></path><path d="M78.8544 91.0158C78.8544 91.0158 126.753 99.7404 116.996 48.172C116.996 48.172 166.2 75.3048 177.689 26.3472C177.689 26.3472 199.614 75.0184 239.613 43.1903C239.613 43.1903 222.471 97.8556 274.046 88.1386" stroke="black" stroke-width="0.961371" stroke-miterlimit="10" stroke-linecap="round" stroke-linejoin="round"></path></svg> 