<?xml version="1.0" encoding="UTF-8"?> <svg xmlns="http://www.w3.org/2000/svg" width="152" height="145" viewBox="0 0 152 145" fill="none"><path d="M73.7047 12.9073C80.0065 12.525 86.5794 13.4544 92.7534 14.6738C102.514 16.6015 111.813 21.037 118.984 27.9915C120.574 29.5338 121.911 31.2234 123.356 32.8904C123.982 33.6144 124.679 34.2767 125.309 35.0004C126.486 36.3564 127.537 37.8316 128.536 39.3219C131.935 44.3944 134.43 49.7422 136.056 55.6206C136.665 57.8232 137.226 60.0467 137.578 62.3063C138.686 69.4228 137.969 76.7667 136.557 83.7889C136.425 84.4557 136.285 85.1207 136.136 85.7841C135.988 86.4473 135.831 87.1087 135.666 87.7681C135.5 88.4274 135.325 89.0845 135.143 89.7395C134.961 90.3945 134.771 91.047 134.572 91.6972C134.373 92.3474 134.167 92.9949 133.952 93.6399C133.736 94.2848 133.513 94.9269 133.282 95.5663C133.051 96.2056 132.811 96.8419 132.563 97.4753C132.316 98.1085 132.06 98.7386 131.796 99.3655C131.533 99.9925 131.261 100.616 130.982 101.236C130.703 101.856 130.416 102.472 130.121 103.085C129.825 103.698 129.523 104.307 129.212 104.912C128.901 105.517 128.583 106.118 128.257 106.715C127.932 107.312 127.599 107.905 127.258 108.494C126.917 109.083 126.569 109.667 126.213 110.247C125.858 110.827 125.495 111.403 125.125 111.974C124.755 112.545 124.377 113.111 123.992 113.672C120.455 118.781 116.625 123.119 111.4 126.576C108.17 128.712 104.676 130.223 100.969 131.328C93.077 133.679 85.0409 133.872 76.9786 132.254C75.6528 132.032 74.2946 131.603 73.0223 131.174C67.428 129.286 62.1139 125.958 58.6227 121.125C56.08 117.605 54.5654 112.83 55.2753 108.485C54.8547 107.402 54.3337 105.051 53.7959 104.224C53.2546 103.391 52.1744 102.621 51.3861 102.007C50.655 101.438 49.8775 100.883 49.0441 100.471C42.6675 97.3243 33.9955 99.5123 27.2249 96.8347C25.0477 95.9738 23.0434 94.5637 21.3262 92.9862C20.9603 92.6462 20.6058 92.2947 20.2629 91.9317C19.9199 91.5687 19.5891 91.1951 19.2706 90.8107C18.952 90.4263 18.6462 90.032 18.3533 89.6278C18.0605 89.2236 17.7811 88.8103 17.5152 88.3881C16.9812 87.556 16.4243 86.7093 15.9791 85.8262C14.4624 82.8181 13.9075 79.4085 13.2714 76.1351C12.6413 72.8926 12.1211 69.6518 11.9907 66.3471C11.9129 64.3748 11.8841 62.3166 12.2025 60.3623C12.389 59.2173 12.7426 58.1358 13.0377 57.0182C13.4462 55.4704 13.8556 53.9269 14.3798 52.413C15.0019 50.6167 15.7837 48.8847 16.5564 47.1491C18.7974 42.1156 21.3451 37.1287 25.1331 33.053C25.5238 32.6362 25.921 32.2256 26.3248 31.8213C26.7286 31.4171 27.1387 31.0194 27.5553 30.6281C27.9718 30.2369 28.3944 29.8523 28.8232 29.4744C29.2519 29.0966 29.6866 28.7256 30.1273 28.3615C30.5679 27.9975 31.0142 27.6405 31.4663 27.2905C31.9183 26.9406 32.3758 26.5979 32.8387 26.2624C33.3017 25.927 33.77 25.599 34.2434 25.2784C34.7168 24.9578 35.1953 24.6448 35.6787 24.3394C44.6149 18.6721 56.3257 14.7404 66.7962 13.3916C69.099 13.0949 71.3882 12.9975 73.7047 12.9073ZM74.1862 15.5634C72.298 15.6008 70.4114 15.6415 68.5316 15.838C57.9596 16.9431 45.9019 21.0085 36.9915 26.7913C36.163 27.331 35.3504 27.8934 34.5536 28.4785C33.7568 29.0637 32.9771 29.6706 32.2144 30.2993C31.4519 30.9281 30.7076 31.5776 29.9816 32.2479C29.2556 32.9183 28.5491 33.6085 27.862 34.3183C24.0458 38.2813 21.4615 43.0772 19.2163 48.0456C17.5994 51.6241 16.2081 55.1114 15.547 59.0052C15.281 60.5709 15.2389 62.1504 15.2719 63.7347C15.3921 69.5139 18.3269 78.7026 22.5555 82.7327C27.5667 87.5087 36.8641 86.374 43.3113 87.9935C45.4542 88.5319 47.6774 89.5029 49.4873 90.7787C51.243 92.0163 52.6337 93.6775 53.6876 95.5362C55.4287 98.6066 56.1292 102.027 57.1495 105.367C57.7742 107.412 58.5094 109.475 59.6274 111.31C63.1449 117.084 69.6313 119.973 75.919 121.644C88.0904 124.187 100.999 121.366 111.373 114.626C121.014 108.362 126.256 100.656 130.465 90.0953C131.299 88.0015 132.421 85.5309 132.891 83.3494C133.079 82.4774 133.129 81.5574 133.217 80.6702C133.45 78.3205 133.563 76.0087 133.629 73.6485C133.721 70.4295 133.819 67.2704 133.524 64.0554C132.724 55.3472 129.205 46.9081 124.417 39.6482C122.845 37.2635 121.148 34.877 119.26 32.7284C119.045 32.4861 118.828 32.2459 118.608 32.0079C118.389 31.77 118.166 31.5343 117.942 31.3009C117.717 31.0675 117.49 30.8364 117.261 30.6075C117.031 30.3787 116.8 30.1523 116.566 29.9282C116.332 29.7041 116.096 29.4824 115.857 29.2631C115.619 29.0438 115.378 28.8269 115.135 28.6125C114.893 28.3981 114.648 28.1862 114.401 27.9767C114.153 27.7673 113.904 27.5605 113.653 27.3561C113.401 27.1517 113.147 26.9499 112.892 26.7507C112.636 26.5515 112.378 26.355 112.119 26.161C111.859 25.9671 111.597 25.7758 111.333 25.5871C111.07 25.3985 110.805 25.2125 110.537 25.0293C110.27 24.8461 110.001 24.6655 109.73 24.4877C109.459 24.31 109.186 24.135 108.911 23.9627C108.636 23.7905 108.36 23.6211 108.083 23.4545C107.804 23.2879 107.524 23.1242 107.243 22.9632C106.962 22.8023 106.678 22.6443 106.394 22.4891C106.109 22.334 105.822 22.1817 105.535 22.0323C105.247 21.883 104.958 21.7366 104.667 21.5932C104.376 21.4498 104.084 21.3093 103.79 21.1717C103.496 21.0342 103.201 20.8997 102.905 20.7681C102.609 20.6367 102.311 20.5082 102.012 20.3827C101.712 20.2573 101.412 20.1349 101.11 20.0155C100.809 19.8961 100.506 19.7798 100.202 19.6666C99.898 19.5534 99.5929 19.4433 99.2867 19.3363C98.9804 19.2293 98.6731 19.1255 98.3648 19.0247C98.0564 18.924 97.7471 18.8264 97.4367 18.7319C97.1263 18.6375 96.8151 18.5462 96.5028 18.4581C96.1906 18.37 95.8775 18.285 95.5635 18.2032C95.2495 18.1215 94.9348 18.0429 94.6192 17.9675C94.3035 17.8922 93.9872 17.8201 93.6701 17.7511C93.3531 17.6822 93.0354 17.6165 92.717 17.554C86.6018 16.2931 80.4409 15.4614 74.1862 15.5634ZM123.107 109.506C119.291 113.586 115.055 116.319 110.102 118.859C102.387 122.815 95.3007 125.168 86.5519 125.468C77.4473 125.781 67.5361 123.215 60.7593 116.89C59.976 116.159 59.2653 115.379 58.5811 114.556C59.0807 115.869 59.5759 117.144 60.32 118.345C63.9962 124.274 70.33 127.981 77.0222 129.56C87.4117 132.012 99.6824 130.495 108.822 124.857C114.024 121.648 118.293 117.047 121.653 111.992C121.99 111.487 123.015 110.122 123.103 109.58C123.107 109.556 123.106 109.531 123.107 109.506ZM18.4717 82.4224C20.1304 87.1192 23.3992 91.4903 27.9815 93.6948C29.4126 94.3833 30.9495 94.7091 32.5053 94.9753C33.8088 95.2046 35.1197 95.3792 36.438 95.4991C40.2845 95.8258 43.1795 95.794 46.9498 96.9097C47.8536 97.1771 48.8027 97.4786 49.6455 97.8966C50.3836 98.2627 51.0755 98.737 51.7199 99.2472C52.0265 99.4898 52.3207 99.789 52.6443 100.003C50.9162 95.6875 49.1135 93.154 44.7041 91.2797C42.6437 90.4039 40.5237 90.1097 38.3224 89.8419C36.6528 89.6353 34.9819 89.4392 33.3098 89.2537C29.3402 88.821 25.552 88.3622 22.1353 86.0614C21.8837 85.8888 21.6382 85.7083 21.3986 85.5197C21.159 85.3311 20.9259 85.1348 20.6993 84.9309C20.4727 84.7269 20.2531 84.5158 20.0405 84.2975C19.8279 84.0791 19.6226 83.854 19.4249 83.6222C19.1195 83.2618 18.8288 82.7116 18.4717 82.4224Z" fill="#EC4326"></path><path d="M61.761 67.3182C62.375 67.2372 63.0872 67.3032 63.6965 67.3994C66.3707 67.8217 68.8302 69.5602 70.3827 71.7333C72.4459 74.6211 72.9295 78.4276 72.3253 81.8545C71.8561 84.5158 70.729 87.2322 68.4195 88.8157C66.6225 90.0478 64.5779 90.1228 62.5011 89.7295C59.7814 88.9928 57.9796 87.2303 55.9021 85.4713C53.5726 83.4989 51.4445 80.8949 51.207 77.7389C51.02 75.2543 52.1443 73.0291 53.7378 71.1866C55.8341 68.763 58.5886 67.5532 61.761 67.3182ZM64.6619 75.9688C62.3162 76.1544 59.6571 76.685 58.0635 78.5747C57.4151 79.3438 57.0125 80.324 57.0963 81.341C57.234 83.014 58.6231 84.5123 59.8645 85.5207C60.8098 86.2884 61.8392 86.8828 62.9939 87.2748C64.238 87.5999 65.5059 87.6373 66.6549 86.9774C68.2797 86.0442 69.1964 84.164 69.6524 82.425C70.1497 80.5288 70.1999 78.7504 69.9576 76.8195C68.2077 76.2834 66.5192 75.7994 64.6619 75.9688ZM61.479 69.75C58.8287 70.1314 56.7435 71.3126 55.1369 73.4653C54.1211 74.8261 53.4557 76.3598 53.7155 78.081C53.8359 78.8783 54.137 79.6792 54.5368 80.3783C54.8467 78.4898 55.647 76.8866 57.2337 75.7334C57.2668 75.7094 57.3004 75.6862 57.3337 75.6626C59.1965 73.959 63.1448 73.4141 65.5596 73.5203C66.7457 73.5725 67.8981 73.7419 69.0335 74.0893C67.9588 72.1891 66.2902 70.5406 64.1359 69.9283C63.248 69.676 62.3921 69.6928 61.479 69.75Z" fill="#EC4326"></path><path d="M113.971 78.6353C116.87 78.6544 119.661 79.2039 122.079 80.8763C124.106 82.2786 125.893 84.3948 126.318 86.8763C126.847 89.9723 125.186 92.0922 122.241 92.892C121.516 93.0888 120.029 93.1526 119.504 93.6715C118.85 94.3182 118.508 96.8775 117.535 98.2117C116.486 99.6512 114.841 100.316 113.123 100.582C112.056 100.968 110.767 101.012 109.637 101.073C107.122 101.209 105.063 100.949 103.136 99.2074C101.854 98.0494 101.043 96.4827 100.978 94.7449C100.971 94.5012 100.979 94.258 101.002 94.0154C101.024 93.7726 101.062 93.5322 101.114 93.2941C101.366 92.091 101.884 90.9351 102.188 89.739C102.607 88.0958 102.734 86.3334 103.353 84.7492C103.445 84.5127 103.547 84.2812 103.661 84.0547C103.775 83.8281 103.9 83.6076 104.036 83.3932C104.171 83.1788 104.316 82.9714 104.472 82.7711C104.628 82.5707 104.793 82.3783 104.967 82.194C107.299 79.7069 110.645 78.7529 113.971 78.6353Z" fill="#EC4326"></path><path d="M85.0265 93.0503C85.3047 93.0366 85.583 93.0307 85.8614 93.0326C86.1399 93.0346 86.4181 93.0444 86.696 93.0621C86.9739 93.0797 87.2511 93.1053 87.5276 93.1386C87.8041 93.1719 88.0794 93.213 88.3534 93.2619C88.6276 93.3108 88.9001 93.3674 89.171 93.4317C89.4419 93.4959 89.7108 93.5678 89.9776 93.6473C90.2444 93.7267 90.5087 93.8136 90.7706 93.908C91.0325 94.0024 91.2915 94.1041 91.5475 94.2131C95.0014 95.6849 97.8569 98.8019 99.2267 102.269C100.044 104.337 100.447 106.89 99.5045 108.987C97.6159 113.185 92.3992 112.115 88.7447 113C86.7929 113.473 85.0163 114.535 83.1476 115.251C82.1547 115.624 81.1035 115.949 80.0452 116.065C77.6001 116.331 75.8165 115.424 73.9584 113.908C71.4856 111.891 69.2873 108.952 68.9777 105.691C68.8471 104.317 69.1338 102.922 70.0366 101.845C71.0291 100.661 72.5302 99.946 73.7494 99.0167C74.675 98.3111 75.5142 97.4865 76.398 96.7295C78.9504 94.5436 81.6584 93.3613 85.0265 93.0503Z" fill="#EC4326"></path><path d="M112.095 47.9429C115.446 47.7132 119.897 48.1134 122.796 49.8398C124.272 50.7189 125.704 52.0604 126.125 53.7786C126.697 56.1184 125.324 58.1852 125.188 60.4723C124.954 64.4029 127.198 68.5096 124.866 72.2108C124.096 73.4343 122.912 74.3762 121.486 74.6994C118.915 75.2815 116.718 74.0151 114.634 72.6902C112.323 71.2763 109.627 72.0284 107.082 72.0385C105.938 72.0431 104.804 71.8512 103.675 71.6848C102.629 71.5304 101.615 71.3471 100.76 70.6824C99.7693 69.9137 99.1955 68.6642 99.0631 67.4384C98.7375 64.4228 100.603 63.293 102.268 61.2162C102.478 60.9525 102.693 60.6557 102.772 60.3228C103.077 59.026 101.82 56.5714 101.667 55.0856C101.518 53.6244 101.862 52.144 102.819 51.0047C104.726 48.7334 109.258 48.2 112.095 47.9429ZM111.756 50.3964C109.854 50.5127 105.964 50.977 104.669 52.4019C104.185 52.9341 104.06 53.591 104.111 54.2916C104.174 55.1706 104.522 56.0019 104.845 56.8122C105.909 59.4833 106.136 61.1701 104.158 63.4782C103.238 64.5528 101.892 65.5614 101.985 67.1313C102.016 67.6515 102.25 68.092 102.645 68.4294C103.482 69.1422 104.809 69.5308 105.825 69.9462C108.601 69.4307 111.54 68.7336 114.315 69.6249C116.411 70.4132 118.721 72.8442 121.126 71.7744C121.838 71.4578 122.377 70.5903 122.619 69.8776C123.351 67.7232 122.38 64.3245 122.206 62.0173C122.182 61.7359 122.169 61.4539 122.165 61.1714C122.161 60.889 122.168 60.6068 122.184 60.3248C122.202 60.0428 122.229 59.7618 122.266 59.4818C122.303 59.2018 122.351 58.9234 122.408 58.6468C122.721 57.2018 123.879 55.1808 123.156 53.7614C122.437 52.3522 120.615 51.4597 119.167 51.0416C116.944 50.3995 114.064 50.1578 111.756 50.3964Z" fill="#EC4326"></path><path d="M56.582 25.5345C57.2843 25.4803 57.9769 25.4668 58.6725 25.5973C59.9357 25.8344 61.1968 26.5611 61.9121 27.6453C63.8555 30.5911 60.5398 33.3612 59.9341 36.0933C60.1037 36.6419 60.3649 37.0715 60.7793 37.4725C61.2109 37.8901 61.829 38.2022 62.337 38.5228C64.0713 39.6171 66.1037 40.9114 66.9893 42.8344C67.5195 43.9856 67.6196 45.2857 67.1582 46.4734C67.1348 46.5347 67.1098 46.5953 67.0833 46.6553C67.0567 46.7154 67.0287 46.7747 66.9992 46.8333C66.9698 46.892 66.9389 46.9498 66.9065 47.0069C66.8741 47.064 66.8404 47.1203 66.8052 47.1758C66.77 47.2312 66.7335 47.2857 66.6956 47.3393C66.6577 47.393 66.6185 47.4456 66.578 47.4973C66.5375 47.549 66.4957 47.5996 66.4527 47.6493C66.4096 47.6989 66.3654 47.7474 66.3198 47.7948C66.2744 47.8423 66.2278 47.8885 66.18 47.9336C66.1323 47.9787 66.0834 48.0227 66.0334 48.0654C65.9835 48.1081 65.9325 48.1495 65.8804 48.1896C65.8284 48.2298 65.7754 48.2687 65.7214 48.3062C65.6674 48.3437 65.6126 48.3799 65.5568 48.4148C65.501 48.4496 65.4444 48.483 65.387 48.5151C65.3295 48.5471 65.2713 48.5777 65.2124 48.6068C65.1534 48.6359 65.0937 48.6636 65.0334 48.6898C62.5808 49.7266 59.9267 48.0264 57.7156 47.1425C57.1096 46.9002 56.4544 46.7485 55.8077 46.9222C53.5674 47.5239 51.2667 51.6706 49.6468 53.4116C48.1587 55.0108 46.4306 56.2365 44.417 57.0862C42.9759 57.6233 41.4362 57.9258 39.9332 57.4416C38.8812 57.1027 37.9323 56.3632 37.44 55.3664C35.8753 52.1977 38.7034 48.813 40.2208 46.2486C40.7003 45.4383 41.0837 44.6304 41.4 43.7441C41.002 43.5748 40.6095 43.3937 40.2225 43.2008C39.8355 43.0079 39.4546 42.8036 39.0799 42.5878C38.7053 42.3721 38.3375 42.1453 37.9766 41.9075C37.6156 41.6697 37.2621 41.4213 36.9162 41.1623C35.4724 40.079 34.1599 38.5772 33.9146 36.7289C33.7374 35.3933 34.1573 34.1411 34.9772 33.0889C36.9635 30.54 40.5479 29.6897 43.6397 29.946C45.0311 30.0613 46.6429 30.53 48.001 30.036C48.8925 29.7117 49.6391 29.1086 50.372 28.5264C52.2927 27.0005 54.0931 25.8536 56.582 25.5345ZM56.4204 27.7466C52.8375 28.3843 51.6422 30.9643 48.6702 32.1007C45.6053 33.2726 42.7207 31.2699 38.9932 33.0669C38.2222 33.4385 37.4765 33.953 36.9679 34.6503C36.5893 35.1694 36.3875 35.7767 36.5132 36.4176C36.8862 38.3205 39.1348 39.3008 40.5005 40.3835C41.1309 40.8832 41.6612 41.4939 42.1313 42.1429C42.6168 42.8131 42.91 43.4001 42.8862 44.2486C42.8572 45.2844 42.4317 46.3531 41.9884 47.2749C41.2365 48.8385 37.9305 53.529 40.172 54.8923C40.9107 55.3416 41.8039 55.333 42.6161 55.1184C43.3908 54.9136 44.0924 54.5228 44.7967 54.1529C46.0326 53.3556 47.1051 52.4789 48.0569 51.3489C50.4821 48.47 52.8056 43.2183 57.4659 44.2265C58.9869 44.5555 62.8163 46.8741 64.1127 46.0555C64.4422 45.8474 64.671 45.4304 64.7483 45.0571C64.8753 44.4439 64.6271 43.8428 64.2751 43.3489C62.3026 40.5811 56.7937 39.6297 57.5011 35.376C57.6105 34.7183 57.8694 34.0936 58.1758 33.5045C58.7664 32.3689 60.6513 29.9638 59.7186 28.7098C59.2846 28.1262 58.4127 27.8116 57.7114 27.7372C57.2838 27.6918 56.8479 27.7131 56.4204 27.7466Z" fill="#EC4326"></path><path d="M85.0988 19.2593C85.5523 19.2431 86.006 19.2374 86.4598 19.2421C86.9135 19.2468 87.3669 19.2618 87.82 19.2874C88.2731 19.3129 88.7253 19.3488 89.1768 19.3952C89.6282 19.4414 90.0783 19.4981 90.527 19.5652C90.9759 19.6322 91.4229 19.7095 91.868 19.7971C92.3132 19.8846 92.7562 19.9824 93.1969 20.0903C93.6375 20.1983 94.0755 20.3163 94.5108 20.4444C94.9459 20.5725 95.3779 20.7105 95.8068 20.8584C99.5539 22.1793 103.547 24.6038 105.289 28.3C106.256 30.3545 106.474 32.8302 105.683 34.9788C104.903 37.1009 103.185 38.4564 101.279 39.5542C100.522 39.9897 99.748 40.3787 99.1406 41.0207C97.2598 43.0085 96.6976 46.3214 94.073 47.6068C94.0289 47.6285 93.9843 47.6493 93.9393 47.6693C92.4821 48.3176 90.9137 47.9606 89.4904 47.4146C88.3113 46.9487 87.2392 46.245 86.0576 45.7968C83.4601 44.8117 80.6421 46.1005 78.0048 46.2893C75.7334 46.4519 74.8083 45.9433 72.8218 45.05C72.0855 44.7189 71.3444 44.4267 70.7279 43.8905C69.8245 43.1048 69.24 41.9754 68.951 40.8285C68.1902 37.8107 69.4033 35.8299 71.0191 33.4263C71.5248 32.6741 72.0562 31.8997 72.3153 31.0227C72.6225 29.9829 72.4024 28.9812 72.3317 27.9293C72.2068 26.0688 72.8202 24.482 74.0533 23.0915C76.7004 20.1061 81.3089 19.494 85.0988 19.2593Z" fill="#EC4326"></path></svg> 