<?xml version="1.0" encoding="UTF-8"?> <svg xmlns="http://www.w3.org/2000/svg" width="111" height="116" viewBox="0 0 111 116" fill="none"><path d="M47.1005 1.32615C46.5846 2.9106 46.5846 2.87376 48.6481 20.7449C49.4587 27.967 50.0483 34.0101 49.9378 34.1206C49.8272 34.2312 47.0268 32.7204 43.7473 30.7306C37.4832 26.9722 33.5405 25.0929 31.9929 25.0561C30.2242 25.0561 29.4136 26.0141 29.4136 28.0407C29.4136 30.1779 30.0768 31.9834 34.2775 41.2691C37.7412 48.8965 38.2939 50.6284 37.5201 51.3653C36.5252 52.3234 33.5405 53.0603 18.1382 56.1555C9.77375 57.8505 2.29366 59.5455 1.51986 59.9509C-1.09633 61.2037 -0.248831 63.4514 3.39909 64.8148C4.43083 65.1832 9.77375 66.5098 15.2641 67.7626C30.4453 71.1894 39.7309 74.0635 39.7309 75.3532C39.7309 75.648 38.4413 77.2324 36.8568 78.9274C31.1454 85.0073 27.6449 89.1711 27.387 90.166C27.2027 90.9398 27.3133 91.3083 27.9397 91.8241C28.6029 92.3769 28.8977 92.3769 30.3348 91.9715C31.2191 91.6767 35.7514 89.4659 40.3573 87.0339C44.9633 84.602 49.164 82.5385 49.6798 82.428C51.1906 82.0595 51.6328 82.6491 51.7801 85.0073C51.8538 86.1864 52.1486 92.2295 52.4434 98.4567C53.1804 113.048 53.6225 115.333 55.7228 115.333C58.1548 115.333 59.9972 111.538 65.4138 95.1036C67.7352 88.1025 69.8355 82.1332 70.0935 81.8753C70.4619 81.4699 70.8304 81.691 71.9727 82.9807C74.9205 86.3338 83.0639 94.4035 84.0219 94.9193C86.2696 96.0985 87.5224 95.0667 87.1539 92.34C87.0066 91.4925 85.68 86.7023 84.1693 81.6173C82.6585 76.5692 81.4426 72.3685 81.5163 72.2948C81.5899 72.2212 83.8377 72.7739 86.4538 73.5108C92.7548 75.2427 102.925 77.343 106.61 77.6009C109.299 77.822 109.631 77.7852 110.257 77.085C111.695 75.4637 110.994 74.6531 99.1295 63.5988C94.8183 59.5824 91.3546 56.0819 91.4283 55.8608C91.502 55.6397 93.5655 54.2763 95.9974 52.8761C102.077 49.3387 105.578 46.7225 106.315 45.1381C106.904 43.8853 106.904 43.8116 106.167 43.0746C105.136 42.006 100.53 41.527 94.5972 41.7849C92.0547 41.8955 89.8438 41.8955 89.7333 41.7481C89.5859 41.6376 91.4283 39.5004 93.8234 37.0684C100.714 29.9568 106.536 23.2137 107.826 20.7449C108.857 18.8288 108.231 17.3181 106.425 17.3181C105.652 17.3181 98.3557 20.9291 88.2225 26.272C84.1693 28.4092 80.7793 30.1042 80.6319 30.0305C80.4845 29.9568 80.4477 26.0878 80.5582 21.4818C80.7424 11.9014 80.4477 10.2065 78.7527 10.0222C77.4998 9.87482 77.2419 10.2801 72.8939 18.4235C69.1723 25.4614 67.6984 28.0039 67.293 28.0039C67.1456 28.0039 66.4087 26.8985 65.598 25.4983C64.8242 24.1349 63.0555 21.0397 61.6922 18.6077C57.381 11.0171 52.5539 3.35278 51.0432 1.65778C49.9746 0.404953 49.3482 -0.000366211 48.5744 -0.000366211C47.69 -0.000366211 47.469 0.220718 47.1005 1.32615ZM51.1169 5.26885C53.4383 8.76939 59.3708 18.792 62.3186 24.2086C64.7505 28.7409 66.1507 30.5832 67.2193 30.5832C68.4722 30.5832 70.5356 27.6723 73.9256 21.0765C75.8417 17.4286 77.6104 14.1123 77.9052 13.7438C78.3473 13.1543 78.421 13.1911 78.4947 14.3702C78.5316 15.0703 78.5684 19.3815 78.6053 23.9506V32.2414L79.6002 32.3519C80.3371 32.4256 83.985 30.7306 92.7548 26.1984C99.4242 22.7347 105.062 19.8974 105.283 19.8974C105.504 19.8974 105.688 20.0079 105.688 20.1553C105.688 20.8554 96.4764 31.2465 91.3914 36.3683C88.2962 39.4635 85.7906 42.1903 85.7906 42.485C85.7906 43.7379 86.5644 43.8484 95.4078 43.8484C100.235 43.8484 104.251 43.9958 104.362 44.18C104.878 44.9538 100.972 47.7911 94.1182 51.6233C89.9912 53.9078 88.9226 54.9764 89.328 56.524C89.4754 57.1873 92.6074 60.393 98.7241 66.215C103.772 70.9683 107.899 75.0216 107.899 75.2058C107.899 76.0533 102.925 75.1321 90.8756 72.1475C79.2685 69.2733 79.158 69.2733 79.158 71.7053C79.158 72.3685 79.9686 75.5006 80.9635 78.6327C83.506 86.5549 85.0536 92.4874 84.6115 92.4874C84.0587 92.4874 80.3371 88.8395 75.9154 83.9387C71.3463 78.8537 70.6093 78.301 69.5776 78.8537C68.4353 79.4802 67.6615 81.3225 64.2347 91.9347C59.555 106.379 57.0494 112.754 55.9808 112.754C55.2807 112.754 54.9859 109.474 54.2858 93.9245C53.991 87.1076 53.5857 82.2806 53.3277 81.691C52.2223 79.2591 49.2377 79.7381 42.3103 83.4597C34.867 87.4393 31.2191 89.2448 30.998 89.0237C30.7401 88.8026 31.9561 87.3656 37.1148 81.8753C41.5733 77.085 42.5682 75.5743 41.9786 74.4689C40.6153 71.9632 33.6879 69.6418 13.9375 65.0358C6.12582 63.2303 3.2517 62.3828 3.2517 61.9038C3.2517 61.4985 3.36224 61.4985 18.7277 58.4033C33.8353 55.3817 36.3041 54.7922 38.3307 53.7604C41.3522 52.2128 41.1312 50.5915 36.3041 39.8689C32.5456 31.615 31.4402 28.6303 31.7718 27.8197C32.1035 26.8985 34.9039 28.1881 42.9735 33.0152C50.0851 37.2895 51.5959 37.9896 52.0012 37.2895C52.1118 37.1421 52.0381 36.1104 51.8538 35.005C51.2643 31.2096 48.7955 4.5319 48.906 3.02114C48.9797 2.24734 49.2377 2.50528 51.1169 5.26885Z" fill="#F26422"></path><path d="M62.1333 37.3995C56.7535 38.7628 50.5263 43.2582 47.3942 48.0484C45.8466 50.4804 44.3727 54.681 44.0042 57.9236C42.8988 67.025 51.1158 74.542 61.1016 73.5471C71.2347 72.5153 81.2573 63.9298 82.4364 55.2706C83.3576 48.3064 79.7834 41.2316 73.7772 38.2838C71.6769 37.2521 70.9399 37.1047 67.8079 36.9941C65.5233 36.9204 63.4598 37.0678 62.1333 37.3995ZM72.6349 40.4947C75.03 41.6738 77.7567 44.4374 79.0464 47.0536C79.9676 49.0065 80.0782 49.5592 80.0782 53.0597C80.0782 56.5971 79.9676 57.113 79.0096 59.1396C77.7567 61.6821 74.1457 65.4774 70.9399 67.5777C59.7014 74.9473 46.3625 70.5256 46.3625 59.4712C46.3625 54.681 48.8313 48.3801 51.8528 45.3586C53.4741 43.7741 59.0381 40.7894 61.8754 39.9788C64.9337 39.1313 70.3872 39.3892 72.6349 40.4947Z" fill="#F26422"></path><path d="M67.1082 49.634C66.4081 49.892 66.5186 51.5133 67.2556 51.9186C68.619 52.6556 69.8718 50.9237 68.7663 49.8183C68.2873 49.3393 67.882 49.3024 67.1082 49.634Z" fill="#F26422"></path><path d="M55.3548 55.0507C54.9494 56.0824 55.3916 56.9299 56.3865 57.0405C57.5288 57.1879 58.1552 55.9719 57.4182 55.0875C56.8287 54.3874 55.6127 54.3874 55.3548 55.0507Z" fill="#F26422"></path><path d="M66.8509 60.6877C67.0719 63.1565 66.9982 63.6724 66.4087 64.4094C65.8191 65.1463 65.5612 65.22 64.7505 64.9252C63.8662 64.5567 62.5028 63.1565 61.6553 61.7195C61.3237 61.1668 61.2132 61.1668 60.8447 61.6089C60.1814 62.3827 61.5816 64.9989 63.1292 65.957C65.6717 67.5414 68.1405 66.3991 68.6564 63.4145C68.8775 61.9774 68.3248 59.1401 67.6615 58.2926C66.8509 57.2977 66.6298 57.961 66.8509 60.6877Z" fill="#F26422"></path></svg> 