<?xml version="1.0" encoding="UTF-8"?> <svg xmlns="http://www.w3.org/2000/svg" width="333" height="269" viewBox="0 0 333 269" fill="none"><path d="M164.502 234.712V132.315L197.682 118.608L211.988 209.251L164.502 234.712Z" fill="white" stroke="black" stroke-width="0.961371" stroke-miterlimit="10" stroke-linecap="round" stroke-linejoin="round"></path><path d="M269.077 234.552L211.995 209.251L210.483 199.681L209.923 196.137L206.094 171.908L205.441 167.759L203.43 155.039L202.837 151.276L198.042 120.886L197.682 118.608L203.943 121.153L237.516 134.772L241.931 148.738L243.336 153.194H243.343L249.537 172.781L250.756 176.637L264.222 219.201L265.667 223.77L269.077 234.552Z" fill="white" stroke="black" stroke-width="0.961371" stroke-miterlimit="10" stroke-linecap="round" stroke-linejoin="round"></path><path d="M164.502 132.315V234.712L125.474 213.786L119.947 210.823L117.01 209.251L117.482 206.294V206.274L117.895 203.663L118.168 201.872L118.461 200.04L118.615 199.055L118.828 197.709L119.8 191.535L123.643 167.2L123.976 165.102L124.242 163.43L126.14 151.409L126.86 146.86L127.306 144.016L127.699 141.525H127.706L128.025 139.481L131.322 118.608L151.115 126.78L154.958 128.372L164.502 132.315Z" fill="white" stroke="black" stroke-width="0.961371" stroke-miterlimit="10" stroke-linecap="round" stroke-linejoin="round"></path><path d="M131.322 118.608L128.032 139.481L127.706 141.525H127.699L127.306 144.016L126.86 146.86L126.14 151.409L124.242 163.43L123.976 165.102L123.643 167.2L119.8 191.535L118.828 197.709L118.615 199.055L118.175 201.878L117.895 203.663L117.482 206.274V206.294L117.01 209.251L112.028 211.455L59.9201 234.552L71.8149 196.957L73.8129 190.623L74.7519 187.659L75.6976 184.689L80.9857 167.959L82.9104 161.872L84.6021 156.53L86.2071 151.436L88.5381 144.063L89.0576 142.431L89.5771 140.793L91.4818 134.772L102.731 130.21L109.151 127.599L125.028 121.159L131.322 118.608Z" fill="white" stroke="black" stroke-width="0.961371" stroke-miterlimit="10" stroke-linecap="round" stroke-linejoin="round"></path><path d="M143.949 153.767L146.653 149.452L148.611 146.341L151.642 141.526L157.236 139.322L163.017 137.057L164.502 136.471L170.583 129.805" stroke="black" stroke-width="0.961371" stroke-miterlimit="10" stroke-linecap="round" stroke-linejoin="round"></path><path d="M148.618 146.342L164.502 155.393L180.673 156.538" stroke="black" stroke-width="0.961371" stroke-miterlimit="10" stroke-linecap="round" stroke-linejoin="round"></path><path d="M156.25 163.038L164.502 160.933L174.246 148.492L193.12 147.453L197.682 158.649" stroke="black" stroke-width="0.961371" stroke-miterlimit="10" stroke-linecap="round" stroke-linejoin="round"></path><path d="M187.392 147.913L171.142 169.385L164.502 177.317L136.71 179.821L146.746 191.423L164.502 190.024L181.192 168.879" stroke="black" stroke-width="0.961371" stroke-miterlimit="10" stroke-linecap="round" stroke-linejoin="round"></path><path d="M178.108 144.184L184.875 135.399H191.016L186.041 144.184H178.108Z" stroke="black" stroke-width="0.961371" stroke-miterlimit="10" stroke-linecap="round" stroke-linejoin="round"></path><path d="M174.066 132.909L174.452 130.424L179.267 128.633V131.976L174.066 132.909Z" stroke="black" stroke-width="0.961371" stroke-miterlimit="10" stroke-linecap="round" stroke-linejoin="round"></path><path d="M181.918 130.77V127.607L187.046 126.222V130.77H181.918Z" stroke="black" stroke-width="0.961371" stroke-miterlimit="10" stroke-linecap="round" stroke-linejoin="round"></path><path d="M203.23 140.141L204.862 147.913H209.763L208.125 140.141H203.23Z" stroke="black" stroke-width="0.961371" stroke-miterlimit="10" stroke-linecap="round" stroke-linejoin="round"></path><path d="M205.694 169.385L232.727 165.183" stroke="black" stroke-width="0.961371" stroke-miterlimit="10" stroke-linecap="round" stroke-linejoin="round"></path><path d="M219.214 180.787L250.669 175.892" stroke="black" stroke-width="0.961371" stroke-miterlimit="10" stroke-linecap="round" stroke-linejoin="round"></path><path d="M212.654 168.306L225.388 179.821" stroke="black" stroke-width="0.961371" stroke-miterlimit="10" stroke-linecap="round" stroke-linejoin="round"></path><path d="M222.204 166.821L234.938 178.336" stroke="black" stroke-width="0.961371" stroke-miterlimit="10" stroke-linecap="round" stroke-linejoin="round"></path><path d="M134.805 137.61L142.93 143.098" stroke="black" stroke-width="0.961371" stroke-miterlimit="10" stroke-linecap="round" stroke-linejoin="round"></path><path d="M151.642 141.519L140.753 134.34" stroke="black" stroke-width="0.961371" stroke-miterlimit="10" stroke-linecap="round" stroke-linejoin="round"></path><path d="M146.2 131.796L157.243 139.322" stroke="black" stroke-width="0.961371" stroke-miterlimit="10" stroke-linecap="round" stroke-linejoin="round"></path><path d="M151.642 129.305L163.017 137.057" stroke="black" stroke-width="0.961371" stroke-miterlimit="10" stroke-linecap="round" stroke-linejoin="round"></path><path d="M134.013 134.34L143.949 129.305L137.955 125.263L132.461 127.607L134.805 129.798L132.041 130.771L134.013 134.34Z" stroke="black" stroke-width="0.961371" stroke-miterlimit="10" stroke-linecap="round" stroke-linejoin="round"></path><path d="M105.914 131.796L104.149 137.057H110.683V131.796H105.914Z" stroke="black" stroke-width="0.961371" stroke-miterlimit="10" stroke-linecap="round" stroke-linejoin="round"></path><path d="M123.017 141.525L124.389 127.599L125.028 121.159" stroke="black" stroke-width="0.961371" stroke-miterlimit="10" stroke-linecap="round" stroke-linejoin="round"></path><path d="M102.731 130.211L96.1771 142.266" stroke="black" stroke-width="0.961371" stroke-miterlimit="10" stroke-linecap="round" stroke-linejoin="round"></path><path d="M124.389 127.6H109.151" stroke="black" stroke-width="0.961371" stroke-miterlimit="10" stroke-linecap="round" stroke-linejoin="round"></path><path d="M115.092 151.436H95.7842H86.2071" stroke="black" stroke-width="0.961371" stroke-miterlimit="10" stroke-linecap="round" stroke-linejoin="round"></path><path d="M110.163 156.531H89.4905H84.6021" stroke="black" stroke-width="0.961371" stroke-miterlimit="10" stroke-linecap="round" stroke-linejoin="round"></path><path d="M98.2351 167.96H97.3627H80.9857" stroke="black" stroke-width="0.961371" stroke-miterlimit="10" stroke-linecap="round" stroke-linejoin="round"></path><path d="M82.9105 161.873L89.4905 156.531L95.7842 151.436L107.413 142.006" stroke="black" stroke-width="0.961371" stroke-miterlimit="10" stroke-linecap="round" stroke-linejoin="round"></path><path d="M71.8149 196.957L72.6008 199.168L77.1296 211.702L80.1532 220.107L81.8515 224.829" stroke="black" stroke-width="0.961371" stroke-miterlimit="10" stroke-linecap="round" stroke-linejoin="round"></path><path d="M103.736 194.945L77.1295 211.702L64.6753 219.541" stroke="black" stroke-width="0.961371" stroke-miterlimit="10" stroke-linecap="round" stroke-linejoin="round"></path><path d="M99.3007 190.704L75.2314 205.862" stroke="black" stroke-width="0.961371" stroke-miterlimit="10" stroke-linecap="round" stroke-linejoin="round"></path><path d="M92.2677 185.809L72.261 198.403" stroke="black" stroke-width="0.961371" stroke-miterlimit="10" stroke-linecap="round" stroke-linejoin="round"></path><path d="M91.0089 180.014L97.7222 174.1L101.765 175.552L98.235 178.562L105.914 182.811L101.039 187.06L91.0089 180.014Z" stroke="black" stroke-width="0.961371" stroke-miterlimit="10" stroke-linecap="round" stroke-linejoin="round"></path><path d="M99.3007 171.923L110.683 161.973L117.529 165.083L106.953 175.452L99.3007 171.923Z" stroke="black" stroke-width="0.961371" stroke-miterlimit="10" stroke-linecap="round" stroke-linejoin="round"></path><path d="M123.024 150.251L126.86 146.861L134.805 153.055L131.315 155.959L126.14 151.41L123.024 150.251Z" stroke="black" stroke-width="0.961371" stroke-miterlimit="10" stroke-linecap="round" stroke-linejoin="round"></path><path d="M122.098 146.342L112.035 211.457" stroke="black" stroke-width="0.961371" stroke-miterlimit="10" stroke-linecap="round" stroke-linejoin="round"></path><path d="M104.729 194.493C104.729 194.493 113.273 190.723 119.807 191.536C126.34 192.348 146.893 225.269 146.893 225.269" stroke="black" stroke-width="0.961371" stroke-miterlimit="10" stroke-linecap="round" stroke-linejoin="round"></path><path d="M146.2 166.428V169.385L154.339 170.264V167.96L146.2 166.428Z" stroke="black" stroke-width="0.961371" stroke-miterlimit="10" stroke-linecap="round" stroke-linejoin="round"></path><path d="M134.805 172.755L137.995 172.235L142.204 177.417H138.501L134.805 172.755Z" stroke="black" stroke-width="0.961371" stroke-miterlimit="10" stroke-linecap="round" stroke-linejoin="round"></path><path d="M130.696 184.264L134.805 182.499L146.2 195.359L140.753 197.331L130.696 184.264Z" stroke="black" stroke-width="0.961371" stroke-miterlimit="10" stroke-linecap="round" stroke-linejoin="round"></path><path d="M126.234 176.658L129.657 181.36L133.287 180.581L128.911 175.865L126.234 176.658Z" stroke="black" stroke-width="0.961371" stroke-miterlimit="10" stroke-linecap="round" stroke-linejoin="round"></path><path d="M140.753 170.99L142.204 172.961H144.795L142.93 170.264L140.753 170.99Z" stroke="black" stroke-width="0.961371" stroke-miterlimit="10" stroke-linecap="round" stroke-linejoin="round"></path><path d="M151.249 178.509L164.502 190.024L189.803 197.763L200.686 183.744" stroke="black" stroke-width="0.961371" stroke-miterlimit="10" stroke-linecap="round" stroke-linejoin="round"></path><path d="M171.342 181.359L200.686 183.744L207.586 181.359L227.819 189.038" stroke="black" stroke-width="0.961371" stroke-miterlimit="10" stroke-linecap="round" stroke-linejoin="round"></path><path d="M184.082 182.392L164.502 206.554L139.767 214.406" stroke="black" stroke-width="0.961371" stroke-miterlimit="10" stroke-linecap="round" stroke-linejoin="round"></path><path d="M179.64 174.826L175.384 179.821L184.935 180.58L187.392 177.703L181.918 177.417L183.476 175.326L179.64 174.826Z" stroke="black" stroke-width="0.961371" stroke-miterlimit="10" stroke-linecap="round" stroke-linejoin="round"></path><path d="M181.385 189.039L178.808 192.109L182.957 193.075L184.922 190.025L181.385 189.039Z" stroke="black" stroke-width="0.961371" stroke-miterlimit="10" stroke-linecap="round" stroke-linejoin="round"></path><path d="M182.85 187.06L184.935 184.057L196.024 185.195L193.373 188.619L182.85 187.06Z" stroke="black" stroke-width="0.961371" stroke-miterlimit="10" stroke-linecap="round" stroke-linejoin="round"></path><path d="M171.342 201.373L176.663 195.672L179.64 197.33L174.865 202.412L171.342 201.373Z" stroke="black" stroke-width="0.961371" stroke-miterlimit="10" stroke-linecap="round" stroke-linejoin="round"></path><path d="M180.153 207.906L189.437 202.411L193.373 205.861L182.85 211.455L180.153 207.906Z" stroke="black" stroke-width="0.961371" stroke-miterlimit="10" stroke-linecap="round" stroke-linejoin="round"></path><path d="M182.85 158.649L187.392 152.115L191.016 152.595L186.933 159.168L182.85 158.649Z" stroke="black" stroke-width="0.961371" stroke-miterlimit="10" stroke-linecap="round" stroke-linejoin="round"></path><path d="M225.987 156.538L232.727 160.208H239.261L231.795 155.646L225.987 156.538Z" stroke="black" stroke-width="0.961371" stroke-miterlimit="10" stroke-linecap="round" stroke-linejoin="round"></path><path d="M225.388 181.979L230.03 186.335L237.396 185.196L232.727 180.787L225.388 181.979Z" stroke="black" stroke-width="0.961371" stroke-miterlimit="10" stroke-linecap="round" stroke-linejoin="round"></path><path d="M243.616 187.061L246.314 192.043L251.289 191.423L249.424 186.335L243.616 187.061Z" stroke="black" stroke-width="0.961371" stroke-miterlimit="10" stroke-linecap="round" stroke-linejoin="round"></path><path d="M211.988 209.252L237.396 197.33L257.163 196.891" stroke="black" stroke-width="0.961371" stroke-miterlimit="10" stroke-linecap="round" stroke-linejoin="round"></path><path d="M264.222 219.202L206.78 168.173C206.487 167.906 206.107 167.76 205.714 167.76H205.441L196.816 167.687C196.623 166.608 196.177 165.615 195.531 164.769L203.436 155.039L203.889 154.48L211.575 154.233L249.45 176.478C249.703 176.631 249.99 176.704 250.27 176.704C250.429 176.704 250.603 176.678 250.756 176.631L249.537 172.775L217.656 154.034L243.143 153.214C243.21 153.214 243.277 153.208 243.336 153.188L241.931 148.726L203.943 121.14L197.682 118.596L198.042 120.867L238.315 150.111L203.037 151.243C202.97 151.243 202.904 151.25 202.844 151.27C202.451 151.33 202.091 151.529 201.838 151.849L193.02 162.718C192.134 162.305 191.162 162.059 190.123 162.059C186.793 162.059 184.016 164.463 183.43 167.62H165.055L164.509 167.214L150.09 156.345C150.416 155.539 150.603 154.673 150.603 153.754C150.603 150.004 147.546 146.947 143.789 146.947C142.198 146.947 140.733 147.5 139.574 148.426L130.689 141.726L154.965 128.366L151.122 126.774L128.039 139.475H128.032L127.266 139.894L89.5837 140.78L89.0642 142.419L88.5448 144.05L123.243 143.238L108.165 156.378C107.945 156.491 107.752 156.651 107.606 156.864L83.5365 177.83C82.8771 177.617 82.1312 177.843 81.7183 178.449C81.4585 178.815 81.3786 179.248 81.4519 179.661L75.7043 184.676L74.7652 187.647L73.8262 190.61L83.8362 181.892L116.67 204.756L117.496 206.261V206.275L119.967 210.81L125.488 213.774L144.376 204.017H148.065C149.091 206.488 151.528 208.226 154.359 208.226C155.764 208.226 157.07 207.793 158.162 207.067L163.297 212.995C163.616 213.361 164.063 213.554 164.522 213.554C164.788 213.554 165.068 213.487 165.321 213.341L190.25 199.368H209.857L210.509 199.661L264.549 223.697C264.762 223.784 264.988 223.837 265.208 223.837C265.368 223.837 265.541 223.81 265.694 223.757L264.222 219.202ZM190.11 165.316C192.074 165.316 193.666 166.914 193.666 168.872C193.666 170.837 192.074 172.435 190.11 172.435C188.145 172.435 186.547 170.837 186.547 168.872C186.547 166.914 188.145 165.316 190.11 165.316ZM143.783 150.204C145.748 150.204 147.346 151.802 147.346 153.761C147.346 155.725 145.748 157.324 143.783 157.324C141.825 157.324 140.226 155.725 140.226 153.761C140.22 151.809 141.825 150.204 143.783 150.204ZM147.559 200.787H143.969C143.71 200.787 143.456 200.853 143.223 200.967L123.763 211.017L119.321 202.885C119.201 202.665 119.028 202.478 118.828 202.332L118.188 201.886L118.182 201.879L86.3603 179.715L109.224 159.774L122.97 166.421L123.643 167.2L149.304 196.857C148.338 197.916 147.706 199.282 147.559 200.787ZM154.339 204.996C152.374 204.996 150.776 203.397 150.776 201.433C150.776 199.468 152.374 197.876 154.339 197.876C156.304 197.876 157.895 199.468 157.895 201.433C157.895 203.391 156.304 204.996 154.339 204.996ZM210.829 196.278C210.629 196.191 210.396 196.138 210.17 196.138H189.797C189.524 196.138 189.244 196.211 188.998 196.351L164.855 209.884L164.489 209.465L160.32 204.656C160.839 203.697 161.132 202.598 161.132 201.433C161.132 197.683 158.075 194.626 154.326 194.626C153.506 194.626 152.727 194.773 152.001 195.039L125.188 164.044C125.042 163.884 124.868 163.744 124.669 163.644L124.229 163.431L111.868 157.463L127.293 144.024L127.759 143.617L137.556 151.003C137.176 151.856 136.963 152.788 136.963 153.774C136.963 157.537 140.02 160.587 143.769 160.587C145.441 160.587 146.973 159.988 148.158 158.989L163.516 170.564C163.789 170.777 164.142 170.89 164.489 170.89H183.583C184.442 173.667 187.033 175.699 190.096 175.699C193.133 175.699 195.711 173.701 196.583 170.95L205.055 171.017L206.08 171.929L256.264 216.504L210.829 196.278Z" fill="black"></path><path d="M208.205 153.766L219.46 134.426" stroke="black" stroke-width="0.961371" stroke-miterlimit="10" stroke-linecap="round" stroke-linejoin="round"></path><path d="M231.615 132.376L227.166 140.028L220.013 152.336L219.76 152.769" stroke="black" stroke-width="0.961371" stroke-miterlimit="10" stroke-linecap="round" stroke-linejoin="round"></path><path d="M88.9377 51.9556C88.9377 51.9556 88.0053 61.4927 88.9377 61.4927C89.8701 61.4927 89.557 63.2576 88.5247 64.19C87.4858 65.1224 87.2793 69.6845 86.4535 71.8623C85.621 74.0401 79.92 75.0791 76.6033 71.8623" stroke="black" stroke-width="0.961371" stroke-miterlimit="10" stroke-linecap="round" stroke-linejoin="round"></path><path d="M78.5681 58.5888C78.5681 58.5888 77.4292 55.1655 74.006 56.4109C70.5827 57.6564 73.1735 65.4352 76.2903 64.2897C76.2903 64.2897 75.9773 69.964 78.5747 73.1941C81.1655 76.4242 80.8591 80.1538 80.8591 80.1538C80.8591 80.1538 73.6796 74.6594 72.3942 74.5528C71.1089 74.4462 67.8987 84.1965 63.4365 89.1715C58.981 94.1465 58.0419 95.9114 58.5614 100.16C59.0809 104.41 57.5225 109.285 55.6577 111.05C53.7929 112.814 53.5864 117.896 53.5864 117.896C53.5864 117.896 51.615 113.647 53.0669 109.291C54.5188 104.936 55.4512 101.825 54.3123 98.1958C53.1735 94.5661 56.5967 89.5245 58.355 87.0136C60.1199 84.5028 61.4652 77.663 61.4652 77.663C61.4652 77.663 54.1791 85.0223 52.5341 91.1428C50.8891 97.2634 52.2411 105.762 48.7113 109.498C45.1881 113.227 44.0759 110.843 44.0759 110.843C44.0759 110.843 47.2594 102.964 47.2594 99.0216C47.2594 95.0789 46.7399 90.8298 47.5724 88.0326C47.5724 88.0326 45.0816 92.4882 44.5621 96.7439C44.0426 100.993 44.0759 107.22 44.0759 107.22L40.8325 106.907C40.8325 106.907 40.4196 99.0283 41.7649 94.3596C43.1102 89.691 43.4232 86.3743 42.8039 82.0186C42.1845 77.663 43.8428 75.2787 49.1309 71.5425C54.4189 67.8129 62.0912 52.5681 63.3366 49.1449C64.5821 45.7216 67.2794 44.1699 71.009 45.1023C71.009 45.1023 74.9517 41.3727 79.4072 41.679C83.8628 41.992 89.4638 45.7216 90.7092 47.38C90.7092 47.38 92.1145 50.7899 88.911 52.3417C88.911 52.3417 87.4192 56.5575 80.7326 55.5718C80.7326 55.5718 79.334 55.4919 79.4072 56.8305C79.4805 58.1692 78.9943 59.4346 78.5681 58.5888Z" fill="black" stroke="black" stroke-width="0.961371" stroke-miterlimit="10" stroke-linecap="round" stroke-linejoin="round"></path><path d="M75.8707 58.8022C75.8707 58.8022 76.9097 59.7346 77.1162 60.9801C77.3226 62.2255 75.3513 60.9801 75.3513 60.9801" stroke="black" stroke-width="0.961371" stroke-miterlimit="10" stroke-linecap="round" stroke-linejoin="round"></path><path d="M86.4735 61.0134C86.7457 61.0134 86.9663 60.6347 86.9663 60.1676C86.9663 59.7005 86.7457 59.3218 86.4735 59.3218C86.2013 59.3218 85.9807 59.7005 85.9807 60.1676C85.9807 60.6347 86.2013 61.0134 86.4735 61.0134Z" fill="black" stroke="black" stroke-width="0.961371" stroke-miterlimit="10" stroke-linecap="round" stroke-linejoin="round"></path><path d="M84.7219 57.4838C84.7219 57.4838 86.2271 56.618 87.2461 56.931" stroke="black" stroke-width="0.961371" stroke-miterlimit="10" stroke-linecap="round" stroke-linejoin="round"></path><path d="M86.4735 65.7949C86.4735 65.7949 85.3213 66.2078 84.7219 66.9871" stroke="black" stroke-width="0.961371" stroke-miterlimit="10" stroke-linecap="round" stroke-linejoin="round"></path><path d="M80.8458 80.1607L98.7812 96.9572C98.7812 96.9572 103.756 85.4488 104.482 82.7515C105.208 80.0542 105.101 77.1904 103.55 73.907C101.998 70.6236 101.478 67.0938 101.785 65.8018C102.098 64.5031 103.756 64.8161 103.963 66.9939C104.169 69.1717 107.386 72.8014 107.386 72.8014L109.251 65.8018C109.251 65.8018 111.428 70.517 111.222 76.7441C111.016 82.9712 107.699 108.059 100.959 109.824C94.219 111.589 75.3446 91.7824 75.3446 91.7824" stroke="black" stroke-width="0.961371" stroke-miterlimit="10" stroke-linecap="round" stroke-linejoin="round"></path><path d="M77.003 93.4539C77.2294 96.1046 77.4159 99.2948 77.1228 100.38C76.5967 102.345 72.967 105.269 70.4762 109.924C67.9853 114.586 66.5268 114.586 66.5268 114.586C66.5268 114.586 58.8611 105.455 43.5098 104.216L44.6553 90.0107L44.0626 82.5449L33.0403 87.4866C33.0403 87.4866 39.9867 97.2768 41.4386 99.9741C42.8904 102.671 40.8125 106.92 40.8125 106.92C40.8125 106.92 33.1469 104.636 26.0939 94.373C19.041 84.1166 21.6317 82.5515 25.055 80.1739C28.4715 77.783 47.3526 67.0004 53.986 67.8263" stroke="black" stroke-width="0.961371" stroke-miterlimit="10" stroke-linecap="round" stroke-linejoin="round"></path><path d="M104.435 82.9517C105.941 82.7052 108.125 82.7052 110.563 83.7642" stroke="black" stroke-width="0.961371" stroke-miterlimit="10" stroke-linecap="round" stroke-linejoin="round"></path><path d="M101.772 67.7729C101.772 67.7729 101.019 67.9794 100.446 69.2714C99.8734 70.5701 103.556 73.9068 103.556 73.9068" stroke="black" stroke-width="0.961371" stroke-miterlimit="10" stroke-linecap="round" stroke-linejoin="round"></path><path d="M100.566 70.2773C100.566 70.2773 99.4138 71.4495 99.567 72.7482C99.7202 74.0469 104.569 76.7109 104.569 76.7109" stroke="black" stroke-width="0.961371" stroke-miterlimit="10" stroke-linecap="round" stroke-linejoin="round"></path><path d="M100.206 73.7144C100.206 73.7144 99.8601 75.1862 100.206 75.9122C100.553 76.6381 104.888 78.6494 104.888 78.6494" stroke="black" stroke-width="0.961371" stroke-miterlimit="10" stroke-linecap="round" stroke-linejoin="round"></path><path d="M100.446 76.1777C100.446 76.1777 99.8268 78.0825 100.812 78.8617C101.798 79.6409 104.888 80.4801 104.888 80.4801" stroke="black" stroke-width="0.961371" stroke-miterlimit="10" stroke-linecap="round" stroke-linejoin="round"></path><path d="M109.91 63.3575L109.257 65.7951L107.386 72.7947C107.386 72.7947 105.268 70.4038 104.362 68.3459L106.134 61.6792L109.91 63.3575Z" fill="black" stroke="black" stroke-width="0.961371" stroke-miterlimit="10" stroke-linecap="round" stroke-linejoin="round"></path><path d="M104.882 80.4803C104.855 80.8932 104.802 81.2995 104.722 81.7058C104.242 82.3318 103.403 82.6248 102.591 82.3718C101.751 82.1054 101.212 81.3328 101.212 80.487C101.212 80.3271 101.239 80.154 101.279 79.9808L101.472 79.2549C102.697 79.8809 104.702 80.4337 104.882 80.4803Z" fill="black" stroke="black" stroke-width="0.961371" stroke-miterlimit="10" stroke-linecap="round" stroke-linejoin="round"></path><path d="M123.836 38.1697C121.985 35.7655 119.247 34.3868 116.13 34.2869C116.017 34.2803 115.897 34.2803 115.784 34.2803C108.765 34.2803 101.605 40.7338 99.7136 48.8457C98.6679 53.3412 99.3939 57.6436 101.712 60.6539C103.563 63.0581 106.3 64.4368 109.417 64.5367C109.53 64.5367 109.65 64.5433 109.764 64.5433C116.783 64.5433 123.943 58.0831 125.834 49.9712C126.88 45.4824 126.154 41.18 123.836 38.1697ZM109.863 61.1933C107.552 61.1201 105.608 60.1477 104.242 58.3762C102.484 56.0918 101.945 52.7751 102.764 49.2653C104.276 42.7851 109.91 37.6236 115.418 37.6236C115.504 37.6236 115.598 37.6236 115.684 37.6303C117.995 37.7035 119.94 38.6759 121.305 40.4474C123.064 42.7318 123.603 46.0552 122.79 49.5583C121.245 56.1451 115.478 61.3665 109.863 61.1933Z" fill="black" stroke="black" stroke-width="0.961371" stroke-miterlimit="10" stroke-linecap="round" stroke-linejoin="round"></path><path d="M118.049 41.6729C118.049 41.6729 120.459 43.2446 120.539 47.6802" stroke="black" stroke-width="0.961371" stroke-miterlimit="10" stroke-linecap="round" stroke-linejoin="round"></path><path d="M106.946 56.551C106.946 56.551 104.775 54.6596 105.315 50.2573" stroke="black" stroke-width="0.961371" stroke-miterlimit="10" stroke-linecap="round" stroke-linejoin="round"></path><path d="M41.7782 103.977C41.7782 103.977 33.5131 116.97 28.9976 138.902C24.4822 160.833 23.7096 234.093 23.7096 234.093H39.2607V232.695C39.2607 232.695 30.7093 233.161 29.7702 223.204H38.0153C38.0153 223.204 45.9473 161.612 47.0396 146.994C47.0396 146.994 48.4382 143.417 48.4382 148.859C48.4382 154.3 49.4505 234.713 49.4505 234.713H65.0815V233.001C65.0815 233.001 55.1248 232.848 55.2847 223.51H61.5051C61.5051 223.51 71.7149 142.372 66.5334 114.586C66.5334 114.586 56.5767 102.185 41.7782 103.977Z" fill="black" stroke="black" stroke-width="0.961371" stroke-miterlimit="10" stroke-linecap="round" stroke-linejoin="round"></path><path d="M35.8441 135.326C35.8441 135.326 41.4452 141.393 49.4505 145.123" stroke="white" stroke-width="0.961371" stroke-miterlimit="10" stroke-linecap="round" stroke-linejoin="round"></path><path d="M98.7878 96.957L101.212 99.0083" stroke="black" stroke-width="0.961371" stroke-miterlimit="10" stroke-linecap="round" stroke-linejoin="round"></path><path d="M301.751 113.848C298.228 109.213 295.051 105.37 295.051 105.37L294.732 101.787C294.732 101.787 295.051 90.2782 291.468 84.9902C289.071 81.4471 285.188 79.3025 281.492 79.1161C280.193 71.8633 275.378 60.6279 275.378 60.6279L272.687 52.1297C272.687 52.1297 274.618 47.0482 278.814 47.0881C283.003 47.1281 288.138 66.0225 290.849 71.5037C293.56 76.9915 301.285 86.2223 302.511 93.4617C303.596 99.8686 300.386 107.887 301.751 113.848Z" fill="black" stroke="black" stroke-width="0.961371" stroke-miterlimit="10" stroke-linecap="round" stroke-linejoin="round"></path><path d="M257.289 61.6598C257.609 59.8149 256.996 56.6914 256.756 53.8076C256.47 50.5575 256.67 47.6271 259.174 47.1876C262.084 46.6947 263.183 48.1466 263.616 49.3454C263.883 50.1113 263.876 50.764 263.876 50.764C263.876 50.764 263.996 51.7031 264.209 53.2815C264.495 55.4193 264.935 58.716 265.408 62.3724C263.363 63.3314 261.132 63.1982 261.132 63.1982C261.099 63.8509 261.052 65.0763 261.065 66.6148C259.966 65.7157 259.374 64.9365 259.374 64.9365C259.027 66.788 257.955 67.9468 256.743 68.686C256.437 66.1619 256.876 64.0574 257.289 61.6598Z" fill="black" stroke="black" stroke-width="0.961371" stroke-miterlimit="10" stroke-linecap="round" stroke-linejoin="round"></path><path d="M268.018 87.647C267.978 88.1132 267.932 88.5794 267.885 89.0656C267.592 89.5384 267.306 90.0313 267.026 90.5441C267.026 90.5441 256.79 95.2527 260.872 102.798C260.386 103.385 259.86 104.044 259.281 104.763C259.281 104.763 257.722 102.239 256.503 101.227C256.403 99.242 256.53 97.304 256.976 95.5391C257.509 93.3946 258.122 90.9903 258.615 88.5394C259.58 89.3386 260.646 89.7515 261.825 89.6183C264.402 89.332 266.453 88.5461 268.018 87.647Z" fill="black" stroke="black" stroke-width="0.961371" stroke-miterlimit="10" stroke-linecap="round" stroke-linejoin="round"></path><path d="M263.456 124.184C261.638 126.482 263.823 133.668 263.922 133.995C259.647 129.519 261.578 122.852 260.619 117.951C261.165 118.31 263.689 119.909 267.432 121.254C267.259 122.113 267.106 123.032 266.993 124.058C266.36 129.952 269.743 137.258 269.743 137.258C263.916 133.395 263.456 124.184 263.456 124.184Z" fill="black" stroke="black" stroke-width="0.961371" stroke-miterlimit="10" stroke-linecap="round" stroke-linejoin="round"></path><path d="M251.382 69.7656C251.382 69.7656 254.459 90.4582 261.818 89.6257C269.177 88.7932 272.188 83.9248 272.188 83.9248" stroke="black" stroke-width="0.961371" stroke-miterlimit="10" stroke-linecap="round" stroke-linejoin="round"></path><path d="M260.872 71.9035C260.872 71.9035 262.937 69.5458 265.328 71.5505" stroke="black" stroke-width="0.961371" stroke-miterlimit="10" stroke-linecap="round" stroke-linejoin="round"></path><path d="M253.393 74.0672C253.393 74.0672 254.872 71.6629 257.229 73.5211" stroke="black" stroke-width="0.961371" stroke-miterlimit="10" stroke-linecap="round" stroke-linejoin="round"></path><path d="M259.52 74.8735C259.52 74.8735 257.988 77.4443 258.162 78.3168C258.335 79.1892 260.493 79.6887 260.493 79.6887" stroke="black" stroke-width="0.961371" stroke-miterlimit="10" stroke-linecap="round" stroke-linejoin="round"></path><path d="M252.314 69.9852C252.314 69.9852 258.448 69.8986 259.387 64.9503C259.387 64.9503 263.776 70.7178 270.975 69.1461L273.393 71.7035L279.081 72.7891C279.081 72.7891 280.786 67.6076 279.294 62.4794C277.802 57.3512 275.418 51.1507 270.569 51.577C265.721 52.0032 263.383 53.7948 263.383 53.7948C263.383 53.7948 260.379 52.0698 256.81 53.7748C253.24 55.4797 251.282 58.8364 250.662 61.6336C250.056 64.4308 250.123 70.6246 252.314 69.9852Z" fill="black" stroke="black" stroke-width="0.961371" stroke-miterlimit="10" stroke-linecap="round" stroke-linejoin="round"></path><path d="M272.687 71.9692C272.687 71.9692 274.405 68.6459 277.262 68.0865C280.12 67.527 282.604 76.0252 274.872 77.5304" fill="white"></path><path d="M272.687 71.9692C272.687 71.9692 274.405 68.6459 277.262 68.0865C280.12 67.527 282.604 76.0252 274.872 77.5304" stroke="black" stroke-width="0.961371" stroke-miterlimit="10" stroke-linecap="round" stroke-linejoin="round"></path><path d="M276.497 70.7373C276.497 70.7373 275.324 72.8219 275.178 74.3137C275.031 75.7989 277.482 73.9275 277.482 73.9275" fill="white"></path><path d="M276.497 70.7373C276.497 70.7373 275.324 72.8219 275.178 74.3137C275.031 75.7989 277.482 73.9275 277.482 73.9275" stroke="black" stroke-width="0.961371" stroke-miterlimit="10" stroke-linecap="round" stroke-linejoin="round"></path><path d="M262.497 75.7329C262.832 75.7329 263.103 75.1992 263.103 74.5408C263.103 73.8824 262.832 73.3486 262.497 73.3486C262.163 73.3486 261.891 73.8824 261.891 74.5408C261.891 75.1992 262.163 75.7329 262.497 75.7329Z" fill="black" stroke="black" stroke-width="0.961371" stroke-miterlimit="10" stroke-linecap="round" stroke-linejoin="round"></path><path d="M255.098 77.271C255.433 77.271 255.704 76.7373 255.704 76.0789C255.704 75.4205 255.433 74.8867 255.098 74.8867C254.763 74.8867 254.492 75.4205 254.492 76.0789C254.492 76.7373 254.763 77.271 255.098 77.271Z" fill="black" stroke="black" stroke-width="0.961371" stroke-miterlimit="10" stroke-linecap="round" stroke-linejoin="round"></path><path d="M260.093 81.7599C260.093 81.7599 258.615 82.5391 258.848 84.1708C259.081 85.8025 261.105 87.9004 262.697 86.5417C264.289 85.1831 263.59 79.8218 260.093 81.7599Z" fill="black" stroke="black" stroke-width="0.961371" stroke-miterlimit="10" stroke-linecap="round" stroke-linejoin="round"></path><path d="M263.51 99.6089C263.51 99.6089 242.171 124.963 234.392 140.361C234.392 140.361 233.979 141.867 235.531 141.447C237.089 141.034 240.406 135.12 240.406 135.12" fill="white"></path><path d="M263.51 99.6089C263.51 99.6089 242.171 124.963 234.392 140.361C234.392 140.361 233.979 141.867 235.531 141.447C237.089 141.034 240.406 135.12 240.406 135.12" stroke="black" stroke-width="0.961371" stroke-miterlimit="10" stroke-linecap="round" stroke-linejoin="round"></path><path d="M240.659 133.048C240.659 133.048 240.086 135.746 240.346 137.61C240.606 139.475 241.905 140.514 243.097 139.475" stroke="black" stroke-width="0.961371" stroke-miterlimit="10" stroke-linecap="round" stroke-linejoin="round"></path><path d="M243.01 133.048C243.01 133.048 242.444 135.746 242.704 137.61C242.963 139.455 243.956 140.794 245.821 138.976" stroke="black" stroke-width="0.961371" stroke-miterlimit="10" stroke-linecap="round" stroke-linejoin="round"></path><path d="M245.015 133.049C245.015 133.049 244.582 136.572 245.015 138.024C245.448 139.476 247.086 139.369 248.232 138.024C249.37 136.679 249.837 134.447 249.577 133.981C249.317 133.515 248.438 133.255 247.452 135.12L246.78 136.465C246.78 136.465 248.545 132.629 248.698 131.337C248.851 130.039 270.476 107.228 270.476 107.228" stroke="black" stroke-width="0.961371" stroke-miterlimit="10" stroke-linecap="round" stroke-linejoin="round"></path><path d="M267.672 110.198C267.672 110.198 275.185 118.117 276.33 118.589C277.476 119.062 292.874 112.369 294.738 101.793C294.738 101.793 295.051 90.2844 291.475 84.9963C287.898 79.7083 281.012 77.5305 276.363 80.3277C271.715 83.1249 266.187 89.1921 263.51 99.615C263.51 99.615 268.917 101.48 270.476 107.234C270.476 107.234 278.095 107.853 281.831 105.369C285.561 102.878 285.561 98.5228 288.212 97.4372" fill="white"></path><path d="M267.672 110.198C267.672 110.198 275.185 118.117 276.33 118.589C277.476 119.062 292.874 112.369 294.738 101.793C294.738 101.793 295.051 90.2844 291.475 84.9963C287.898 79.7083 281.012 77.5305 276.363 80.3277C271.715 83.1249 266.187 89.1921 263.51 99.615C263.51 99.615 268.917 101.48 270.476 107.234C270.476 107.234 278.095 107.853 281.831 105.369C285.561 102.878 285.561 98.5228 288.212 97.4372" stroke="black" stroke-width="0.961371" stroke-miterlimit="10" stroke-linecap="round" stroke-linejoin="round"></path><path d="M294.732 101.787L295.051 105.37C291.561 115.626 276.776 120.215 276.776 120.215L276.33 118.583" stroke="black" stroke-width="0.961371" stroke-miterlimit="10" stroke-linecap="round" stroke-linejoin="round"></path><path d="M295.051 105.37C295.051 105.37 309.59 122.939 310.989 128.387C312.387 133.828 309.823 144.637 304.069 147.987C298.315 151.33 295.671 151.797 289.99 151.41C284.315 151.024 284.122 154.833 279.121 156.079C274.126 157.324 269.377 155.999 266.427 152.889L276.776 120.221" stroke="black" stroke-width="0.961371" stroke-miterlimit="10" stroke-linecap="round" stroke-linejoin="round"></path><path d="M266.427 152.882C266.427 152.882 263.863 158.79 264.402 163.225C264.948 167.661 270.389 186.402 270.469 189.899C270.549 193.395 265.494 195.42 264.868 197.131C264.249 198.843 271.249 196.585 273.813 196.119C276.377 195.653 278.128 195.966 278.501 194.561C278.868 193.162 276.85 188.107 276.85 182.193C276.85 176.279 275.058 165.396 274.285 162.986C273.506 160.575 275.058 156.519 275.058 156.519" stroke="black" stroke-width="0.961371" stroke-miterlimit="10" stroke-linecap="round" stroke-linejoin="round"></path><path d="M282.93 154.195C282.204 156.186 281.019 160.075 281.412 163.226C281.958 167.661 287.399 186.402 287.472 189.899C287.552 193.402 282.504 195.42 281.878 197.125C281.252 198.837 288.251 196.579 290.822 196.119C293.386 195.653 295.145 195.966 295.511 194.561C295.877 193.162 293.859 188.114 293.859 182.2C293.859 176.286 292.061 165.403 291.295 162.993C290.622 160.895 293.36 153.435 294.099 151.491" stroke="black" stroke-width="0.961371" stroke-miterlimit="10" stroke-linecap="round" stroke-linejoin="round"></path><path d="M267.033 90.5444C267.033 90.5444 256.803 95.2597 260.879 102.799" stroke="black" stroke-width="0.961371" stroke-miterlimit="10" stroke-linecap="round" stroke-linejoin="round"></path><path d="M266.427 111.523L267.825 117.111" stroke="black" stroke-width="0.961371" stroke-miterlimit="10" stroke-linecap="round" stroke-linejoin="round"></path><path d="M260.499 117.876C260.499 117.876 267.053 122.399 275.844 123.158" stroke="black" stroke-width="0.961371" stroke-miterlimit="10" stroke-linecap="round" stroke-linejoin="round"></path><path d="M266.893 113.435C266.893 113.435 268.644 113.881 270.802 113.435" stroke="black" stroke-width="0.961371" stroke-miterlimit="10" stroke-linecap="round" stroke-linejoin="round"></path><path d="M267.286 115.067C267.286 115.067 270.716 115.44 272.188 114.833" stroke="black" stroke-width="0.961371" stroke-miterlimit="10" stroke-linecap="round" stroke-linejoin="round"></path><path d="M262.497 100.828C262.497 100.828 268.158 103.858 269.077 108.713" stroke="black" stroke-width="0.961371" stroke-miterlimit="10" stroke-linecap="round" stroke-linejoin="round"></path><path d="M259.28 104.77C259.28 104.77 256.883 100.874 255.704 100.828C254.532 100.781 257.229 105.989 257.229 105.989C257.229 105.989 251.189 99.6886 249.63 99.6087C248.072 99.5288 253.393 105.37 253.393 105.37C253.393 105.37 248.931 101.48 247.452 101.4C245.974 101.32 249.55 105.13 251.808 106.768C251.808 106.768 247.452 103.971 246.6 104.124C245.747 104.277 246.753 106.302 250.802 108.713C250.802 108.713 247.379 107.468 246.833 108.247C246.287 109.026 253.16 112.529 253.16 112.529" stroke="black" stroke-width="0.961371" stroke-miterlimit="10" stroke-linecap="round" stroke-linejoin="round"></path><path d="M278.548 156.199L281.944 130.951" stroke="black" stroke-width="0.961371" stroke-miterlimit="10" stroke-linecap="round" stroke-linejoin="round"></path><path d="M298.222 150.751C298.222 150.751 297.962 135.82 295.551 124.831" stroke="black" stroke-width="0.961371" stroke-miterlimit="10" stroke-linecap="round" stroke-linejoin="round"></path></svg> 