<?xml version="1.0" encoding="UTF-8"?> <svg xmlns="http://www.w3.org/2000/svg" width="355" height="255" viewBox="0 0 355 255" fill="none"><path d="M148.273 149.37C210.402 160.174 270.607 137.619 310.51 94.628H354.931C354.931 192.518 275.477 271.872 177.464 271.872C79.4502 271.872 0 192.509 0 94.6182H47.5364C74.1662 123.445 109.576 142.691 148.273 149.37Z" fill="#FCD404"></path><path d="M316.345 94.3481H47.1183C37.4401 77.1997 31.1861 58.3384 28.7031 38.8102L331.767 0C335.607 29.897 329.324 69.9076 316.345 94.3481Z" fill="#FF9AD4"></path><path d="M316.639 94.3481C275.666 154.918 213.844 186.703 150.043 171.478C132.954 167.4 116.831 160.207 101.93 150.406L101.867 150.366C82.3225 137.496 64.8755 120.134 50.1058 99.3869C49.0783 97.7227 48.0827 96.0387 47.1189 94.335L316.639 94.3481Z" fill="#007CE0"></path></svg> 