<?xml version="1.0" encoding="UTF-8"?> <svg xmlns="http://www.w3.org/2000/svg" width="191" height="142" viewBox="0 0 191 142" fill="none"><path d="M166.95 5.14206C165.55 7.9931 163.45 11.4042 162.2 12.7279C161 14.0516 160 15.3243 160 15.528C160 15.7316 160.75 16.8008 161.7 17.8699C163 19.2954 163.85 21.1282 164.95 24.8448C166.55 29.9868 167.4 31.4124 168.7 30.9032C169.4 30.5978 169.8 29.4777 171 24.5902C171.6 22.0447 173.4 19.7536 176.1 18.0227C177.15 17.3608 178 16.5462 178 16.2408C178 15.9353 176.9 14.6116 175.55 13.2879C172.95 10.7932 172.25 9.16406 171.7 4.07292C171.35 1.3237 170.8 0 169.95 0C169.7 0 168.35 2.34193 166.95 5.14206ZM169.75 9.01133C170.25 10.3859 171.3 12.4224 172.15 13.5934L173.65 15.7316L172.05 17.5644C171.2 18.5827 169.9 20.5682 169.2 22.0447C167.7 24.9466 167.95 25.0993 166.25 20.2118C165.8 18.8881 164.85 17.1572 164.2 16.3426L163.05 14.9171L164.2 13.797C164.85 13.1861 166.1 11.3533 167.05 9.67318C168 7.9931 168.8 6.61849 168.8 6.61849C168.85 6.61849 169.25 7.68763 169.75 9.01133Z" fill="#FF9AD4"></path><path d="M14.3768 39.6277C13.9583 40.0852 13.2258 41.6102 12.8072 42.9827C10.8713 48.5742 6.58094 52.9458 3.02308 52.9458C1.34879 52.9458 -0.430141 54.1149 0.0930743 54.8774C0.250039 55.1824 1.55808 55.7924 2.97076 56.2499C7.15648 57.5715 8.15059 58.8932 10.5574 66.0605C12.127 70.5338 13.3304 71.8554 14.6908 70.4829C15.1617 70.0763 15.6326 68.7546 15.8418 67.5855C16.679 62.7056 19.2427 59.3507 23.9517 57.0124C26.6201 55.6907 26.6724 54.4199 24.161 52.895C20.917 50.9633 19.8183 49.3367 18.144 44.2026C16.4697 39.1194 15.6849 38.1536 14.3768 39.6277ZM18.144 51.1158C18.7719 52.0816 19.8706 53.3016 20.6031 53.8099L21.9111 54.7249L19.1904 56.7074C17.7254 57.7749 15.7895 59.8082 14.9001 61.1806L13.2258 63.7731L11.8131 60.6723C11.0283 58.9948 9.72023 56.9615 8.88309 56.1991L7.36576 54.7249L9.82487 52.3866C11.2376 51.1158 12.9642 48.8284 13.749 47.3034L15.1617 44.6093L16.1035 46.9476C16.6267 48.2692 17.5161 50.15 18.144 51.1158Z" fill="#FF9AD4"></path><path d="M179.245 110.598C178.981 110.955 178.295 112.382 177.82 113.808C175.497 120.023 172.593 122.927 167.842 123.997C164.305 124.761 164.041 126.086 167.209 127.156C171.907 128.684 173.438 130.416 175.127 136.224C176.5 140.809 177.345 142.184 178.717 141.981C179.668 141.879 180.037 141.217 180.776 138.465C182.202 132.861 183.944 130.62 188.589 128.327C191.123 127.054 191.704 125.78 190.12 124.761C186.425 122.367 184.63 119.921 182.993 115.082C181.41 110.293 180.407 109.121 179.245 110.598ZM181.674 119.463C182.571 121.297 184.049 123.488 184.999 124.354L186.689 125.882L185.158 126.952C182.782 128.582 180.248 131.282 179.14 133.371L178.137 135.205L177.609 133.931C176.236 130.467 174.6 127.716 173.491 126.85L172.224 125.882L174.969 123.131C176.5 121.603 178.242 119.412 178.77 118.24C179.351 117.068 179.826 116.101 179.931 116.101C179.984 116.101 180.776 117.629 181.674 119.463Z" fill="#FF9AD4"></path></svg> 