<?xml version="1.0" encoding="UTF-8"?> <svg xmlns="http://www.w3.org/2000/svg" width="320" height="360" viewBox="0 0 320 360" fill="none"><path d="M701.731 103.136C687.55 84.1222 663.018 49.9701 636.203 48.0103C629.033 47.4419 621.161 49.6464 613.807 52.6984C603.677 56.623 594.01 63.7212 585.539 71.0047C571.834 82.9001 558.786 96.2708 544.37 106.539C534.939 113.337 525.024 118.973 514.771 122.966C504.615 127.017 494.28 129.277 484.297 129.631C474.23 130.052 464.36 128.743 454.14 127.597C438.788 125.723 422.018 124.911 405.173 127.995C362.431 135.4 328.247 159.632 296.548 194.327C283.927 207.656 272.476 221.697 258.466 233.152C253.95 236.778 249.206 239.951 244.316 242.029C234.849 246.117 224.041 246.304 217.436 241.1C205.139 230.351 212.172 203.048 196.28 187.755C185.521 177.376 167.215 175.011 150.169 178.518C117.295 185.202 86.8471 213.037 54.3032 216.608C33.5051 218.616 17.3604 210.181 7.68762 194.822C-3.03678 178.363 -10.192 158.368 -31.4915 152.544C-57.4369 145.116 -88.6774 159.826 -114.569 177.41C-129.676 187.751 -144.275 199.848 -158.049 212.176C-162.613 216.353 -167.089 220.605 -171.595 224.832L-167.986 228.89C-133.88 198.464 -76.3929 150.454 -36.5123 162.235C-17.7568 167.581 -11.6318 187.188 -1.6202 202.193C9.64167 220.026 28.2429 229.719 52.5564 227.251C96.523 223.017 136.881 174.667 178.876 187.643C193.561 191.923 198.636 203.752 201.191 218.572C202.652 225.985 203.753 234.189 207.314 240.757C213.613 252.804 230.705 254.629 245.459 248.404C251.368 245.918 256.886 242.366 261.949 238.481C276.689 226.926 289.025 212.856 302.315 199.814C332.975 168.777 364.718 146.74 404.139 139.65C420.061 136.746 434.821 137.472 449.879 139.237C459.997 140.351 470.458 141.658 481.74 141.094C493.09 140.582 504.817 137.915 516.324 133.23C538.985 124.478 559.619 107.454 577.564 90.1553C586.275 82.0387 594.868 73.6102 604.497 67.23C609.156 64.1727 614.065 61.711 619.072 59.922C624.116 57.997 628.782 56.9535 633.325 57.1735C651.477 58.395 666.964 74.805 678.177 86.4655C684.462 93.3013 690.505 100.402 696.306 107.767L701.731 103.136Z" fill="#0231A3"></path><path d="M688.19 151.094C677.041 135.852 665.291 120.963 651.12 108.494C640.041 98.9877 625.955 89.4647 607.91 93.6195C589.609 97.6743 574.612 111.14 560.834 124.924C536.637 150.114 507.466 173.913 475.807 176.523C454.866 178.418 435.224 173.161 413.9 174.489C391.717 175.534 368.664 182.057 346.708 193.501C324.887 204.882 305.505 221.429 287.818 239.221C274.849 251.999 263.131 265.65 248.884 276.356C237.719 284.8 225.671 288.563 214.55 285.672C193.717 279.987 202.787 248.561 181.147 233.29C168.749 224.557 151.264 222.565 133.828 226.906C96.8789 235.8 60.5665 271.485 24.6407 264.302C4.47835 261.031 -5.09848 246.745 -14.1565 230.304C-19.0265 221.864 -24.3076 213.284 -32.3078 207.418C-58.2546 188.314 -97.7422 204.727 -128.748 225.892C-148.831 239.621 -167.732 255.964 -185.6 272.803L-181.595 277.299C-163.738 261.002 -145.143 245.547 -125.505 232.473C-97.9507 214.186 -62.0303 198.53 -39.3099 215.683C-32.1866 221.01 -27.6112 228.892 -23.1171 236.791C-13.4844 254.896 -2.49588 270.66 20.2566 274.615C41.9444 279.054 65.2085 269.64 87.3846 257.525C107.494 246.811 128.172 234.425 148.678 234.134C158.21 234.106 167.727 236.216 174.764 241.094C182.083 245.996 186.116 254.261 188.859 262.913C193.86 279.15 197.559 293.34 217.879 294.557C235.43 296.171 252.838 284.144 267.206 270.831C285.242 254.285 301.313 236.618 320.622 222.015C339.076 207.705 359.575 197.169 380.47 191.254C438.065 173.925 464.943 207.015 524.765 168.111C540.3 158.002 554.179 144.078 566.959 131.044C579.441 118.427 591.883 106.538 607.623 102.762C629.99 97.029 652.279 121.839 664.378 134.82C670.546 141.696 676.498 148.807 682.233 156.152L688.223 151.064L688.19 151.094Z" fill="#0231A3"></path><path d="M660.349 205.455C646.26 186.651 631.788 167.84 612.759 153.744C596.871 142.181 579.366 138.312 556.945 153.399C539.267 165.592 526.022 184.126 510.46 198.207C501.971 206.086 492.827 213.106 482.998 218.604C449.895 238.281 423.228 227.627 391.453 229.302C375.004 230.08 358.048 233.726 341.317 240.084C313.056 250.463 287.813 268.941 264.926 290.652C248.708 305.285 230.608 326.644 210.964 332.912C201.68 335.753 191.392 335.145 184.727 330.633C181.35 328.418 178.825 325.066 176.742 321.151C174.659 317.237 172.888 312.8 170.824 308.377C166.765 299.279 160.523 290.751 151.64 285.959C142.778 281.002 132.243 278.626 120.908 279.029C78.4105 280.044 36.3522 328.037 -4.66773 318.862C-38.5423 312.276 -38.0442 278.781 -61.1939 261.698C-71.89 253.935 -87.0537 252.071 -102.211 255.14C-121.119 258.872 -140.039 269.201 -157.233 280.635C-177.384 294.495 -196.137 310.441 -213.94 327.18L-209.545 332.116C-169.255 294.922 -92.8616 233.134 -58.7855 278.957C-44.1466 300.256 -39.1154 322.329 -9.11347 328.787C40.1343 339.291 81.1738 285.646 125.788 289.265C136.819 290.38 147.077 294.322 153.961 301.796C160.583 308.823 163.55 318.354 168.349 327.134C170.837 331.59 174.023 335.82 178.355 338.664C187.278 344.446 199.23 345.243 211.327 341.824C223.169 338.342 233.983 330.325 243.684 322.01C262.105 306.002 278.422 288.858 297.981 274.84C326.08 254.401 358.547 241.979 389.05 240.378C404.568 239.405 419.743 241.637 435.338 241.603C463.94 242.087 492.527 227.569 516.358 204.846C525.538 196.231 533.665 186.917 541.809 178.241C549.954 169.564 558.304 161.548 567.65 156.976C572.236 154.744 576.996 153.173 581.588 152.961C586.179 152.748 590.499 153.625 594.623 155.251C603.056 158.577 610.357 164.192 617.024 170.029C630.647 182.252 642.443 196.56 653.773 211.033L660.349 205.455Z" fill="#0231A3"></path><path d="M638.759 263.554C624.665 244.912 610.213 226.342 592.061 211.51C574.727 197.728 555.48 190.223 530.164 210.303C515.601 222.065 505.13 237.317 492.331 250.514C480.528 262.997 466.704 273.971 451.701 280.953C425.401 293.379 400.92 286.126 375.289 287.821C357.692 288.587 339.277 292.77 321.34 299.659C294.926 309.653 270.402 326.317 248.281 345.924C234.646 357.576 222.27 370.256 207.494 379.261C196.01 386.34 183.408 388.092 172.921 384.988C161.53 381.74 156.774 371.495 150.611 362.357C145.27 354.183 137.762 347.026 128.597 342.897C119.357 338.667 108.809 336.287 97.4112 337.129C86.1197 337.916 74.4062 341.751 63.2933 346.829C33.1281 360.796 2.05978 384.396 -27.5484 377.24C-60.456 370.404 -60.4344 336.405 -83.6364 319.739C-89.8033 315.37 -97.5041 313.011 -105.675 312.273L-109.807 312.092C-110.493 312.059 -111.192 312.068 -111.899 312.119L-114.007 312.221L-116.111 312.322C-116.817 312.351 -117.529 312.493 -118.238 312.57L-122.497 313.15C-125.329 313.754 -128.203 314.27 -131.042 315.128C-168.789 326.105 -205.792 357.435 -236.05 385.347L-231.27 390.717C-213.729 374.44 -195.386 359.087 -176.042 345.959C-152.878 330.693 -125.333 316.806 -101.985 322.489C-77.2353 328.34 -73.5805 355.842 -57.8884 372.108C-46.2625 384.984 -27.2831 390.604 -7.23669 387.553C17.8464 383.657 41.6629 367.055 65.3251 356.313C75.4689 351.759 85.613 348.519 95.2656 347.905C109.706 347.121 123.243 351.753 132.838 359.994C141.554 367.407 145.932 378.898 154.236 387.054C163.506 396.07 178.288 398.74 193.275 395.271C236.1 384.343 262.552 324.752 342.154 303.471C399.427 287.592 427.507 318.369 485.09 269.371C499.027 257.456 510.837 242.197 522.618 229.021C530.152 220.737 538.302 213.13 548.248 209.316C567.159 202.06 584.45 218.254 595.531 228.191C608.737 240.782 620.403 255.089 631.598 269.626L638.75 263.558L638.759 263.554Z" fill="#0231A3"></path></svg> 