<?xml version="1.0" encoding="UTF-8"?> <svg xmlns="http://www.w3.org/2000/svg" width="333" height="333" viewBox="0 0 333 333" fill="none"><path d="M312.507 55.4443H49.4771C47.3392 55.4443 45.6143 57.2026 45.6143 59.3804V227.066C45.6143 229.244 47.3392 231.002 49.4771 231.002H312.507C314.645 231.002 316.37 229.244 316.37 227.066V59.3804C316.37 57.2026 314.645 55.4443 312.507 55.4443ZM308.624 223.11H53.3598V63.3431H308.624V223.11Z" fill="black" stroke="black" stroke-width="0.721012" stroke-miterlimit="10" stroke-linecap="round" stroke-linejoin="round"></path><path d="M308.624 63.3428H53.3599V223.11H308.624V63.3428Z" fill="white" stroke="black" stroke-width="0.721012" stroke-miterlimit="10" stroke-linecap="round" stroke-linejoin="round"></path><path d="M98.0751 231.009H263.916V235.624C263.916 237.442 262.444 238.908 260.632 238.908H101.358C99.5403 238.908 98.0751 237.436 98.0751 235.624V231.009Z" fill="black" stroke="black" stroke-width="0.721012" stroke-miterlimit="10" stroke-linecap="round" stroke-linejoin="round"></path><path d="M234.332 103.063C234.332 103.063 236.03 107.738 235.238 109.097C234.452 110.462 227.552 115.797 225.687 122.177C223.823 128.558 230.363 128.697 233.693 126.626C237.023 124.555 239.807 123.749 242.384 126.606C244.961 129.457 247.206 128.284 249.83 124.748C252.454 121.212 254.965 125.068 257.789 122.803C260.612 120.539 254.665 114.099 251.502 111.515C248.345 108.931 246.28 109.37 247.559 105.727C248.844 102.084 248.671 100.619 245.274 99.9528C241.884 99.2868 233.28 99.5865 234.332 103.063Z" fill="white" stroke="black" stroke-width="0.721012" stroke-miterlimit="10" stroke-linecap="round" stroke-linejoin="round"></path><path d="M241.352 103.194C244.274 103.066 246.622 102.512 246.597 101.957C246.573 101.402 244.185 101.056 241.264 101.185C238.343 101.314 235.994 101.868 236.019 102.423C236.043 102.977 238.431 103.323 241.352 103.194Z" fill="black" stroke="black" stroke-width="0.721012" stroke-miterlimit="10" stroke-linecap="round" stroke-linejoin="round"></path><path d="M257.496 123.022C257.729 136.869 245.894 138.673 241.944 138.64C237.849 138.607 230.622 139.24 227.799 134.285C226.067 131.228 225.987 128.344 226.174 126.592" stroke="black" stroke-width="0.721012" stroke-miterlimit="10" stroke-linecap="round" stroke-linejoin="round"></path><path d="M276.037 107.851C276.037 107.851 276.03 107.951 276.017 108.124C275.944 109.197 275.711 113.186 276.21 114.711C276.789 116.476 279.094 124.295 278.821 127.752C278.548 131.208 278.075 136.443 276.743 137.695C275.411 138.947 264.182 141.558 261.958 137.642C259.733 133.726 258.927 125.161 260.046 121.385C261.165 117.608 262.064 115.823 261.824 112.16C261.585 108.497 260.512 107.712 264.408 106.832C268.311 105.947 276.137 106.2 276.037 107.851Z" fill="white" stroke="black" stroke-width="0.721012" stroke-miterlimit="10" stroke-linecap="round" stroke-linejoin="round"></path><path d="M268.749 109.982C271.932 109.866 274.492 109.218 274.467 108.534C274.442 107.85 271.842 107.39 268.659 107.506C265.475 107.622 262.915 108.27 262.94 108.954C262.965 109.637 265.566 110.098 268.749 109.982Z" fill="black" stroke="black" stroke-width="0.721012" stroke-miterlimit="10" stroke-linecap="round" stroke-linejoin="round"></path><path d="M222.177 88.3652C219.793 93.5067 217.416 98.7082 215.984 104.209C214.512 109.89 214.279 115.778 214.365 121.625C214.452 127.333 214.705 133.127 216.303 138.642C217.662 143.337 219.88 147.812 222.804 151.728C228.937 159.947 238.042 165.681 248.145 167.553C250.696 168.025 253.4 168.385 256.004 168.219C258.894 168.032 261.192 166.713 263.476 165.035C267.952 161.745 272.114 157.969 275.957 153.96C282.91 146.694 288.411 138.195 290.636 128.292C292.687 119.181 292.201 109.404 288.911 100.64C285.574 91.7418 279.16 82.7175 269.79 79.6206C264.535 77.8824 258.641 77.8424 253.16 78.0422C247.565 78.2487 242.197 79.3542 237.076 81.6453C232.314 83.7698 227.985 86.7402 223.949 90.0102C219.953 93.2403 216.21 96.7968 212.727 100.566C205.774 108.085 199.827 116.55 195.131 125.655C193.979 127.892 192.907 130.17 191.901 132.488C191.595 133.2 191.688 134.033 192.421 134.459C193.027 134.819 194.086 134.659 194.392 133.94C198.268 124.982 203.303 116.504 209.384 108.871C215.464 101.232 222.584 94.0462 230.689 88.5584C234.738 85.8211 239.114 83.5367 243.842 82.2447C249.097 80.8128 254.625 80.7329 260.033 80.9726C265.095 81.1924 270.01 82.1115 274.232 85.0619C277.962 87.6659 280.919 91.3822 283.196 95.285C287.625 102.871 289.437 111.782 288.857 120.513C288.245 129.757 284.781 138.369 279.227 145.741C276.197 149.764 272.634 153.38 268.924 156.77C266.939 158.582 264.908 160.36 262.77 161.985C260.739 163.523 258.628 165.168 255.99 165.341C251.182 165.655 246.114 164.456 241.665 162.717C237.209 160.979 233.067 158.362 229.59 155.078C222.484 148.372 218.448 139.321 217.589 129.651C217.096 124.103 217.009 118.402 217.456 112.847C217.895 107.333 219.4 102.078 221.485 96.9699C222.471 94.559 223.563 92.1947 224.662 89.8304C224.988 89.1245 224.861 88.2786 224.142 87.8591C223.529 87.4861 222.51 87.6526 222.177 88.3652Z" fill="black"></path><path d="M228.078 96.363C232.028 103.496 236.21 110.502 240.652 117.342C244.742 123.642 249.104 129.796 254.066 135.444C256.883 138.647 259.9 141.678 263.137 144.455C264.542 145.654 266.586 143.622 265.175 142.417C253.679 132.573 245.268 119.713 237.496 106.873C235.111 102.93 232.8 98.9405 230.569 94.9045C229.67 93.2861 227.173 94.738 228.078 96.363Z" fill="black"></path><path d="M233.986 147.04C244.888 135.471 256.583 124.662 268.977 114.712C272.454 111.921 275.99 109.211 279.573 106.56C280.199 106.101 280.512 105.308 280.093 104.589C279.733 103.969 278.748 103.603 278.122 104.069C265.201 113.613 252.94 124.029 241.472 135.278C238.235 138.455 235.058 141.698 231.948 144.995C230.669 146.354 232.707 148.398 233.986 147.04Z" fill="black"></path><path d="M189.071 148.744C189.071 148.744 189.191 151.941 188.358 152.767C187.532 153.593 186.593 154.185 186.593 154.185" stroke="black" stroke-width="0.961371" stroke-miterlimit="10" stroke-linecap="round" stroke-linejoin="round"></path><path d="M109.757 132.094C109.757 132.094 111.841 147.338 113.293 146.992C114.752 146.646 114.918 149.516 113.646 151.354C112.374 153.193 113.739 160.399 113.253 164.108C112.767 167.818 104.242 171.554 97.8685 167.765" stroke="black" stroke-width="0.961371" stroke-miterlimit="10" stroke-linecap="round" stroke-linejoin="round"></path><path d="M91.8945 147.632C91.8945 147.632 93.8592 148.704 94.6451 150.569C95.431 152.434 91.8945 151.222 91.8945 151.222" stroke="black" stroke-width="0.961371" stroke-miterlimit="10" stroke-linecap="round" stroke-linejoin="round"></path><path d="M109.276 147.142C109.702 147.041 109.906 146.367 109.733 145.637C109.559 144.907 109.073 144.397 108.648 144.498C108.222 144.6 108.017 145.273 108.191 146.003C108.364 146.733 108.85 147.243 109.276 147.142Z" fill="black" stroke="black" stroke-width="0.961371" stroke-miterlimit="10" stroke-linecap="round" stroke-linejoin="round"></path><path d="M105.228 142.291C105.228 142.291 107.259 140.38 108.958 140.493" stroke="black" stroke-width="0.961371" stroke-miterlimit="10" stroke-linecap="round" stroke-linejoin="round"></path><path d="M111.049 154.632C111.049 154.632 109.41 155.704 108.751 157.143" stroke="black" stroke-width="0.961371" stroke-miterlimit="10" stroke-linecap="round" stroke-linejoin="round"></path><path d="M106.633 199.973C107.892 204.395 109.33 210.623 109.284 212.101C109.191 215.364 104.602 221.285 102.457 229.477C100.286 237.675 98.0218 238.222 98.0218 238.222C98.0218 238.222 82.6572 226.806 58.2283 230.556L54.7451 207.945L51.0488 196.503L35.6709 208.305C35.6709 208.305 50.1564 221.019 53.4264 224.688C56.6965 228.358 55.0182 235.771 55.0182 235.771C55.0182 235.771 42.1977 235.045 27.3792 221.632C12.5607 208.225 16.0305 204.822 20.4861 199.84C24.9416 194.845 50.4228 170.996 61.0854 169.83" fill="white"></path><path d="M106.633 199.973C107.892 204.395 109.33 210.623 109.284 212.101C109.191 215.364 104.602 221.285 102.457 229.477C100.286 237.675 98.0218 238.222 98.0218 238.222C98.0218 238.222 82.6572 226.806 58.2283 230.556L54.7451 207.945L51.0488 196.503L35.6709 208.305C35.6709 208.305 50.1564 221.019 53.4264 224.688C56.6965 228.358 55.0182 235.771 55.0182 235.771C55.0182 235.771 42.1977 235.045 27.3792 221.632C12.5607 208.225 16.0305 204.822 20.4861 199.84C24.9416 194.845 50.4228 170.996 61.0854 169.83" stroke="black" stroke-width="0.961371" stroke-miterlimit="10" stroke-linecap="round" stroke-linejoin="round"></path><path d="M103.323 277.556H38.6678C42.0844 249.897 55.4177 230.836 55.4177 230.836C77.8619 222.544 98.0151 238.222 98.0151 238.222C102.151 247.539 103.323 261.705 103.323 277.556Z" fill="black" stroke="black" stroke-width="0.961371" stroke-miterlimit="10" stroke-linecap="round" stroke-linejoin="round"></path><path d="M107.592 179.14L152.168 183.789C152.168 183.789 164.942 165.653 168.252 160.685C171.562 155.717 171.328 151.361 172.747 147.625C174.166 143.889 179.847 138.687 182.684 137.029C185.521 135.37 184.815 139.593 182.684 141.384C180.553 143.176 178.428 149.616 178.428 149.616" stroke="black" stroke-width="0.961371" stroke-miterlimit="10" stroke-linecap="round" stroke-linejoin="round"></path><path d="M192.381 141.392C192.381 141.392 190.016 147.326 189.071 148.744C188.125 150.163 185.641 152.174 185.641 152.174" stroke="black" stroke-width="0.961371" stroke-miterlimit="10" stroke-linecap="round" stroke-linejoin="round"></path><path d="M188.864 151.615C188.864 151.615 188.611 154.865 187.839 155.891C187.379 156.497 184.469 159.174 182.184 161.246C180.406 162.857 179.041 164.875 178.221 167.133C175.358 175.025 167.432 194.379 157.316 198.309C144.542 203.277 103.323 199.727 103.323 199.727" stroke="black" stroke-width="0.961371" stroke-miterlimit="10" stroke-linecap="round" stroke-linejoin="round"></path><path d="M166.806 162.83C169.477 163.723 174.592 165.88 177.136 170.003" stroke="black" stroke-width="0.961371" stroke-miterlimit="10" stroke-linecap="round" stroke-linejoin="round"></path><path d="M152.168 183.796L149.33 186.953" stroke="black" stroke-width="0.961371" stroke-miterlimit="10" stroke-linecap="round" stroke-linejoin="round"></path><path d="M184.469 138.401L192.381 132.094C192.381 132.094 193.759 131.381 194.825 133.233C195.198 133.879 195.045 134.711 194.512 135.231L189.903 139.713" fill="white"></path><path d="M184.469 138.401L192.381 132.094C192.381 132.094 193.759 131.381 194.825 133.233C195.198 133.879 195.045 134.711 194.512 135.231L189.903 139.713" stroke="black" stroke-width="0.721012" stroke-miterlimit="10" stroke-linecap="round" stroke-linejoin="round"></path><path d="M179.154 147.632C179.154 147.632 188.005 141.532 191.668 138.215C195.338 134.905 194.032 138.768 192.381 141.392C190.722 144.016 184.555 148.744 184.555 148.744" stroke="black" stroke-width="0.961371" stroke-miterlimit="10" stroke-linecap="round" stroke-linejoin="round"></path><path d="M96.0305 146.307C96.0305 146.307 92.9802 141.385 88.0984 144.602C83.2166 147.812 90.1497 159.001 94.5852 156.064C94.5852 156.064 96.2036 165.041 101.452 169.124C106.7 173.206 107.599 179.147 107.599 179.147C107.599 179.147 94.3455 173.226 92.3009 173.546C90.2562 173.859 88.8576 190.276 83.7361 199.7C78.6212 209.131 77.8154 212.227 80.2063 218.674C82.5972 225.121 81.9712 233.306 79.7135 236.756C77.4557 240.199 79.0142 248.211 79.0142 248.211C79.0142 248.211 74.3588 242.304 75.0115 234.965C75.6642 227.625 75.9639 222.417 72.8403 217.176C69.7168 211.934 73.1867 202.79 75.0048 198.215C76.8297 193.646 76.3901 182.457 76.3901 182.457C76.3901 182.457 67.7388 196.656 67.4391 206.826C67.1394 216.996 72.4008 229.77 68.2782 236.909C64.1557 244.049 61.5383 240.732 61.5383 240.732C61.5383 240.732 63.5896 227.246 62.1244 221.092C60.6592 214.938 58.2749 208.491 58.5347 203.809C58.5347 203.809 56.3036 211.695 57.0695 218.528C57.8354 225.361 60.193 235.065 60.193 235.065L55.0115 235.784C55.0115 235.784 51.4418 223.629 51.8147 215.844C52.1877 208.058 51.4418 202.757 48.8577 196.19C46.2669 189.617 47.9786 185.281 54.8517 177.489C61.7248 169.697 68.0518 143.043 68.7245 137.242C69.3971 131.435 73.0335 128.005 79.2073 128.078C79.2073 128.078 83.9759 120.786 91.0554 119.62C98.135 118.455 108.265 122.204 110.822 124.335C110.822 124.335 114.279 129.144 109.85 132.747C109.85 132.747 109.084 139.886 98.2749 140.832C98.2749 140.832 96.0571 141.232 96.6765 143.29C97.2892 145.321 97.0095 147.472 96.0305 146.307Z" fill="black" stroke="black" stroke-width="0.961371" stroke-miterlimit="10" stroke-linecap="round" stroke-linejoin="round"></path><path d="M116.823 74.4053L113.866 75.9437H109.963L103.576 79.6067L98.3747 76.2967L77.7953 77.8352C77.7953 77.8352 74.8383 83.6294 77.7953 92.9734H91.6281L103.689 96.4033L108.298 95.1046L116.224 95.2244C116.224 95.2244 118.235 88.8375 118.588 84.9347C118.954 81.032 116.823 74.4053 116.823 74.4053Z" stroke="black" stroke-width="0.721012" stroke-miterlimit="10" stroke-linecap="round" stroke-linejoin="round"></path><path d="M113.866 75.9434C113.866 75.9434 115.224 79.2534 115.224 83.9287C115.224 88.604 112.973 95.1708 112.973 95.1708" stroke="black" stroke-width="0.721012" stroke-miterlimit="10" stroke-linecap="round" stroke-linejoin="round"></path><path d="M109.963 75.9434C109.963 75.9434 109.197 79.4931 108.838 80.4988C108.485 81.5045 104.995 85.4072 104.995 85.4072C104.995 85.4072 99.2605 78.8471 98.7876 78.4875C98.3147 78.1278 92.9934 77.4818 92.9934 77.4818" stroke="black" stroke-width="0.721012" stroke-miterlimit="10" stroke-linecap="round" stroke-linejoin="round"></path><path d="M103.696 96.4032L99.3204 88.5977" stroke="black" stroke-width="0.721012" stroke-miterlimit="10" stroke-linecap="round" stroke-linejoin="round"></path><path d="M108.311 95.1042L109.963 89.8428" stroke="black" stroke-width="0.721012" stroke-miterlimit="10" stroke-linecap="round" stroke-linejoin="round"></path><path d="M91.6347 92.9734C91.6347 92.9734 89.4502 88.9508 89.6833 82.9834" stroke="black" stroke-width="0.721012" stroke-miterlimit="10" stroke-linecap="round" stroke-linejoin="round"></path><path d="M81.4116 77.5684C80.9521 80.1391 79.9065 87.6116 81.9311 92.9729" stroke="black" stroke-width="0.721012" stroke-miterlimit="10" stroke-linecap="round" stroke-linejoin="round"></path><path d="M86.9595 77.1553C86.5666 79.2199 85.2545 87.2851 87.3991 92.9794" stroke="black" stroke-width="0.721012" stroke-miterlimit="10" stroke-linecap="round" stroke-linejoin="round"></path><path d="M77.8019 92.9731L72.4207 87.9781H69.4037C69.4037 87.9781 68.2781 86.473 69.4037 83.3961H72.1809L77.7953 77.835" stroke="black" stroke-width="0.721012" stroke-miterlimit="10" stroke-linecap="round" stroke-linejoin="round"></path><path d="M70.2428 84.2158C70.7756 87.2328 72.4206 87.9787 72.4206 87.9787C72.4206 87.9787 71.4016 88.6514 70.689 87.679C69.9764 86.7 69.5768 85.2748 69.5768 85.2748" fill="white"></path><path d="M70.2428 84.2158C70.7756 87.2328 72.4206 87.9787 72.4206 87.9787C72.4206 87.9787 71.4016 88.6514 70.689 87.679C69.9764 86.7 69.5768 85.2748 69.5768 85.2748" stroke="black" stroke-width="0.721012" stroke-miterlimit="10" stroke-linecap="round" stroke-linejoin="round"></path><path d="M190.659 85.1182L143.904 82.6602L142.032 118.275L188.786 120.733L190.659 85.1182Z" fill="white" stroke="black" stroke-width="0.721012" stroke-miterlimit="10" stroke-linecap="round" stroke-linejoin="round"></path><path d="M166.267 93.6065C167.981 93.6065 169.37 92.217 169.37 90.503C169.37 88.7889 167.981 87.3994 166.267 87.3994C164.553 87.3994 163.163 88.7889 163.163 90.503C163.163 92.217 164.553 93.6065 166.267 93.6065Z" fill="black" stroke="black" stroke-width="0.961371" stroke-miterlimit="10" stroke-linecap="round" stroke-linejoin="round"></path><path d="M222.078 157.149L227.352 188.491L222.864 196.623L200.14 200.446L193.659 161.931L197.109 161.352L197.362 162.85C196.936 163.103 196.69 163.603 196.776 164.116C196.89 164.795 197.536 165.241 198.202 165.128C198.868 165.015 199.334 164.382 199.214 163.703C199.127 163.183 198.728 162.797 198.242 162.697L197.988 161.199L201.239 160.653L201.492 162.151C201.065 162.404 200.819 162.904 200.906 163.416C201.019 164.096 201.651 164.549 202.331 164.429C203.003 164.316 203.463 163.683 203.343 163.004C203.256 162.484 202.85 162.098 202.371 161.998L202.118 160.499L205.368 159.953L205.621 161.452C205.195 161.705 204.948 162.204 205.035 162.717C205.148 163.396 205.781 163.849 206.46 163.729C207.133 163.616 207.579 162.984 207.466 162.304C207.379 161.785 206.979 161.398 206.493 161.299L206.24 159.8L209.497 159.254L209.75 160.752C209.31 161.012 209.064 161.505 209.151 162.025C209.264 162.704 209.91 163.15 210.582 163.037C211.255 162.924 211.701 162.291 211.588 161.612C211.502 161.092 211.102 160.706 210.616 160.606L210.363 159.107L213.613 158.561L213.866 160.06C213.44 160.313 213.193 160.812 213.28 161.325C213.393 162.005 214.039 162.451 214.705 162.338C215.384 162.224 215.837 161.592 215.717 160.912C215.631 160.393 215.231 160.007 214.745 159.907L214.492 158.408L217.742 157.862L217.995 159.361C217.569 159.614 217.322 160.113 217.409 160.626C217.522 161.305 218.168 161.751 218.834 161.638C219.507 161.525 219.953 160.892 219.84 160.213C219.753 159.694 219.354 159.307 218.874 159.207L218.621 157.709L222.078 157.149Z" fill="white" stroke="black" stroke-width="0.721012" stroke-miterlimit="10" stroke-linecap="round" stroke-linejoin="round"></path><path d="M227.352 188.498L222.864 196.63L221.572 191.968L227.352 188.498Z" fill="black" stroke="black" stroke-width="0.721012" stroke-miterlimit="10" stroke-linecap="round" stroke-linejoin="round"></path><path d="M209.217 171.668C210.931 171.668 212.321 170.279 212.321 168.565C212.321 166.85 210.931 165.461 209.217 165.461C207.503 165.461 206.114 166.85 206.114 168.565C206.114 170.279 207.503 171.668 209.217 171.668Z" fill="black" stroke="black" stroke-width="0.961371" stroke-miterlimit="10" stroke-linecap="round" stroke-linejoin="round"></path><path d="M73.16 103.362C76.5233 102.816 80.0997 103.103 83.3032 104.281C84.9948 104.907 86.5865 105.534 88.418 105.6C90.3028 105.667 92.1809 105.234 94.0191 104.861C95.9172 104.475 97.762 104.268 99.7067 104.381C101.638 104.495 103.55 104.814 105.474 104.987C109.317 105.334 113.173 105.114 117.016 104.874C121.378 104.608 125.754 104.315 130.116 104.768C130.889 104.848 131.562 104.048 131.562 103.322C131.562 102.477 130.896 101.964 130.116 101.877C122.324 101.071 114.532 102.656 106.733 102.19C102.75 101.95 98.9142 101.091 94.9182 101.757C93.1 102.057 91.3085 102.59 89.4637 102.696C87.6055 102.803 86.0471 102.25 84.3355 101.597C80.5459 100.159 76.3701 99.9391 72.3941 100.578C71.6215 100.705 71.1953 101.657 71.3884 102.35C71.6149 103.169 72.3941 103.482 73.16 103.362Z" fill="black"></path><path d="M74.7517 113.027C75.1313 113.08 75.491 113.133 75.8706 113.1C76.2302 113.073 76.5965 113.027 76.9495 112.927C77.2692 112.84 77.5955 112.707 77.8819 112.541C78.0684 112.434 78.2349 112.294 78.4014 112.161C78.4746 112.101 78.5412 112.041 78.5945 111.968C78.7344 111.835 78.8343 111.681 78.8942 111.502C78.9875 111.328 79.0274 111.142 79.0208 110.949C79.0208 110.596 78.8609 110.17 78.6012 109.93C78.3281 109.677 77.9685 109.49 77.5822 109.51C77.2292 109.524 76.7963 109.637 76.5632 109.93C76.4966 110.01 76.4234 110.076 76.3434 110.143C76.4433 110.07 76.5366 109.99 76.6365 109.917C76.4966 110.016 76.3501 110.103 76.1903 110.17C76.3035 110.123 76.4167 110.07 76.5366 110.023C76.2768 110.13 76.0038 110.203 75.7241 110.243C75.8506 110.223 75.9771 110.21 76.1103 110.19C75.804 110.23 75.491 110.236 75.1779 110.196C75.3045 110.216 75.431 110.23 75.5642 110.25C75.5509 110.25 75.5376 110.243 75.5243 110.243C75.3311 110.183 75.138 110.176 74.9515 110.216C74.7584 110.223 74.5785 110.283 74.412 110.389C74.1123 110.563 73.826 110.909 73.746 111.249C73.6595 111.615 73.6794 112.034 73.8926 112.361C73.9658 112.461 74.0457 112.554 74.119 112.654C74.2922 112.834 74.5053 112.953 74.7517 113.027Z" fill="black"></path><path d="M86.2002 112.74C91.3884 112.447 96.7696 112.087 101.811 113.606C103.05 113.979 104.269 114.358 105.561 114.518C106.946 114.685 108.331 114.598 109.71 114.418C112.487 114.052 115.185 113.466 117.995 113.386C121.219 113.299 124.442 113.592 127.652 113.886C128.431 113.959 129.097 113.173 129.097 112.44C129.097 111.601 128.431 111.068 127.652 110.995C124.815 110.735 121.971 110.476 119.121 110.482C116.277 110.489 113.52 110.902 110.722 111.368C109.424 111.581 108.112 111.748 106.786 111.721C105.468 111.688 104.242 111.335 102.99 110.948C100.499 110.176 97.9285 109.796 95.3244 109.67C92.2875 109.517 89.2438 109.683 86.2069 109.856C84.3554 109.963 84.3487 112.847 86.2002 112.74Z" fill="black"></path><path d="M158.781 150.836L165.401 146.394L161.691 139.687C161.691 139.687 157.909 132.461 155.644 131.762C153.38 131.062 150.736 131.415 150.736 131.415C150.736 131.415 150.343 133.433 148.591 134.699C147.093 135.784 145.068 135.784 143.57 134.699C141.818 133.433 141.425 131.415 141.425 131.415C141.425 131.415 138.781 131.069 136.517 131.762C134.252 132.461 130.469 139.687 130.469 139.687L126.76 146.394L133.38 150.836L134.752 146.826L133.773 166.16H145.867H146.294H158.388L157.409 146.826L158.781 150.836Z" stroke="black" stroke-width="0.961371" stroke-miterlimit="10" stroke-linecap="round" stroke-linejoin="round"></path><path d="M130.376 129.923C136.91 139.294 144.162 148.165 152.088 156.404C154.325 158.735 156.617 161.006 158.954 163.237C160.299 164.515 162.344 162.478 160.992 161.199C152.86 153.46 145.301 145.095 138.488 136.177C136.557 133.653 134.685 131.082 132.867 128.472C132.421 127.832 131.602 127.539 130.896 127.952C130.263 128.318 129.93 129.277 130.376 129.923Z" fill="black"></path><path d="M127.839 164.302C133.486 162.77 135.484 156.637 138.948 152.594C141.132 150.05 143.696 147.879 146.12 145.568C148.551 143.257 150.822 140.779 152.914 138.162C155.298 135.178 157.469 132.035 159.387 128.731C160.32 127.126 157.829 125.668 156.896 127.273C153.633 132.887 149.65 138.048 145.021 142.611C142.737 144.862 140.28 146.926 138.075 149.257C136.07 151.375 134.519 153.753 132.92 156.177C131.455 158.401 129.77 160.786 127.066 161.518C125.281 162.005 126.04 164.788 127.839 164.302Z" fill="black"></path><path d="M246.899 180.246C258.481 179.56 270.083 179.254 281.678 179.32C283.536 179.333 283.536 176.45 281.678 176.436C270.076 176.363 258.474 176.669 246.899 177.362C245.061 177.469 245.048 180.352 246.899 180.246Z" fill="black"></path><path d="M247.852 184.595C260.313 184.595 272.774 184.595 285.228 184.595C287.086 184.595 287.086 181.711 285.228 181.711C272.767 181.711 260.306 181.711 247.852 181.711C246 181.711 245.994 184.595 247.852 184.595Z" fill="black"></path><path d="M246.673 190.169C258.974 190.109 271.275 190.042 283.576 189.982C285.434 189.976 285.434 187.092 283.576 187.099C271.275 187.159 258.974 187.225 246.673 187.285C244.815 187.298 244.815 190.182 246.673 190.169Z" fill="black"></path><path d="M247.372 197.768C259.573 196.863 271.814 196.563 284.042 196.876C285.9 196.923 285.9 194.039 284.042 193.992C271.814 193.679 259.573 193.979 247.372 194.885C245.534 195.018 245.521 197.902 247.372 197.768Z" fill="black"></path><path d="M253.826 201.026C248.837 203.936 243.503 206.021 237.915 207.459C232.267 208.911 226.5 209.79 220.739 210.663C217.802 211.109 214.818 211.515 211.841 211.282C209.024 211.056 206.353 210.03 203.809 208.851C198.754 206.507 193.666 204.043 189.091 200.833C184.469 197.589 180.453 193.393 178.208 188.152C177.962 187.579 177.136 187.333 176.576 187.486C175.924 187.666 175.584 188.239 175.518 188.878C175.125 192.548 175.844 196.211 177.469 199.514C178.288 201.179 180.779 199.72 179.96 198.055C178.554 195.198 178.062 192.035 178.401 188.878C177.509 189.118 176.61 189.364 175.717 189.604C180.233 200.153 190.882 205.841 200.706 210.556C203.363 211.828 206.067 213.12 208.964 213.746C212.028 214.412 215.164 214.286 218.255 213.9C224.275 213.14 230.329 212.175 236.243 210.823C242.923 209.297 249.357 206.966 255.284 203.503C256.883 202.584 255.431 200.087 253.826 201.026Z" fill="black"></path><path d="M177.163 189.757C180.073 191.855 183.43 193.347 186.939 194.106C187.672 194.266 188.531 193.886 188.711 193.1C188.878 192.374 188.491 191.495 187.705 191.329C184.349 190.603 181.412 189.291 178.614 187.273C177.982 186.813 177.009 187.166 176.643 187.792C176.217 188.511 176.53 189.297 177.163 189.757Z" fill="black"></path></svg> 