<?xml version="1.0" encoding="UTF-8"?> <svg xmlns="http://www.w3.org/2000/svg" width="168" height="299" viewBox="0 0 168 299" fill="none"><path d="M75.2665 8.82129C76.4129 8.58225 77.8013 8.66263 78.925 9.11376C79.6988 9.4244 80.3955 9.99783 80.8094 11.255C81.0755 12.0634 81.1953 13.0314 81.2617 13.9533C81.5075 17.3763 81.4699 20.8771 81.5828 24.3202C81.6754 27.1463 82.2991 36.2569 81.9696 38.4288C88.098 38.3314 94.2307 38.0159 100.358 37.7912L128.542 36.7815C128.475 40.8176 128.547 44.8756 128.585 48.913C128.661 56.8785 128.773 64.8596 128.602 72.8227C128.474 78.7904 128.1 84.714 127.837 90.6641C127.445 98.8457 127.253 107.042 127.259 115.253C127.309 125.879 128.051 136.332 128.4 146.919C128.635 154.009 128.553 161.144 128.535 168.244C128.521 173.447 128.698 179.05 128.013 184.134C125.351 184.994 121.238 184.5 118.392 184.565C111.597 184.72 104.761 184.834 97.9715 185.337C98.5404 187.539 98.6417 189.584 98.2194 191.9C96.6802 193.666 95.0942 193.644 93.3216 193.86C93.9442 195.298 94.601 196.678 95.2069 198.142C96.4259 201.087 97.5331 204.168 98.6963 207.183L103.865 220.414C105.13 223.65 106.367 226.917 107.577 230.218C108.787 233.518 109.97 236.849 111.126 240.21C112.282 243.572 113.41 246.963 114.511 250.383C115.611 253.803 116.683 257.251 117.727 260.726C119.252 265.741 121.031 270.933 121.933 276.431C122.148 277.739 122.298 279.134 122.139 280.488C121.981 281.85 121.5 282.759 120.856 283.49C119.744 284.756 117.576 285.852 116.273 285.294C115.812 285.096 115.443 284.624 115.122 284.016C113.106 280.205 111.562 274.545 110.103 270.001C107.814 262.87 105.572 255.615 103.136 248.641C101.308 247.822 99.6357 246.023 97.9183 244.678C94.1697 241.744 90.2397 239.156 86.7086 235.443C86.7072 239.604 86.371 243.785 86.5558 247.941C86.667 250.441 87.4073 253.102 87.2008 255.61C87.1159 256.64 86.812 257.496 86.3426 258.109C84.8883 260.012 82.4771 259.92 80.7828 259.468C79.7377 259.048 78.6229 258.573 77.8526 257.144C75.9962 253.7 76.2622 242.512 76.3572 237.844C72.885 240.739 68.8037 243.268 65.182 245.731C62.2643 247.715 59.4037 249.941 56.4339 251.673C53.2996 260.588 50.5087 269.872 47.4647 278.882C47.0029 280.249 46.5255 281.606 46.0855 282.994C45.8048 283.88 45.5683 284.873 45.2439 285.707C45.0443 286.221 44.7624 286.784 44.3925 286.856C43.6303 287.002 40.9169 284.13 40.2719 283.22C39.491 282.121 38.9567 280.686 38.8593 278.893C38.7219 276.366 39.4095 273.812 40.0681 271.654C41.3801 267.356 42.8689 263.235 44.3393 259.106C48.6174 247.093 53.2889 235.543 57.5713 223.535C59.6992 217.568 61.6909 211.434 63.6908 205.328C64.815 201.896 65.774 198.333 67.1784 195.22C65.2098 195.243 62.7425 195.572 60.9598 193.869C60.4151 193.349 59.9131 192.572 59.7615 191.463C59.571 190.07 59.9682 188.717 60.3782 187.581C57.5698 187.606 54.7596 187.836 51.9518 187.953C46.6812 188.223 41.4096 188.391 36.1369 188.457C33.4148 188.521 30.6708 188.84 27.9498 188.652C27.5716 188.625 26.7865 188.649 26.4849 188.229C26.381 186.908 26.2635 185.58 26.191 184.253C26.0249 181.214 26.119 178.054 26.1189 174.998L26.1134 157.463C26.0653 148.313 25.6545 139.185 25.6195 130.033C25.5775 119.057 25.9072 108.085 25.9097 97.1092C25.927 88.9425 25.8142 80.7814 25.5711 72.626C25.3568 66.4207 24.8898 60.2501 24.94 54.0224C24.9613 51.3966 25.1129 42.6133 25.9699 40.8723C26.151 40.5047 26.4141 40.5155 26.6742 40.4735C28.1269 40.2392 29.6063 40.2254 31.0649 40.1622C34.2218 40.0255 37.3781 40.0482 40.5352 39.9671L59.6482 39.3926C63.703 39.2548 67.7688 39.1938 71.8201 38.844C71.4064 36.7415 71.2328 34.6413 71.0949 32.4391C70.8587 28.6677 70.4297 13.0452 71.7017 10.4226C72.416 8.94966 74.2441 8.99038 75.2665 8.82129ZM123.23 39.3505C117.444 39.7831 111.636 39.8651 105.845 40.0934C98.993 40.3638 92.1191 40.744 85.2663 40.7578C86.163 42.3347 87.3429 44.7882 87.3204 47.1835C87.315 47.7436 87.2165 48.3715 86.9998 48.7951C86.6092 49.5582 85.5914 49.8717 85.0307 50.0331C82.7449 50.691 80.3268 50.6289 78.0161 50.7978C74.8274 51.0311 71.5736 51.4697 68.3852 51.1095C67.676 51.0293 66.7784 50.7791 66.3043 49.7417C66.1107 49.3183 66.1016 48.7892 66.1406 48.2715C66.3197 45.8984 67.2824 43.5964 67.8574 41.4744C57.2155 41.6824 46.567 42.3538 35.9247 42.3273C33.0758 42.3202 30.2334 42.1348 27.3861 42.0335C27.7804 46.6276 27.5283 51.151 27.6394 55.756C27.7561 60.5969 28.0103 65.4251 28.1306 70.2643C28.2449 74.8571 28.2292 79.4597 28.2772 84.0557L28.9236 154.073C29.0209 163.583 28.9416 173.162 29.1852 182.659C29.1956 184.212 29.1486 185.671 28.9757 187.194C34.3829 186.392 39.757 186.286 45.1768 186.07C51.0628 185.839 56.9479 185.549 62.832 185.198C65.6283 185.039 68.4457 185.031 71.236 184.67C71.0159 183.917 70.7195 182.985 70.8446 182.109C70.9206 181.577 71.1278 181.337 71.3885 181.124C71.9849 180.634 72.673 180.377 73.3201 180.212C75.8508 179.567 85.9196 178.672 87.9277 180.055C88.1321 180.195 88.3082 180.412 88.3751 180.804C88.507 181.576 88.2749 182.34 88.0497 182.977C87.9655 183.21 87.8769 183.439 87.784 183.661C100.43 182.871 113.078 182.245 125.729 181.783C124.992 176.958 125.322 171.861 125.418 166.924C125.496 162.896 125.56 158.845 125.519 154.815C125.375 140.846 124.285 126.98 124.304 112.994C124.312 105.125 124.503 97.2695 124.878 89.4286C125.148 83.2144 125.532 76.9766 125.604 70.7436C125.696 62.7675 125.107 45.9695 126.465 39.2582C125.387 39.2854 124.307 39.2809 123.23 39.3505ZM91.8694 197.741C90.5259 197.987 89.1471 198.423 87.7988 198.442C91.351 207.394 94.7733 216.5 98.066 225.76C101.783 236.636 105.403 247.615 108.924 258.696C110.385 263.186 111.83 267.692 113.26 272.212C114.414 275.85 115.677 279.57 116.506 283.492C117.296 283.717 118.896 282.893 119.538 282.027C119.945 281.478 120.199 280.699 120.267 279.798C120.596 275.433 117.657 266.896 116.486 263.028C114.722 257.211 112.963 251.41 111.069 245.722C108.605 238.45 106.03 231.304 103.345 224.285C100.912 217.996 98.4549 211.738 95.9735 205.51C94.929 202.892 93.8217 200.326 92.8135 197.667C92.5044 197.687 92.175 197.668 91.8694 197.741ZM72.4068 198.774L68.0176 199.299C66.7542 202.79 65.6084 206.419 64.4259 209.998C62.7732 215.017 61.0694 219.981 59.3145 224.888C55.0979 236.558 50.3856 247.645 46.225 259.378C44.7702 263.48 43.2062 267.698 42.056 272.099C41.5536 274.021 40.8647 276.703 41.1132 278.87C41.3081 280.571 42.0887 281.774 42.8757 282.661L44.6913 284.753C46.2861 278.813 47.9792 272.964 49.7706 267.206C52.789 257.662 55.9144 248.231 59.1467 238.912C61.267 232.688 63.3391 226.405 65.4927 220.22C66.4144 217.573 72.5981 200.211 72.6802 198.86C72.5142 198.705 72.6048 198.74 72.4068 198.774ZM80.7817 199.078C79.8522 199.221 78.9211 199.286 77.9883 199.274C78.1154 203.913 78.3741 208.534 78.5038 213.169C78.6459 218.242 78.6483 223.344 78.7242 228.424L78.8672 238.931C78.8957 242.391 78.8758 245.88 79.0985 249.323C79.2087 251.025 79.4107 254.415 80.1707 255.622C80.6683 256.411 81.4476 256.901 82.1071 257.068C82.8467 257.227 83.8664 257.531 84.5109 256.697C84.8402 256.27 84.9501 255.609 84.9879 254.916C85.1451 252.028 84.4545 248.325 84.306 245.331C84.1127 241.431 84.3392 237.481 84.205 233.571C84.0237 228.287 83.3502 223.103 83.0047 217.851C82.7692 213.984 82.5625 210.112 82.3846 206.235C82.2651 203.891 82.2602 201.16 81.8391 198.926L80.7817 199.078ZM75.4635 197.022C73.9975 202.118 72.1092 207.006 70.39 211.852C67.2137 220.733 64.0631 229.642 60.9381 238.581L61.6443 238.138C64.8359 235.807 68.0463 233.561 71.2756 231.401C72.8933 230.304 74.5268 229.028 76.1946 228.203C76.1052 223.843 76.2452 219.498 76.1891 215.143C76.1434 211.598 75.9143 208.08 75.8363 204.541C75.7947 202.654 75.9237 198.749 75.5922 197.138L75.4635 197.022ZM95.7138 185.479C91.2391 185.802 86.7631 186.059 82.2859 186.248L61.6688 187.466C61.8507 188.89 61.8213 191.25 62.5866 192.088C62.7215 192.236 62.8723 192.328 63.0202 192.424C64.429 192.999 66.0095 192.874 67.4498 192.905C69.6363 192.965 71.8228 192.961 74.0092 192.893C78.6923 192.811 83.3736 192.598 88.0529 192.255C90.6774 192.068 93.7299 192.075 96.2775 191.101C96.7328 189.364 96.6913 187.286 96.7435 185.399L95.7138 185.479ZM83.902 194.522C84.5321 199.875 84.7402 205.327 85.0459 210.758C85.3277 215.838 85.7077 220.894 86.1859 225.927C90.5428 228.423 94.7407 232.064 98.8838 235.501C97.7492 231.242 96.2961 227.124 94.889 223.136C92.4705 216.32 89.9431 209.636 87.3069 203.081C86.5837 201.299 85.8022 199.597 85.0714 197.827C84.7564 197.063 84.3306 194.901 83.902 194.522ZM75.6166 11.0132C75.0928 11.0841 73.8793 11.0196 73.5327 11.7096C72.7813 13.2052 72.816 24.8295 72.8681 27.3753C72.9461 31.1777 73.3402 35.0527 72.9777 38.835C73.6859 38.8081 74.4095 38.8345 75.1135 38.6946C74.7382 36.2965 74.9554 33.3683 74.8881 30.8876C74.817 28.2755 74.0536 19.0475 74.6392 17.1786C74.7339 16.8765 74.8789 16.6062 75.0662 16.4907C75.3614 16.3086 75.7126 16.5449 75.9862 16.752C76.2179 17.271 76.3341 17.7175 76.42 18.3654C76.659 20.1668 76.6709 22.2068 76.7448 24.0505C76.9366 28.8292 77.1707 33.9138 76.9841 38.6981C77.9311 38.6868 78.8773 38.6328 79.8228 38.536C79.5963 33.6753 79.4192 28.809 79.2915 23.9371C79.2013 20.6228 79.209 17.2172 78.9162 13.938C78.8367 13.0468 78.7089 12.2915 78.4743 11.4884C77.5053 11.0174 76.6178 10.8903 75.6166 11.0132ZM80.7008 40.9597L70.3058 41.3406C69.997 43.9913 69.2923 46.1014 68.7567 48.5861C70.0938 48.7295 71.4025 48.7239 72.7412 48.6206L79.6115 48.2768C81.3425 48.1765 83.2353 48.2801 84.9188 47.5388C84.4724 45.4018 83.9149 43.12 83.7822 40.8393C82.7568 40.8666 81.7243 40.8559 80.7008 40.9597Z" fill="#007CE0"></path><path d="M96.1107 61.8162C97.2727 61.6722 98.4281 61.836 99.5275 62.5605C100.949 63.4975 101.716 65.104 102.341 67.5025C102.726 67.2345 103.113 66.9631 103.51 66.753C105.339 65.7837 107.572 65.6033 109.287 67.3325C110.115 68.1678 110.523 69.234 110.754 70.8418C110.644 71.7003 110.476 72.4373 110.154 73.1174C108.853 75.8588 106.451 76.3302 104.575 76.6761C105.066 77.535 105.517 78.3711 105.718 79.5848C105.737 79.6955 105.752 79.8076 105.765 79.9211C105.777 80.0345 105.786 80.1487 105.792 80.2638C105.798 80.3788 105.801 80.4941 105.8 80.6096C105.799 80.7251 105.795 80.8403 105.789 80.9551C105.782 81.07 105.772 81.1839 105.759 81.297C105.745 81.41 105.728 81.5217 105.709 81.6319C105.69 81.7421 105.668 81.8503 105.642 81.9565C105.617 82.0628 105.588 82.1665 105.557 82.2678C105.062 83.8728 103.978 84.7489 103.021 85.1826C101.217 85.9991 99.7589 85.3527 98.1887 83.6838C96.7559 87.7926 95.7163 92.2889 94.2845 96.3869C96.2118 94.4881 100.71 91.1432 102.823 91.5441C103.166 91.6092 103.552 91.8086 103.746 92.3645C103.893 92.7888 103.867 93.2878 103.788 93.7422C103.572 94.9759 102.953 96.1619 102.484 97.1201C99.7915 102.624 96.452 105.306 92.9361 108.679C93.3353 109.007 93.7308 109.337 93.9454 110.062C94.7556 112.797 92.1724 117.003 91.6986 119.633C90.847 124.36 94.9083 132.268 96.1069 136.385C97.4696 141.066 97.564 146.962 96.6692 151.928C95.9926 155.681 94.4859 158.281 92.5533 160.065C92.8699 160.786 93.3198 161.663 93.2701 162.648C93.2386 163.273 93.0409 163.838 92.7772 164.239C91.6257 165.99 89.6592 166.735 88.2099 167.17C86.0817 167.807 83.8953 167.81 81.7445 167.953C78.0645 168.198 74.341 168.534 70.6703 167.879C69.3281 167.638 66.2756 167.136 65.4442 165.167C65.2932 164.81 65.2289 164.392 65.297 163.95C65.443 163.002 65.9987 162.555 66.4363 162.095C65.2937 161.394 64.1725 160.482 63.1792 159.246C58.9699 154.011 59.5786 144.798 61.5812 137.425C62.0552 135.681 62.6083 133.974 63.1886 132.335C64.0563 129.883 67.3829 122.082 66.9917 119.639C66.805 118.473 66.1277 117.934 65.5811 117.383C65.0837 116.92 64.5141 116.29 64.2333 115.399C64.0655 114.866 64.0255 114.276 64.1213 113.689C64.4354 111.766 65.7815 110.641 66.6967 109.735C66.6431 109.687 66.5898 109.638 66.5368 109.588C62.5457 105.798 60.436 100.236 59.1418 92.654C59.018 91.9287 58.759 90.7114 59.0298 90.0435C59.1938 89.6389 59.5121 89.4593 59.7755 89.3839C60.3952 89.2064 61.1266 89.3581 61.7462 89.4923C64.4976 90.0885 66.6782 91.9512 68.9313 94.7326C68.5923 91.0229 67.9011 87.7341 66.4877 84.8844C66.1479 85.8349 65.8071 86.6388 65.2853 87.3056C64.0856 88.8384 62.4138 89.2409 60.9773 88.8398C60.0176 88.5719 58.9491 87.8268 58.3818 86.3585C58.0991 85.6265 57.9798 84.7517 58.0772 83.8753C58.2786 82.066 59.2078 80.9839 60.0226 80.0727C59.2514 79.7221 58.4166 79.3708 57.7306 78.6265C57.0303 77.8668 56.7456 76.9832 56.5615 75.6038C56.6177 75.1906 56.6732 74.7713 56.7748 74.3846C57.1596 72.9219 58.025 71.9661 58.8594 71.4765C58.9113 71.4452 58.9634 71.415 59.0157 71.386C59.068 71.3569 59.1205 71.329 59.1732 71.3023C59.2259 71.2757 59.2787 71.2502 59.3318 71.2259C59.3848 71.2015 59.4381 71.1784 59.4915 71.1564C59.5448 71.1344 59.5983 71.1137 59.652 71.0941C59.7057 71.0746 59.7595 71.0562 59.8134 71.039C59.8673 71.0219 59.9214 71.0059 59.9755 70.9912C60.0297 70.9764 60.0839 70.9629 60.1382 70.9506C60.1926 70.9383 60.2471 70.9271 60.3015 70.9172C60.356 70.9073 60.4106 70.8987 60.4652 70.8912C60.5198 70.8837 60.5745 70.8775 60.6293 70.8725C60.6839 70.8675 60.7387 70.8637 60.7935 70.8611C60.8482 70.8585 60.9029 70.8571 60.9577 70.8571C61.0125 70.8569 61.0673 70.858 61.1221 70.8602C61.1769 70.8626 61.2316 70.8661 61.2863 70.8709C61.3411 70.8757 61.3957 70.8816 61.4503 70.8888C61.505 70.896 61.5596 70.9044 61.6141 70.9141C61.6686 70.9238 61.723 70.9346 61.7774 70.9467C61.8317 70.9588 61.886 70.972 61.9402 70.9866C61.9944 71.001 62.0485 71.0167 62.1024 71.0336C62.1563 71.0506 62.2101 71.0687 62.2638 71.088C62.3175 71.1073 62.3711 71.1278 62.4245 71.1495C62.478 71.1712 62.5312 71.1941 62.5843 71.2181C62.6374 71.2423 62.6903 71.2675 62.743 71.294C62.7958 71.3204 62.8483 71.3481 62.9006 71.3768C62.9529 71.4056 63.0051 71.4356 63.057 71.4667C63.1089 71.4978 63.1606 71.5301 63.2121 71.5635C63.2635 71.5969 63.3148 71.6315 63.3658 71.6672C63.4167 71.7029 63.4675 71.7397 63.5179 71.7777C63.5684 71.8157 63.6186 71.8548 63.6684 71.895C63.7183 71.9352 63.7679 71.9766 63.8173 72.019C63.8666 72.0615 63.9157 72.105 63.9643 72.1496C64.2178 71.5294 64.4758 70.9398 64.8041 70.4354C65.8766 68.7883 67.3516 68.2546 68.7336 68.4295C69.7852 68.5626 71.0367 69.1281 71.7317 70.6324C72.0501 71.3214 72.2024 72.1792 72.1244 73.0673C71.9848 74.6577 71.2018 75.865 70.4946 76.7321C71.7628 77.5215 72.5735 78.2955 73.3538 80.3288C74.799 80.1452 75.8916 80.2538 77.1786 81.6056C77.8847 80.2322 78.5586 79.1624 79.6096 78.6896C80.628 78.2315 82.0312 78.3546 82.9308 79.3756C83.3135 79.81 83.6022 80.451 83.683 81.2589C83.8167 82.5958 83.4335 83.5825 83.0268 84.6162C84.4026 84.9223 85.9976 85.3073 86.9153 87.3939C87.2191 88.0846 87.4051 88.9752 87.3235 89.8579C87.2404 90.7552 86.8935 91.4465 86.4836 91.9439C84.9273 93.832 83.1643 93.3712 81.4284 92.8251C81.1312 93.6618 80.8259 94.4511 80.4769 95.2222C80.6655 97.8004 80.5483 100.457 80.3938 103.032C80.9659 101.472 81.69 100.054 82.4696 98.8155C83.3213 97.4621 84.4708 95.7748 85.6854 95.9534C86.4993 96.0732 86.9348 96.8661 87.4422 97.8865C88.2893 95.8794 89.2235 93.7107 90.5961 92.8067C91.0584 92.5023 91.5922 92.3754 92.0463 92.7917C92.6837 93.3758 92.8707 94.4561 93.0574 95.5903C93.6814 93.7942 94.1423 91.8018 94.6661 89.9094C95.2542 87.7851 95.9206 85.671 96.4158 83.4743C96.013 83.8009 95.6081 84.1032 95.1868 84.3477C93.8391 85.1304 92.2301 85.2178 90.9505 84.0142C90.3178 83.419 89.7739 82.4791 89.5867 81.2196C89.4289 80.1577 89.5833 79.0783 89.9125 78.171C90.8859 75.4881 92.8689 74.6854 94.4991 74.0378C93.8354 73.5243 93.1646 72.8474 92.585 72.0741C91.8641 71.1125 91.1807 69.8206 91.0791 68.1555C91.0097 67.0165 91.2393 65.9346 91.6401 65.0567C92.7038 62.727 94.5311 62.1196 96.1107 61.8162ZM91.2727 109.711C91.0554 109.965 90.8348 110.189 90.7674 110.667C90.6257 111.675 90.7062 112.686 90.153 113.312C87.7476 116.035 75.2908 116.301 72.0003 116.02C70.9229 115.929 69.7723 115.734 68.7199 115.3C68.1984 115.085 67.1564 113.468 66.8892 113.521C66.8159 113.83 66.7916 113.963 66.8942 114.291C67.6199 116.612 70.1939 116.317 69.9037 120.494C69.6924 123.533 68.45 126.339 67.5248 128.823C65.5005 134.258 63.3376 139.867 62.8546 146.5C62.6334 149.538 62.8235 152.278 63.8745 154.786C64.7336 156.836 65.9551 158.225 67.2529 159.253C72.293 162.994 78.901 164.256 84.2999 162.564C85.9734 162.04 87.5825 161.14 89.1515 159.992C91.1857 158.503 93.2375 156.378 94.1254 152.61C95.0598 148.645 95.227 142.981 94.3012 138.966C93.0368 133.483 87.6771 125.105 89.1443 119.02C89.6563 116.897 92.1332 112.741 91.8222 110.532C91.7882 110.291 91.689 110.034 91.5701 109.9C91.4889 109.809 91.3666 109.75 91.2727 109.711ZM60.8019 91.2463C62.189 99.0953 64.7782 105.051 68.8711 108.921C69.0568 109.096 69.2494 109.24 69.4474 109.366C68.8109 105.575 66.4872 101.948 65.108 98.8861C64.6114 97.9361 63.7079 96.4744 63.5906 95.1485L63.6702 94.8486C64.0096 94.6367 64.3768 94.9491 64.6821 95.2137C66.5839 96.8612 67.9754 99.6066 69.0707 102.757L69.06 100.014C67.0704 94.8375 64.1834 92.4051 60.8019 91.2463ZM95.9937 63.9776C95.0889 64.3122 93.8846 64.7774 93.3268 66.2125C93.1173 66.7517 93.0572 67.3996 93.1423 68.0369C93.3796 69.8131 94.4797 71.1381 95.3226 71.9882C95.7549 72.4243 96.6184 73.2948 97.1134 73.1144C97.2131 73.0781 97.2436 73.0214 97.3284 72.9229C97.3528 72.8892 97.3769 72.8551 97.4015 72.8218C98.1935 71.7479 99.8998 71.6961 100.175 71.22C100.243 71.1019 100.287 70.7753 100.297 70.6084C100.384 69.1774 99.862 66.8678 99.3469 65.8078C98.7312 64.5408 97.7988 64.008 96.8805 63.9518C96.5854 63.9338 96.2886 63.9573 95.9937 63.9776ZM70.0605 85.3357L68.8486 85.4737C71.0807 91.2092 70.9939 97.6241 70.9604 104.293C72.1034 102.033 73.7047 99.0109 75.5349 98.7986C76.4388 98.6939 77.1003 99.3874 77.7839 100.332L78.774 101.827L79.052 96.7792C77.0504 97.6503 74.9108 98.3303 73.036 96.2882C72.6074 95.8215 72.2051 95.1533 72.0928 94.2474C71.9965 93.4708 72.1444 92.7112 72.393 92.0735C72.6764 91.3466 73.0763 90.7882 73.4777 90.2811C72.3648 89.8252 71.2719 89.2335 70.6425 87.3784C70.4485 86.8064 70.3194 85.7621 70.0605 85.3357ZM85.3397 97.6422C83.6905 99.7141 81.9062 102.217 81.5376 105.982C81.256 108.857 81.9858 111.376 82.7357 113.812C82.385 110.161 82.4522 106.64 83.6955 103.515C83.8187 103.205 83.9436 102.898 84.0913 102.623C84.2664 102.497 84.3504 102.514 84.5342 102.578C84.8205 103.28 84.6586 104.766 84.5823 105.6C84.3401 108.243 83.7666 110.62 83.3439 113.162C83.6517 113.115 83.9593 113.063 84.2666 113.005C85.5354 110.408 86.9078 107.837 86.7534 104.124C86.6686 102.082 86.1494 99.1052 85.3397 97.6422ZM75.0552 100.755C73.9178 102.88 72.3017 105.806 72.3066 108.954C72.3086 110.27 72.624 111.412 73.1462 112.328C73.4972 112.944 73.9452 113.421 74.365 113.87L77.3075 113.851C78.174 113.742 79.041 113.649 79.9087 113.574C79.8784 113.535 79.8482 113.497 79.8177 113.459C77.8574 111.038 75.8981 111.682 75.2968 106.1C75.1505 104.743 75.3615 101.616 75.0552 100.755ZM105.709 68.383C103.59 68.8489 102.752 70.582 100.966 71.8023C101.627 72.3087 102.251 72.7996 102.515 74.0994C102.567 74.359 102.606 74.6287 102.644 74.896C103.069 74.9232 103.532 75.0133 103.954 74.9539C105.314 74.8075 107.202 74.606 108.176 72.6428C108.432 72.1295 108.607 71.464 108.568 70.7662C108.53 70.1001 108.31 69.5501 108.01 69.168C107.473 68.4833 106.363 68.176 105.709 68.383ZM101.527 93.8986C98.7256 95.4057 96.0483 97.1419 93.3728 99.2495C92.2795 102.553 91.1961 105.855 89.9793 109.021C91.0527 107.64 91.8956 105.762 92.8661 104.167C93.9798 102.336 95.2181 100.811 96.432 99.2053C97.5155 98.058 99.0352 96.2638 100.325 96.2087L100.409 96.3451C99.9711 97.6746 97.0314 100.616 96.1243 101.806C95.3031 102.898 94.521 104.073 93.7781 105.329C96.4476 102.934 98.9281 100.351 100.826 96.1216C101.058 95.6049 101.463 94.8785 101.562 94.2673C101.572 94.2057 101.58 94.1432 101.589 94.0811L101.527 93.8986ZM73.9828 81.4724C73.3463 81.8815 72.5699 82.3946 72.2618 83.5624C72.0976 84.1842 72.1138 84.8519 72.2605 85.4795C72.5415 86.6827 73.1949 87.4512 73.8597 87.8788C74.3996 88.226 75.0044 88.3414 75.577 88.3499C76.0121 88.2248 76.1763 88.09 76.4373 87.454C76.7078 86.7948 76.9003 86.1693 77.2355 85.5941C77.0692 84.8476 76.977 84.2153 76.9202 83.4186C76.2458 82.2317 75.6636 81.4279 74.6679 81.4416C74.4395 81.4461 74.2111 81.4564 73.9828 81.4724ZM96.3341 75.833C95.0341 76.0877 92.9017 76.4449 92.0366 78.4812C91.7628 79.1257 91.6707 79.8631 91.749 80.6571C91.816 81.3363 92.0576 81.8002 92.374 82.1653C92.5359 82.3522 92.7133 82.4902 92.8899 82.626C94.1381 82.5876 95.1738 81.9718 96.0571 80.3346C96.5877 79.3512 96.9639 78.1871 97.3431 77.0134C97.1417 76.5656 96.9648 76.081 96.6671 75.8295C96.5695 75.829 96.4294 75.8096 96.3341 75.833ZM60.8886 72.7285C60.1651 72.998 59.3489 73.218 58.9 74.3998C58.6975 74.9328 58.6417 75.5588 58.735 76.1782C58.8875 77.1907 59.3806 77.9269 59.8764 78.4156C60.211 78.7454 60.5783 78.9895 60.9443 79.1793C61.2228 78.9788 61.5011 78.7504 61.7908 78.6083C62.1043 78.4667 62.4224 78.3421 62.7244 78.1342C63.1202 77.0347 63.388 76.1965 64.065 75.5979C64.1552 75.5181 64.2444 75.4363 64.3351 75.358C63.2989 73.6692 62.3284 72.6773 60.8886 72.7285ZM101.799 76.9516C100.952 77.6651 100.182 77.9897 99.2517 78.1297C99.4664 79.7931 99.6048 81.7649 100.483 82.7637C100.784 83.1054 101.143 83.2579 101.487 83.4041C102.253 83.2379 103.14 83.0758 103.652 81.9057C103.857 81.4378 103.94 80.8496 103.895 80.2642C103.825 79.3516 103.46 78.603 103.056 78.0762C102.675 77.58 102.232 77.2719 101.799 76.9516ZM67.8023 78.386C67.2951 79.1382 66.8162 79.6674 66.2158 80.1676C66.7838 81.8158 67.5788 82.6406 68.2967 83.9989C68.9126 84.2005 69.5296 84.457 70.1476 84.6267C70.2393 84.3258 70.3349 84.0288 70.4178 83.72C70.6835 82.7303 71.5034 81.8149 71.4865 80.6998C71.3398 80.0119 71.0818 79.7152 70.7128 79.412C69.8389 78.6941 68.7541 78.4218 67.8023 78.386ZM63.4489 79.7067C62.609 80.6825 61.0202 82.2821 60.8392 84.1711C60.7942 84.6414 60.8663 85.0862 61.0291 85.4587C61.3034 86.0863 61.6741 86.3185 62.109 86.3732C62.4987 86.4222 62.8542 86.3182 63.2284 86.1357C64.2206 85.3644 64.7145 83.847 65.2722 82.3041C65.2348 81.8149 65.1469 81.2334 65.2735 80.7788C65.3906 80.636 65.5067 80.499 65.6278 80.3664C64.9837 80.2419 64.3186 80.1718 63.6962 79.8416C63.6446 79.8141 63.5927 79.7885 63.5412 79.7605C63.5102 79.7436 63.4796 79.7246 63.4489 79.7067ZM67.4914 70.5441C66.8542 71.1498 65.5156 72.5192 65.3626 73.8841C65.3264 74.2081 65.3847 74.5565 65.5099 74.7987C65.9369 75.6245 66.8891 75.7727 67.4628 76.3582C67.6105 76.509 67.5426 76.454 67.7011 76.5453C68.5433 75.7098 69.5866 74.7203 69.852 72.9188C69.9215 72.447 69.9185 71.9251 69.7782 71.493C69.5994 70.9423 69.2312 70.6613 68.8942 70.5501C68.445 70.4021 67.9457 70.4855 67.4914 70.5441ZM78.0227 90.0827C77.0674 90.6395 74.9303 91.6517 74.496 93.4176C74.4014 93.8025 74.4319 93.915 74.495 94.2957C74.8733 95.0435 75.3712 95.1803 75.8975 95.4071C77.0524 95.3176 78.0973 95.138 78.9211 93.496C79.147 93.0458 79.3979 92.4093 79.4 91.7779C79.4018 91.3008 79.2201 90.823 79.0095 90.5447C78.7354 90.1824 78.3522 90.1613 78.0227 90.0827ZM82.5751 86.4833C82.062 86.5999 81.7892 86.7687 81.4718 87.5613C81.3037 87.9807 81.2897 88.45 81.3534 88.9356C81.4471 89.6491 81.8899 90.242 82.2369 90.5482C82.9084 91.141 83.5637 91.1714 84.2902 91.1238C84.7362 90.758 85.1943 90.4743 85.3823 89.5903C85.4749 89.1549 85.4217 88.6551 85.2918 88.2645C84.9819 87.3325 84.3239 86.7883 83.7509 86.5707C83.3949 86.4354 82.9341 86.3305 82.5751 86.4833ZM90.8722 94.9897C89.882 96.4472 88.8853 97.9172 87.9447 99.4753C88.1436 100.196 88.3364 100.912 88.5087 101.654C88.7413 100.423 89.2105 97.9724 89.8101 97.2324L89.9808 97.2711C90.1979 97.8139 90.203 98.6124 90.1406 99.2502C90.0881 99.7884 90.0029 100.323 89.9246 100.851C89.5271 102.956 89.034 104.787 88.8169 107.001C89.7853 104.392 91.4594 98.9355 91.1269 95.7444C91.1023 95.5078 91.053 95.2944 91.0002 95.0742L90.8722 94.9897ZM80.3237 80.6074C79.4539 81.8462 79.0646 83.0067 78.8178 84.9598C79.3483 84.9772 79.8624 85.0494 80.3892 85.1622C80.9009 84.3815 81.7444 83.1783 81.801 81.8888C81.8161 81.5438 81.7705 81.2251 81.6244 80.9802C81.2995 80.4352 80.7278 80.5708 80.3237 80.6074ZM77.057 102.735C77.2711 105.043 77.4931 107.776 78.5886 109.348C78.5773 107.961 78.5763 106.574 78.5855 105.188C78.1133 104.253 77.6917 103.328 77.057 102.735Z" fill="#007CE0"></path><path d="M73.8463 118.865C74.9303 118.793 75.9999 119.224 77.073 119.436C78.226 119.664 79.3837 119.514 80.5278 119.209C81.0735 119.063 82.3303 118.502 82.8026 119.062C82.7099 119.434 82.5853 119.504 82.4001 119.721C81.133 120.669 79.8581 121.196 78.4779 121.304C77.5078 121.379 74.7134 121.249 74.0332 119.961C73.8356 119.588 73.8524 119.34 73.8463 118.865Z" fill="#007CE0"></path></svg> 