<?xml version="1.0" encoding="UTF-8"?> <svg xmlns="http://www.w3.org/2000/svg" width="1360" height="300" viewBox="0 0 1360 300" fill="none"><path d="M-813.776 -1111.81C-720.422 -1170.83 -557.101 -1277.75 -429.904 -1259.28C-395.829 -1254.51 -362.525 -1238.46 -332.848 -1219.66C-291.567 -1194.83 -257.037 -1158.31 -228.321 -1122.24C-182.022 -1063.46 -140.916 -999.665 -88.9604 -946.417C-55.0927 -911.275 -17.2889 -880.112 24.4658 -854.906C65.6874 -829.571 110.334 -810.917 156.118 -799.897C202.191 -788.536 249.86 -783.989 298.92 -778.476C372.832 -770.782 451.779 -757.651 525.424 -729.541C712.888 -659.82 836.255 -534.002 932.914 -370.56C972.102 -307.338 1004.83 -242.529 1053.18 -185.131C1068.86 -166.884 1086.26 -150.154 1105.92 -137.466C1143.89 -112.657 1193.74 -101.478 1231.92 -114.991C1304.55 -144.214 1311.55 -255.491 1407.44 -298.617C1472.39 -327.91 1560.71 -319.236 1634.67 -289.311C1777.43 -231.903 1878.24 -95.9205 2023.98 -50.7438C2117.51 -22.924 2204.62 -39.5649 2271.76 -88.9655C2345.38 -141.556 2407.57 -211.131 2514.8 -212.794C2645.9 -216.09 2769.43 -129.557 2863.99 -37.205C2919.04 16.9866 2969.19 77.409 3015.17 137.916C3030.28 158.317 3044.86 178.921 3059.63 199.456L3037 211.491C2922.99 62.0494 2726.06 -177.313 2524.02 -170.851C2429.29 -168.558 2372.43 -99.4686 2304.23 -51.7486C2226.13 5.57904 2125.8 24.6533 2016.63 -8.32973C1818.88 -67.1039 1701.88 -291.179 1488.31 -282.194C1414 -280.035 1373.3 -239.689 1339.94 -185.459C1322.41 -158.512 1305.4 -128.188 1279.36 -106.503C1232.67 -66.5112 1150.76 -76.0764 1091.37 -114.183C1067.57 -129.414 1047.14 -148.349 1029.29 -168.116C977.708 -226.6 940.915 -292.381 898.207 -355.15C801.057 -503.59 685.828 -618.648 513.303 -683.945C443.683 -710.471 374.18 -721.985 301.786 -729.814C253.253 -735.35 202.841 -740.478 151.341 -753.558C99.4497 -766.51 48.9361 -788.068 2.37041 -817.136C-90.0182 -872.564 -161.003 -957.684 -219.122 -1041.25C-247.741 -1080.74 -275.361 -1121.31 -310.76 -1155.04C-327.926 -1171.25 -347.122 -1185.42 -367.747 -1197.12C-388.344 -1209.37 -408.467 -1217.88 -429.855 -1221.44C-515.805 -1234.34 -611.435 -1186.55 -680.355 -1152.79C-719.42 -1132.72 -757.747 -1111.4 -795.335 -1088.84L-813.776 -1111.81Z" fill="#EC4326"></path><path d="M-845.273 -897.129C-771.453 -944.649 -695.358 -990.242 -611.551 -1024.23C-546.377 -1049.87 -467.238 -1072.67 -389.584 -1039.3C-310.598 -1006.07 -260.588 -940.025 -216.696 -873.94C-141.035 -754.131 -40.2881 -634.824 102.738 -594.184C197.104 -566.657 295.82 -567.75 392.779 -542.022C494.135 -516.544 591.579 -469.263 676.792 -404.216C761.473 -339.542 827.346 -257.463 883.55 -172.26C925.151 -110.809 959.684 -47.2323 1010.22 7.52463C1049.75 50.6447 1100.15 76.7087 1155.92 76.4171C1260.78 74.8373 1264.32 -54.1897 1386.83 -91.6657C1457 -113.074 1540.97 -103.764 1615.54 -70.2739C1773.98 -0.464971 1890.6 171.236 2067.62 178.537C2165.87 185.546 2231.01 140.155 2296.87 86.022C2331.7 58.4417 2368.64 30.7274 2414.26 16.0303C2562.3 -31.943 2721.61 69.0915 2834.68 180.099C2907.9 252.073 2971.83 332.906 3030.26 414.636L3005.17 427.964C2946 348.316 2882.2 271.177 2810.1 202.138C2708.85 105.488 2564.99 10.8043 2434.74 54.4338C2393.97 67.9202 2361.32 93.648 2329.01 119.517C2258.07 179.465 2184.24 229.142 2072.99 222.243C1965.97 218.225 1871.75 159.679 1786.49 91.8527C1708.78 31.3876 1630.86 -36.0274 1536.18 -56.9959C1492.02 -66.3349 1444.82 -67.4739 1405.11 -55.6229C1364.06 -43.9541 1333.36 -16.2358 1308.09 14.2118C1261.33 71.496 1223.59 122.206 1127.59 107.189C1043.86 96.37 980.58 33.497 933.27 -31.3531C873.636 -112.129 824.743 -195.288 756.39 -269.856C691.574 -342.477 611.798 -402.641 523.484 -445.504C281.537 -567.577 108.876 -466.996 -112.094 -673.773C-169.468 -727.497 -213.627 -794.213 -253.982 -856.455C-293.558 -916.818 -334.005 -974.356 -401.518 -1004.04C-496.924 -1047.64 -636.289 -974.293 -711.232 -936.34C-749.814 -916.001 -787.734 -894.556 -824.989 -872.006L-845.383 -897.274L-845.273 -897.129Z" fill="#EC4326"></path><path d="M-819.756 -644.121C-727.136 -702.425 -632.728 -760.386 -524.03 -795.898C-433.572 -824.754 -346.783 -822.607 -264.698 -743.171C-200.408 -679.402 -165.878 -595.663 -114.144 -526.715C-86.2091 -488.351 -53.99 -452.636 -16.3883 -422.081C108.574 -314.74 247.701 -329.682 392.626 -292.505C467.778 -273.602 541.117 -243.233 609.482 -202.707C725.477 -135.628 815.728 -40.4865 890.365 64.7464C944.342 136.439 997.288 235.69 1079.29 278.691C1118.22 298.554 1166.81 306.186 1204.27 295.378C1223.14 290.171 1239.72 279.791 1255.06 266.83C1270.4 253.87 1285.05 238.609 1301.03 223.682C1333.06 192.802 1374.38 166.218 1422.53 156.484C1470.82 146.097 1523.12 147.208 1575.1 159.724C1770.71 204.76 1896.11 429.116 2099.65 433.728C2266.3 441.329 2312.59 312.689 2444.73 269.742C2505.6 250.396 2578.63 257.945 2644.46 284.364C2726.73 316.954 2799.48 374.796 2862.63 435.191C2935.97 507.736 2999.8 586.905 3058.07 668.19L3030.52 682.822C2897.65 501.497 2633.04 191.113 2408.52 333.445C2309.73 400.764 2254.37 480.348 2105.87 476.007C1862.24 468.513 1749.77 223.517 1537.62 194.164C1484.85 187.751 1431.56 192.899 1388.79 214.832C1347.88 235.306 1320.29 268.901 1285.3 297.847C1267.29 312.487 1246.38 325.589 1222.16 332.277C1172.39 345.759 1115.81 337.236 1064.67 312.439C1014.81 287.65 976.296 246.504 943.373 205.298C881.174 126.208 830.382 44.8125 760.019 -27.7621C659.37 -133.174 526.829 -212.138 387.695 -247.8C317.146 -266.551 243.536 -272.705 171.262 -287.935C37.9195 -313.777 -73.5843 -397.008 -151.128 -507.026C-181.197 -548.875 -205.371 -592.381 -230.552 -633.467C-255.732 -674.553 -282.821 -713.308 -319.53 -739.85C-337.558 -752.832 -357.355 -763.452 -378.338 -768.71C-399.322 -773.968 -420.628 -774.795 -442.113 -772.569C-486.047 -768.008 -528.05 -753.592 -567.44 -737.715C-648.348 -704.138 -723.814 -660.815 -797.356 -616.41L-819.756 -644.121Z" fill="#EC4326"></path><path d="M-808.857 -397.3C-716.447 -454.982 -622.48 -512.041 -516.782 -551.212C-416.399 -587.163 -316.251 -597.242 -227.987 -495.895C-177.52 -436.794 -151.093 -368.295 -110.885 -305.407C-74.264 -246.219 -26.081 -190.841 33.363 -149.602C137.301 -76.5912 261.354 -80.6367 377.754 -49.3353C458.247 -29.3616 537.576 4.47129 610.763 48.201C718.753 112.014 808.301 199.521 882.435 295.959C928.76 353.748 967.753 414.248 1023.21 463.008C1066.19 501.215 1122.1 520.122 1175.23 518.398C1232.77 517.001 1269.69 482.407 1311.53 453.409C1348.16 427.306 1393.36 407.193 1441.86 400.267C1490.84 393.03 1543.21 394.138 1594.85 408.397C1646.07 422.34 1694.82 448.354 1738.99 478.546C1858.61 561.194 1968.45 681.577 2116.14 682.866C2278.66 688.572 2327.89 558.468 2459.67 517.163C2494.61 506.421 2533.75 504.85 2572.71 509.938L2592.13 513.247C2595.36 513.784 2598.59 514.494 2601.8 515.374L2611.42 517.808L2621.03 520.229C2624.26 521.025 2627.36 522.259 2630.54 523.238L2649.45 529.581C2661.7 534.636 2674.28 539.391 2686.21 545.423C2845.32 623.973 2971.46 779.681 3071.28 915.774L3041.33 931.695C2983.6 852.43 2920.81 775.924 2850.15 706.963C2764.88 626.121 2657.3 546.318 2540.78 545.454C2417.51 543.876 2360.65 645.564 2264.28 692.607C2191.68 730.617 2095.51 733.743 2006.98 702.656C1896.31 663.463 1809.95 576.879 1715.81 512.868C1675.37 485.621 1633.03 463.399 1589.16 451.704C1523.33 434.723 1453.83 439.336 1397.38 461.579C1346.2 481.503 1309.23 521.228 1258.88 544.397C1202.81 569.915 1130.39 565.82 1065.92 538.034C883.178 454.756 846.975 201.134 508.707 42.633C266.15 -73.58 91.271 16.9862 -104.67 -226.246C-152.011 -285.331 -184.639 -355.15 -220.151 -416.972C-243.072 -455.964 -269.829 -492.96 -310.42 -517.184C-387.587 -563.26 -491.27 -518.039 -557.077 -490.746C-636.591 -455.361 -711.449 -411.914 -784.461 -367.131L-808.821 -397.275L-808.857 -397.3Z" fill="#EC4326"></path></svg> 