<?xml version="1.0" encoding="UTF-8"?> <svg xmlns="http://www.w3.org/2000/svg" width="333" height="333" viewBox="0 0 333 333" fill="none"><path d="M177.709 125.188C177.709 125.188 181.385 132.534 183.829 144.103C186.28 155.671 179.887 166.893 162.737 158.455" stroke="black" stroke-width="0.961371" stroke-miterlimit="10" stroke-linecap="round" stroke-linejoin="round"></path><path d="M165.144 140.839C165.718 140.643 165.885 139.609 165.516 138.53C165.147 137.451 164.383 136.736 163.809 136.932C163.234 137.128 163.068 138.162 163.436 139.241C163.805 140.32 164.569 141.036 165.144 140.839Z" fill="black" stroke="black" stroke-width="0.961371" stroke-miterlimit="10" stroke-linecap="round" stroke-linejoin="round"></path><path d="M167.333 132.687C167.333 132.687 163.303 131.002 161.618 134.572" stroke="black" stroke-width="0.961371" stroke-miterlimit="10" stroke-linecap="round" stroke-linejoin="round"></path><path d="M176.726 136.883C177.3 136.687 177.467 135.653 177.098 134.574C176.73 133.495 175.965 132.78 175.391 132.976C174.817 133.172 174.65 134.206 175.018 135.285C175.387 136.364 176.152 137.079 176.726 136.883Z" fill="black" stroke="black" stroke-width="0.961371" stroke-miterlimit="10" stroke-linecap="round" stroke-linejoin="round"></path><path d="M178.082 129.211C178.082 129.211 174.052 127.526 172.367 131.096" stroke="black" stroke-width="0.961371" stroke-miterlimit="10" stroke-linecap="round" stroke-linejoin="round"></path><path d="M171.868 135.205C171.868 135.205 173.553 137.909 175.897 139.8C178.242 141.685 178.601 145.055 175.591 145.921" stroke="black" stroke-width="0.961371" stroke-miterlimit="10" stroke-linecap="round" stroke-linejoin="round"></path><path d="M192.947 251.122C192.947 251.122 194.372 233.773 197.029 228.678C199.687 223.569 201.139 214.572 199.341 210.096C196.776 203.703 192.947 196.623 192.947 196.623" stroke="black" stroke-width="0.961371" stroke-miterlimit="10" stroke-linecap="round" stroke-linejoin="round"></path><path d="M175.025 201.851C175.025 201.851 176.27 195.458 179.574 196.816C182.87 198.175 184.109 207.839 177.303 214.232C177.303 214.232 172.154 210.576 168.824 205.428C165.494 200.28 168.132 194.092 175.025 201.851Z" fill="black" stroke="black" stroke-width="0.961371" stroke-miterlimit="10" stroke-linecap="round" stroke-linejoin="round"></path><path d="M175.218 169.69C175.218 169.69 168.585 179.074 152.494 169.277" stroke="black" stroke-width="0.961371" stroke-miterlimit="10" stroke-linecap="round" stroke-linejoin="round"></path><path d="M137.842 319.301H172.687L173.819 299.7L183.33 319.301H218.675L192.954 251.129C192.954 251.129 169.684 259.494 146.214 247.246C146.214 247.246 139.68 262.757 137.849 274.192C136.004 285.614 137.842 319.301 137.842 319.301Z" fill="black" stroke="black" stroke-width="0.961371" stroke-miterlimit="10" stroke-linecap="round" stroke-linejoin="round"></path><path d="M178.528 171.509C178.528 171.509 170.969 183.936 152.501 172.914" stroke="black" stroke-width="0.961371" stroke-miterlimit="10" stroke-linecap="round" stroke-linejoin="round"></path><path d="M175.837 148.318C175.837 148.318 178.695 147.912 180.326 150.496" stroke="black" stroke-width="0.961371" stroke-miterlimit="10" stroke-linecap="round" stroke-linejoin="round"></path><path d="M123.044 183.15C123.044 183.15 116.071 196.311 120.972 223.257C125.874 250.203 132.467 253.587 138.794 255.018C145.121 256.45 183.943 238.568 204.762 226.933L205.781 214.486C205.781 214.486 169.683 220.693 146.007 232.161C144.842 224.482 143.39 218.608 141.105 210.936" fill="white"></path><path d="M123.044 183.15C123.044 183.15 116.071 196.311 120.972 223.257C125.874 250.203 132.467 253.587 138.794 255.018C145.121 256.45 183.943 238.568 204.762 226.933L205.781 214.486C205.781 214.486 169.683 220.693 146.007 232.161C144.842 224.482 143.39 218.608 141.105 210.936" stroke="black" stroke-width="0.961371" stroke-miterlimit="10" stroke-linecap="round" stroke-linejoin="round"></path><path d="M135.078 174.985C134.672 192.028 145.601 203.563 148.658 207.239C151.715 210.915 150.696 215.711 152.834 220C154.972 224.289 157.329 226.32 156.823 233.473C156.31 240.612 159.88 242.757 159.88 242.757C157.735 234.998 162.331 232.654 160.08 226.833C157.829 221.012 156.816 217.955 156.104 211.528C155.391 205.101 153.247 204.389 149.164 197.749C145.081 191.122 145.381 181.119 145.381 181.119C155.904 186.939 158.961 193.879 158.342 199.993C157.735 206.12 160.186 208.977 162.73 211.215C165.275 213.466 164.469 223.769 164.469 223.769C164.469 223.769 167.126 211.628 164.469 209.071C161.811 206.52 164.362 202.131 164.469 194.678C164.562 187.226 158.242 182.337 155.185 177.336C152.114 172.327 152.188 165.601 152.188 165.601C152.188 165.601 152.188 156.21 152.188 152.94C152.188 149.677 151.428 138.042 158.848 131.781C166.267 125.528 167.319 119.534 167.319 119.534C169.324 124.362 178.375 126.673 178.375 126.673C179.56 129.37 182.018 135.591 183.823 144.102C185.548 152.234 182.897 160.2 175.211 161.272V169.683L177.223 171.002C182.424 175.284 185.281 186.513 184.322 189.783C183.363 193.047 183.343 196.816 185.994 200.493C188.651 204.169 188.138 210.909 188.138 210.909C191.915 201.611 186.713 198.555 188.138 194.785C189.564 191.009 191.195 186.214 189.564 182.024C187.932 177.835 187.825 173.859 187.825 173.859L192.934 174.645C192.934 174.645 193.04 172.228 191.302 166.606C189.564 160.999 186.3 156.097 185.994 148.851C185.687 141.605 186.1 129.663 185.481 125.175C184.875 120.686 179.254 115.378 172.114 110.583C164.975 105.787 156.903 105.681 154.665 108.132C152.414 110.583 152.108 112.214 146.906 112.121C141.705 112.014 135.578 113.846 131.908 120.486C128.232 127.119 129.457 144.668 128.538 155.071C127.612 165.488 123.03 183.137 123.03 183.137C127.845 176.63 135.078 174.985 135.078 174.985Z" fill="black" stroke="black" stroke-width="0.961371" stroke-miterlimit="10" stroke-linecap="round" stroke-linejoin="round"></path><path d="M146.007 232.154L137.023 236.65" stroke="black" stroke-width="0.961371" stroke-miterlimit="10" stroke-linecap="round" stroke-linejoin="round"></path><path d="M198.788 151.701C198.661 151.781 198.508 151.848 198.315 151.855C197.729 151.994 197.183 152.367 196.823 152.947L190.616 162.91C190.416 163.243 190.356 163.609 190.396 163.956L183.097 176.636C182.87 177.029 182.824 177.482 182.937 177.895L180.959 182.55C180.939 182.604 180.952 182.67 181.006 182.697L181.059 182.73L180.379 183.869C180.26 184.069 180.326 184.329 180.526 184.455C180.726 184.575 180.986 184.509 181.112 184.309L181.791 183.17L181.845 183.203C181.891 183.236 181.958 183.223 181.998 183.177L185.148 179.22C185.561 179.121 185.934 178.867 186.174 178.481L193.859 166.02C194.179 165.894 194.472 165.661 194.678 165.328L200.479 155.125C200.906 154.379 200.906 153.513 200.553 152.847L201.518 150.796C201.671 150.469 201.552 150.083 201.239 149.897L201.079 149.797C200.766 149.61 200.373 149.69 200.16 149.983L199.36 151.062L198.788 151.701Z" fill="white" stroke="black" stroke-width="0.961371" stroke-miterlimit="10" stroke-linecap="round" stroke-linejoin="round"></path><path d="M189.597 165.548C189.597 165.548 179.094 165.108 177.662 166.22C176.23 167.332 179.347 170.836 186.054 169.397" fill="white"></path><path d="M189.597 165.548C189.597 165.548 179.094 165.108 177.662 166.22C176.23 167.332 179.347 170.836 186.054 169.397" stroke="black" stroke-width="0.961371" stroke-miterlimit="10" stroke-linecap="round" stroke-linejoin="round"></path><path d="M212.341 227.319C211.728 212.694 209.757 182.851 209.743 182.644C209.657 177.363 208.898 166.747 206.667 164.256C203.503 160.706 198.355 160.007 192.88 162.384C187.532 164.689 184.356 167.699 183.936 170.849C183.623 173.207 184.595 174.133 185.022 174.419L185.181 174.526L185.128 174.712C184.868 175.691 184.908 176.564 185.255 177.236C185.621 177.942 186.307 178.368 187.233 178.468L187.452 178.495L187.472 178.715C187.506 179.074 187.606 179.407 187.772 179.707C188.225 180.486 189.157 180.879 190.523 180.879C190.643 180.879 190.776 180.873 190.896 180.859L191.055 180.846L191.142 180.979C191.542 181.579 192.228 181.892 193.113 181.892C193.187 181.892 193.247 181.892 193.307 181.885C194.119 181.845 195.131 181.392 196.35 180.533L196.81 180.213L196.41 186.267C196.337 186.733 189.224 230.043 197.376 239.94C200.479 243.703 203.696 245.261 206.44 244.176C210.449 242.651 212.714 236.191 212.341 227.319Z" fill="white"></path><path d="M185.235 174.245C185.235 174.245 183.849 173.566 184.202 170.889C184.555 168.211 187.073 165.174 192.98 162.624C198.888 160.073 203.729 161.365 206.473 164.429C209.217 167.492 209.477 182.63 209.477 182.63C209.477 182.63 211.455 212.42 212.074 227.326C212.694 242.231 205.674 249.59 197.582 239.766C189.49 229.943 196.663 186.333 196.663 186.333L197.116 179.607" stroke="black" stroke-width="0.961371" stroke-miterlimit="10" stroke-linecap="round" stroke-linejoin="round"></path><path d="M192.467 166.753C192.467 166.753 188.625 169.237 186.467 172.501C184.302 175.757 185.161 178.195 187.566 178.248" stroke="black" stroke-width="0.961371" stroke-miterlimit="10" stroke-linecap="round" stroke-linejoin="round"></path><path d="M194.532 169.271C194.532 169.271 190.756 172.527 189.077 174.985C187.399 177.436 186.547 180.972 191.209 180.579" stroke="black" stroke-width="0.961371" stroke-miterlimit="10" stroke-linecap="round" stroke-linejoin="round"></path><path d="M196.676 171.548C196.676 171.548 193.626 174.245 191.901 177.162C190.176 180.086 191.242 181.731 193.32 181.618C195.404 181.505 198.754 178.374 199.787 176.729C200.819 175.084 198.901 174.711 197.689 175.437C196.477 176.163 194.365 178.148 194.365 178.148" stroke="black" stroke-width="0.961371" stroke-miterlimit="10" stroke-linecap="round" stroke-linejoin="round"></path><path d="M209.477 182.631C209.477 182.631 206.134 187.672 196.663 186.334" stroke="black" stroke-width="0.961371" stroke-miterlimit="10" stroke-linecap="round" stroke-linejoin="round"></path><path d="M184.149 219.174C184.149 219.174 190.563 221.991 191.422 233.926" stroke="black" stroke-width="0.961371" stroke-miterlimit="10" stroke-linecap="round" stroke-linejoin="round"></path><path d="M73.6263 113.247C73.6263 113.247 76.3303 120.493 81.4119 117.496C87.1328 114.126 83.3965 95.1581 73.6197 94.5254C63.8494 95.1714 60.1132 114.126 65.8341 117.496C70.9224 120.493 73.6263 113.247 73.6263 113.247Z" stroke="black" stroke-width="0.961371" stroke-miterlimit="10" stroke-linecap="round" stroke-linejoin="round"></path><path d="M50.8358 96.6892C50.8358 96.6892 44.7752 101.498 49.1974 105.407C54.1724 109.809 71.0555 100.392 68.638 90.895C65.0083 81.8041 45.8208 84.1085 44.3822 90.5887C43.1102 96.3629 50.8358 96.6892 50.8358 96.6892Z" stroke="black" stroke-width="0.961371" stroke-miterlimit="10" stroke-linecap="round" stroke-linejoin="round"></path><path d="M59.5404 69.9094C59.5404 69.9094 53.0935 65.6336 50.7426 71.0482C48.0919 77.1421 62.2644 90.289 70.5494 85.0542C78.0752 78.7871 69.95 61.258 63.3433 61.8907C57.4692 62.4568 59.5404 69.9094 59.5404 69.9094Z" stroke="black" stroke-width="0.961371" stroke-miterlimit="10" stroke-linecap="round" stroke-linejoin="round"></path><path d="M87.7055 69.9093C87.7055 69.9093 89.7768 62.4568 83.9027 61.8907C77.2893 61.258 69.1641 78.7938 76.7032 85.0542C84.9882 90.2756 99.1474 77.1354 96.5034 71.0415C94.1524 65.6336 87.7055 69.9093 87.7055 69.9093Z" stroke="black" stroke-width="0.961371" stroke-miterlimit="10" stroke-linecap="round" stroke-linejoin="round"></path><path d="M96.4102 96.6895C96.4102 96.6895 104.136 96.3565 102.857 90.5956C101.419 84.1087 82.2244 81.8044 78.6013 90.9086C76.1971 100.399 93.0735 109.81 98.0419 105.407C102.464 101.498 96.4102 96.6895 96.4102 96.6895Z" stroke="black" stroke-width="0.961371" stroke-miterlimit="10" stroke-linecap="round" stroke-linejoin="round"></path><path d="M73.6263 98.5149C79.0039 98.5149 83.3632 94.1555 83.3632 88.7779C83.3632 83.4004 79.0039 79.041 73.6263 79.041C68.2488 79.041 63.8894 83.4004 63.8894 88.7779C63.8894 94.1555 68.2488 98.5149 73.6263 98.5149Z" fill="white" stroke="black" stroke-width="0.961371" stroke-miterlimit="10" stroke-linecap="round" stroke-linejoin="round"></path><path d="M73.6263 94.492C76.7822 94.492 79.3406 91.9337 79.3406 88.7778C79.3406 85.6218 76.7822 83.0635 73.6263 83.0635C70.4704 83.0635 67.912 85.6218 67.912 88.7778C67.912 91.9337 70.4704 94.492 73.6263 94.492Z" fill="white" stroke="black" stroke-width="0.961371" stroke-miterlimit="10" stroke-linecap="round" stroke-linejoin="round"></path><path d="M183.816 14.2653L173.3 25.9336C170.929 25.1477 168.398 24.7015 165.754 24.7015C163.11 24.7015 160.573 25.1477 158.208 25.9336L147.692 14.2653C146.813 13.2862 145.195 13.6326 144.782 14.878C141.672 24.2686 142.238 30.6022 143.403 34.4251C144.056 36.5763 144.102 38.8407 143.476 40.9985C142.937 42.87 142.637 44.8347 142.637 46.8726C142.637 59.1137 152.987 69.0438 165.761 69.0438C178.535 69.0438 188.884 59.1204 188.884 46.8726C188.884 44.8347 188.591 42.87 188.052 40.9985C187.426 38.8407 187.472 36.5696 188.125 34.4251C189.291 30.6022 189.857 24.2686 186.74 14.878C186.314 13.6326 184.695 13.2929 183.816 14.2653Z" fill="white" stroke="black" stroke-width="0.961371" stroke-miterlimit="10" stroke-linecap="round" stroke-linejoin="round"></path><path d="M171.302 44.7148C171.302 44.7148 176.637 50.4691 182.564 44.7148H171.302Z" fill="white"></path><path d="M171.302 44.7148C171.302 44.7148 176.637 50.4691 182.564 44.7148" stroke="black" stroke-width="0.961371" stroke-miterlimit="10" stroke-linecap="round" stroke-linejoin="round"></path><path d="M148.931 44.7148C148.931 44.7148 154.266 50.4691 160.193 44.7148H148.931Z" fill="white"></path><path d="M148.931 44.7148C148.931 44.7148 154.266 50.4691 160.193 44.7148" stroke="black" stroke-width="0.961371" stroke-miterlimit="10" stroke-linecap="round" stroke-linejoin="round"></path><path d="M165.994 54.5244C165.994 54.5244 167.725 64.2014 176.816 58.4671" stroke="black" stroke-width="0.961371" stroke-miterlimit="10" stroke-linecap="round" stroke-linejoin="round"></path><path d="M165.501 54.5244C165.501 54.5244 163.769 64.2014 154.679 58.4671" stroke="black" stroke-width="0.961371" stroke-miterlimit="10" stroke-linecap="round" stroke-linejoin="round"></path><path d="M170.449 49.4697H166.1H165.394H161.046L160.679 51.1747L163.743 52.0005L164.549 54.5247H165.394H166.1H166.953L167.759 52.0005L170.822 51.1747L170.449 49.4697Z" fill="white" stroke="black" stroke-width="0.961371" stroke-miterlimit="10" stroke-linecap="round" stroke-linejoin="round"></path><path d="M257.562 82.1373V82.1307V82.124" stroke="black" stroke-width="0.961371" stroke-miterlimit="10" stroke-linecap="round" stroke-linejoin="round"></path><path d="M257.562 58.9001V50.9414" stroke="black" stroke-width="0.961371" stroke-miterlimit="10" stroke-linecap="round" stroke-linejoin="round"></path><path d="M257.562 82.1365V82.1299" stroke="black" stroke-width="0.961371" stroke-miterlimit="10" stroke-linecap="round" stroke-linejoin="round"></path><path d="M245.947 62.0169L241.964 55.1172" stroke="black" stroke-width="0.961371" stroke-miterlimit="10" stroke-linecap="round" stroke-linejoin="round"></path><path d="M257.562 82.1365V82.1299" stroke="black" stroke-width="0.961371" stroke-miterlimit="10" stroke-linecap="round" stroke-linejoin="round"></path><path d="M237.442 70.5082L230.549 66.5322" stroke="black" stroke-width="0.961371" stroke-miterlimit="10" stroke-linecap="round" stroke-linejoin="round"></path><path d="M288.751 82.1299H280.799" stroke="black" stroke-width="0.961371" stroke-miterlimit="10" stroke-linecap="round" stroke-linejoin="round"></path><path d="M234.325 82.1299H226.367" stroke="black" stroke-width="0.961371" stroke-miterlimit="10" stroke-linecap="round" stroke-linejoin="round"></path><path d="M284.575 66.5322L277.682 70.5082" stroke="black" stroke-width="0.961371" stroke-miterlimit="10" stroke-linecap="round" stroke-linejoin="round"></path><path d="M257.562 82.1307V82.124" stroke="black" stroke-width="0.961371" stroke-miterlimit="10" stroke-linecap="round" stroke-linejoin="round"></path><path d="M273.153 55.1172L269.177 62.0169" stroke="black" stroke-width="0.961371" stroke-miterlimit="10" stroke-linecap="round" stroke-linejoin="round"></path><path d="M257.562 82.1307V82.124" stroke="black" stroke-width="0.961371" stroke-miterlimit="10" stroke-linecap="round" stroke-linejoin="round"></path><path d="M270.989 80.8652C270.989 73.2728 264.688 67.1523 257.036 67.452C250.156 67.7184 244.455 73.386 244.156 80.2658C243.982 84.2218 245.528 87.8182 248.105 90.3823C249.41 91.681 250.223 93.3927 250.223 95.2375V102.577H264.922V95.2308C264.922 93.3993 265.714 91.6877 267.019 90.4023C269.464 87.9714 270.989 84.5948 270.989 80.8652Z" fill="white" stroke="black" stroke-width="0.961371" stroke-miterlimit="10" stroke-linecap="round" stroke-linejoin="round"></path><path d="M261.165 108.251L263.316 78.8535L260.433 84.8275L257.556 78.8535L254.678 84.8275L251.808 78.8535L254.226 108.251" stroke="black" stroke-width="0.961371" stroke-miterlimit="10" stroke-linecap="round" stroke-linejoin="round"></path><path d="M264.489 115.024H250.629C249.477 115.024 248.545 114.091 248.545 112.939V101.664C248.545 100.511 249.477 99.5791 250.629 99.5791H264.489C265.641 99.5791 266.573 100.511 266.573 101.664V112.939C266.573 114.091 265.641 115.024 264.489 115.024Z" fill="white" stroke="black" stroke-width="0.961371" stroke-miterlimit="10" stroke-linecap="round" stroke-linejoin="round"></path><path d="M196.017 82.084C195.784 80.9251 194.705 80.2924 193.573 80.6188C193.02 80.7786 192.514 81.025 192.048 81.3514C191.695 81.5911 191.448 81.9108 191.342 82.3304C191.309 82.4636 191.235 82.5835 191.182 82.7233C190.503 82.4969 190.396 82.5302 189.857 82.9231C189.151 83.4426 188.671 84.1485 188.298 84.9078C187.885 85.747 188.012 86.5795 188.645 87.2788C189.231 87.9248 189.97 88.2644 190.862 88.1579C191.295 88.1046 191.735 88.038 192.148 87.9115C192.954 87.665 193.746 87.3387 194.299 86.6793C194.832 86.0533 195.331 85.3873 195.697 84.6414C195.744 84.5481 195.791 84.4483 195.824 84.3484C196.077 83.6091 196.17 82.8499 196.017 82.084ZM194.112 82.9165C194.039 83.4426 193.819 83.8222 193.526 84.1752C193.353 84.3883 193.173 84.5881 193.007 84.8012C192.767 85.1209 192.467 85.3673 192.088 85.4872C191.648 85.6204 191.202 85.7336 190.762 85.8468C190.709 85.8602 190.643 85.8668 190.589 85.8668C190.11 85.8801 189.943 85.6404 190.116 85.1942C190.356 84.5881 190.643 84.0087 191.049 83.4959C191.129 83.396 191.189 83.2694 191.209 83.1496C191.242 82.9564 191.348 82.8898 191.515 82.8698C191.595 82.8565 191.675 82.8299 191.761 82.8299C192.314 82.8166 192.827 82.6434 193.34 82.4569C193.48 82.4036 193.633 82.3703 193.786 82.3437C194.079 82.2971 194.172 82.3903 194.152 82.6967C194.139 82.7966 194.119 82.8898 194.112 82.9165Z" fill="black"></path><path d="M168.391 81.9907C168.398 81.1316 167.832 80.5988 166.973 80.6454C166.786 80.6587 166.6 80.712 166.42 80.7653C166.24 80.8186 166.067 80.8985 165.894 80.9784C165.747 81.045 165.634 81.0317 165.508 80.9251C165.215 80.6787 164.942 80.672 164.695 80.9384C164.276 81.378 163.816 81.7909 163.496 82.3237C163.017 83.1363 162.491 83.9221 162.018 84.7347C161.292 85.9801 160.673 87.2788 160.413 88.7107C160.36 89.037 160.28 89.3567 160.26 89.6897C160.246 89.8828 160.28 90.0959 160.36 90.2691C160.579 90.7286 161.105 90.7486 161.372 90.3157C161.498 90.1159 161.592 89.8962 161.685 89.683C162.104 88.684 162.517 87.685 162.937 86.6794C163.05 86.3996 163.077 86.3797 163.35 86.5062C163.603 86.6194 163.869 86.6661 164.142 86.6261C164.469 86.5861 164.795 86.5262 165.121 86.4729C166.24 86.2931 167.073 85.727 167.519 84.6614C167.812 83.9688 168.065 83.2561 168.318 82.5502C168.385 82.377 168.391 82.1772 168.391 81.9907ZM166.387 82.1905C166.127 82.7433 165.861 83.2961 165.608 83.8489C165.434 84.2085 165.161 84.4483 164.782 84.5748C164.595 84.6414 164.409 84.7213 164.222 84.7879C164.142 84.8146 164.049 84.8212 163.903 84.8479C163.956 84.6947 163.976 84.5948 164.023 84.5082C164.316 83.9155 164.609 83.3294 164.908 82.7433C164.988 82.5901 165.088 82.437 165.201 82.3038C165.541 81.8842 165.867 81.8242 166.4 82.0707C166.387 82.0973 166.4 82.1506 166.387 82.1905Z" fill="black"></path><path d="M137.862 85.8807C137.696 86.0072 137.516 86.1072 137.343 86.2204C137.309 86.2004 137.276 86.1804 137.243 86.1671C137.243 86.0539 137.229 85.9407 137.243 85.8341C137.329 85.1015 137.536 84.4022 137.815 83.7229C137.989 83.3099 138.068 82.8904 138.135 82.4575C138.188 82.1178 138.015 81.8314 137.729 81.7049C137.449 81.585 137.123 81.6649 136.896 81.9247C136.81 82.0246 136.736 82.1311 136.683 82.2443C136.364 82.957 135.791 83.4831 135.298 84.0625C134.825 84.622 134.306 85.1414 133.806 85.6742C133.72 85.7608 133.626 85.8408 133.48 85.9806C133.48 85.8141 133.466 85.7275 133.486 85.6609C133.606 85.268 133.726 84.8684 133.873 84.4888C134.106 83.9093 134.366 83.3432 134.605 82.7638C134.659 82.6373 134.685 82.4908 134.699 82.3509C134.712 82.1511 134.632 81.9779 134.445 81.878C134.252 81.7648 134.053 81.7981 133.879 81.9247C133.779 81.9979 133.686 82.0978 133.606 82.1977C133.46 82.3842 133.327 82.5773 133.18 82.7638C132.361 83.8028 131.828 84.9749 131.575 86.267C131.528 86.5201 131.502 86.7865 131.535 87.0395C131.655 87.9187 132.554 88.4248 133.367 88.0652C133.6 87.9653 133.833 87.8121 134.006 87.6323C134.392 87.2327 134.738 86.7998 135.098 86.3802C135.191 86.267 135.298 86.1671 135.391 86.0605C135.418 86.0672 135.438 86.0805 135.464 86.0872C135.478 86.2204 135.484 86.3602 135.498 86.4934C135.524 86.7398 135.524 86.9929 135.584 87.2327C135.844 88.2983 136.91 88.6912 137.789 88.0385C138.049 87.8454 138.275 87.5923 138.475 87.3326C138.981 86.6733 139.247 85.8874 139.587 85.1015C139.347 85.2014 139.147 85.3146 138.941 85.3679C138.548 85.4678 138.188 85.6343 137.862 85.8807Z" fill="black"></path><path d="M189.124 82.3831C189.337 81.9969 189.251 81.5773 188.958 81.3109C188.665 81.0511 188.252 81.0178 187.879 81.2776C187.619 81.4574 187.373 81.6705 187.166 81.9036C186.833 82.2699 186.54 82.6695 186.22 83.0491C186.14 83.149 186.041 83.2489 185.927 83.2956C185.268 83.5553 184.609 83.8017 183.943 84.0548C183.883 84.0748 183.809 84.0681 183.723 84.0681C183.743 83.9682 183.736 83.8816 183.769 83.815C183.956 83.3821 184.142 82.9492 184.342 82.5163C184.409 82.3831 184.489 82.2366 184.602 82.15C184.782 82.0102 184.782 81.857 184.722 81.6772C184.615 81.3375 184.316 81.1777 183.969 81.2776C183.623 81.3841 183.317 81.5573 183.09 81.8437C182.924 82.0568 182.757 82.2699 182.604 82.4964C181.765 83.7618 180.906 85.0272 180.386 86.4724C180.306 86.7055 180.22 86.9519 180.22 87.185C180.22 87.851 180.839 88.2839 181.472 88.0841C181.778 87.9842 181.991 87.7711 182.158 87.5047C182.364 87.1783 182.577 86.8453 182.79 86.5257C183.143 85.9929 183.616 85.5866 184.182 85.3069C184.422 85.187 184.682 85.1071 185.022 85.1271C184.988 85.2869 184.962 85.3935 184.935 85.5067C184.868 85.8197 184.788 86.1261 184.735 86.4391C184.682 86.7787 184.748 87.0984 184.975 87.3715C185.328 87.7844 185.934 87.7245 186.18 87.2449C186.34 86.9452 186.487 86.6322 186.64 86.3259C187.186 85.2136 187.725 84.1014 188.565 83.169C188.791 82.9293 188.978 82.6629 189.124 82.3831Z" fill="black"></path><path d="M156.031 82.0103C156.057 81.5641 155.837 81.2445 155.464 81.018C155.178 80.8449 154.852 80.7516 154.519 80.7649C154.073 80.7849 153.626 80.8382 153.18 80.8848C152.814 80.9248 152.454 80.9714 152.094 81.018C151.089 81.1379 150.077 81.2444 149.071 81.371C148.658 81.4243 148.265 81.5641 147.932 81.8172C147.785 81.9304 147.639 82.0636 147.539 82.2168C147.253 82.6697 147.452 83.2291 147.965 83.389C148.138 83.4422 148.338 83.4356 148.525 83.4356C148.851 83.4289 149.184 83.4089 149.51 83.389C149.51 83.4023 149.51 83.4156 149.51 83.4289C149.584 83.4356 149.65 83.4423 149.724 83.4489C150.017 83.4889 150.063 83.5688 149.943 83.8485C149.89 83.9751 149.817 84.1016 149.744 84.2215C149.564 84.5145 149.384 84.8009 149.197 85.0939C148.858 85.64 148.658 86.2461 148.525 86.8722C148.378 87.5848 148.798 88.2175 149.484 88.3707C149.937 88.4772 150.19 88.3174 150.363 87.8845C150.669 87.1186 150.989 86.3593 151.329 85.6067C151.535 85.1405 151.755 84.6877 151.848 84.1815C151.875 84.0217 151.948 83.8685 152.001 83.7087C152.075 83.4955 152.228 83.3956 152.461 83.389C152.694 83.3823 152.934 83.369 153.167 83.329C153.746 83.2358 154.332 83.1425 154.912 83.036C155.072 83.0093 155.238 82.9627 155.385 82.8961C155.757 82.7296 156.004 82.4432 156.031 82.0103Z" fill="black"></path><path d="M160.426 86.4866C159.713 86.5599 159.001 86.6331 158.288 86.7064C158.195 86.713 158.102 86.7197 158.009 86.713C157.542 86.6864 157.183 86.3534 157.116 85.9072C157.069 85.6075 157.109 85.5143 157.389 85.4277C157.656 85.3411 157.935 85.2811 158.215 85.2412C158.521 85.1946 158.808 85.1013 159.081 84.9481C159.327 84.8083 159.567 84.6618 159.827 84.5419C160.386 84.2688 160.792 83.8293 161.132 83.3231C161.445 82.8569 161.465 82.3441 161.199 81.8446C160.826 81.1519 160.2 80.7856 159.447 80.6591C159.227 80.6191 158.981 80.6991 158.761 80.7723C158.308 80.9322 157.935 81.2319 157.622 81.5915C156.97 82.3374 156.337 83.0967 155.864 83.9824C155.737 84.2155 155.558 84.4287 155.384 84.6285C155.238 84.795 155.191 84.9681 155.231 85.1812C155.278 85.421 155.298 85.6674 155.331 85.9072C155.378 86.2469 155.404 86.5865 155.491 86.9195C155.711 87.7986 156.963 88.6578 157.869 88.5246C158.488 88.4313 159.101 88.2448 159.56 87.7853C159.96 87.3924 160.313 86.9595 160.726 86.4933C160.579 86.4866 160.499 86.4799 160.426 86.4866ZM159.187 82.4973C159.234 82.4706 159.314 82.5039 159.427 82.5172C159.247 82.8502 158.994 82.9968 158.675 83.05C158.788 82.8036 158.954 82.6105 159.187 82.4973Z" fill="black"></path><path d="M172.268 80.6523C172.048 80.6123 171.801 80.6922 171.582 80.7655C171.129 80.9253 170.756 81.225 170.443 81.5847C169.79 82.3306 169.157 83.0898 168.685 83.9756C168.558 84.2087 168.378 84.4218 168.205 84.6216C168.059 84.7881 168.012 84.9613 168.052 85.1744C168.098 85.4142 168.118 85.6606 168.152 85.9004C168.198 86.24 168.225 86.5797 168.312 86.9127C168.531 87.7918 169.783 88.6509 170.689 88.5177C171.309 88.4245 171.921 88.238 172.381 87.7785C172.78 87.3855 173.133 86.9526 173.546 86.4864C173.406 86.4864 173.327 86.4731 173.253 86.4864C172.541 86.5597 171.828 86.633 171.115 86.7062C171.022 86.7129 170.929 86.7195 170.836 86.7129C170.37 86.6862 170.01 86.3532 169.943 85.907C169.897 85.6073 169.937 85.5141 170.216 85.4275C170.483 85.3409 170.762 85.281 171.042 85.241C171.349 85.1944 171.635 85.1012 171.908 84.948C172.154 84.8081 172.394 84.6616 172.654 84.5417C173.213 84.2687 173.62 83.8291 173.959 83.3229C174.272 82.8567 174.292 82.3439 174.026 81.8444C173.646 81.1451 173.02 80.7788 172.268 80.6523ZM171.508 83.0499C171.622 82.8035 171.788 82.6103 172.021 82.4971C172.068 82.4705 172.148 82.5038 172.261 82.5171C172.081 82.8501 171.828 82.9966 171.508 83.0499Z" fill="black"></path><path d="M145.741 81.4449C145.608 81.5382 145.488 81.658 145.394 81.7912C145.022 82.3374 144.642 82.8768 144.402 83.5029C144.362 83.6028 144.322 83.7093 144.249 83.7759C143.876 84.1422 143.516 84.5285 143.024 84.7216C142.557 84.9081 142.144 85.1679 141.738 85.4542C141.645 85.5208 141.545 85.5675 141.412 85.6407C141.405 85.5275 141.385 85.4676 141.398 85.4209C141.545 84.9348 141.658 84.4419 141.851 83.9757C142.118 83.323 142.451 82.6903 142.75 82.051C142.797 81.9444 142.844 81.8312 142.864 81.718C142.897 81.5448 142.87 81.385 142.71 81.2784C142.564 81.1852 142.377 81.2118 142.224 81.3517C142.138 81.4316 142.064 81.5248 141.998 81.6247C141.565 82.2708 141.139 82.9234 140.719 83.5761C140.606 83.7559 140.533 83.9557 140.453 84.1555C140.266 84.6284 140.086 85.1013 139.913 85.5808C139.82 85.8339 139.74 86.0936 139.667 86.36C139.554 86.7929 139.574 87.2325 139.654 87.6587C139.74 88.1449 140.173 88.378 140.613 88.1649C140.806 88.0716 141.006 87.9184 141.119 87.7453C141.592 87.0127 142.284 86.5531 143.004 86.1202C143.13 86.047 143.27 85.9671 143.476 86.0403C143.463 86.1669 143.45 86.2934 143.43 86.4133C143.317 86.9794 143.223 87.5521 143.283 88.1382C143.31 88.378 143.35 88.6377 143.456 88.8508C143.716 89.3703 144.316 89.377 144.609 88.8775C144.708 88.7043 144.782 88.5112 144.835 88.3247C145.121 87.3657 145.394 86.4 145.688 85.4409C145.921 84.675 146.107 83.8891 146.6 83.2298C146.72 83.07 146.806 82.8835 146.9 82.7103C147.013 82.4972 147.066 82.2708 147.026 82.0243C146.933 81.3783 146.274 81.0786 145.741 81.4449Z" fill="black"></path><path d="M177.622 81.0517C177.349 81.1849 177.089 81.3581 176.85 81.5446C176.197 82.0441 175.671 82.6701 175.178 83.3161C174.932 83.6424 174.725 84.0087 174.559 84.3884C174.039 85.5539 174.425 87.059 175.418 87.8582C175.777 88.1446 176.184 88.3444 176.65 88.3444C178.082 88.3511 178.954 87.7783 179.42 86.4064C179.014 86.4463 178.608 86.4929 178.202 86.5196C177.895 86.5396 177.589 86.5462 177.289 86.5262C176.896 86.5062 176.643 86.2665 176.483 85.9202C176.317 85.5738 176.344 85.2342 176.51 84.8945C176.796 84.3151 177.236 83.8489 177.662 83.3827C177.709 83.3294 177.795 83.3028 177.895 83.2495C177.922 83.3694 177.942 83.4626 177.955 83.5492C177.995 83.8556 178.135 84.0887 178.428 84.2019C178.735 84.3218 179.021 84.2419 179.247 84.0221C179.427 83.8423 179.594 83.6358 179.733 83.416C180.14 82.7767 180.086 82.0374 179.614 81.5113C179.081 80.9119 178.302 80.7254 177.622 81.0517Z" fill="black"></path><path d="M84.0625 130.383C83.8494 130.469 83.6429 130.636 83.4831 130.809C83.21 131.109 82.9636 131.442 82.7172 131.768C82.231 132.408 81.6516 132.954 80.9923 133.4C80.4728 133.753 79.9 134.019 79.3472 134.319C79.2673 134.359 79.1674 134.352 79.0342 134.372C79.0542 134.252 79.0542 134.186 79.0742 134.139C79.3606 133.533 79.7002 132.96 80.1797 132.481C80.4728 132.188 80.7259 131.861 80.8191 131.449C80.919 130.982 80.7725 130.589 80.4195 130.37C80.0798 130.156 79.6869 130.19 79.3139 130.483C78.921 130.789 78.5614 131.142 78.3016 131.575C77.9686 132.121 77.629 132.667 77.296 133.213C77.1628 133.433 77.0029 133.633 76.7632 133.746C75.6909 134.246 74.592 134.672 73.3999 134.779C72.7405 134.838 72.2677 134.239 72.5207 133.62C72.5873 133.453 72.6872 133.3 72.8005 133.167C73.2067 132.667 73.6929 132.248 74.2257 131.881C74.3389 131.808 74.4721 131.755 74.6586 131.668C74.6719 131.835 74.6852 131.921 74.6852 132.008C74.6986 132.268 74.7718 132.494 75.0316 132.607C75.298 132.727 75.5444 132.647 75.7375 132.454C76.1038 132.088 76.3969 131.668 76.4901 131.142C76.61 130.45 76.2903 129.863 75.6509 129.584C75.2114 129.391 74.7785 129.451 74.3389 129.59C73.5597 129.83 72.8471 130.196 72.2077 130.709C71.3419 131.402 70.5827 132.168 70.2563 133.267C70.1964 133.453 70.0765 133.54 69.89 133.54C69.1241 133.54 68.3915 133.713 67.6789 133.993C67.5724 134.033 67.4458 134.039 67.2926 134.066C67.2993 133.906 67.286 133.806 67.306 133.713C67.3526 133.526 67.4125 133.347 67.4725 133.16C67.5724 132.827 67.6989 132.501 67.7722 132.168C67.8454 131.855 67.7722 131.595 67.4591 131.415C67.3326 131.349 67.2327 131.209 67.1594 131.089C66.64 130.223 65.6609 129.857 64.7019 130.176C64.4954 130.243 64.2956 130.336 64.0892 130.403C63.3899 130.623 62.9037 131.096 62.5374 131.708C62.2843 132.128 62.0312 132.541 61.7715 132.954C61.5917 133.247 61.3919 133.533 61.2387 133.846C60.9057 134.519 61.0189 135.298 61.5118 135.731C62.2244 136.357 63.0369 136.563 63.936 136.164C64.3223 135.991 64.6819 135.771 65.0549 135.571C65.3213 135.425 65.3746 135.425 65.5344 135.658C66.0339 136.397 66.8398 136.67 67.7389 136.284C68.6579 135.891 69.4638 135.331 70.0232 134.472C70.0699 134.399 70.1298 134.339 70.2164 134.232C70.2763 134.359 70.3229 134.446 70.3629 134.532C70.4362 134.725 70.4894 134.925 70.5694 135.112C70.9423 136.031 72.1611 136.796 73.1468 136.737C73.2866 136.73 73.4265 136.71 73.5597 136.663C74.6253 136.344 75.7175 136.077 76.6366 135.391C76.7432 135.311 76.883 135.285 76.9763 135.245C77.0296 135.285 77.0429 135.291 77.0495 135.298C77.1028 135.371 77.1494 135.445 77.1961 135.518C77.589 136.104 78.1418 136.364 78.8411 136.31C79.4005 136.264 79.9133 136.084 80.3795 135.758C80.8391 135.431 81.3119 135.125 81.7781 134.812C81.8581 134.759 81.9513 134.725 82.0512 134.672C82.0512 134.672 81.898 136.35 82.8437 136.357C83.7828 136.364 83.6696 135.864 83.7828 134.326C83.896 133.986 84.0292 133.646 84.1757 133.313C84.4222 132.761 84.7085 132.234 84.9483 131.682C85.0349 131.475 85.0815 131.235 85.0682 131.016C84.9949 130.496 84.5287 130.196 84.0625 130.383ZM65.3746 132.194C64.9483 133.193 64.229 133.906 63.23 134.332C63.1568 134.366 63.0635 134.359 62.8837 134.379C62.957 134.166 62.9969 134.039 63.0502 133.913C63.3033 133.353 63.5697 132.8 63.8161 132.234C63.9293 131.975 64.0958 131.815 64.3822 131.782C64.5953 131.755 64.8085 131.695 65.0282 131.688C65.3612 131.688 65.5011 131.895 65.3746 132.194Z" fill="black"></path><path d="M91.3419 131.428C91.1754 131.335 91.0156 131.228 90.8091 131.102C90.9023 131.002 90.949 130.942 91.0022 130.895C91.7748 130.296 92.534 129.69 93.0269 128.817C93.0602 128.764 93.1001 128.711 93.1468 128.664C93.6263 128.111 93.8794 127.465 93.9793 126.753C94.1324 125.654 93.28 124.928 92.2343 125.301C91.8014 125.454 91.4018 125.687 90.9889 125.9C90.7425 126.034 90.5027 126.193 90.2763 126.353C89.7502 126.72 89.2107 127.066 88.7245 127.479C88.0918 128.018 87.4858 128.598 87.0862 129.35C86.6866 130.096 86.2803 130.842 85.8607 131.575C85.4611 132.261 85.3279 133.007 85.2946 133.786C85.2613 134.612 85.5077 135.298 86.2137 135.777C86.267 135.81 86.3136 135.857 86.3602 135.904C86.7065 136.223 87.1195 136.363 87.5923 136.323C88.6246 136.25 89.5703 135.97 90.4361 135.378C91.0289 134.971 91.535 134.498 91.9813 133.952C92.4941 133.326 92.5207 132.72 92.0612 132.048C91.868 131.788 91.6216 131.595 91.3419 131.428ZM91.6483 127.472C91.5883 127.699 91.2487 128.205 90.9689 128.438C90.4694 128.857 89.9966 129.304 89.4105 129.61C89.1441 129.75 88.911 129.95 88.5847 130.176C88.8377 129.37 90.6493 127.812 91.6483 127.472ZM91.0822 133.206C90.223 134.245 89.1641 134.925 87.7788 134.991C87.4058 135.011 86.9729 134.732 86.8331 134.392C86.7931 134.292 86.7865 134.165 86.7865 134.052C86.7865 133.872 86.8131 133.693 86.8264 133.486C86.8331 133.439 86.8464 133.36 86.8597 133.286C86.953 132.78 86.9863 132.76 87.4924 132.707C87.9919 132.647 88.4648 132.487 88.9043 132.234C89.0375 132.161 89.1707 132.081 89.2973 131.994C89.4971 131.854 89.6969 131.848 89.9033 131.974C90.1964 132.154 90.5027 132.321 90.7958 132.5C90.8957 132.56 90.9889 132.634 91.0622 132.72C91.2154 132.893 91.222 133.04 91.0822 133.206Z" fill="black"></path><path d="M100.713 131.288C100.526 130.383 100.06 129.623 99.3206 129.051C98.9276 128.744 98.4748 128.624 97.9819 128.711C97.3892 128.818 96.8497 129.044 96.4168 129.47C96.1771 129.703 95.944 129.943 95.7175 130.183C95.4311 130.483 95.218 130.836 95.0782 131.222C95.0315 131.342 94.9783 131.448 94.925 131.581C94.8317 131.568 94.7718 131.561 94.7119 131.542C94.4654 131.455 94.239 131.522 94.0858 131.715C93.7062 132.194 93.2866 132.66 92.9869 133.187C92.5407 133.959 92.6739 134.772 93.1667 135.478C93.6529 136.17 94.3522 136.517 95.2247 136.437C96.4701 136.317 97.569 135.797 98.5813 135.105C99.2473 134.645 99.8001 134.046 100.26 133.373C100.699 132.747 100.866 132.028 100.713 131.288ZM98.4215 132.414C97.6489 133.32 96.6499 133.866 95.551 134.252C95.3379 134.325 95.0981 134.372 94.8784 134.365C94.4654 134.359 94.219 134.026 94.3056 133.646C94.4788 133.187 94.6386 132.727 94.8184 132.274C94.865 132.168 94.9783 132.068 95.0848 132.008C95.3379 131.868 95.5976 131.715 95.8774 131.628C96.3968 131.462 96.8564 131.202 97.2893 130.876C97.4691 130.736 97.6756 130.629 97.882 130.536C98.1085 130.443 98.3016 130.523 98.4548 130.716C98.921 131.295 98.901 131.841 98.4215 132.414Z" fill="black"></path><path d="M60.1398 130.929C59.4672 130.602 58.7745 130.522 58.0486 130.682C57.7689 130.742 57.4692 130.755 57.1761 130.762C56.943 130.769 56.7499 130.842 56.5967 131.009C56.4435 131.182 56.2903 131.355 56.1638 131.548C55.4179 132.667 54.672 133.786 53.946 134.918C53.7795 135.171 53.6463 135.457 53.5464 135.744C53.3466 136.337 53.1668 136.943 53.0003 137.542C52.8871 137.955 52.8471 138.375 53.0003 138.794C53.1135 139.107 53.32 139.32 53.6596 139.367C54.006 139.413 54.2457 139.24 54.4255 138.961C54.4655 138.894 54.5055 138.827 54.5321 138.761C54.8318 138.042 55.2247 137.356 55.3713 136.576C55.3846 136.516 55.4046 136.45 55.4312 136.396C55.5244 136.177 55.5777 136.143 55.8108 136.197C55.984 136.237 56.1571 136.283 56.3303 136.33C56.8897 136.45 57.4292 136.35 57.9487 136.137C58.4881 135.917 58.941 135.571 59.3939 135.211C60.1598 134.598 60.5661 133.772 60.9057 132.893C60.9523 132.773 60.9723 132.647 60.9923 132.52C61.0989 131.761 60.8325 131.268 60.1398 130.929ZM59.2407 132.52C58.7812 133.479 58.0619 134.179 57.0962 134.618C56.8564 134.731 56.5967 134.811 56.2504 134.731C56.3103 134.558 56.3436 134.438 56.3969 134.332C56.7099 133.646 57.0363 132.967 57.3426 132.274C57.4692 131.994 57.6556 131.861 57.962 131.854C58.3483 131.841 58.7279 131.821 59.0809 132.021C59.3273 132.161 59.3606 132.261 59.2407 132.52Z" fill="black"></path><path d="M50.6959 133.879C50.8358 133.766 50.8957 133.699 50.969 133.659C51.8947 133.12 52.6739 132.394 53.4465 131.661C53.5797 131.535 53.6796 131.355 53.7529 131.182C53.8328 130.982 53.8261 130.769 53.6263 130.622C53.4332 130.482 53.2401 130.529 53.0536 130.649C52.4808 131.015 51.8814 131.348 51.3353 131.748C50.8558 132.094 50.303 132.247 49.7702 132.474C49.7302 132.494 49.6769 132.48 49.5304 132.487C49.637 132.094 49.7435 131.768 49.8235 131.435C49.9034 131.088 49.9833 130.735 49.9966 130.382C50.0099 130.049 49.7968 129.823 49.5238 129.763C49.244 129.703 49.0043 129.836 48.8578 130.163C48.7645 130.362 48.7112 130.576 48.6247 130.769C48.1585 131.768 47.7122 132.773 47.2127 133.759C46.933 134.312 46.7599 134.904 46.5667 135.484C46.4735 135.77 46.4602 136.063 46.5734 136.35C46.6799 136.616 46.8531 136.816 47.1528 136.849C47.4592 136.889 47.6656 136.723 47.8055 136.47C47.9387 136.236 48.0586 135.997 48.1784 135.75C48.4382 135.224 48.4382 135.224 48.951 135.511C49.3373 135.73 49.7435 135.897 50.1964 135.797C50.5094 135.73 50.8291 135.65 51.1155 135.517C51.5884 135.291 52.0745 135.158 52.5807 135.078C53.0203 135.011 53.3932 134.798 53.7529 134.458C52.8005 133.905 51.7882 133.899 50.6959 133.879Z" fill="black"></path><path d="M253.173 125.633C253.12 125.653 253.06 125.673 253.007 125.7C252.394 125.973 251.821 126.312 251.315 126.765C251.202 126.865 251.062 126.972 250.922 126.998C250.536 127.071 250.283 127.298 250.076 127.611C249.983 127.751 249.883 127.897 249.75 127.984C249.417 128.197 249.071 128.377 248.724 128.57C248.684 128.59 248.638 128.59 248.511 128.61C248.551 128.41 248.571 128.257 248.618 128.117C248.698 127.877 248.811 127.651 248.898 127.418C248.977 127.205 249.064 126.992 249.104 126.772C249.157 126.452 248.984 126.166 248.724 126.072C248.465 125.979 248.225 126.066 248.018 126.352C247.632 126.898 247.233 127.438 246.999 128.07C246.926 128.27 246.8 128.45 246.686 128.637C246.273 129.309 245.854 129.975 245.448 130.648C245.321 130.861 245.208 131.087 245.115 131.321C244.995 131.607 244.981 131.9 245.095 132.2C245.314 132.799 246.034 132.979 246.493 132.533C246.62 132.413 246.706 132.246 246.8 132.093C247.013 131.747 247.213 131.394 247.426 131.047C247.725 130.555 248.238 130.375 248.718 130.142C248.731 130.135 248.758 130.162 248.804 130.182C248.804 130.355 248.804 130.548 248.811 130.734C248.831 131.334 249.091 131.82 249.524 132.213C249.883 132.539 250.316 132.686 250.789 132.546C251.395 132.366 251.994 132.153 252.501 131.753C252.687 131.607 252.88 131.467 253.067 131.321C253.873 130.675 254.472 129.869 254.965 128.97C254.985 128.936 254.998 128.903 255.011 128.87C255.318 128.104 255.331 127.318 255.071 126.552C254.832 125.839 254.266 125.227 253.173 125.633ZM253.133 128.643C252.914 128.923 252.707 129.223 252.467 129.482C252.021 129.969 251.528 130.395 250.922 130.668C250.609 130.808 250.503 130.721 250.536 130.388C250.543 130.308 250.549 130.215 250.589 130.142C250.862 129.549 251.135 128.95 251.661 128.523C252.074 128.184 252.454 127.797 252.947 127.564C252.98 127.551 253.007 127.524 253.04 127.518C253.18 127.478 253.326 127.444 253.473 127.411C253.5 127.558 253.533 127.704 253.56 127.851C253.466 128.15 253.32 128.403 253.133 128.643Z" fill="black"></path><path d="M276.477 125.107C276.137 124.714 275.664 124.574 275.145 124.621C274.772 124.654 274.405 124.747 274.106 124.967C273.373 125.493 272.727 126.119 272.381 126.979C272.301 127.178 272.188 127.292 271.988 127.372C271.555 127.551 271.135 127.764 270.829 128.131C270.496 128.537 270.17 128.957 269.863 129.383C269.464 129.942 269.457 130.555 269.783 131.121C270.576 132.493 271.895 132.926 273.227 132.313C273.599 132.14 273.939 131.887 274.272 131.634C275.131 130.975 275.764 130.109 276.357 129.223C276.736 128.657 277.083 128.051 277.209 127.298C277.382 126.479 277.036 125.746 276.477 125.107ZM275.111 127.172C275.078 127.285 275.018 127.398 274.951 127.498C274.345 128.457 273.659 129.35 272.76 130.055C272.6 130.182 272.414 130.289 272.228 130.382C272.028 130.475 271.821 130.455 271.635 130.322C271.482 130.209 271.402 130.062 271.468 129.876C271.628 129.449 271.781 129.023 271.961 128.61C272.068 128.364 272.254 128.177 272.527 128.124C273.353 127.971 274.019 127.525 274.658 127.019C274.778 126.925 274.918 126.865 275.131 126.745C275.131 126.945 275.145 127.065 275.111 127.172Z" fill="black"></path><path d="M268.092 130.828C268.132 130.709 268.198 130.595 268.251 130.475C268.691 129.55 269.437 127.725 269.883 126.799C269.963 126.639 270.056 126.486 270.163 126.346C270.503 125.9 270.336 125.381 269.797 125.234C269.41 125.127 269.077 125.261 268.811 125.527C268.591 125.74 268.425 126.007 268.218 126.233C268.032 126.44 267.845 126.666 267.625 126.826C266.9 127.339 266.1 127.712 265.314 128.111C265.088 128.224 264.862 128.351 264.635 128.471C264.389 128.597 264.142 128.717 263.889 128.844C263.863 128.817 263.843 128.791 263.816 128.764C263.843 128.684 263.856 128.591 263.896 128.517C264.322 127.732 264.622 126.872 265.155 126.14C265.401 125.807 265.381 125.494 265.161 125.261C264.948 125.028 264.642 124.994 264.275 125.181C263.942 125.354 263.643 125.574 263.436 125.893C262.684 127.052 261.831 128.151 261.385 129.49C261.345 129.61 261.265 129.716 261.225 129.836C261.032 130.396 260.819 130.942 260.679 131.514C260.559 131.974 260.792 132.4 261.165 132.587C261.525 132.767 261.951 132.68 262.277 132.327C262.444 132.147 262.577 131.941 262.704 131.741C263.197 130.955 263.883 130.356 264.602 129.803C265.155 129.377 265.794 129.05 266.393 128.691C266.447 128.657 266.52 128.651 266.64 128.617C266.553 128.817 266.467 128.95 266.433 129.09C266.353 129.397 265.947 130.609 265.94 130.922C265.927 131.508 266.18 131.994 266.686 132.32C267.532 132.86 268.478 132.367 268.525 131.368C268.491 131.361 268.451 131.355 268.418 131.348C268.065 131.295 267.972 131.155 268.092 130.828Z" fill="black"></path><path d="M262.344 126.127C262.351 126.12 262.351 126.107 262.357 126.087C262.044 125.694 261.651 125.434 261.159 125.327C260.166 125.108 259.187 125.214 258.248 125.561C257.562 125.814 256.89 126.087 256.164 126.2C255.844 126.253 255.671 126.44 255.637 126.686C255.604 126.939 255.744 127.219 256.017 127.339C256.197 127.419 256.41 127.445 256.61 127.479C256.816 127.512 257.029 127.525 257.349 127.559C257.169 127.932 257.049 128.211 256.91 128.478C256.75 128.771 256.557 129.044 256.41 129.343C256.057 130.083 255.837 130.855 255.964 131.688C256.084 132.474 256.87 132.793 257.496 132.3C257.715 132.121 257.909 131.874 258.028 131.614C258.401 130.815 258.728 129.989 259.074 129.177C259.107 129.097 259.134 129.01 259.154 128.924C259.3 128.378 259.454 127.838 259.594 127.292C259.64 127.099 259.74 127.006 259.927 126.979C260.18 126.939 260.433 126.866 260.686 126.859C261.345 126.833 261.925 126.659 262.344 126.127Z" fill="black"></path><path d="M245.841 127.105C245.894 126.952 245.947 126.785 245.947 126.619C245.954 125.993 245.314 125.626 244.782 125.953C244.642 126.039 244.522 126.166 244.422 126.292C244.295 126.452 244.189 126.632 244.082 126.805C243.836 127.218 243.523 128.397 243.143 128.69C242.963 128.83 242.777 128.976 242.611 129.136C242.104 129.622 241.498 129.955 240.906 130.315C240.792 130.382 240.659 130.415 240.486 130.482C240.493 130.335 240.479 130.242 240.506 130.169C240.599 129.889 240.699 129.609 240.792 129.329C240.792 129.329 241.492 127.505 241.312 126.552C241.298 126.379 241.232 126.232 241.119 126.133C241.072 126.093 241.025 126.059 240.965 126.033C240.899 126.006 240.832 125.993 240.766 125.993C240.752 125.993 240.739 125.993 240.719 125.993C240.666 125.993 240.613 125.999 240.559 126.019C240.546 126.026 240.533 126.026 240.519 126.033C239.853 126.292 239.494 127.704 239.494 127.704C239.227 128.39 239.047 129.423 238.821 129.915C238.601 130.395 238.521 130.894 238.595 131.421C238.701 132.133 239.327 132.633 240.046 132.553C240.286 132.526 240.526 132.446 240.739 132.346C241.125 132.167 241.492 131.953 241.865 131.76C241.951 131.714 242.038 131.687 242.198 131.627C242.151 131.807 242.138 131.913 242.098 132.02C241.958 132.406 241.818 132.786 241.665 133.166C240.879 133.405 239.88 133.798 239.221 134.358C239.194 134.378 239.161 134.404 239.134 134.424C238.954 134.584 238.808 134.757 238.701 134.95C238.688 134.97 238.681 134.99 238.674 135.01C238.488 135.263 238.301 135.51 238.128 135.77C237.942 136.049 237.875 136.382 237.875 136.722C237.869 137.195 237.842 137.668 237.855 138.147C237.862 138.414 237.895 138.693 237.975 138.94C238.175 139.526 238.621 139.852 239.221 139.959C239.807 140.059 240.24 139.799 240.566 139.333C240.626 139.246 240.686 139.166 240.732 139.073C241.412 137.841 242.198 136.662 242.67 135.317C242.697 135.23 242.737 135.15 242.784 135.07C243.223 134.324 243.483 133.505 243.769 132.693C244.295 131.194 244.808 128.857 245.641 127.491C245.727 127.365 245.794 127.238 245.841 127.105ZM241.145 134.238C240.999 134.491 240.912 134.777 240.779 135.044C240.479 135.636 240.18 136.229 239.867 136.822C239.827 136.902 239.74 136.955 239.647 137.062C239.507 136.702 239.52 136.402 239.633 136.109C239.707 135.923 239.78 135.743 239.86 135.563C240.02 135.223 240.419 134.557 241.219 134.105C241.199 134.145 241.172 134.191 241.145 134.238Z" fill="black"></path></svg> 