<?xml version="1.0" encoding="UTF-8"?> <svg xmlns="http://www.w3.org/2000/svg" width="333" height="333" viewBox="0 0 333 333" fill="none"><path d="M216.437 184.622V185.275C216.437 185.055 216.43 184.842 216.41 184.622H216.437Z" fill="black" stroke="black" stroke-width="0.961371" stroke-miterlimit="10" stroke-linecap="round" stroke-linejoin="round"></path><path d="M216.437 185.274V197.136C216.437 209.583 194.898 219.68 168.325 219.68C141.758 219.68 120.22 209.59 120.22 197.136V185.274C120.22 197.722 141.751 207.825 168.325 207.825C194.898 207.819 216.437 197.722 216.437 185.274Z" fill="black" stroke="black" stroke-width="0.961371" stroke-miterlimit="10" stroke-linecap="round" stroke-linejoin="round"></path><path d="M216.437 185.275C216.437 197.722 194.898 207.825 168.325 207.825C141.758 207.825 120.22 197.729 120.22 185.275C120.22 185.055 120.226 184.842 120.246 184.622C120.979 172.474 142.224 162.73 168.325 162.73C194.425 162.73 215.684 172.474 216.41 184.622C216.437 184.835 216.437 185.055 216.437 185.275Z" fill="white" stroke="black" stroke-width="0.961371" stroke-miterlimit="10" stroke-linecap="round" stroke-linejoin="round"></path><path d="M125.548 130.603V131.255C125.548 131.035 125.541 130.822 125.521 130.603H125.548Z" fill="black" stroke="black" stroke-width="0.961371" stroke-miterlimit="10" stroke-linecap="round" stroke-linejoin="round"></path><path d="M125.548 131.255V143.116C125.548 155.564 104.009 165.66 77.4358 165.66C50.8691 165.66 29.3306 155.571 29.3306 143.116V131.255C29.3306 143.702 50.8624 153.806 77.4358 153.806C104.009 153.799 125.548 143.702 125.548 131.255Z" fill="black" stroke="black" stroke-width="0.961371" stroke-miterlimit="10" stroke-linecap="round" stroke-linejoin="round"></path><path d="M125.548 131.255C125.548 143.703 104.009 153.806 77.4358 153.806C50.8691 153.806 29.3306 143.709 29.3306 131.255C29.3306 131.035 29.3373 130.822 29.3573 130.602C30.0899 118.455 51.3353 108.711 77.4358 108.711C103.536 108.711 124.795 118.455 125.521 130.602C125.541 130.815 125.548 131.035 125.548 131.255Z" fill="white" stroke="black" stroke-width="0.961371" stroke-miterlimit="10" stroke-linecap="round" stroke-linejoin="round"></path><path d="M307.878 130.603V131.255C307.878 131.035 307.872 130.822 307.852 130.603H307.878Z" fill="black" stroke="black" stroke-width="0.961371" stroke-miterlimit="10" stroke-linecap="round" stroke-linejoin="round"></path><path d="M307.878 131.255V143.116C307.878 155.564 286.34 165.66 259.767 165.66C233.2 165.66 211.661 155.571 211.661 143.116V131.255C211.661 143.702 233.193 153.806 259.767 153.806C286.34 153.799 307.878 143.702 307.878 131.255Z" fill="black" stroke="black" stroke-width="0.961371" stroke-miterlimit="10" stroke-linecap="round" stroke-linejoin="round"></path><path d="M307.878 131.255C307.878 143.703 286.34 153.806 259.767 153.806C233.2 153.806 211.661 143.709 211.661 131.255C211.661 131.035 211.668 130.822 211.688 130.602C212.421 118.455 233.666 108.711 259.767 108.711C285.867 108.711 307.126 118.455 307.852 130.602C307.872 130.815 307.878 131.035 307.878 131.255Z" fill="white" stroke="black" stroke-width="0.961371" stroke-miterlimit="10" stroke-linecap="round" stroke-linejoin="round"></path><path d="M129.763 248.131V248.837C129.763 248.604 129.757 248.364 129.737 248.131H129.763Z" fill="black" stroke="black" stroke-width="0.961371" stroke-miterlimit="10" stroke-linecap="round" stroke-linejoin="round"></path><path d="M129.763 248.836V261.743C129.763 275.283 106.334 286.258 77.4425 286.258C48.5447 286.258 25.1282 275.283 25.1282 261.743V248.836C25.1282 262.376 48.5514 273.358 77.4425 273.358C106.334 273.365 129.763 262.376 129.763 248.836Z" fill="black" stroke="black" stroke-width="0.961371" stroke-miterlimit="10" stroke-linecap="round" stroke-linejoin="round"></path><path d="M129.763 248.837C129.763 262.377 106.334 273.359 77.4425 273.359C48.5447 273.359 25.1282 262.377 25.1282 248.837C25.1282 248.604 25.1348 248.364 25.1548 248.131C25.9474 234.917 49.0576 224.321 77.4491 224.321C105.841 224.321 128.951 234.917 129.75 248.131C129.757 248.371 129.763 248.604 129.763 248.837Z" fill="white" stroke="black" stroke-width="0.961371" stroke-miterlimit="10" stroke-linecap="round" stroke-linejoin="round"></path><path d="M102.957 211.021L67.3992 232.207" stroke="black" stroke-width="0.961371" stroke-miterlimit="10" stroke-linecap="round" stroke-linejoin="round"></path><path d="M90.6293 205.973L55.0715 227.158" stroke="black" stroke-width="0.961371" stroke-miterlimit="10" stroke-linecap="round" stroke-linejoin="round"></path><path d="M119.953 213.379V243.768L107.559 251.154L77.4425 269.103V238.72L77.5957 238.62L119.953 213.379Z" fill="white" stroke="black" stroke-width="0.961371" stroke-miterlimit="10" stroke-linecap="round" stroke-linejoin="round"></path><path d="M77.4425 238.561V269.103L34.925 251.315V220.805L34.9584 220.785L77.4425 238.561Z" fill="white" stroke="black" stroke-width="0.961371" stroke-miterlimit="10" stroke-linecap="round" stroke-linejoin="round"></path><path d="M119.953 213.26V213.379L77.5957 238.621L77.4425 238.561L34.9584 220.785L77.4425 195.471L119.953 213.26Z" fill="white" stroke="black" stroke-width="0.961371" stroke-miterlimit="10" stroke-linecap="round" stroke-linejoin="round"></path><path d="M116.07 221.611V228.531L81.3253 249.237V242.317L116.07 221.611Z" fill="white" stroke="black" stroke-width="0.961371" stroke-miterlimit="10"></path><path d="M90.0099 244.062V237.143" stroke="black" stroke-width="0.961371" stroke-miterlimit="10" stroke-linecap="round" stroke-linejoin="round"></path><path d="M98.7012 238.888V231.968" stroke="black" stroke-width="0.961371" stroke-miterlimit="10" stroke-linecap="round" stroke-linejoin="round"></path><path d="M107.386 233.706V226.793" stroke="black" stroke-width="0.961371" stroke-miterlimit="10" stroke-linecap="round" stroke-linejoin="round"></path><path d="M116.07 234.358V241.278L81.3253 261.984V255.064L116.07 234.358Z" fill="white" stroke="black" stroke-width="0.961371" stroke-miterlimit="10"></path><path d="M90.0099 256.809V249.89" stroke="black" stroke-width="0.961371" stroke-miterlimit="10" stroke-linecap="round" stroke-linejoin="round"></path><path d="M98.7012 251.628V244.715" stroke="black" stroke-width="0.961371" stroke-miterlimit="10" stroke-linecap="round" stroke-linejoin="round"></path><path d="M107.386 246.453V239.533" stroke="black" stroke-width="0.961371" stroke-miterlimit="10" stroke-linecap="round" stroke-linejoin="round"></path><path d="M116.07 213.606V213.719L77.5823 236.65L77.4425 236.596L38.8411 220.446L77.4425 197.436L116.07 213.606Z" fill="white" stroke="black" stroke-width="0.961371" stroke-miterlimit="10" stroke-linecap="round" stroke-linejoin="round"></path><path d="M41.6783 221.637L77.4425 200.325L113.347 215.343" fill="white"></path><path d="M41.6783 221.637L77.4425 200.325L113.347 215.343" stroke="black" stroke-width="0.961371" stroke-miterlimit="10" stroke-linecap="round" stroke-linejoin="round"></path><path d="M77.4425 200.326V197.436" stroke="black" stroke-width="0.961371" stroke-miterlimit="10" stroke-linecap="round" stroke-linejoin="round"></path><path d="M73.8794 241.137V263.568L70.9224 262.329V239.898L73.8794 241.137Z" fill="white" stroke="black" stroke-width="0.961371" stroke-miterlimit="10" stroke-linecap="round" stroke-linejoin="round"></path><path d="M60.9057 235.71V258.141L57.9487 256.902V234.465L60.9057 235.71Z" fill="white" stroke="black" stroke-width="0.961371" stroke-miterlimit="10" stroke-linecap="round" stroke-linejoin="round"></path><path d="M54.4255 232.993V255.43L51.4618 254.185V231.754L54.4255 232.993Z" fill="white" stroke="black" stroke-width="0.961371" stroke-miterlimit="10" stroke-linecap="round" stroke-linejoin="round"></path><path d="M47.932 230.276V252.713L44.975 251.475V229.037L47.932 230.276Z" fill="white" stroke="black" stroke-width="0.961371" stroke-miterlimit="10" stroke-linecap="round" stroke-linejoin="round"></path><path d="M41.4452 227.565V249.996L38.4881 248.757V226.319L41.4452 227.565Z" fill="white" stroke="black" stroke-width="0.961371" stroke-miterlimit="10" stroke-linecap="round" stroke-linejoin="round"></path><path d="M67.3992 238.421L64.4355 237.188" stroke="black" stroke-width="0.961371" stroke-miterlimit="10" stroke-linecap="round" stroke-linejoin="round"></path><path d="M67.3992 260.851L64.4355 259.619" stroke="black" stroke-width="0.961371" stroke-miterlimit="10" stroke-linecap="round" stroke-linejoin="round"></path><path d="M67.3992 260.852V238.421" stroke="black" stroke-width="0.961371" stroke-miterlimit="10" stroke-linecap="round" stroke-linejoin="round"></path><path d="M64.4355 259.619V237.188" stroke="black" stroke-width="0.961371" stroke-miterlimit="10" stroke-linecap="round" stroke-linejoin="round"></path><path d="M76.3169 225.187L71.8547 214.997L67.3992 221.697L76.3169 225.187Z" fill="white" stroke="black" stroke-width="0.961371" stroke-miterlimit="10" stroke-linecap="round" stroke-linejoin="round"></path><path d="M71.8547 214.997L83.25 208.523L88.3116 218.374L76.3169 225.187L71.8547 214.997Z" fill="white" stroke="black" stroke-width="0.961371" stroke-miterlimit="10" stroke-linecap="round" stroke-linejoin="round"></path><path d="M84.7419 220.398L79.8068 210.534" stroke="black" stroke-width="0.961371" stroke-miterlimit="10" stroke-linecap="round" stroke-linejoin="round"></path><path d="M75.8241 212.979L80.6393 222.61" stroke="black" stroke-width="0.961371" stroke-miterlimit="10" stroke-linecap="round" stroke-linejoin="round"></path><path d="M265.901 96.0371L293.992 107.779L294.032 107.799" fill="white"></path><path d="M265.901 96.0371L293.992 107.779L294.032 107.799" stroke="black" stroke-width="0.961371" stroke-miterlimit="10" stroke-linecap="round" stroke-linejoin="round"></path><path d="M273.24 126.227L281.352 121.392L289.464 116.563" fill="white"></path><path d="M273.24 126.227L281.352 121.392L289.464 116.563" stroke="black" stroke-width="0.961371" stroke-miterlimit="10" stroke-linecap="round" stroke-linejoin="round"></path><path d="M281.352 140.786V121.393" stroke="black" stroke-width="0.961371" stroke-miterlimit="10" stroke-linecap="round" stroke-linejoin="round"></path><path d="M289.464 135.951V116.563" stroke="black" stroke-width="0.961371" stroke-miterlimit="10" stroke-linecap="round" stroke-linejoin="round"></path><path d="M273.24 145.615V126.228" stroke="black" stroke-width="0.961371" stroke-miterlimit="10" stroke-linecap="round" stroke-linejoin="round"></path><path d="M294.032 111.049V133.227L268.678 148.345V126.167L294.032 111.049Z" fill="white" stroke="black" stroke-width="0.961371" stroke-miterlimit="10" stroke-linecap="round" stroke-linejoin="round"></path><path d="M268.678 126.168V148.345H268.671L224.222 129.757V107.62L224.256 107.6L268.671 126.168H268.678Z" fill="white" stroke="black" stroke-width="0.961371" stroke-miterlimit="10" stroke-linecap="round" stroke-linejoin="round"></path><path d="M266.227 127.833V144.643H266.22L226.673 128.099V111.296L266.227 127.833Z" fill="white" stroke="black" stroke-width="0.961371" stroke-miterlimit="10" stroke-linecap="round" stroke-linejoin="round"></path><path d="M294.032 111.009V111.049L268.678 126.167H268.671L224.256 107.599L233.36 102.171L249.35 108.858H249.357L265.654 99.1475L294.032 111.009Z" fill="white" stroke="black" stroke-width="0.961371" stroke-miterlimit="10" stroke-linecap="round" stroke-linejoin="round"></path><path d="M265.721 84.7891V99.1081L265.654 99.148L249.357 108.858V94.5526L251.542 93.2473L265.721 84.7891Z" fill="white" stroke="black" stroke-width="0.961371" stroke-miterlimit="10" stroke-linecap="round" stroke-linejoin="round"></path><path d="M249.357 94.5523V108.858H249.35L233.36 102.171V87.9855L233.48 87.9189L247.466 93.7598L249.35 94.5523H249.357Z" fill="white" stroke="black" stroke-width="0.961371" stroke-miterlimit="10" stroke-linecap="round" stroke-linejoin="round"></path><path d="M265.721 84.7683V84.7883L251.542 93.2465L249.357 94.5518H249.35L247.466 93.7593L233.48 87.9185L249.877 78.1416L265.721 84.7683Z" fill="white" stroke="black" stroke-width="0.961371" stroke-miterlimit="10" stroke-linecap="round" stroke-linejoin="round"></path><path d="M254.592 139.52V123.21" stroke="black" stroke-width="0.961371" stroke-miterlimit="10" stroke-linecap="round" stroke-linejoin="round"></path><path d="M238.315 132.847V116.33" stroke="black" stroke-width="0.961371" stroke-miterlimit="10" stroke-linecap="round" stroke-linejoin="round"></path><path d="M247.239 95.5646V106.087H247.233L235.478 101.172V90.7427L235.571 90.6895L245.847 94.9852L247.233 95.5646H247.239Z" fill="white" stroke="black" stroke-width="0.961371" stroke-miterlimit="10" stroke-linecap="round" stroke-linejoin="round"></path><path d="M294.032 111.049V93.3203" stroke="black" stroke-width="0.961371" stroke-miterlimit="10" stroke-linecap="round" stroke-linejoin="round"></path><path d="M285.361 88.1249C286.706 88.7576 288.351 88.7576 289.697 88.1249C291.042 87.4922 292.687 87.4922 294.032 88.1249V93.2531C292.687 92.6204 291.042 92.6204 289.697 93.2531C288.351 93.8858 286.706 93.8858 285.361 93.2531V88.1249Z" fill="white" stroke="black" stroke-width="0.961371" stroke-miterlimit="10" stroke-linecap="round" stroke-linejoin="round"></path><path d="M265.901 96.0371V99.174" stroke="black" stroke-width="0.961371" stroke-miterlimit="10" stroke-linecap="round" stroke-linejoin="round"></path><path d="M267.772 96.8232V99.9534" stroke="black" stroke-width="0.961371" stroke-miterlimit="10" stroke-linecap="round" stroke-linejoin="round"></path><path d="M269.65 97.6025V100.739" stroke="black" stroke-width="0.961371" stroke-miterlimit="10" stroke-linecap="round" stroke-linejoin="round"></path><path d="M271.528 98.3809V101.518" stroke="black" stroke-width="0.961371" stroke-miterlimit="10" stroke-linecap="round" stroke-linejoin="round"></path><path d="M273.4 99.168V102.305" stroke="black" stroke-width="0.961371" stroke-miterlimit="10" stroke-linecap="round" stroke-linejoin="round"></path><path d="M275.278 99.9473V103.084" stroke="black" stroke-width="0.961371" stroke-miterlimit="10" stroke-linecap="round" stroke-linejoin="round"></path><path d="M277.149 100.732V103.863" stroke="black" stroke-width="0.961371" stroke-miterlimit="10" stroke-linecap="round" stroke-linejoin="round"></path><path d="M279.027 101.512V104.649" stroke="black" stroke-width="0.961371" stroke-miterlimit="10" stroke-linecap="round" stroke-linejoin="round"></path><path d="M280.906 102.297V105.427" stroke="black" stroke-width="0.961371" stroke-miterlimit="10" stroke-linecap="round" stroke-linejoin="round"></path><path d="M282.777 103.077V106.214" stroke="black" stroke-width="0.961371" stroke-miterlimit="10" stroke-linecap="round" stroke-linejoin="round"></path><path d="M284.655 103.862V106.993" stroke="black" stroke-width="0.961371" stroke-miterlimit="10" stroke-linecap="round" stroke-linejoin="round"></path><path d="M286.527 104.642V107.778" stroke="black" stroke-width="0.961371" stroke-miterlimit="10" stroke-linecap="round" stroke-linejoin="round"></path><path d="M288.405 105.421V108.558" stroke="black" stroke-width="0.961371" stroke-miterlimit="10" stroke-linecap="round" stroke-linejoin="round"></path><path d="M290.283 106.207V109.344" stroke="black" stroke-width="0.961371" stroke-miterlimit="10" stroke-linecap="round" stroke-linejoin="round"></path><path d="M292.154 106.986V110.123" stroke="black" stroke-width="0.961371" stroke-miterlimit="10" stroke-linecap="round" stroke-linejoin="round"></path><path d="M294.032 107.858V110.995" stroke="black" stroke-width="0.961371" stroke-miterlimit="10" stroke-linecap="round" stroke-linejoin="round"></path><path d="M115.424 79.4209V116.644L77.2493 139.394V102.178L79.4737 100.839H79.487L83.13 98.6616H83.1367L85.3745 97.3296H85.3811L115.424 79.4209Z" fill="white" stroke="black" stroke-width="0.961371" stroke-miterlimit="10" stroke-linecap="round" stroke-linejoin="round"></path><path d="M77.2493 102.178V139.407H77.236L39.3672 123.55H39.3606L39.2407 123.503V86.2803L69.1041 98.7678L71.3486 99.7135L74.9916 101.239L77.236 102.178H77.2493Z" fill="white" stroke="black" stroke-width="0.961371" stroke-miterlimit="10" stroke-linecap="round" stroke-linejoin="round"></path><path d="M73.7661 104.648L67.4125 101.991L61.0455 99.3271L54.6919 96.6631L48.3316 94.0058L41.9713 91.3418" stroke="black" stroke-width="0.961371" stroke-miterlimit="10" stroke-linecap="round" stroke-linejoin="round"></path><path d="M73.7661 114.745L67.4125 112.088L61.0455 109.424L54.6919 106.767L48.3316 104.109L41.9713 101.445" stroke="black" stroke-width="0.961371" stroke-miterlimit="10" stroke-linecap="round" stroke-linejoin="round"></path><path d="M73.7661 124.848L67.4125 122.191L61.0455 119.527L54.6919 116.869L48.3316 114.212L41.9713 111.548" stroke="black" stroke-width="0.961371" stroke-miterlimit="10" stroke-linecap="round" stroke-linejoin="round"></path><path d="M73.7661 134.951L67.4125 132.294L61.0455 129.63L54.6919 126.966L48.3316 124.309L41.9713 121.645" stroke="black" stroke-width="0.961371" stroke-miterlimit="10" stroke-linecap="round" stroke-linejoin="round"></path><path d="M41.9713 121.645V121.485V111.548V101.445V91.3951V91.3418" stroke="black" stroke-width="0.961371" stroke-miterlimit="10" stroke-linecap="round" stroke-linejoin="round"></path><path d="M48.3316 124.309V124.149V114.212V104.109V94.0591V94.0059" stroke="black" stroke-width="0.961371" stroke-miterlimit="10" stroke-linecap="round" stroke-linejoin="round"></path><path d="M54.6919 126.966V126.806V116.87V106.766V96.7164V96.6631" stroke="black" stroke-width="0.961371" stroke-miterlimit="10" stroke-linecap="round" stroke-linejoin="round"></path><path d="M61.0455 129.63V129.464V119.527V109.424V99.3738V99.3271" stroke="black" stroke-width="0.961371" stroke-miterlimit="10" stroke-linecap="round" stroke-linejoin="round"></path><path d="M67.4125 132.294V132.128V122.191V112.088V102.038V101.991" stroke="black" stroke-width="0.961371" stroke-miterlimit="10" stroke-linecap="round" stroke-linejoin="round"></path><path d="M73.7661 134.952V134.786V124.849V114.746V104.696V104.649" stroke="black" stroke-width="0.961371" stroke-miterlimit="10" stroke-linecap="round" stroke-linejoin="round"></path><path d="M73.7661 104.688V134.784L41.9713 121.484V91.3945L73.7661 104.688Z" stroke="black" stroke-width="1.44202" stroke-miterlimit="10" stroke-linecap="round" stroke-linejoin="round"></path><path d="M89.8367 98.5684V111.635L82.1244 116.231V103.164L89.8367 98.5684Z" stroke="black" stroke-width="0.961371" stroke-miterlimit="10" stroke-linecap="round" stroke-linejoin="round"></path><path d="M100.659 92.2471V105.314L92.9469 109.909V96.8425L100.659 92.2471Z" stroke="black" stroke-width="0.961371" stroke-miterlimit="10" stroke-linecap="round" stroke-linejoin="round"></path><path d="M111.488 85.9268V98.9937L103.776 103.582V90.5155L111.488 85.9268Z" stroke="black" stroke-width="0.961371" stroke-miterlimit="10" stroke-linecap="round" stroke-linejoin="round"></path><path d="M89.8367 114.685V127.751L82.1244 132.347V119.28L89.8367 114.685Z" stroke="black" stroke-width="0.961371" stroke-miterlimit="10" stroke-linecap="round" stroke-linejoin="round"></path><path d="M100.659 108.365V121.432L92.9469 126.028V112.961L100.659 108.365Z" stroke="black" stroke-width="0.961371" stroke-miterlimit="10" stroke-linecap="round" stroke-linejoin="round"></path><path d="M111.488 102.044V115.111L103.776 119.706V106.639L111.488 102.044Z" stroke="black" stroke-width="0.961371" stroke-miterlimit="10" stroke-linecap="round" stroke-linejoin="round"></path><path d="M117.769 117.522V123.503L85.3745 142.804L83.1368 144.142H83.1301L79.4871 146.314H79.4738L77.2293 147.652L74.9916 146.713L71.3485 145.188L69.0975 144.249L39.2274 131.755L37.1161 130.869V124.888L39.2407 125.774L74.9916 140.739L77.2293 141.678H77.2493L79.4871 140.34L115.424 118.921L117.769 117.522Z" stroke="black" stroke-width="0.961371" stroke-miterlimit="10" stroke-linecap="round" stroke-linejoin="round"></path><path d="M117.769 117.502V117.522L115.424 118.92L79.4871 140.339L77.2493 141.678H77.2293L74.9916 140.738L39.2407 125.773L37.1161 124.888L39.2407 123.622L39.3606 123.549H39.3672L77.236 139.406H77.2493V139.393L115.424 116.643L115.544 116.569L117.769 117.502Z" fill="white" stroke="black" stroke-width="0.961371" stroke-miterlimit="10" stroke-linecap="round" stroke-linejoin="round"></path><path d="M117.769 72.041V78.015L115.418 79.4203L85.3812 97.329H85.3679L83.1301 98.661H83.1234L79.4804 100.839H79.4738L77.2427 102.178H77.236L74.9916 101.238L71.3486 99.7133L69.1041 98.7676L39.234 86.2801L37.1095 85.3943V79.4136L39.2274 80.2994H39.234L43.1035 81.9178L74.9916 95.2644L77.2427 96.2035L79.4804 94.8648L111.375 75.8572L115.418 73.4463L115.664 73.3064L117.769 72.041Z" stroke="black" stroke-width="0.961371" stroke-miterlimit="10" stroke-linecap="round" stroke-linejoin="round"></path><path d="M117.769 72.027V72.0469L115.524 71.1012L115.544 71.0879L117.769 72.027Z" stroke="black" stroke-width="0.961371" stroke-miterlimit="10" stroke-linecap="round" stroke-linejoin="round"></path><path d="M115.544 116.57L115.418 116.523" stroke="black" stroke-width="0.961371" stroke-miterlimit="10" stroke-linecap="round" stroke-linejoin="round"></path><path d="M39.234 123.623V123.503" stroke="black" stroke-width="0.961371" stroke-miterlimit="10" stroke-linecap="round" stroke-linejoin="round"></path><path d="M77.2426 61.5723L45.3412 80.5799" stroke="black" stroke-width="0.961371" stroke-miterlimit="10" stroke-linecap="round" stroke-linejoin="round"></path><path d="M37.1228 79.4004H37.1161" stroke="black" stroke-width="0.961371" stroke-miterlimit="10" stroke-linecap="round" stroke-linejoin="round"></path><path d="M109.124 74.9181L77.2426 61.5715L77.6489 57.4023" stroke="black" stroke-width="0.961371" stroke-miterlimit="10" stroke-linecap="round" stroke-linejoin="round"></path><path d="M115.524 71.102L79.7668 56.1436L77.6489 55.2578L75.531 56.5166L39.3606 78.075L37.2294 79.3404L37.1162 79.4003L37.1095 79.407L39.2274 80.2928H39.234L43.1035 81.9178L74.9916 95.2644L77.2493 96.2035L79.4871 94.8648L111.382 75.8572L115.424 73.4463L115.664 73.3064L117.769 72.041L115.524 71.102ZM109.124 74.9181L77.2427 93.9191V93.9258H77.236L45.3413 80.5858L41.4651 78.9541L77.6556 57.4023L113.413 72.3607L109.124 74.9181Z" stroke="black" stroke-width="0.961371" stroke-miterlimit="10" stroke-linecap="round" stroke-linejoin="round"></path><path d="M77.236 147.652V141.678" stroke="black" stroke-width="0.961371" stroke-miterlimit="10" stroke-linecap="round" stroke-linejoin="round"></path><path d="M77.2426 102.171V96.2041" stroke="black" stroke-width="0.961371" stroke-miterlimit="10" stroke-linecap="round" stroke-linejoin="round"></path><path d="M196.73 150.442H194.092V180.745H196.73V150.442Z" fill="black" stroke="black" stroke-width="0.721012" stroke-miterlimit="10" stroke-linecap="round" stroke-linejoin="round"></path><path d="M209.437 185.075H206.753L200.559 155.111L200.433 154.479L201.798 154.186L203.003 153.926L203.077 154.279L209.437 185.075Z" fill="black" stroke="black" stroke-width="0.721012" stroke-miterlimit="10" stroke-linecap="round" stroke-linejoin="round"></path><path d="M190.389 154.479L190.17 155.551L184.069 185.075H181.385L187.579 155.071L187.765 154.186L187.819 153.926L190.389 154.479Z" fill="black" stroke="black" stroke-width="0.721012" stroke-miterlimit="10" stroke-linecap="round" stroke-linejoin="round"></path><path d="M195.478 150.442H192.84V180.745H195.478V150.442Z" fill="white" stroke="black" stroke-width="0.721012" stroke-miterlimit="10" stroke-linecap="round" stroke-linejoin="round"></path><path d="M208.178 185.075H205.494L199.347 155.358L199.167 154.479L201.745 153.926L201.798 154.186L201.911 154.732L208.178 185.075Z" fill="white" stroke="black" stroke-width="0.721012" stroke-miterlimit="10" stroke-linecap="round" stroke-linejoin="round"></path><path d="M189.137 154.479L188.951 155.358L182.817 185.075H180.126L186.4 154.732L186.56 153.926L187.765 154.186L189.137 154.479Z" fill="white" stroke="black" stroke-width="0.721012" stroke-miterlimit="10" stroke-linecap="round" stroke-linejoin="round"></path><path d="M205.348 150.022V151.981C205.348 154.092 200.34 155.803 194.159 155.803C187.979 155.803 182.964 154.092 182.964 151.981V150.022H205.348Z" fill="black" stroke="black" stroke-width="0.721012" stroke-miterlimit="10" stroke-linecap="round" stroke-linejoin="round"></path><path d="M194.152 153.838C200.332 153.838 205.341 152.13 205.341 150.022C205.341 147.915 200.332 146.206 194.152 146.206C187.973 146.206 182.964 147.915 182.964 150.022C182.964 152.13 187.973 153.838 194.152 153.838Z" fill="white" stroke="black" stroke-width="0.721012" stroke-miterlimit="10" stroke-linecap="round" stroke-linejoin="round"></path><path d="M196.05 148.245C198.661 149.284 199.627 148.391 200.113 147.745C200.772 146.873 201.225 142.937 199.973 140.286C198.714 137.635 195.171 138.015 195.171 138.015C195.171 138.015 190.829 138.042 188.944 141.019C187.059 143.989 187.113 147.226 187.599 147.605C188.085 147.985 188.858 147.519 189.084 148.038C189.311 148.564 188.771 151.335 189.137 151.888C189.51 152.44 192.94 152.44 193.28 151.888C193.626 151.335 193.566 148.504 194.452 148.391C194.825 148.338 195.418 148.385 196.05 148.245C196.943 148.052 197.915 147.505 198.401 145.847L196.05 148.245Z" fill="white"></path><path d="M196.05 148.245C198.661 149.284 199.627 148.391 200.113 147.745C200.772 146.873 201.225 142.937 199.973 140.286C198.714 137.635 195.171 138.015 195.171 138.015C195.171 138.015 190.829 138.042 188.944 141.019C187.059 143.989 187.113 147.226 187.599 147.605C188.085 147.985 188.858 147.519 189.084 148.038C189.311 148.564 188.771 151.335 189.137 151.888C189.51 152.44 192.94 152.44 193.28 151.888C193.626 151.335 193.566 148.504 194.452 148.391C194.825 148.338 195.418 148.385 196.05 148.245ZM196.05 148.245C196.943 148.052 197.915 147.505 198.401 145.847" stroke="black" stroke-width="0.721012" stroke-miterlimit="10" stroke-linecap="round" stroke-linejoin="round"></path><path d="M198.455 147.672L198.102 146.626C197.576 147.685 196.79 148.085 196.05 148.244C198.168 149.09 199.201 148.657 199.773 148.124C199.321 148.464 198.641 148.238 198.455 147.672Z" fill="black" stroke="black" stroke-width="0.721012" stroke-miterlimit="10" stroke-linecap="round" stroke-linejoin="round"></path><path d="M192.974 143.403C192.974 143.403 192.661 144.742 192.974 145.414C193.287 146.087 195.171 146.64 195.404 146.2C195.631 145.761 195.378 143.956 194.405 143.376C193.426 142.79 193.033 143.083 192.974 143.403Z" fill="black" stroke="black" stroke-width="0.721012" stroke-miterlimit="10" stroke-linecap="round" stroke-linejoin="round"></path><path d="M190.19 143.39C190.19 143.39 190.476 144.668 190.19 145.308C189.903 145.947 188.198 146.473 187.992 146.06C187.785 145.641 188.018 143.922 188.898 143.363C189.77 142.804 190.13 143.083 190.19 143.39Z" fill="black" stroke="black" stroke-width="0.721012" stroke-miterlimit="10" stroke-linecap="round" stroke-linejoin="round"></path><path d="M190.316 147.252C190.316 147.252 190.916 145.734 191.375 145.474C191.835 145.214 192.201 147.079 192.121 147.339C192.034 147.599 191.195 147.805 191.142 147.132C191.135 147.132 190.483 148.065 190.316 147.252Z" fill="black" stroke="black" stroke-width="0.721012" stroke-miterlimit="10" stroke-linecap="round" stroke-linejoin="round"></path><path d="M189.763 152.134L189.923 149.203" stroke="black" stroke-width="0.721012" stroke-miterlimit="10" stroke-linecap="round" stroke-linejoin="round"></path><path d="M190.463 152.253L190.862 149.203" stroke="black" stroke-width="0.721012" stroke-miterlimit="10" stroke-linecap="round" stroke-linejoin="round"></path><path d="M191.368 152.253L191.768 149.203" stroke="black" stroke-width="0.721012" stroke-miterlimit="10" stroke-linecap="round" stroke-linejoin="round"></path><path d="M192.274 152.253L192.674 149.203" stroke="black" stroke-width="0.721012" stroke-miterlimit="10" stroke-linecap="round" stroke-linejoin="round"></path><path d="M171.795 167.006L168.738 167.686L167.552 167.946L149.151 172.015L146.1 172.694L144.908 172.954L144.356 169.717L145.541 169.457L148.598 168.778L166.986 164.715L168.178 164.456L171.235 163.776L171.795 167.006Z" fill="white" stroke="black" stroke-width="0.721012" stroke-miterlimit="10" stroke-linecap="round" stroke-linejoin="round"></path><path d="M176.73 196.89L173.679 197.569L168.738 167.685L168.178 164.455L165.541 149.137L168.591 148.458L171.235 163.776L171.795 167.006L176.73 196.89Z" fill="white" stroke="black" stroke-width="0.721012" stroke-miterlimit="10" stroke-linecap="round" stroke-linejoin="round"></path><path d="M168.591 148.459L165.541 149.138L164.136 148.159L167.193 147.479L168.591 148.459Z" fill="white" stroke="black" stroke-width="0.961371" stroke-miterlimit="10" stroke-linecap="round" stroke-linejoin="round"></path><path d="M173.673 197.569L172.401 197.369L164.136 148.158L165.541 149.137L173.673 197.569Z" fill="black" stroke="black" stroke-width="0.961371" stroke-miterlimit="10" stroke-linecap="round" stroke-linejoin="round"></path><path d="M154.346 202.064L151.289 202.743L142.844 153.812L145.894 153.133L154.346 202.064Z" fill="white" stroke="black" stroke-width="0.721012" stroke-miterlimit="10" stroke-linecap="round" stroke-linejoin="round"></path><path d="M145.894 153.133L142.844 153.813L141.438 152.834L144.495 152.154L145.894 153.133Z" fill="white" stroke="black" stroke-width="0.961371" stroke-miterlimit="10" stroke-linecap="round" stroke-linejoin="round"></path><path d="M151.289 202.743L150.017 202.537L144.908 172.953L144.356 169.716H144.349L141.438 152.833L142.844 153.812L145.541 169.456L146.1 172.693L151.289 202.743Z" fill="black" stroke="black" stroke-width="0.961371" stroke-miterlimit="10" stroke-linecap="round" stroke-linejoin="round"></path><path d="M166.214 199.3L163.157 199.98L154.812 150.796L157.862 150.116L166.214 199.3Z" fill="white" stroke="black" stroke-width="0.721012" stroke-miterlimit="10" stroke-linecap="round" stroke-linejoin="round"></path><path d="M157.862 150.117L154.812 150.796L153.406 149.817L156.463 149.138L157.862 150.117Z" fill="white" stroke="black" stroke-width="0.961371" stroke-miterlimit="10" stroke-linecap="round" stroke-linejoin="round"></path><path d="M163.157 199.98L161.885 199.773L153.406 149.816L154.812 150.795L163.157 199.98Z" fill="black" stroke="black" stroke-width="0.961371" stroke-miterlimit="10" stroke-linecap="round" stroke-linejoin="round"></path><path d="M132.76 187.832L129.67 187.319L140.579 137.109L143.67 137.616L132.76 187.832Z" fill="white" stroke="black" stroke-width="0.721012" stroke-miterlimit="10" stroke-linecap="round" stroke-linejoin="round"></path><path d="M143.67 137.616L140.579 137.109L139.627 135.671L142.711 136.184L143.67 137.616Z" fill="white" stroke="black" stroke-width="0.961371" stroke-miterlimit="10" stroke-linecap="round" stroke-linejoin="round"></path><path d="M129.67 187.319L128.558 186.66L139.627 135.671L140.579 137.109L129.67 187.319Z" fill="black" stroke="black" stroke-width="0.961371" stroke-miterlimit="10" stroke-linecap="round" stroke-linejoin="round"></path><path d="M170.303 145.621L137.829 152.807L138.388 156.037L170.862 148.851L170.303 145.621Z" fill="white" stroke="black" stroke-width="0.721012" stroke-miterlimit="10" stroke-linecap="round" stroke-linejoin="round"></path><path d="M151.042 121.405L147.985 122.084L142.138 88.1979L145.195 87.5186L151.042 121.405Z" fill="white" stroke="black" stroke-width="0.721012" stroke-miterlimit="10" stroke-linecap="round" stroke-linejoin="round"></path><path d="M145.195 87.5191L142.138 88.1984L140.739 87.2194L143.789 86.54L145.195 87.5191Z" fill="black" stroke="black" stroke-width="0.961371" stroke-miterlimit="10" stroke-linecap="round" stroke-linejoin="round"></path><path d="M147.985 122.084L146.713 121.884L140.739 87.2188L142.138 88.1978L147.985 122.084Z" fill="black" stroke="black" stroke-width="0.961371" stroke-miterlimit="10" stroke-linecap="round" stroke-linejoin="round"></path><path d="M160.586 106.674L133.933 112.581L140.752 152.155L167.412 146.261L160.586 106.674Z" fill="white" stroke="black" stroke-width="0.721012" stroke-miterlimit="10" stroke-linecap="round" stroke-linejoin="round"></path><path d="M152.587 105.122L141.279 107.626L141.838 110.856L153.147 108.359L152.587 105.122Z" fill="white" stroke="black" stroke-width="0.721012" stroke-miterlimit="10" stroke-linecap="round" stroke-linejoin="round"></path><path d="M153.493 136.011C153.187 137.389 152.84 138.788 152.161 140.04C151.835 140.639 150.836 142.291 149.95 141.612C149.557 141.312 149.464 140.466 149.364 140.027C149.204 139.314 149.104 138.601 149.071 137.869C148.998 136.317 149.191 134.818 149.63 133.333C148.685 133.207 147.739 133.08 146.8 132.947C146.793 133.04 146.72 133.113 146.7 133.2C146.613 133.533 146.26 133.273 146.76 133.32C147.099 133.46 147.439 133.6 147.779 133.74C147.113 133.02 147.333 131.475 147.552 130.629C147.879 129.397 148.545 128.292 149.217 127.219C150.736 124.808 152.181 122.384 153.433 119.82C154.026 118.621 153.06 117.509 151.801 117.702C151.442 117.756 151.089 117.809 150.729 117.869C150.576 117.895 150.423 117.915 150.27 117.942C149.91 117.975 149.863 117.995 150.123 117.995C150.409 118.215 150.696 118.435 150.982 118.661C151.062 118.861 151.055 118.788 150.976 118.442C150.942 118.228 150.909 118.022 150.869 117.809C150.729 117.349 150.436 117.07 150.017 116.863C149.297 116.51 148.585 116.71 147.932 117.096C146.587 117.895 145.315 118.941 144.043 119.853C142.924 120.659 141.758 121.632 141.692 123.123C141.665 123.743 141.885 124.429 142.338 124.868C142.631 125.148 142.977 125.301 143.363 125.381C143.57 125.421 143.776 125.441 143.989 125.441C143.876 125.408 143.876 125.408 143.976 125.448C143.976 124.769 143.976 124.089 143.976 123.41C142.897 124.336 141.698 125.335 142.604 126.873C143.217 127.919 144.322 128.658 145.501 128.898C147.313 129.264 148.085 126.487 146.267 126.114C145.987 126.054 145.734 126.001 145.501 125.834C145.355 125.734 145.195 125.468 145.188 125.588C145.121 125.827 145.055 126.074 144.988 126.314C145.181 126.007 145.734 125.681 146.014 125.441C146.567 124.968 146.587 123.869 146.014 123.403C145.681 123.137 145.381 122.91 144.975 122.764C144.775 122.684 144.609 122.644 144.395 122.611C144.296 122.597 144.196 122.584 144.096 122.571C143.889 122.531 143.943 122.571 144.256 122.691C144.382 122.904 144.502 123.117 144.629 123.33C144.475 122.97 144.482 123.41 144.595 123.21C144.702 123.024 144.835 122.884 144.995 122.744C145.428 122.358 145.934 122.045 146.407 121.705C146.926 121.339 147.446 120.966 147.965 120.599C148.225 120.413 148.485 120.233 148.744 120.047C148.838 119.98 149.537 119.527 149.297 119.547C149.057 119.48 148.811 119.414 148.571 119.347C148.638 119.374 148.698 119.401 148.764 119.434C148.545 119.147 148.325 118.861 148.098 118.575C148.258 119.547 148.385 120.533 149.504 120.826C150.396 121.066 151.675 120.626 152.574 120.486C152.028 119.78 151.488 119.074 150.942 118.368C149.977 120.34 148.924 122.258 147.765 124.122C146.653 125.921 145.381 127.672 144.808 129.737C144.302 131.535 144.282 133.879 145.454 135.444C146.227 136.47 147.432 136.35 148.345 135.604C149.191 134.918 149.57 134.013 149.684 132.947C149.863 131.289 147.293 131.056 146.853 132.561C146.254 134.612 146.034 136.79 146.28 138.914C146.507 140.859 146.893 143.43 148.918 144.309C150.842 145.148 152.807 144.089 153.979 142.537C155.238 140.866 155.837 138.781 156.29 136.763C156.677 134.965 153.893 134.192 153.493 136.011Z" fill="black"></path><path d="M146.913 120.619C146.9 120.619 146.893 120.619 146.88 120.619C146.746 120.632 146.607 120.646 146.473 120.672C146.467 120.672 146.453 120.679 146.447 120.679C146.32 120.719 146.2 120.779 146.08 120.832C146.06 120.839 146.047 120.852 146.034 120.859C145.927 120.939 145.821 121.012 145.721 121.099C145.714 121.105 145.707 121.112 145.701 121.119C145.608 121.219 145.521 121.332 145.441 121.452C145.434 121.458 145.428 121.465 145.428 121.478C145.368 121.598 145.321 121.725 145.275 121.845C145.268 121.865 145.261 121.878 145.261 121.898C145.235 122.031 145.215 122.171 145.208 122.304C145.208 122.317 145.208 122.324 145.208 122.337C145.201 122.537 145.241 122.724 145.335 122.89C145.394 123.07 145.494 123.223 145.634 123.356C145.767 123.496 145.921 123.596 146.1 123.656C146.274 123.749 146.46 123.789 146.653 123.783C146.78 123.763 146.906 123.749 147.039 123.729C147.286 123.663 147.499 123.536 147.679 123.356C147.752 123.257 147.832 123.163 147.905 123.063C148.038 122.837 148.098 122.597 148.105 122.337C148.105 122.324 148.105 122.304 148.105 122.291C148.085 122.417 148.072 122.544 148.052 122.677C148.052 122.657 148.058 122.637 148.072 122.617C148.025 122.73 147.972 122.844 147.925 122.963C147.932 122.943 147.945 122.917 147.965 122.904C147.892 123.003 147.812 123.097 147.739 123.197C147.752 123.177 147.772 123.163 147.785 123.15C147.686 123.223 147.592 123.303 147.492 123.376C147.512 123.363 147.532 123.35 147.552 123.343C147.439 123.39 147.326 123.443 147.206 123.49C147.226 123.483 147.246 123.476 147.266 123.47C147.139 123.49 147.013 123.503 146.88 123.523C146.893 123.523 146.9 123.523 146.913 123.523C147.113 123.53 147.299 123.49 147.466 123.396C147.646 123.336 147.799 123.237 147.932 123.097C148.072 122.963 148.172 122.81 148.232 122.63C148.325 122.457 148.365 122.271 148.358 122.078C148.338 121.951 148.325 121.825 148.305 121.691C148.238 121.445 148.112 121.232 147.932 121.052C147.832 120.979 147.739 120.899 147.639 120.826C147.412 120.686 147.173 120.619 146.913 120.619Z" fill="black"></path><path d="M148.665 118.934C148.232 117.888 148.625 116.703 149.837 116.463C150.909 116.25 151.961 116.963 152.374 117.948C153.18 117.482 153.979 117.016 154.785 116.543C154.139 115.771 153.007 114.931 151.948 115.244C151.388 115.411 150.962 115.85 150.782 116.397C150.629 116.869 150.749 117.262 150.703 117.735C150.769 117.495 150.836 117.249 150.902 117.009C151.908 117.382 152.301 117.289 152.081 116.723C152.074 116.603 152.068 116.477 152.054 116.357C152.021 115.977 151.968 115.611 151.841 115.251C151.375 113.899 149.517 113.866 149.057 115.251C148.645 116.496 148.631 117.795 148.978 119.054C149.237 120.013 150.689 120.566 151.388 119.693C152.554 118.228 153.646 115.557 151.282 114.665C150.389 114.325 149.357 114.199 148.471 114.625C148.019 114.845 147.632 115.158 147.366 115.597C147.179 115.917 147.133 116.397 146.94 116.663C146.413 117.382 146.946 118.621 147.799 118.781C148.391 118.894 148.891 118.894 149.464 118.674C149.983 118.475 150.429 118.015 150.942 117.855C151.515 117.675 152.121 118.181 151.835 118.801C152.727 119.041 153.626 119.287 154.519 119.527C154.525 119.267 154.519 119.227 154.499 119.4C154.326 119.573 154.152 119.747 153.979 119.92C153.899 119.94 153.813 119.96 153.733 119.98C153.493 119.913 153.247 119.846 153.007 119.78C153.053 119.807 153.1 119.833 153.147 119.86C152.974 119.687 152.8 119.513 152.627 119.34C152.654 119.387 152.681 119.434 152.701 119.48C152.774 118.901 152.854 118.315 152.927 117.735C151.682 118.881 150.623 120.206 149.577 121.531C148.465 122.943 147.579 124.362 146.98 126.067C146.44 127.599 145.961 129.224 145.701 130.829C145.488 132.134 145.281 134.978 147.419 134.725C148.092 134.645 148.585 134.325 148.811 133.666C149.124 132.74 149.384 131.801 149.577 130.842C149.757 129.93 149.897 129.064 150.383 128.258C151.442 126.506 152.467 124.808 153.293 122.93C154.039 121.225 151.921 119.98 150.802 121.472C149.237 123.569 146.94 125.834 147.539 128.678C147.819 130.016 149.504 129.923 150.176 129.024C150.37 128.764 150.603 128.538 150.836 128.318C150.156 128.318 149.477 128.318 148.798 128.318C148.665 128.165 148.804 128.198 148.738 128.465C148.705 128.591 148.698 128.731 148.671 128.864C148.558 129.41 148.445 129.956 148.365 130.509C148.192 131.668 148.085 132.833 148.072 134.012C149.018 133.886 149.963 133.759 150.902 133.626C150.33 132.074 150.083 130.423 150.336 128.778C149.39 128.651 148.445 128.524 147.506 128.391C147.439 130.889 147.379 133.38 147.313 135.877C147.279 137.069 147.186 138.281 147.219 139.48C147.253 140.639 147.972 141.778 149.264 141.691C150.03 141.638 150.722 141.072 150.709 140.246C150.676 138.634 150.762 137.023 151.016 135.431C150.136 135.544 149.257 135.657 148.378 135.777C149.404 137.396 148.571 139.607 148.551 141.385C148.531 143.243 151.408 143.243 151.435 141.385C151.455 140.259 151.135 139.16 150.449 138.261C150.09 137.789 149.637 137.475 149.011 137.575C148.491 137.655 147.912 138.048 147.812 138.608C147.559 140.02 147.399 142.304 148.911 143.09C150.23 143.776 152.248 143.543 152.94 142.098C153.313 141.312 153.053 140.186 152.081 139.98C152.581 140.086 152.108 140.526 152.394 140.026C152.561 139.74 152.727 139.454 152.88 139.16C153.213 138.521 153.493 137.835 153.66 137.136C153.946 135.937 154.139 134.425 153.566 133.28C152.954 132.061 151.442 131.581 150.256 132.334C148.958 133.16 148.665 134.871 148.491 136.277C148.418 136.896 148.991 137.515 149.55 137.669C150.21 137.848 150.802 137.529 151.182 137.003C151.528 136.523 151.875 136.05 152.221 135.571C151.388 135.571 150.563 135.571 149.73 135.571C150.083 136.03 150.183 136.383 150.003 136.936C150.929 136.936 151.855 136.936 152.787 136.936C152.701 136.397 152.707 135.824 152.8 135.291C153.12 133.46 150.676 132.78 150.017 134.525C149.377 136.223 148.798 138.441 149.277 140.246C149.497 141.079 150.083 141.844 150.936 142.098C152.035 142.417 152.947 141.871 153.779 141.212C153.1 140.532 152.421 139.853 151.741 139.174C151.702 139.22 151.662 139.26 151.622 139.307C151.835 139.18 152.048 139.061 152.261 138.934C152.401 138.947 152.541 138.961 152.681 138.974C152.854 139.147 153.027 139.32 153.2 139.493C152.74 138.874 153.053 138.035 153.153 137.349C153.287 136.417 153.014 135.631 152.487 134.871C152.054 134.239 151.828 133.759 151.915 132.967C152.008 132.121 152.354 131.308 152.627 130.502C153.133 128.991 153.793 126.393 152.248 125.241C151.448 124.642 150.356 124.795 149.65 125.474C148.838 126.253 148.898 127.432 149.244 128.411C149.763 129.87 152.128 129.743 152.074 128.025C152.041 126.953 152.401 125.974 152.754 124.968C153.1 123.982 153.426 122.99 153.799 122.011C154.099 121.218 154.485 120.466 155.025 119.813C155.691 119.001 156.33 118.195 156.244 117.083C156.104 115.244 153.213 115.231 153.36 117.083C153.38 117.369 153.227 117.482 152.987 117.775C152.654 118.181 152.321 118.588 152.048 119.034C151.528 119.886 151.169 120.832 150.829 121.765C150.11 123.756 149.124 125.867 149.191 128.025C150.136 127.898 151.082 127.772 152.021 127.639C151.901 127.306 151.848 127.192 151.895 126.839C151.828 127.079 151.761 127.326 151.695 127.565C151.455 127.632 151.222 127.699 150.982 127.765C150.769 127.639 150.556 127.519 150.343 127.392C150.19 127.232 150.31 127.379 150.283 127.499C150.243 127.679 150.29 127.898 150.27 128.085C150.23 128.445 150.123 128.811 150.017 129.157C149.783 129.936 149.47 130.689 149.271 131.475C148.891 132.967 148.858 134.598 149.71 135.937C150.056 136.483 150.35 136.656 150.21 137.309C150.037 138.141 150.043 138.887 150.203 139.72C150.356 140.539 150.749 141.285 151.535 141.645C152.294 141.998 153.2 141.824 153.766 141.212C155.058 139.82 153.147 138.035 151.728 139.174C151.668 139.214 151.608 139.26 151.548 139.3C151.315 139.434 151.488 139.527 152.081 139.587C152.074 139.593 152.015 139.394 152.021 139.387C152.081 139.034 152.015 138.588 152.054 138.221C152.154 137.216 152.434 136.237 152.787 135.298C151.861 135.045 150.936 134.785 150.003 134.532C149.817 135.617 149.81 136.623 149.99 137.709C150.23 139.214 152.368 138.934 152.774 137.709C153.167 136.51 152.987 135.131 152.208 134.119C151.515 133.22 150.403 133.18 149.717 134.119C149.371 134.598 149.024 135.071 148.678 135.551C149.57 135.791 150.469 136.037 151.362 136.277C151.415 135.824 151.622 135.404 151.688 134.965C151.715 134.878 151.755 134.805 151.815 134.732C151.535 134.672 151.249 134.612 150.969 134.552C151.016 134.518 150.962 135.111 151.009 134.818C150.936 135.284 150.996 135.757 150.889 136.23C150.789 136.696 150.643 137.156 150.436 137.582C149.957 138.548 149.337 139.394 149.444 140.532C149.544 141.585 150.236 142.537 151.302 142.764C151.016 142.058 150.729 141.352 150.443 140.646C150.483 140.566 150.729 140.632 150.563 140.566C150.443 140.519 150.283 140.559 150.17 140.492C150.343 140.666 150.516 140.839 150.689 141.012C150.423 140.619 150.509 139.813 150.589 139.374C149.71 139.487 148.831 139.6 147.952 139.72C148.352 140.246 148.551 140.726 148.538 141.385C149.497 141.385 150.463 141.385 151.422 141.385C151.442 138.961 152.254 136.536 150.849 134.319C150.25 133.373 148.418 133.36 148.212 134.665C147.919 136.516 147.765 138.375 147.799 140.246C148.278 139.767 148.758 139.287 149.244 138.801C149.177 138.807 149.111 138.807 149.044 138.814C149.284 138.881 149.53 138.947 149.77 139.014C149.763 139.001 149.757 138.987 149.743 138.974C149.87 139.187 149.99 139.4 150.116 139.613C149.91 138.974 150.123 137.908 150.136 137.209C150.163 136.21 150.19 135.211 150.216 134.212C150.27 132.274 150.316 130.329 150.37 128.391C150.409 126.806 147.785 126.373 147.539 128.005C147.206 130.169 147.339 132.321 148.105 134.385C148.651 135.864 150.916 135.711 150.936 133.999C150.956 132.547 151.122 131.148 151.415 129.73C151.675 128.458 151.735 127.306 150.822 126.273C150.303 125.681 149.317 125.761 148.784 126.273C148.372 126.673 148.019 127.106 147.679 127.565C148.558 127.679 149.437 127.792 150.316 127.912C150.136 127.053 150.896 126.147 151.369 125.507C152.001 124.642 152.647 123.789 153.293 122.93C152.461 122.444 151.635 121.958 150.802 121.472C150.37 122.457 149.91 123.43 149.39 124.369C148.884 125.288 148.265 126.134 147.752 127.046C146.76 128.811 146.687 130.989 146.041 132.893C146.507 132.54 146.966 132.187 147.432 131.834C147.386 131.841 147.333 131.848 147.286 131.854C147.526 131.921 147.772 131.988 148.012 132.054C147.972 132.028 147.932 132.001 147.885 131.974C148.058 132.147 148.232 132.321 148.405 132.494C148.425 132.807 148.425 132.78 148.425 132.407C148.431 132.254 148.438 132.108 148.451 131.954C148.478 131.681 148.525 131.415 148.578 131.148C148.705 130.509 148.878 129.876 149.051 129.244C149.364 128.092 149.664 126.899 150.19 125.82C150.742 124.688 151.515 123.709 152.301 122.73C153.133 121.691 153.993 120.679 154.978 119.773C155.458 119.334 155.498 118.574 155.205 118.028C154.758 117.189 153.713 116.856 152.847 117.249C151.935 117.662 151.628 118.581 151.642 119.527C151.662 120.859 153.7 121.618 154.326 120.253C155.111 118.548 154.765 116.437 153.053 115.418C152.281 114.958 151.342 114.805 150.456 114.985C150.017 115.078 149.604 115.278 149.217 115.504C149.064 115.591 148.398 115.957 148.565 115.984C148.851 116.69 149.137 117.396 149.424 118.102C149.577 117.895 149.684 117.649 149.763 117.402C149.783 117.336 149.797 117.262 149.817 117.196C149.903 116.956 149.897 116.923 149.79 117.089C149.77 117.162 149.73 117.196 149.664 117.202C149.57 117.222 149.597 117.222 149.743 117.209C149.77 117.236 150.376 117.456 150.203 117.289C150.076 117.076 149.957 116.863 149.83 116.65C149.717 116.203 149.757 116.796 149.677 117.003C149.59 117.222 149.477 117.449 149.331 117.635C150.136 117.848 150.936 118.062 151.741 118.275C151.522 117.482 151.562 116.776 151.821 116.004C150.896 116.004 149.97 116.004 149.038 116.004C149.257 116.636 149.184 117.322 149.424 117.955C149.697 118.688 150.27 119.294 151.049 119.474C151.768 119.64 152.561 119.434 153.067 118.887C153.367 118.568 153.533 118.155 153.566 117.715C153.573 117.595 153.58 117.043 153.546 117.143C153.42 117.356 153.3 117.569 153.173 117.782C153.207 117.742 153.233 117.702 153.267 117.662C153.053 117.789 152.84 117.908 152.627 118.035C152.674 118.015 152.72 117.995 152.76 117.982C152.507 117.982 152.248 117.982 151.995 117.982C152.314 118.055 152.521 118.321 152.727 118.568C153.62 119.633 155.691 118.488 155.138 117.162C154.119 114.712 151.788 113.02 149.057 113.659C146.48 114.265 144.835 117.182 145.874 119.68C146.174 120.399 146.826 120.912 147.646 120.686C148.332 120.526 148.964 119.66 148.665 118.934Z" fill="black"></path><path d="M121.685 179.753C121.685 179.753 96.65 162.344 79.8068 191.075" stroke="black" stroke-width="0.961371" stroke-miterlimit="10" stroke-linecap="round" stroke-linejoin="round"></path><path d="M174.292 162.47C174.292 162.47 182.797 52.3337 228.038 84.9144" stroke="black" stroke-width="0.961371" stroke-miterlimit="10" stroke-linecap="round" stroke-linejoin="round"></path><path d="M158.948 102.177C158.948 102.177 149.877 20.3127 102.957 55.5508" stroke="black" stroke-width="0.961371" stroke-miterlimit="10" stroke-linecap="round" stroke-linejoin="round"></path><path d="M79.3073 192.381L83.3366 189.377L79.9001 187.386L79.3073 192.381Z" fill="black" stroke="black" stroke-width="0.480652" stroke-miterlimit="10" stroke-linecap="round" stroke-linejoin="round"></path><path d="M101.105 57.3627L105.994 56.2038L103.63 53.0137L101.105 57.3627Z" fill="black" stroke="black" stroke-width="0.480652" stroke-miterlimit="10" stroke-linecap="round" stroke-linejoin="round"></path><path d="M230.423 86.966L228.045 82.5371L225.574 85.6473L230.423 86.966Z" fill="black" stroke="black" stroke-width="0.480652" stroke-miterlimit="10" stroke-linecap="round" stroke-linejoin="round"></path></svg> 