<?xml version="1.0" encoding="UTF-8"?> <svg xmlns="http://www.w3.org/2000/svg" width="166" height="114" viewBox="0 0 166 114" fill="none"><path d="M124.941 20.1385C125.023 20.1193 125.108 20.1016 125.191 20.0971C129.099 19.8866 138.039 23.6474 141.383 25.5251C143.352 26.6301 145.219 27.8982 146.872 29.4357C149.823 32.1816 152.671 36.5934 152.778 40.7217C152.865 44.0622 151.122 47.0226 148.859 49.3652C144.447 53.9319 138.731 56.9051 132.878 59.22C129.963 60.373 127.031 61.4052 124.292 62.9513C119.207 65.8235 115.011 70.0748 109.429 72.0729C104.423 73.8648 98.6336 74.3457 93.3357 74.4563C86.6593 74.5957 77.3555 74.7664 71.2994 71.8307C69.2199 70.8228 67.5114 69.4689 65.7033 68.0611C64.63 67.2253 63.4762 66.4256 62.492 65.4894C60.6245 67.0113 57.8305 69.0727 55.6072 69.9619C55.1116 70.1601 54.6084 70.3662 54.0956 70.516C53.4478 70.7051 52.7277 70.7837 52.1361 71.1138C50.0876 73.7092 50.1648 76.7103 49.994 79.8177C49.7537 84.1839 48.7126 86.9822 45.3888 89.9365C43.793 91.4063 41.6869 92.4665 39.7604 93.4507C34.9911 95.8872 28.7055 97.5549 23.4258 95.8687C21.3778 95.2147 19.0914 93.7754 18.0938 91.8129C17.0247 89.7098 16.8454 87.4229 17.6089 85.1827C19.1471 80.6691 24.2461 78.2575 28.8114 78.2077C30.379 78.1907 34.2219 78.909 35.4385 78.2788C35.7697 78.1073 35.8816 77.515 35.9426 77.1741C36.3071 75.1365 36.0952 72.3818 36.3127 70.1815C36.4491 68.8014 36.6707 67.4307 37.0838 66.1035C37.2249 65.6338 37.3881 65.1717 37.5734 64.7173C37.7588 64.263 37.9654 63.8184 38.1934 63.3834C38.6896 62.4519 39.3074 61.6312 39.9029 60.7631C41.5219 58.4032 43.2843 55.9293 45.5026 54.0739C46.8975 52.9073 48.6668 51.8919 50.2764 51.0482C49.5222 49.3297 48.6952 47.1817 49.01 45.2868C49.6324 41.5407 53.2937 38.3478 56.3937 36.4886C59.3983 34.6867 62.6579 33.3943 65.992 32.3313C73.4563 29.9512 81.1926 29.2014 88.998 29.2073C93.7478 29.211 98.501 29.4174 103.25 29.2873C107.03 29.1838 111.851 29.1319 115.424 27.9475C118.82 26.8218 120.539 24.5025 122.904 22.0326C123.547 21.3621 124.177 20.6739 124.941 20.1385ZM120.817 27.9366C119.779 29.2639 116.568 30.6539 114.902 30.9577C115.908 31.9501 116.73 33.2048 117.518 34.3691C118.547 35.8885 124.562 45.491 124.596 46.5312C124.607 46.8767 124.462 47.2285 124.222 47.4759C123.818 47.8913 123.191 47.9364 122.644 47.924C121.625 47.9009 120.596 47.7553 119.576 47.6969C115.034 47.4371 110.161 47.2415 105.759 48.5883C104.443 48.9911 103.165 49.5799 101.958 50.2353C101.054 50.7263 99.985 51.6149 98.9855 51.8223C98.3772 51.9485 97.7401 51.7877 97.3091 51.3352C96.448 50.431 96.0622 48.8972 95.5418 47.7734C95.1455 46.9173 94.691 46.067 94.2063 45.257C92.4005 42.2395 90.2096 39.349 88.0175 36.5955C87.2833 35.6732 86.413 34.8398 85.7259 33.8858C85.4204 33.4615 85.1724 33.0534 85.0659 32.5398C85.0501 32.4633 85.0336 32.3879 85.0194 32.311C77.7044 32.611 71.2939 33.7681 64.4242 36.325C70.3677 37.5079 73.9969 40.0666 78.1244 44.3533C82.8093 49.6589 85.877 55.5167 85.7514 62.6858C88.1605 62.7101 90.579 62.7113 92.9423 62.1758C97.5696 61.1273 101.519 58.6743 105.549 56.3209C110.925 53.1822 116.944 50.1807 123.262 49.7954C127.638 49.5286 132.413 50.6401 136.581 50.1674C138.528 49.9466 140.525 49.3196 142.343 48.6039C143.138 48.2906 144.714 47.737 145.319 47.1689C145.326 47.1619 145.331 47.1521 145.337 47.1437C145.041 46.4719 144.325 45.7913 143.902 45.1648C142.852 43.6104 141.752 42.1591 140.448 40.8036C135.817 35.9897 127.593 30.4711 121.362 28.0735C121.181 28.0038 121.014 27.9381 120.817 27.9366ZM60.7254 38.1264C59.1729 38.2875 55.3654 41.1958 54.3315 42.4819C54.0401 42.8443 53.7869 43.2544 53.6617 43.7045C53.3765 44.7288 53.3998 48.4487 53.3917 49.7289C56.3507 48.7105 59.7733 48.7522 62.6174 50.1107C64.6208 51.0676 66.4462 52.7286 67.1739 54.8565C67.8501 56.8336 67.3874 58.887 66.4677 60.7055C66.0673 61.4974 65.5641 62.3278 64.9647 62.9866C65.8091 63.5022 66.4951 64.2143 67.2065 64.8913C69.2631 66.8482 70.9237 68.491 73.6174 69.5912C74.714 70.0196 75.9311 70.4486 77.1099 70.5613C79.7902 69.4063 81.3697 68.4533 82.4704 65.6332C83.9153 61.9316 82.9111 57.1364 81.3209 53.6384C78.5429 47.5279 73.4593 41.7303 67.0315 39.3245C65.0059 38.5664 62.9033 38.0279 60.7254 38.1264ZM142.235 51.1712C141.68 51.5038 140.89 51.6656 140.268 51.8468C139.05 52.2028 137.82 52.4828 136.552 52.5972C131.598 53.0448 126.631 51.6641 121.657 52.3176C116.399 53.0084 111.441 55.5161 106.878 58.0987C102.178 60.7586 97.5079 63.7007 92.0092 64.3807C89.8628 64.6463 87.7453 64.4785 85.6103 64.2094C85.0244 66.9622 83.929 69.5145 81.5267 71.1966C81.8265 71.4216 83.6076 71.4197 84.0926 71.4423C89.9488 71.7163 95.9238 71.7735 101.743 70.9733C104.609 70.5793 107.447 70.0081 110.095 68.8172C113.074 67.478 115.582 65.4888 118.24 63.6406C119.307 62.8898 120.404 62.1835 121.529 61.5217C122.655 60.86 123.806 60.2449 124.983 59.6766C127.123 58.6601 129.375 57.8767 131.585 57.0255C134.88 55.7567 138.117 54.3062 141.02 52.2902C141.428 52.0067 142.152 51.6255 142.449 51.2683C142.471 51.2415 142.497 51.1914 142.513 51.164C142.421 51.1643 142.327 51.1602 142.235 51.1712ZM125.605 22.0677C125.587 22.8986 122.953 25.8539 122.272 26.5842C129.334 27.2411 139.503 35.1838 143.937 40.4904C144.578 41.2572 147.207 44.5861 147.166 45.4578C147.165 45.4869 147.156 45.5152 147.151 45.5438L147.183 45.5912C147.283 45.7426 147.357 45.8873 147.424 46.0552L147.567 46.11C147.705 46.0323 147.854 45.9642 147.969 45.8552C148.882 45.2369 149.624 42.9378 149.829 41.8483C150.333 39.1866 148.793 35.9174 147.284 33.7708C143.465 28.3391 136.585 25.6837 130.53 23.5613C129.155 23.0793 127.25 22.2635 125.838 22.0662C125.757 22.055 125.686 22.0608 125.605 22.0677ZM56.8363 51.4078C53.1558 51.7156 48.0945 54.3304 45.6867 57.0929C48.5014 57.1216 51.5032 57.7837 53.5402 59.8523C53.6219 59.9357 53.7015 60.0209 53.7789 60.1081C53.8564 60.1953 53.9316 60.2843 54.0046 60.3752C54.0777 60.4661 54.1484 60.5588 54.2167 60.6531C54.285 60.7475 54.351 60.8435 54.4146 60.9411C54.4781 61.0387 54.5392 61.1379 54.5978 61.2386C54.6565 61.3392 54.7125 61.4412 54.766 61.5446C54.8195 61.648 54.8704 61.7526 54.9188 61.8585C54.967 61.9644 55.0126 62.0714 55.0555 62.1795C55.0984 62.2877 55.1386 62.3968 55.1761 62.5069C55.2136 62.617 55.2482 62.728 55.2801 62.8399C55.312 62.9517 55.3411 63.0642 55.3674 63.1775C55.3937 63.2908 55.4171 63.4046 55.4376 63.5189C55.4582 63.6334 55.4759 63.7482 55.4907 63.8635C55.5055 63.9788 55.5175 64.0944 55.5266 64.2103C55.5357 64.3261 55.5418 64.4421 55.5451 64.5583C55.5483 64.6744 55.5486 64.7906 55.546 64.9068C55.5304 65.697 55.3691 66.4694 55.1244 67.2193C54.9893 67.5873 54.861 67.9543 54.6788 68.3027C56.053 67.1031 57.6672 66.2337 59.147 65.1762C61.6446 63.3913 64.7559 60.3128 64.9924 57.0789C65.081 55.866 64.5978 54.7574 63.7996 53.8564C62.446 52.3283 60.4055 51.5008 58.3837 51.3838C57.8795 51.3546 57.3384 51.3551 56.8363 51.4078Z" fill="#FF9766"></path></svg> 