<?xml version="1.0" encoding="UTF-8"?> <svg xmlns="http://www.w3.org/2000/svg" width="645" height="141" viewBox="0 0 645 141" fill="none"><path d="M645 147.202C601.33 95.764 544.627 55.6544 480.183 30.6168C306.475 -37.1572 112.168 15.2026 4.00454e-05 147.202L3.38291e-05 282.04L126.374 282.04C146.73 249.977 175.484 223.448 209.845 205.032C244.206 186.616 283.007 176.938 322.478 176.938C361.948 176.938 400.749 186.616 435.11 205.032C469.471 223.448 498.226 249.977 518.581 282.041L645 282.041L645 147.202Z" fill="#018B6F"></path><path d="M318.721 117.91C314.439 117.91 310.158 117.91 305.877 118.009C296.795 118.236 287.738 118.776 278.706 119.627C263.766 121.086 248.94 123.456 234.321 126.724C233.528 126.88 231.327 127.419 230.579 127.576C229.321 127.874 228.079 128.157 226.836 128.484C225.235 128.839 220.983 130.045 219.352 130.428C217.72 130.812 213.558 132.16 211.986 132.586C210.744 132.941 209.531 133.338 208.319 133.721C207.54 133.948 205.46 134.687 204.681 134.914C194.986 138.131 185.49 141.865 176.239 146.098C166.28 150.621 156.648 155.766 147.407 161.498C145.281 162.851 143.171 164.218 141.075 165.6C139.668 166.395 136.315 169.077 134.922 169.858C134.578 170.071 133.74 170.752 133.425 170.965L131.928 172.086C131.255 172.512 129.638 173.917 128.934 174.357C128.231 174.797 126.659 176.217 125.941 176.657C125.222 177.097 124.953 177.423 124.444 177.821C123.935 178.218 123.351 178.786 122.947 179.013C121.989 179.666 119.758 181.852 118.8 182.504C117.842 183.157 115.701 185.343 114.773 186.095C113.561 186.99 111.779 188.664 110.597 189.587C110.133 189.956 109.1 191.12 108.651 191.489C107.737 192.227 105.657 194.555 104.818 195.307C103.98 196.059 101.974 198.458 101.106 199.239C100.492 199.891 99.8633 200.559 99.2795 201.226C98.8453 201.623 97.9172 202.844 97.4831 203.241C97.049 203.639 96.1358 204.873 95.7167 205.271L93.9652 207.315C93.1269 208.138 91.3904 210.65 90.5671 211.473C83.16 220.818 76.5047 230.677 70.6574 240.967C69.3999 243.21 68.0527 245.396 66.7952 247.624C60.5427 258.624 55.2942 270.11 51.1069 281.958L39.5204 281.958L40.3437 279.659C40.4784 279.077 41.9455 275.401 42.1101 274.791C42.3646 273.825 44.0712 269.766 44.3706 268.815C45.0143 267.197 45.7029 265.607 46.4214 264.018C46.616 263.436 48.3525 259.76 48.5621 259.249C48.7716 258.738 50.6129 255.104 50.8375 254.536C51.601 252.975 52.3345 251.414 53.2177 249.881C57.6892 241.412 62.6879 233.204 68.1874 225.298C70.7223 221.683 73.3619 218.125 76.1064 214.624C76.4507 214.142 78.9805 211.062 79.3548 210.593C79.5344 210.352 80.8517 208.819 80.9865 208.578C81.1212 208.337 82.4835 206.832 82.6781 206.605C84.9235 203.979 87.169 201.353 89.5791 198.827C94.2497 193.746 99.1747 188.891 104.264 184.193C107.767 180.976 111.37 177.863 115.073 174.854C115.821 174.23 117.752 172.711 118.516 172.101C119.668 171.206 120.821 170.284 122.003 169.418C123.5 168.226 127.572 165.344 129.144 164.209C130.716 163.073 134.877 160.363 136.494 159.284C136.779 159.085 137.078 158.886 137.377 158.702C138.32 158.092 139.279 157.51 140.237 156.914C141.195 156.317 143.231 155.111 144.009 154.6C154.174 148.541 164.768 143.153 175.715 138.476C176.493 138.121 178.559 137.298 179.352 136.957C179.742 136.773 180.849 136.376 181.164 136.205C181.478 136.035 182.661 135.652 183.005 135.481C184.592 134.8 188.768 133.324 190.385 132.643C192.002 131.961 196.208 130.656 197.87 130.059C199.113 129.634 200.37 129.236 201.627 128.839C202.451 128.555 204.621 127.945 205.4 127.675C208.523 126.729 211.667 125.83 214.831 124.978C221.866 123.086 228.952 121.406 236.088 119.939C253.499 116.392 271.144 113.964 288.901 112.672C292.239 112.431 295.592 112.218 298.931 112.048C308.152 111.565 317.393 111.414 326.654 111.594C328.271 111.594 329.888 111.636 331.505 111.721C333.002 111.721 334.603 111.821 336.145 111.892C337.193 111.892 344.304 112.232 345.352 112.318C351.474 112.63 357.702 112.999 363.944 113.538C369.273 113.992 374.612 114.579 379.962 115.298C385.321 116.036 390.68 116.888 396.024 117.91C401.368 118.932 406.638 120.067 411.907 121.359C416.757 122.57 421.572 123.885 426.353 125.305C432.685 127.178 438.957 129.307 445.155 131.578C448.253 132.742 451.352 133.92 454.406 135.183C455.394 135.623 457.984 136.603 458.897 137.099C460.484 137.809 463.642 139.172 465.199 139.938C477.311 145.426 488.97 151.77 500.079 158.915C500.603 159.27 501.98 160.121 502.504 160.49C502.773 160.661 503.462 161.101 503.716 161.285C503.971 161.47 504.659 161.91 504.914 162.094C505.962 162.818 508.656 164.621 509.689 165.373C509.944 165.557 510.617 166.012 510.872 166.21L512.039 167.048L514.375 168.765C515.378 169.532 517.189 170.866 518.177 171.604C518.431 171.803 519.09 172.285 519.33 172.484L520.482 173.378C523.476 175.777 526.56 178.204 529.464 180.716C530.961 181.965 532.458 183.228 533.85 184.506C534.793 185.357 537.218 187.515 538.132 188.395L539.629 189.715C539.793 189.857 540.856 190.907 541.021 191.049C541.185 191.191 543.476 193.433 543.79 193.717C544.419 194.299 548.655 198.501 549.269 199.111C552.937 202.673 556.41 206.477 559.868 210.253L564.149 214.965C564.867 215.746 565.556 216.555 566.245 217.378L568.296 219.805L570.556 222.487C572.532 224.858 574.508 227.228 576.454 229.584C577.322 230.72 583.4 238.597 584.208 239.761C585.017 240.925 586.08 242.273 586.978 243.565L587.951 244.984C588.34 245.566 591.214 249.654 591.588 250.25C595.061 255.379 598.375 260.607 601.528 265.934C604.597 271.157 607.516 276.465 610.241 281.873L601.109 281.873C600.81 281.234 600.48 280.596 600.166 279.971C598.774 277.132 597.277 274.294 595.75 271.583C595.002 270.164 594.253 268.829 593.43 267.453C592.606 266.076 591.843 264.713 591.02 263.365C585.885 254.849 580.256 246.631 574.268 238.668C572.642 236.482 570.98 234.32 569.284 232.182C568.655 231.373 568.011 230.578 567.352 229.783C566.963 229.272 565.855 227.924 565.406 227.413C564.957 226.902 563.909 225.553 563.46 225.042C562.802 224.248 562.128 223.481 561.469 222.7C560.646 221.679 558.281 219.053 557.457 218.031C556.634 217.009 554.194 214.454 553.341 213.446L551.275 211.161C550.856 210.664 549.613 209.415 549.179 208.919C547.787 207.414 546.395 205.895 544.973 204.419C544.119 203.426 541.56 200.97 540.706 199.977C540.482 199.721 539.853 199.111 539.629 198.87C539.404 198.628 538.775 198.018 538.551 197.777L535.452 194.597L533.222 192.497C532.937 192.27 530.826 190.084 530.527 189.857C529.329 188.764 528.087 187.685 526.844 186.606C526.096 185.826 523.476 183.768 522.713 183.044C522.473 182.817 521.77 182.277 521.53 182.036C521.291 181.795 520.587 181.284 520.333 181.057C519.854 180.602 518.431 179.552 517.937 179.098C516.46 177.906 514.963 176.728 513.447 175.564C508.457 171.684 503.262 168.027 497.863 164.592C493.602 161.858 489.245 159.237 484.794 156.729C474.733 151.06 464.292 146.02 453.538 141.641C448.967 139.749 444.356 138.003 439.706 136.404C433.374 134.204 426.952 132.146 420.485 130.386C416.493 129.269 412.501 128.21 408.509 127.207C402.521 125.716 396.533 124.368 390.455 123.247C385.785 122.367 381.099 121.586 376.384 120.961C370.86 120.209 365.321 119.627 359.752 119.287C353.086 118.861 346.449 118.534 339.843 118.307C334.573 118.151 329.364 118.052 324.035 117.967C322.253 117.952 320.487 117.924 318.721 117.91Z" fill="#FF9AD4"></path><path d="M633.516 268.431C635.013 272.917 636.435 277.425 637.782 281.958L630.208 281.958C627.842 274.194 625.223 266.53 622.274 258.979C620.657 254.721 618.861 250.462 617.034 246.361C616.555 244.941 614.04 239.789 613.561 238.412C613.486 238.214 612.903 236.993 612.843 236.851C612.783 236.709 612.154 235.517 612.079 235.318C612.004 235.119 610.717 232.65 610.582 232.252C610.448 231.855 609.205 229.584 609.085 229.201C608.966 228.817 607.588 226.561 607.499 226.177C606.421 224.162 605.373 222.132 604.25 220.159C603.936 219.379 601.181 214.993 600.837 214.226C600.268 213.233 599.669 212.268 599.071 211.303C598.891 210.919 597.439 208.79 597.259 208.464C597.08 208.137 595.613 205.952 595.418 205.625C595.223 205.299 593.711 203.156 593.517 202.786C591.915 200.317 590.343 197.847 588.682 195.42C588.277 194.682 585.029 190.623 584.595 189.885C584.49 189.7 583.682 188.678 583.577 188.465C583.472 188.252 582.619 187.301 582.514 187.046C582.409 186.79 580.598 184.704 580.373 184.349C577.559 180.701 574.55 177.252 571.571 173.732C570.074 172.015 568.488 170.326 566.946 168.623C566.706 168.268 564.85 166.423 564.61 166.082C564.371 165.741 562.455 163.953 562.215 163.598C559.91 161.256 557.634 158.872 555.224 156.629C554.865 156.147 552.006 153.791 551.632 153.251C551.033 152.698 550.449 152.13 549.835 151.576C549.641 151.335 548.174 150.157 547.979 149.958C543.563 146.254 538.997 142.677 534.342 139.342C533.024 138.348 531.722 137.354 530.39 136.375C529.985 135.921 526.767 133.962 526.363 133.536C526.153 133.309 524.551 132.33 524.342 132.117L522.276 130.698C521.857 130.244 518.578 128.398 518.159 127.973C515.914 126.198 513.668 124.524 511.288 122.849C509.791 121.997 508.444 121.117 506.992 120.322C504.088 118.704 501.184 117.058 498.235 115.539C497.95 115.312 495.959 114.446 495.675 114.219C494.357 113.14 492.157 111.792 490.78 110.784C490.645 110.685 489.627 110.273 489.477 110.174C488.879 109.748 484.807 108.144 484.208 107.733C480.66 106.186 477.112 104.624 473.505 103.219C469.568 101.8 465.631 100.522 461.634 99.3443C459.927 98.9894 455.571 97.0875 453.864 96.7895C450.721 96.2217 444.883 94.1636 441.784 93.7378C440.047 93.5107 435.601 91.8501 433.865 91.6656C426.111 89.5082 418.162 87.8049 410.243 86.1585C406.291 85.9456 397.758 83.9869 393.776 83.9869C391.62 83.6604 389.42 83.4334 387.249 83.1779C385.842 83.1779 382.115 82.4256 380.707 82.4682C371.441 81.8579 362.16 81.574 352.804 81.4747C342.116 81.0063 331.472 80.7934 320.844 81.0205C309.626 81.1435 298.439 81.7396 287.281 82.8089C281.833 83.3955 276.393 84.0815 270.964 84.8669C266.593 85.4914 262.222 86.2863 257.881 87.0243C255.71 87.4075 253.555 87.8476 251.384 88.2734C249.214 88.6992 247.073 89.1391 244.932 89.6217C243.6 90.0617 239.798 90.6153 238.48 91.0411C237.163 91.4669 233.166 92.1623 231.804 92.6733C227.403 93.7946 223.046 94.9585 218.72 96.2075C206.56 99.4761 194.609 103.41 182.928 107.988C182.389 108.087 179.5 109.549 178.961 109.649C177.643 110.217 176.296 110.756 174.994 111.366C173.931 111.579 168.242 114.702 167.179 114.943C166.117 115.184 160.533 118.477 159.47 118.747C156.925 120.038 154.425 121.401 151.895 122.749C149.815 123.828 147.809 125.02 145.773 126.17C145.054 126.369 142.584 127.958 141.881 128.185L138.887 129.534C137.195 130.244 135.489 130.953 133.827 131.72C131.462 132.571 125.743 136.403 123.453 137.397C123.243 137.496 122.181 138.305 121.956 138.391C121.731 138.476 120.728 139.327 120.459 139.427C118.393 140.392 114.711 142.904 112.69 143.983C112.286 144.196 110.25 145.913 109.845 146.14C109.441 146.367 108.618 147.105 108.423 147.219C108.229 147.333 107.241 148.227 107.031 148.34C106.238 148.794 102.286 152.371 101.507 152.84C101.313 152.967 100.325 153.861 100.13 153.975C99.9355 154.089 98.9775 155.025 98.7829 155.153C98.5883 155.281 96.4925 157.254 96.1183 157.495C95.744 157.736 84.5467 166.323 83.8281 165.003C83.3042 163.981 92.81 145.133 126.671 123.317C135.708 117.921 145.076 113.039 154.725 108.698C168.912 101.763 183.653 95.8975 198.81 91.1546C209.995 87.6598 221.368 84.7318 232.882 82.383C245.202 79.8708 257.791 77.7134 270.306 76.0953C278.928 75.3005 287.581 74.8179 296.218 74.5482C304.856 74.2785 313.523 74.4489 322.146 74.8321C331.966 74.3921 341.861 74.1792 351.711 74.236C358.433 74.1082 365.184 73.9805 371.905 74.0657C373.821 73.9805 379.315 74.9599 381.231 74.9173C385.558 75.0024 389.884 75.116 394.195 75.3856C396.051 75.3856 399.674 76.0811 401.53 76.1237C403.387 76.1663 408.776 77.5431 410.632 77.6282C418.456 78.4609 426.245 79.6437 434 81.1766C434.958 81.3327 437.652 82.1843 438.61 82.3404C439.568 82.4966 440.107 82.7379 440.901 82.9508C441.38 83.0502 442.697 83.5185 443.176 83.6179C445.092 83.9869 450.376 85.9314 452.263 86.3714C457.966 87.7908 463.625 89.423 469.178 91.3533C474.163 92.9998 480.72 95.725 485.54 97.8114C490.361 99.8978 498.295 104 502.86 106.526C505.375 107.946 507.935 109.365 510.345 110.997L512.8 112.502L515.225 113.921L519.237 116.334C520.285 116.987 524.521 119.882 525.569 120.592C526.093 120.918 528.204 122.38 528.713 122.735L531.707 124.949C532.74 125.631 536.797 128.725 537.8 129.463C538.803 130.201 539.476 130.754 540.3 131.407L542.77 133.394C544.401 134.729 546.063 136.049 547.665 137.411C554.176 142.947 560.479 148.624 566.317 154.614C576.746 165.303 586.205 176.808 594.595 189.005C602.951 201.259 610.37 214.066 616.795 227.327C623.232 240.699 628.816 254.425 633.516 268.431Z" fill="#FF9AD4"></path><path d="M645 171.432L645 184.987C643.054 182.546 641.093 180.104 639.012 177.762C635.609 173.977 632.116 170.297 628.533 166.72C626.662 165.017 624.042 162.008 622.171 160.361C618.638 157.338 614.357 153.051 610.659 150.199C608.639 148.623 605.854 145.77 603.773 144.251C597.172 138.574 590.226 133.11 583.19 127.787C578.265 124.593 571.783 119.597 566.634 116.688C564.583 115.268 562.472 114.005 560.376 112.699C558.535 111.692 555.885 109.761 554.044 108.796C544.179 103.119 534.045 97.8103 523.685 92.6155C512.847 86.9381 501.964 81.4168 490.752 76.3923C479.345 71.1691 467.704 66.4379 455.828 62.1988C449.84 60.0792 443.757 58.0874 437.58 56.2233C432.64 54.7046 427.64 53.3137 422.61 51.9653C420.11 51.284 417.58 50.6595 415.125 50.035C412.67 49.4105 410.095 48.8001 407.565 48.2466C405.41 47.8634 402.102 46.9266 399.931 46.5859C397.76 46.2453 394.212 45.3085 391.952 45.0105C386.668 44.0169 381.383 43.1085 376.069 42.3279C361.913 40.0534 347.627 38.5795 333.286 37.9137C333.016 37.8286 328.361 37.9137 328.091 37.786C326.355 37.786 324.618 37.6582 322.882 37.7008C322.343 37.5305 313.032 37.9137 312.403 37.7008C311.774 37.4879 302.553 38.2402 301.999 38.0982C298.526 38.2686 295.068 38.5666 291.52 38.7937C288.661 38.964 285.832 39.3047 282.988 39.6027C282.613 39.5176 278.661 40.0285 278.272 39.9576L275.278 40.0285C273.916 40.0285 272.554 40.0285 271.176 40.0285C269.859 39.8298 261.416 41.164 260.084 41.0505C259.964 41.0505 258.063 41.4053 257.943 41.3911C257.823 41.3769 255.937 41.8027 255.817 41.8027C254.605 41.7318 249.83 42.555 248.632 42.5408C248.393 42.5408 244.62 43.4066 244.381 43.4066C244.141 43.4066 242.375 43.8466 242.24 43.8466C242.105 43.8466 240.249 44.3576 240.129 44.3576C239.635 44.3576 232.165 46.3731 231.686 46.4014C231.552 46.4014 229.695 46.9124 229.561 46.9124C229.426 46.9124 227.6 47.4943 227.465 47.4943C227.33 47.4943 223.528 48.6582 223.288 48.6724C223.049 48.6866 219.336 49.8363 219.097 49.8647C217.705 50.2621 216.297 50.6453 214.92 51.1137C193.429 57.9316 172.688 66.7162 152.991 77.3433C137.69 85.5098 122.973 94.6228 108.935 104.623C106.51 106.355 104.114 108.143 101.734 109.946C99.3541 111.748 97.0038 113.579 94.6835 115.453C93.7554 115.879 90.1926 118.661 89.2346 119.115L89.0549 119.242C88.4362 119.681 87.7129 119.967 86.9492 120.076C86.1856 120.185 85.4054 120.114 84.6779 119.868C83.9505 119.622 83.2984 119.21 82.7797 118.667C82.261 118.125 81.8917 117.469 81.7048 116.759L81.7048 116.659C81.4774 115.693 81.5254 114.687 81.8437 113.744C82.162 112.801 82.7392 111.956 83.5161 111.294C96.6104 99.9753 110.626 89.653 125.431 80.4233C128.066 78.8052 130.701 77.173 133.35 75.5833C135.222 74.5755 143.829 69.8349 145.76 68.9833C147.122 68.2452 148.485 67.4788 149.862 66.7691C151.553 66.0452 156.703 63.6182 158.44 62.9936C158.949 62.7949 166.329 59.1046 166.853 58.9201C168.589 58.3381 177.331 54.5343 179.143 54.0517C179.412 53.9807 183.184 52.2917 183.454 52.2207C183.723 52.1498 187.556 50.6169 187.84 50.5601C189.636 50.1485 198.588 46.8698 200.415 46.6427C203.409 45.6208 206.402 44.7266 209.396 43.804C231.697 36.5414 254.711 31.425 278.092 28.5318C289.156 27.5077 300.269 27.034 311.385 27.1125C330.005 26.7904 348.622 27.8868 367.057 30.3912C380.579 32.2577 393.982 34.8259 407.206 38.084C421.293 41.5614 435.274 45.6776 448.882 50.3614C456.621 53.2001 464.211 56.422 471.726 59.7149C479.24 63.0078 486.546 66.5846 493.761 70.3317C505.243 75.3704 516.515 80.8349 527.637 86.4555C535.691 90.4013 543.7 94.3613 551.589 98.5626C554.149 99.8542 557.966 102.537 560.496 103.885C565.616 106.724 570.705 109.563 575.675 112.685C578.085 114.104 581.004 116.233 583.385 117.667C585.765 119.101 589.238 122.01 591.513 123.543C600.13 129.438 608.415 135.758 616.333 142.477C617.441 143.386 619.057 145.032 620.135 145.955C620.764 146.537 621.408 147.119 622.021 147.715C622.635 148.311 623.339 149.035 623.863 149.503C625.988 151.377 629.072 154.811 631.108 156.77C635.913 161.482 640.584 166.351 645 171.432Z" fill="#FF9AD4"></path></svg> 