<?xml version="1.0" encoding="UTF-8"?> <svg xmlns="http://www.w3.org/2000/svg" width="120" height="24" viewBox="0 0 120 24" fill="none"><path d="M12.0003 17.2678L16.1503 19.7778C16.9103 20.2378 17.8403 19.5578 17.6403 18.6978L16.5403 13.9778L20.2103 10.7978C20.8803 10.2178 20.5203 9.11781 19.6403 9.04781L14.8103 8.63781L12.9203 4.17781C12.5803 3.36781 11.4203 3.36781 11.0803 4.17781L9.19032 8.62781L4.36032 9.03781C3.48032 9.10781 3.12032 10.2078 3.79032 10.7878L7.46032 13.9678L6.36032 18.6878C6.16032 19.5478 7.09032 20.2278 7.85032 19.7678L12.0003 17.2678Z" fill="#FF71AB"></path><path d="M36.0003 17.2678L40.1503 19.7778C40.9103 20.2378 41.8403 19.5578 41.6403 18.6978L40.5403 13.9778L44.2103 10.7978C44.8803 10.2178 44.5203 9.11781 43.6403 9.04781L38.8103 8.63781L36.9203 4.17781C36.5803 3.36781 35.4203 3.36781 35.0803 4.17781L33.1903 8.62781L28.3603 9.03781C27.4803 9.10781 27.1203 10.2078 27.7903 10.7878L31.4603 13.9678L30.3603 18.6878C30.1603 19.5478 31.0903 20.2278 31.8503 19.7678L36.0003 17.2678Z" fill="#FF71AB"></path><path d="M60.0003 17.2678L64.1503 19.7778C64.9103 20.2378 65.8403 19.5578 65.6403 18.6978L64.5403 13.9778L68.2103 10.7978C68.8803 10.2178 68.5203 9.11781 67.6403 9.04781L62.8103 8.63781L60.9203 4.17781C60.5803 3.36781 59.4203 3.36781 59.0803 4.17781L57.1903 8.62781L52.3603 9.03781C51.4803 9.10781 51.1203 10.2078 51.7903 10.7878L55.4603 13.9678L54.3603 18.6878C54.1603 19.5478 55.0903 20.2278 55.8503 19.7678L60.0003 17.2678Z" fill="#FF71AB"></path><path d="M84.0003 17.2678L88.1503 19.7778C88.9103 20.2378 89.8403 19.5578 89.6403 18.6978L88.5403 13.9778L92.2103 10.7978C92.8803 10.2178 92.5203 9.11781 91.6403 9.04781L86.8103 8.63781L84.9203 4.17781C84.5803 3.36781 83.4203 3.36781 83.0803 4.17781L81.1903 8.62781L76.3603 9.03781C75.4803 9.10781 75.1203 10.2078 75.7903 10.7878L79.4603 13.9678L78.3603 18.6878C78.1603 19.5478 79.0903 20.2278 79.8503 19.7678L84.0003 17.2678Z" fill="#FF71AB"></path><path d="M108 17.2678L112.15 19.7778C112.91 20.2378 113.84 19.5578 113.64 18.6978L112.54 13.9778L116.21 10.7978C116.88 10.2178 116.52 9.11781 115.64 9.04781L110.81 8.63781L108.92 4.17781C108.58 3.36781 107.42 3.36781 107.08 4.17781L105.19 8.62781L100.36 9.03781C99.4803 9.10781 99.1203 10.2078 99.7903 10.7878L103.46 13.9678L102.36 18.6878C102.16 19.5478 103.09 20.2278 103.85 19.7678L108 17.2678Z" fill="#FF71AB"></path></svg> 