<?xml version="1.0" encoding="UTF-8"?> <svg xmlns="http://www.w3.org/2000/svg" width="333" height="333" viewBox="0 0 333 333" fill="none"><path d="M165.794 93.9463C165.794 93.9463 162.065 101.412 159.574 113.154C157.083 124.902 163.583 136.304 180.992 127.732" stroke="black" stroke-width="0.961371" stroke-miterlimit="10" stroke-linecap="round" stroke-linejoin="round"></path><path d="M178.659 107.668C179.034 106.571 178.866 105.521 178.285 105.323C177.704 105.124 176.929 105.852 176.554 106.948C176.18 108.045 176.347 109.095 176.929 109.293C177.51 109.492 178.285 108.764 178.659 107.668Z" fill="black" stroke="black" stroke-width="0.961371" stroke-miterlimit="10" stroke-linecap="round" stroke-linejoin="round"></path><path d="M176.33 101.565C176.33 101.565 180.426 99.8537 182.138 103.483" stroke="black" stroke-width="0.961371" stroke-miterlimit="10" stroke-linecap="round" stroke-linejoin="round"></path><path d="M166.896 103.652C167.271 102.555 167.103 101.506 166.522 101.307C165.941 101.108 165.166 101.836 164.791 102.933C164.417 104.029 164.584 105.079 165.166 105.278C165.747 105.476 166.522 104.748 166.896 103.652Z" fill="black" stroke="black" stroke-width="0.961371" stroke-miterlimit="10" stroke-linecap="round" stroke-linejoin="round"></path><path d="M165.408 98.0351C165.408 98.0351 169.504 96.3234 171.215 99.9531" stroke="black" stroke-width="0.961371" stroke-miterlimit="10" stroke-linecap="round" stroke-linejoin="round"></path><path d="M171.721 104.122C171.721 104.122 170.01 106.866 167.626 108.784C165.241 110.702 164.882 114.125 167.939 115.005" stroke="black" stroke-width="0.961371" stroke-miterlimit="10" stroke-linecap="round" stroke-linejoin="round"></path><path d="M209.091 144.529C209.504 161.838 198.408 173.553 195.298 177.289C192.188 181.025 193.227 185.894 191.055 190.25C188.878 194.599 186.487 196.67 187.006 203.936C187.526 211.189 183.896 213.366 183.896 213.366C186.074 205.488 181.405 203.103 183.69 197.189C185.974 191.275 187 188.172 187.725 181.645C188.451 175.118 190.629 174.392 194.772 167.646C198.921 160.912 198.615 150.756 198.615 150.756C187.932 156.67 184.822 163.716 185.448 169.93C186.067 176.157 183.576 179.054 180.986 181.332C178.401 183.616 179.221 194.086 179.221 194.086C179.221 194.086 176.523 181.751 179.221 179.154C181.918 176.563 179.327 172.108 179.221 164.542C179.121 156.976 185.541 152.008 188.651 146.926C191.768 141.838 191.695 135.005 191.695 135.005C191.695 135.005 191.695 125.468 191.695 122.144C191.695 118.834 192.461 107.013 184.928 100.653C177.396 94.2989 176.324 88.2117 176.324 88.2117C174.286 93.1134 165.095 95.4644 165.095 95.4644C163.896 98.2017 161.392 104.529 159.56 113.167C157.809 121.425 160.499 129.517 168.305 130.609V139.147L166.26 140.493C160.979 144.842 158.075 156.244 159.048 159.567C160.02 162.877 160.047 166.713 157.349 170.449C154.652 174.186 155.171 181.025 155.171 181.025C151.342 171.588 156.623 168.478 155.171 164.649C153.72 160.819 152.061 155.944 153.72 151.688C155.378 147.432 155.484 143.396 155.484 143.396L150.296 144.196C150.296 144.196 150.19 141.738 151.955 136.03C153.72 130.336 157.03 125.355 157.349 117.995C157.662 110.636 157.243 98.5081 157.869 93.9526C158.488 89.3972 164.189 84.0026 171.442 79.1341C178.695 74.2656 186.893 74.1524 189.164 76.6433C191.448 79.1341 191.761 80.7924 197.043 80.6925C202.324 80.586 208.551 82.4441 212.274 89.1907C216.011 95.924 214.765 113.753 215.697 124.322C216.637 134.898 221.292 152.827 221.292 152.827C216.437 146.194 209.091 144.529 209.091 144.529Z" fill="black" stroke="black" stroke-width="0.961371" stroke-miterlimit="10" stroke-linecap="round" stroke-linejoin="round"></path><path d="M197.789 217.915C197.789 217.915 200.399 196.683 210.243 175.444" stroke="black" stroke-width="0.961371" stroke-miterlimit="10" stroke-linecap="round" stroke-linejoin="round"></path><path d="M150.316 166.507C150.316 166.507 146.427 173.693 143.823 180.193C141.998 184.735 143.476 193.879 146.174 199.061C148.871 204.236 150.323 221.858 150.323 221.858" stroke="black" stroke-width="0.961371" stroke-miterlimit="10" stroke-linecap="round" stroke-linejoin="round"></path><path d="M168.518 171.815C168.518 171.815 167.253 165.321 163.903 166.7C160.553 168.085 159.294 177.895 166.214 184.389C166.214 184.389 171.442 180.679 174.825 175.444C178.202 170.216 175.518 163.936 168.518 171.815Z" fill="black" stroke="black" stroke-width="0.961371" stroke-miterlimit="10" stroke-linecap="round" stroke-linejoin="round"></path><path d="M168.318 139.148C168.318 139.148 175.058 148.679 191.395 138.729" stroke="black" stroke-width="0.961371" stroke-miterlimit="10" stroke-linecap="round" stroke-linejoin="round"></path><path d="M164.962 140.992C164.962 140.992 172.641 153.613 191.395 142.417" stroke="black" stroke-width="0.961371" stroke-miterlimit="10" stroke-linecap="round" stroke-linejoin="round"></path><path d="M162.238 117.735C162.238 117.735 166.746 124.682 175.884 117.735" stroke="black" stroke-width="0.961371" stroke-miterlimit="10" stroke-linecap="round" stroke-linejoin="round"></path><path d="M189.703 108.891C189.703 108.891 199.707 101.505 201.558 109.197C203.403 116.883 194.246 121.378 189.99 118.302" fill="white"></path><path d="M189.703 108.891C189.703 108.891 199.707 101.505 201.558 109.197C203.403 116.883 194.246 121.378 189.99 118.302" stroke="black" stroke-width="0.961371" stroke-miterlimit="10" stroke-linecap="round" stroke-linejoin="round"></path><path d="M197.289 108.891C197.289 108.891 190.156 115.311 191.961 115.144C193.766 114.978 197.682 112.793 197.682 112.793" fill="white"></path><path d="M197.289 108.891C197.289 108.891 190.156 115.311 191.961 115.144C193.766 114.978 197.682 112.793 197.682 112.793" stroke="black" stroke-width="0.961371" stroke-miterlimit="10" stroke-linecap="round" stroke-linejoin="round"></path><path d="M221.312 152.82C221.312 152.82 234.192 169.337 242.317 183.15C242.317 183.15 264.575 178.794 268.311 175.451C272.048 172.108 271.395 167.086 278.874 166.507C286.347 165.927 287.486 168.038 284.888 169.504C282.291 170.969 278.874 170.476 276.603 173.893C274.325 177.302 274.325 179.907 271.568 181.365" stroke="black" stroke-width="0.961371" stroke-miterlimit="10" stroke-linecap="round" stroke-linejoin="round"></path><path d="M206.287 170.257C206.287 170.257 227.372 198.202 233.22 203.397C239.067 208.598 266.686 190.237 268.638 189.264C270.589 188.292 278.874 190.077 278.874 190.077" stroke="black" stroke-width="0.961371" stroke-miterlimit="10" stroke-linecap="round" stroke-linejoin="round"></path><path d="M146.66 173.746C143.01 179.247 137.702 183.743 137.702 183.743L144.349 194.359V194.385" stroke="black" stroke-width="0.961371" stroke-miterlimit="10" stroke-linecap="round" stroke-linejoin="round"></path><path d="M150.316 144.196C150.316 144.196 140.493 151.955 132.181 161.339C123.936 170.636 117.223 178.888 117.223 181.319C117.223 183.763 134.752 204.083 143.523 209.111C146.36 210.743 147.979 210.537 148.831 209.504" stroke="black" stroke-width="0.961371" stroke-miterlimit="10" stroke-linecap="round" stroke-linejoin="round"></path><path d="M132.174 185.042L137.696 183.743" stroke="black" stroke-width="0.961371" stroke-miterlimit="10" stroke-linecap="round" stroke-linejoin="round"></path><path d="M146.074 214.805C146.074 214.805 143.743 214.073 143.916 216.231C144.089 218.388 149.823 225.195 151.562 224.995C153.3 224.795 151.468 221.785 149.857 220.46C148.245 219.134 146.074 214.805 146.074 214.805Z" fill="white" stroke="black" stroke-width="0.961371" stroke-miterlimit="10" stroke-linecap="round" stroke-linejoin="round"></path><path d="M146.513 210.05C146.513 210.05 143.024 209.437 143.117 211.775C143.21 214.113 151.389 221.059 154.046 220.699C156.703 220.346 154.159 217.21 151.821 215.897C149.477 214.592 146.513 210.05 146.513 210.05Z" fill="white" stroke="black" stroke-width="0.961371" stroke-miterlimit="10" stroke-linecap="round" stroke-linejoin="round"></path><path d="M146.413 206.04C146.413 206.04 142.924 205.428 143.017 207.765C143.103 210.103 151.289 217.049 153.946 216.69C156.603 216.337 154.059 213.2 151.721 211.888C149.377 210.582 146.413 206.04 146.413 206.04Z" fill="white" stroke="black" stroke-width="0.961371" stroke-miterlimit="10" stroke-linecap="round" stroke-linejoin="round"></path><path d="M146.64 201.784C146.64 201.784 143.15 201.172 143.243 203.509C143.337 205.847 151.515 212.793 154.172 212.434C156.83 212.074 154.286 208.944 151.948 207.632C149.61 206.32 146.64 201.784 146.64 201.784Z" fill="white" stroke="black" stroke-width="0.961371" stroke-miterlimit="10" stroke-linecap="round" stroke-linejoin="round"></path><path d="M293.793 66.8865C293.793 66.8865 295.471 55.0051 295.331 49.8436C295.191 44.6821 300.646 40.7394 301.212 42.2046C301.778 43.6698 299.813 67.4327 299.813 67.4327C299.813 67.4327 294.092 83.763 293.793 66.8865Z" fill="black" stroke="black" stroke-width="0.721012" stroke-miterlimit="10" stroke-linecap="round" stroke-linejoin="round"></path><path d="M287.672 102.484L285.687 123.144L269.544 291.109H259.687L277.902 101.719C277.915 101.665 277.915 101.619 277.915 101.599L287.672 102.484Z" fill="white" stroke="black" stroke-width="0.721012" stroke-miterlimit="10" stroke-linecap="round" stroke-linejoin="round"></path><path d="M297.449 103.377L296.996 108.039L279.407 291.102H269.544L285.687 123.144L287.672 102.484L297.449 103.377Z" fill="white" stroke="black" stroke-width="0.721012" stroke-miterlimit="10" stroke-linecap="round" stroke-linejoin="round"></path><path d="M306.48 113.566C306.48 113.566 306.48 113.586 306.467 113.633L289.297 291.102H279.394L296.989 108.039L297.442 103.377V103.363L303.903 103.963C304.608 107.199 305.474 110.43 306.48 113.566Z" fill="white" stroke="black" stroke-width="0.721012" stroke-miterlimit="10" stroke-linecap="round" stroke-linejoin="round"></path><path d="M306.48 113.573C306.48 113.573 305.274 120.153 301.085 119.514C296.896 118.875 297.089 107.832 297.089 107.832C297.089 107.832 295.717 111.435 291.961 110.576C288.205 109.724 285.927 124.556 285.927 124.556C285.927 124.556 284.342 113.613 280.792 111.742C277.256 109.87 277.915 101.579 277.915 101.579C277.915 101.579 289.817 85.9476 293.786 66.8866L294.958 70.9825L297.356 63.2236L298.608 68.0921L299.807 66.6735C299.807 66.6735 299.707 85.3215 303.896 103.963C304.615 107.193 305.474 110.43 306.48 113.573Z" fill="white" stroke="black" stroke-width="0.721012" stroke-miterlimit="10" stroke-linecap="round" stroke-linejoin="round"></path><path d="M212.367 291.103H176.696L173.227 269.797L166.28 291.103H130.136L150.316 221.852C150.316 221.852 173.946 230.357 197.782 217.909C197.782 217.909 204.429 233.667 206.28 245.282C207.652 253.787 210.789 278.482 212.367 291.103Z" fill="black" stroke="black" stroke-width="0.961371" stroke-miterlimit="10" stroke-linecap="round" stroke-linejoin="round"></path><path d="M46.7465 128.605C46.7465 128.605 41.958 144.017 45.228 152.422C48.4981 160.827 61.8048 160.36 67.5257 153.82" stroke="black" stroke-width="0.961371" stroke-miterlimit="10" stroke-linecap="round" stroke-linejoin="round"></path><path d="M58.1885 134.153C58.1885 134.153 61.6916 131.995 63.9094 135.438" stroke="black" stroke-width="0.961371" stroke-miterlimit="10" stroke-linecap="round" stroke-linejoin="round"></path><path d="M46.9397 133.72C46.9397 133.72 49.7302 131.276 51.9613 134.519" stroke="black" stroke-width="0.961371" stroke-miterlimit="10" stroke-linecap="round" stroke-linejoin="round"></path><path d="M54.1192 138.176C54.1192 138.176 51.2022 140.8 51.0823 141.972C50.9624 143.137 53.4732 144.596 53.4732 144.596" stroke="black" stroke-width="0.961371" stroke-miterlimit="10" stroke-linecap="round" stroke-linejoin="round"></path><path d="M60.293 146.994C60.293 146.994 60.2464 147.753 59.9267 148.725C59.92 148.725 59.92 148.725 59.92 148.725C59.4139 150.251 58.2084 152.295 55.3912 152.721C51.322 153.334 48.7912 151.676 47.7389 148.146C47.5924 147.68 47.4858 147.174 47.3926 146.647C47.3859 146.641 53.926 147.693 60.293 146.994Z" fill="white" stroke="black" stroke-width="0.961371" stroke-miterlimit="10" stroke-linecap="round" stroke-linejoin="round"></path><path d="M59.9133 148.719C59.4072 150.244 58.2017 152.289 55.3845 152.715C51.3153 153.328 48.7845 151.669 47.7322 148.14C48.7445 149.219 51.4218 149.971 53.8394 150.024C56.2636 150.091 58.3815 149.358 59.9133 148.719Z" fill="black" stroke="black" stroke-width="0.961371" stroke-miterlimit="10" stroke-linecap="round" stroke-linejoin="round"></path><path d="M46.5535 129.258C46.5535 129.258 54.2791 131.522 57.3693 125.688C57.3693 125.688 60.6394 134.619 70.2698 135.438L72.3144 139.581L79.0277 143.144C79.0277 143.144 83.1702 137.303 83.29 130.303C83.4099 123.297 82.8239 114.599 76.5768 113.26C70.3297 111.915 66.7133 113.26 66.7133 113.26C66.7133 113.26 63.6164 109.93 58.4815 110.69C53.3467 111.449 49.5971 114.892 47.7323 118.162C45.8742 121.426 43.5631 129.211 46.5535 129.258Z" fill="black" stroke="black" stroke-width="0.961371" stroke-miterlimit="10" stroke-linecap="round" stroke-linejoin="round"></path><path d="M71.322 139.641C71.322 139.641 74.7652 136.138 78.5614 136.545C82.3576 136.951 82.1778 148.572 71.9081 147.46" fill="white"></path><path d="M71.322 139.641C71.322 139.641 74.7652 136.138 78.5614 136.545C82.3576 136.951 82.1778 148.572 71.9081 147.46" stroke="black" stroke-width="0.961371" stroke-miterlimit="10" stroke-linecap="round" stroke-linejoin="round"></path><path d="M76.5768 139.575C76.5768 139.575 74.2991 141.733 73.5398 143.545C72.7806 145.356 76.5768 143.957 76.5768 143.957" fill="white"></path><path d="M76.5768 139.575C76.5768 139.575 74.2991 141.733 73.5398 143.545C72.7806 145.356 76.5768 143.957 76.5768 143.957" stroke="black" stroke-width="0.961371" stroke-miterlimit="10" stroke-linecap="round" stroke-linejoin="round"></path><path d="M75.0116 147.38C75.0116 147.38 74.652 156.291 76.5767 158.735C76.5767 158.735 71.968 169.704 64.8418 170.404C57.7223 171.103 55.0316 166.667 55.0316 166.667V158.709" stroke="black" stroke-width="0.961371" stroke-miterlimit="10" stroke-linecap="round" stroke-linejoin="round"></path><path d="M80.606 115.918C80.606 115.918 84.1091 109.704 89.537 110.57C94.9649 111.436 97.9419 136.95 100.393 144.596C102.844 152.242 111.075 165.728 111.249 175.359C111.422 184.989 104.069 196.238 106.873 204.716C109.677 213.187 118.788 217.916 115.278 227.373C115.278 227.373 115.804 220.806 110.023 216.864C104.242 212.921 99.254 207.673 99.7801 199.441C100.306 191.209 100.306 191.209 100.306 191.209C100.306 191.209 95.8374 201.366 99.6935 212.575C99.6935 212.575 93.9992 207.933 94.7918 196.377C95.5776 184.822 97.7688 177.636 95.2313 173.7C92.6939 169.757 85.1547 165.209 86.56 156.89C87.9653 148.572 82.4441 127.466 82.4441 127.466L80.606 115.918Z" fill="black" stroke="black" stroke-width="0.961371" stroke-miterlimit="10" stroke-linecap="round" stroke-linejoin="round"></path><path d="M59.8467 138.955C59.8467 138.955 59.4272 136.791 58.3083 137.257C57.1961 137.717 56.7765 140.98 59.0742 143.145C59.0742 143.145 60.8124 141.913 61.938 140.168C63.0635 138.423 62.1711 136.338 59.8467 138.955Z" fill="black" stroke="black" stroke-width="0.961371" stroke-miterlimit="10" stroke-linecap="round" stroke-linejoin="round"></path><path d="M48.718 137.836C48.718 137.836 48.2984 135.672 47.1795 136.138C46.0673 136.598 45.6477 139.861 47.9454 142.025C47.9454 142.025 49.6837 140.793 50.8092 139.048C51.9347 137.31 51.0423 135.219 48.718 137.836Z" fill="black" stroke="black" stroke-width="0.961371" stroke-miterlimit="10" stroke-linecap="round" stroke-linejoin="round"></path><path d="M39.8734 161.194C43.1368 162.353 44.2957 166.229 45.8608 166.362C47.4259 166.495 46.8798 163.232 45.5877 161.327C44.2957 159.422 39.94 155.679 37.4226 157.924C34.9051 160.168 38.7812 165.543 41.2321 167.854C43.683 170.165 43.4099 171.444 43.4099 171.444C43.4099 171.444 36.0639 197.311 35.5178 203.025C34.9717 208.74 37.1495 215.539 40.4129 214.86C43.6763 214.181 47.2128 209.013 48.7113 201.66C50.2098 194.314 51.7016 170.778 51.7016 170.778" stroke="black" stroke-width="0.961371" stroke-miterlimit="10" stroke-linecap="round" stroke-linejoin="round"></path><path d="M38.7679 157.284C38.7679 157.284 38.5814 154.866 40.8924 154.254C43.2034 153.641 47.7655 158.543 48.5781 160.714C49.3906 162.885 49.4239 165.782 46.7532 164.337" stroke="black" stroke-width="0.961371" stroke-miterlimit="10" stroke-linecap="round" stroke-linejoin="round"></path><path d="M40.899 154.254C41.0456 153.495 41.5051 152.403 42.957 152.016C45.268 151.41 49.8301 156.299 50.6493 158.483C51.4485 160.615 51.4884 163.438 48.9776 162.173" stroke="black" stroke-width="0.961371" stroke-miterlimit="10" stroke-linecap="round" stroke-linejoin="round"></path><path d="M45.3279 152.649C45.3279 152.649 46.8797 151.044 48.3116 151.969C49.7435 152.895 52.4607 156.911 52.3941 158.609C52.3275 160.308 51.0222 159.815 51.0222 159.815" stroke="black" stroke-width="0.961371" stroke-miterlimit="10" stroke-linecap="round" stroke-linejoin="round"></path><path d="M58.1084 160.581C58.1084 160.581 54.7385 160.122 52.1411 161.753C49.537 163.385 49.8434 166.802 50.3562 166.802C50.869 166.802 53.0069 163.731 55.864 163.658C58.7212 163.585 58.7212 163.585 58.7212 163.585" stroke="black" stroke-width="0.961371" stroke-miterlimit="10" stroke-linecap="round" stroke-linejoin="round"></path><path d="M51.7149 162.059C51.7149 162.059 51.0289 159.362 54.3655 158.696C57.7022 158.03 61.5783 158.236 61.5783 158.236" stroke="black" stroke-width="0.961371" stroke-miterlimit="10" stroke-linecap="round" stroke-linejoin="round"></path><path d="M54.1391 158.742C54.1391 158.742 53.1601 155.319 62.644 156.138" stroke="black" stroke-width="0.961371" stroke-miterlimit="10" stroke-linecap="round" stroke-linejoin="round"></path><path d="M54.3522 165.995C53.6263 166.381 53.1135 167.021 52.7538 167.7C51.9413 169.225 51.8614 171.017 51.8614 171.017C51.8614 171.017 49.7635 194.507 50.1231 201.999C50.303 205.769 51.0822 209.079 52.2144 211.583C52.2477 211.669 52.2876 211.756 52.3343 211.836C52.4075 212.009 52.5141 212.222 52.6539 212.475C53.0136 213.168 53.4132 213.787 53.8261 214.32C53.8994 214.413 53.9859 214.52 54.0792 214.64" stroke="black" stroke-width="0.961371" stroke-miterlimit="10" stroke-linecap="round" stroke-linejoin="round"></path><path d="M62.9636 205.343C63.2966 199.622 59.96 172.935 59.96 172.935C59.96 172.935 59.4272 170.631 60.9057 168.233C62.3842 165.836 66.4135 160.994 66.9796 159.102C67.5324 157.218 66.6599 154.687 65.0416 154.207C62.6573 153.495 58.255 153.848 57.1361 154.454C56.0839 155.026 56.2703 156.279 56.3036 156.425C56.3036 156.438 56.3036 156.438 56.3036 156.438" stroke="black" stroke-width="0.961371" stroke-miterlimit="10" stroke-linecap="round" stroke-linejoin="round"></path><path d="M52.1812 165.303C52.1812 165.303 52.8139 166.508 52.7539 167.7" stroke="black" stroke-width="0.961371" stroke-miterlimit="10" stroke-linecap="round" stroke-linejoin="round"></path><path d="M44.3823 140.167C44.3823 140.167 41.685 130.357 42.2311 121.652C42.7772 112.948 46.7399 105.868 51.0822 106.281C55.4245 106.687 56.6167 111.096 56.6167 111.096L48.7912 125.875C48.7845 125.868 46.2737 125.848 44.3823 140.167Z" fill="black" stroke="black" stroke-width="0.961371" stroke-miterlimit="10" stroke-linecap="round" stroke-linejoin="round"></path><path d="M76.5767 158.735C76.5767 158.735 90.8491 161.279 100.593 173.487C105.488 179.621 105.788 188.299 102.904 193.76C98.4948 202.112 88.2384 206.028 88.2384 206.028C88.2384 206.028 80.8791 203.051 74.6254 196.797L78.1352 186.687" stroke="black" stroke-width="0.961371" stroke-miterlimit="10" stroke-linecap="round" stroke-linejoin="round"></path><path d="M87.7456 206.507C79.4738 214.352 69.3706 219.481 63.9161 219.481C60.4928 219.481 57.9487 218.235 56.1172 216.73H56.1039C53.3 214.419 52.1812 211.495 52.1812 211.495" stroke="black" stroke-width="0.961371" stroke-miterlimit="10" stroke-linecap="round" stroke-linejoin="round"></path><path d="M62.644 210.364L62.9637 205.342C62.9637 205.342 69.0043 202.165 74.632 196.797V196.784" stroke="black" stroke-width="0.961371" stroke-miterlimit="10" stroke-linecap="round" stroke-linejoin="round"></path><path d="M71.7682 199.335C73.1401 201.127 77.5957 206.308 85.1947 208.779" stroke="black" stroke-width="0.961371" stroke-miterlimit="10" stroke-linecap="round" stroke-linejoin="round"></path><path d="M78.8811 159.301C79.1475 169.977 73.6996 177.016 67.6723 176.883C62.8837 176.79 61.0522 170.263 61.0522 170.263" stroke="black" stroke-width="0.961371" stroke-miterlimit="10" stroke-linecap="round" stroke-linejoin="round"></path><path d="M41.2321 167.859C41.2321 167.859 31.9347 180.746 37.962 191.676" stroke="black" stroke-width="0.961371" stroke-miterlimit="10" stroke-linecap="round" stroke-linejoin="round"></path><path d="M56.1105 216.724H56.0972C52.8604 216.224 50.5228 215.465 49.637 215.159C49.1175 214.986 48.6446 214.519 48.2317 213.86C47.4192 212.581 46.8131 210.61 46.3802 208.712" stroke="black" stroke-width="0.961371" stroke-miterlimit="10" stroke-linecap="round" stroke-linejoin="round"></path><path d="M89.6969 205.389C89.6969 205.389 104.755 228.499 116.71 253.933C117.462 255.538 117.669 257.31 117.169 258.995C115.784 263.624 111.955 272.382 102.697 272.781C90.0832 273.327 80.0865 274.413 71.1888 280.4C62.291 286.388 52.6007 282.851 46.9797 278.222C42.5108 274.546 37.4292 269.318 30.4895 268.699C27.6923 268.446 25.8475 265.835 26.7599 263.317C29.8635 254.753 36.4635 233.148 47.6657 213.394" stroke="black" stroke-width="0.961371" stroke-miterlimit="10" stroke-linecap="round" stroke-linejoin="round"></path><path d="M89.6969 273.706C89.6969 273.706 83.6563 247.506 80.8391 235.531" stroke="black" stroke-width="0.961371" stroke-miterlimit="10" stroke-linecap="round" stroke-linejoin="round"></path><path d="M43.5764 274.113C43.5764 274.113 52.1612 245.742 56.2704 233.081" stroke="black" stroke-width="0.961371" stroke-miterlimit="10" stroke-linecap="round" stroke-linejoin="round"></path><path d="M62.644 283.53C61.938 286.194 61.4385 288.732 61.1122 291.103" stroke="black" stroke-width="0.961371" stroke-miterlimit="10" stroke-linecap="round" stroke-linejoin="round"></path><path d="M38.3417 291.103C38.6947 282.958 40.1199 275.632 40.6727 273.041C40.8059 272.402 40.8925 272.049 40.8925 272.049" stroke="black" stroke-width="0.961371" stroke-miterlimit="10" stroke-linecap="round" stroke-linejoin="round"></path><path d="M96.1372 273.074C96.1239 273.108 96.1172 273.128 96.1172 273.161C94.4056 279.168 93.613 285.502 93.28 291.103" stroke="black" stroke-width="0.961371" stroke-miterlimit="10" stroke-linecap="round" stroke-linejoin="round"></path><path d="M71.2221 280.406C71.2221 280.406 70.4162 284.682 70.1964 291.102" stroke="black" stroke-width="0.961371" stroke-miterlimit="10" stroke-linecap="round" stroke-linejoin="round"></path><path d="M53.1001 213.28L47.2194 211.662" stroke="black" stroke-width="0.961371" stroke-miterlimit="10" stroke-linecap="round" stroke-linejoin="round"></path><path d="M80.0466 212.721C80.0466 212.721 87.1462 210.183 90.9224 207.319" stroke="black" stroke-width="0.961371" stroke-miterlimit="10" stroke-linecap="round" stroke-linejoin="round"></path></svg> 