<?xml version="1.0" encoding="UTF-8"?> <svg xmlns="http://www.w3.org/2000/svg" width="447" height="362" viewBox="0 0 447 362" fill="none"><path d="M939.625 3.58176C910.448 -12.2251 859.332 -40.8792 821.447 -35.4317C811.294 -34.0213 801.587 -29.5326 793.022 -24.3073C781.083 -17.4002 771.394 -7.3233 763.444 2.61243C750.639 18.8034 739.489 36.3443 724.879 51.0422C715.363 60.7412 704.589 69.3668 692.514 76.3795C680.602 83.4254 667.535 88.6595 653.98 91.8137C640.346 95.0618 626.103 96.4555 611.46 98.1174C589.388 100.454 565.906 104.291 544.3 112.198C489.268 131.827 454.564 166.558 428.6 211.471C418.016 228.85 409.405 246.641 395.956 262.46C391.588 267.49 386.675 272.111 381.005 275.637C370.061 282.529 355.287 285.74 343.555 282.174C321.171 274.433 316.962 244.088 287.323 232.626C267.245 224.841 240.859 227.491 219.192 235.895C177.367 252.019 149.637 289.452 106.683 302.248C79.0927 310.14 52.5934 305.878 31.4764 292.612C8.3533 278.496 -11.6577 259.709 -43.9209 259.599C-83.3901 259.12 -118.886 283.131 -145.563 308.637C-161.086 323.603 -175.018 340.253 -187.697 356.913C-191.852 362.529 -195.846 368.198 -199.897 373.849L-192.867 377.061C-161.422 335.913 -106.753 269.96 -45.8994 271.075C-17.3798 271.397 1.01707 290.069 22.4205 302.873C46.9816 318.267 77.4996 323.151 109.692 313.799C168.022 297.126 198.954 235.601 263.324 237.367C285.703 237.718 298.699 248.598 309.751 263.29C315.531 270.588 321.217 278.809 329.456 284.643C344.247 295.407 368.688 292.534 385.819 281.944C392.683 277.711 398.468 272.478 403.458 267.027C417.858 250.901 427.674 232.831 439.325 215.565C465.72 174.744 498.181 142.975 548.806 124.603C569.232 117.14 589.906 113.775 611.519 111.407C626.003 109.74 641.06 108.179 656.293 104.444C671.646 100.743 686.423 94.6978 699.87 86.6159C726.593 71.1934 746.321 47.7365 762.211 24.746C770.066 13.8772 777.602 2.71722 787.604 -6.60291C792.458 -11.0813 797.96 -15.0105 803.938 -18.2679C809.898 -21.6768 815.786 -24.0639 822.148 -25.1033C847.74 -28.9001 877.39 -16.1644 898.745 -7.17294C910.867 -1.82133 922.791 3.87301 934.517 9.91005L939.625 3.58176Z" fill="#0231A3"></path><path d="M945.385 57.2168C922.296 44.4855 898.561 32.2874 872.726 23.2812C852.65 16.4915 828.43 10.5239 805.719 19.8796C782.605 29.2028 768.821 47.3861 756.877 65.5614C736.4 98.4999 708.373 131.382 666.148 142.931C638.303 150.746 608.609 150.764 579.95 158.096C549.965 165.375 521.568 178.59 497.184 196.615C472.953 214.536 454.704 237.146 439.421 260.578C428.078 277.482 418.9 294.942 404.744 310.048C393.679 321.942 379.02 329.216 362.251 329.316C330.7 329.221 327.197 294.021 289.662 284.187C268.165 278.57 243.099 281.38 221.319 290.758C175.013 310.317 143.206 357.548 90.1309 360.109C60.7311 362.337 40.2912 350.158 19.47 335.597C8.47818 328.182 -3.14997 320.737 -17.1385 316.873C-62.5479 304.256 -108.523 332.339 -140.414 362.995C-161.06 382.872 -178.75 405.136 -194.768 427.628L-186.972 431.184C-170.693 409.259 -152.973 388.003 -132.606 368.931C-104 342.23 -62.5464 315.93 -22.5682 327.419C-10.0597 330.968 0.242794 337.885 10.4418 344.841C32.9004 360.973 56.0334 374.293 89.3444 372.053C121.437 370.613 148.653 354.334 172.999 335.551C195.215 318.801 217.361 300.153 245.425 294.127C258.523 291.437 272.688 290.975 284.849 294.081C297.41 297.134 307.161 304.6 315.335 312.828C330.472 328.311 342.776 342.028 371.348 337.622C396.314 334.401 414.146 317.04 427.14 299.191C443.538 276.956 456.663 254.105 475.799 233.537C493.909 213.51 516.751 196.836 542.487 184.855C612.906 150.766 666.709 177.66 729.22 120.522C745.451 105.677 757.463 87.3287 768.416 70.2134C779.171 53.6136 790.241 37.7819 809.973 29.4638C837.827 17.2609 881.106 36.8293 904.352 46.9462C916.334 52.3731 928.138 58.1037 939.763 64.138L945.415 57.1771L945.385 57.2168Z" fill="#0231A3"></path><path d="M934.731 121.497C905.787 105.883 876.313 90.3682 842.967 81.0257C815.23 73.4409 789.183 74.3054 766.011 96.2466C747.892 113.855 739.096 136.818 724.849 155.8C717.178 166.359 708.168 176.209 697.443 184.668C661.91 214.362 619.807 210.731 576.947 221.341C554.714 226.741 533.243 235.264 513.46 246.543C479.861 265.221 454.531 291.474 434.086 320.431C419.217 340.169 405.179 367.425 381.343 379.422C370.016 384.968 355.554 387.207 344.091 384.377C338.318 383.017 333.14 380.237 328.284 376.75C323.428 373.262 318.736 369.144 313.647 365.122C303.436 356.798 290.513 349.675 275.856 347.173C261.143 344.494 245.442 344.965 230.054 348.547C172.109 361.465 138.656 423.094 77.5604 425.005C27.6111 427.614 11.2632 392.657 -29.2704 381.36C-47.9324 376.276 -69.7407 378.57 -89.0313 385.991C-113.145 395.149 -133.919 411.167 -151.759 427.852C-172.43 447.884 -190.12 469.694 -206.099 492.064L-197.542 495.968C-161.031 446.059 -87.3602 360.507 -17.1807 398.629C13.7888 416.683 31.9348 438.224 76.4916 436.563C149.582 433.736 178.759 366.516 241.973 357.826C257.715 355.906 273.831 357.14 287.102 362.988C299.786 368.445 308.714 377.524 319.78 385.311C325.47 389.248 332.003 392.757 339.409 394.504C354.625 398.024 371.471 395.517 386.375 388.586C400.894 381.661 411.694 370.308 420.811 358.958C438.012 337.175 451.74 314.799 471.518 294.768C499.779 265.678 538.126 243.704 579.275 233.525C600.126 228.182 622.137 226.267 643.574 221.878C683.167 214.398 715.11 191.327 736.339 161.055C744.586 149.538 751.03 137.587 757.822 126.294C764.614 115.001 772.023 104.338 782.556 96.9771C787.729 93.3763 793.479 90.4147 799.688 88.9125C805.896 87.4104 812.284 87.1163 818.785 87.6548C832.077 88.7585 844.976 92.558 857.116 96.7645C882.072 105.668 905.576 117.249 928.522 129.131L934.731 121.497Z" fill="#0231A3"></path><path d="M934.577 187.919C905.708 172.474 876.383 157.204 843.87 146.854C813.016 137.365 782.721 134.935 758.106 162.876C744.054 179.166 737.406 197.944 726.509 215.236C716.62 231.505 703.184 246.772 686.095 258.217C656.233 278.475 618.867 277.769 584.47 286.685C560.652 292.394 537.446 301.881 516.274 314.05C485.019 331.81 459.757 355.978 439.297 382.534C426.464 398.453 415.888 415.088 400.14 428.573C387.942 439.137 371.495 444.476 355.491 444.176C338.169 443.98 326.416 434.657 313.29 426.878C301.787 419.872 287.819 414.528 273.111 412.794C258.249 410.976 242.529 411.446 227.277 415.503C212.144 419.473 197.98 426.728 185.274 435.109C150.88 458.047 120.141 491.252 75.7714 492.077C27.025 494.156 9.76565 458.809 -30.6282 447.959C-41.3332 445.14 -53.1267 444.837 -64.7429 446.35L-70.5188 447.316C-71.4796 447.473 -72.436 447.677 -73.3831 447.927L-76.2312 448.622L-79.0741 449.314C-80.0298 449.541 -80.9381 449.888 -81.8745 450.165L-87.4382 451.957C-91.0266 453.376 -94.7183 454.714 -98.1878 456.398C-144.532 478.345 -179.504 521.242 -206.935 558.702L-197.629 562.95C-181.775 541.134 -164.348 520.054 -144.414 501.008C-120.311 478.673 -89.4804 456.55 -54.4717 455.94C-17.4484 455.114 1.56496 482.682 31.4238 495.211C53.9651 505.351 82.9323 505.896 108.958 497.128C141.483 486.077 165.804 462.172 192.893 444.401C204.531 436.836 216.838 430.636 229.805 427.303C249.271 422.458 270.249 423.494 287.64 429.383C303.4 434.656 315.266 445.378 330.837 451.54C348.175 458.324 369.868 456.974 388.721 449.184C442.076 425.872 448.162 356.542 546.846 312.203C617.559 279.71 671.839 303.865 726.138 236.858C739.251 220.582 747.738 201.424 757.243 184.439C763.396 173.725 770.739 163.543 782.482 156.802C804.807 143.98 836.829 155.988 857.126 163.225C881.697 172.627 905.02 184.244 927.814 196.23L934.566 187.926L934.577 187.919Z" fill="#0231A3"></path></svg> 