<?xml version="1.0" encoding="UTF-8"?> <svg xmlns="http://www.w3.org/2000/svg" width="29" height="28" viewBox="0 0 29 28" fill="none"><g clip-path="url(#clip0_724_2917)"><path d="M14.5 0C10.7878 0 7.22437 1.47591 4.60156 4.10047C1.97606 6.72609 0.500751 10.2869 0.5 14C0.5 17.7115 1.97656 21.275 4.60156 23.8995C7.22437 26.5241 10.7878 28 14.5 28C18.2122 28 21.7756 26.5241 24.3984 23.8995C27.0234 21.275 28.5 17.7115 28.5 14C28.5 10.2885 27.0234 6.72503 24.3984 4.10047C21.7756 1.47591 18.2122 0 14.5 0Z" fill="url(#paint0_linear_724_2917)"></path><path d="M6.83719 13.8521C10.9191 12.0741 13.6403 10.9018 15.0009 10.3354C18.8903 8.71821 19.6975 8.43733 20.2247 8.42782C20.3406 8.42596 20.5987 8.45461 20.7672 8.59079C20.9072 8.70563 20.9466 8.86094 20.9662 8.96999C20.9837 9.07893 21.0078 9.32721 20.9881 9.52102C20.7781 11.7348 19.8659 17.1068 19.4022 19.5864C19.2075 20.6355 18.8203 20.9872 18.4462 21.0216C17.6325 21.0964 17.0156 20.4843 16.2281 19.9683C14.9966 19.1605 14.3009 18.6578 13.1044 17.8696C11.7219 16.9587 12.6187 16.458 13.4062 15.6399C13.6119 15.4257 17.195 12.1675 17.2628 11.8719C17.2716 11.835 17.2803 11.6971 17.1972 11.6245C17.1163 11.5517 16.9959 11.5766 16.9084 11.5963C16.7837 11.6243 14.8172 12.9254 11.0022 15.4995C10.4444 15.8831 9.93906 16.0702 9.48406 16.0603C8.98531 16.0496 8.02281 15.7777 7.3075 15.5454C6.4325 15.2604 5.73469 15.1096 5.79594 14.6256C5.82656 14.3736 6.17437 14.1156 6.83719 13.8521Z" fill="white"></path></g><defs><linearGradient id="paint0_linear_724_2917" x1="1400.5" y1="0" x2="1400.5" y2="2800" gradientUnits="userSpaceOnUse"><stop stop-color="#2AABEE"></stop><stop offset="1" stop-color="#229ED9"></stop></linearGradient><clipPath id="clip0_724_2917"><rect width="28" height="28" fill="white" transform="translate(0.5)"></rect></clipPath></defs></svg> 