<?xml version="1.0" encoding="UTF-8"?> <svg xmlns="http://www.w3.org/2000/svg" width="217" height="63" viewBox="0 0 217 63" fill="none"><path d="M148.433 60.3823C147.721 60.8966 147.349 61.3885 146.882 61.4724C143.598 62.0593 140.289 63.0432 136.998 62.9985C124.745 62.8308 112.447 62.8029 100.269 61.7966C86.6282 60.673 73.0633 58.6996 59.5174 56.7989C48.3919 55.2392 37.4366 52.936 26.8911 49.3135C18.5895 46.4624 11.1578 42.3424 4.79772 36.8303C1.44432 33.9234 -0.774465 30.5077 0.252986 25.9907C1.12916 22.139 4.388 20.16 7.64055 18.2537C15.1857 13.815 23.7079 11.4168 32.3939 9.47696C37.153 8.4148 41.9309 7.38618 46.753 6.58118C53.9704 5.37926 61.2004 4.18294 68.4744 3.35558C78.0115 2.27106 87.5863 1.4381 97.1674 0.716952C102.79 0.297679 108.469 0.0349342 114.098 0.236185C118 0.375943 121.839 -0.155134 125.703 0.0461169C129.094 0.219416 132.473 0.627508 135.864 0.800807C136.696 0.845529 137.572 0.180283 138.417 0.202645C143.806 0.336812 149.208 0.454207 154.579 0.856709C155.764 0.946154 156.873 1.22008 158.083 0.934973C158.462 0.845528 158.978 1.18095 159.42 1.34307C159.842 1.4996 160.252 1.67848 160.668 1.84619C160.724 1.58904 160.781 1.33748 160.838 1.08032C161.701 1.29275 162.559 1.4996 163.624 1.76234C164.399 1.66171 165.597 1.18654 166.542 1.44369C170.034 2.39404 173.64 1.65612 177.17 2.27665C180.788 2.91394 184.52 3.01457 188.176 3.49533C195.828 4.50159 203.373 6.01656 210.225 9.25893C212.614 10.3882 214.788 12.3951 216.238 14.4579C218.299 17.3872 215.936 22.3347 212.047 24.772C206.342 28.3498 199.793 30.1443 193.231 31.8605C177.523 35.9638 161.323 37.8086 145.199 40.0447C129.151 42.2697 113.008 43.4604 96.7829 43.5499C87.7817 43.6002 78.7742 43.2592 69.7729 42.9685C68.1278 42.9182 66.47 42.3535 64.8878 41.8504C63.1355 41.297 62.6753 40.123 63.3183 38.5577C64.0117 36.8639 65.411 37.4061 66.5519 37.8366C71.1282 39.564 75.925 40.0112 80.8228 39.9273C94.1481 39.6981 107.48 39.6031 120.793 39.1335C127.02 38.9155 133.242 38.0937 139.419 37.2943C150.929 35.8073 162.489 34.4656 173.892 32.4475C185.497 30.3903 197.139 28.1709 207.697 23.0446C208.775 22.5247 209.809 21.8986 210.742 21.1886C214.593 18.2817 214.265 16.0847 210.609 13.2672C206.834 10.3546 202.03 9.19185 197.278 8.4148C189.121 7.07872 180.914 5.72586 172.663 5.14447C159.294 4.19971 145.867 3.58478 132.46 3.36675C120.124 3.1655 107.751 3.32203 95.434 3.94815C76.776 4.89291 58.263 7.0899 40.0777 11.0534C30.9315 13.0492 21.8358 15.235 13.5279 19.3047C10.9246 20.5793 8.44738 22.1837 6.26011 23.9782C3.2597 26.4435 3.31643 29.3058 5.78735 32.1959C9.01468 35.975 13.3136 38.608 17.6692 41.2075C26.8217 46.6692 37.279 48.9948 47.8309 51.0688C53.3526 52.1533 58.8744 53.2658 64.4466 54.1099C70.8067 55.0715 77.2109 55.7814 83.6089 56.5305C88.1158 57.0616 92.629 57.5759 97.1548 57.9169C104.202 58.448 111.256 58.9567 118.315 59.2307C126.604 59.5549 134.906 59.594 143.201 59.8121C144.783 59.8512 146.359 60.1419 148.433 60.3711V60.3823Z" fill="#FCD404"></path></svg> 