<?xml version="1.0" encoding="UTF-8"?> <svg xmlns="http://www.w3.org/2000/svg" width="196" height="230" viewBox="0 0 196 230" fill="none"><g clip-path="url(#clip0_1655_885)"><path d="M132.551 35.6758C132.416 35.6028 132.279 35.5351 132.139 35.4727C129.86 34.458 127.406 33.8965 124.99 34.8334C118.245 37.4494 114.479 47.0257 111.715 53.1985C112.025 51.2062 112.249 46.7914 111.923 44.8685C111.826 44.2966 111.639 43.7141 111.288 43.2449C111.013 42.8765 110.631 42.585 110.163 42.5339C109.506 42.4624 108.873 42.8121 108.371 43.2016C106.574 44.596 105.059 47.582 103.66 49.4514C100.659 53.4598 97.5771 56.5843 94.9616 61.0386C91.3323 67.2193 88.8238 74.0431 86.5171 80.8061C84.9411 85.3496 83.4502 89.9208 82.0445 94.5197C81.165 97.3188 79.8798 100.173 79.5137 103.087C78.5608 102.924 77.6275 102.892 76.6733 103.08C74.9399 103.421 73.5677 104.433 72.5957 105.894C70.6427 108.829 69.6353 112.596 68.5231 115.916L65.584 124.713C63.2381 131.793 60.7377 138.804 58.7021 145.984C57.0067 151.965 55.773 158.034 54.3753 164.085C53.5459 167.675 52.4168 171.274 51.9033 174.922C51.7266 176.176 51.6528 177.545 51.9146 178.791C52.6043 182.068 55.3654 184.312 58.0329 186.027C63.0492 189.251 77.0126 195.94 82.9999 194.573C84.3791 194.259 85.5527 193.522 86.562 192.543C88.0284 191.122 89.3066 189.423 90.5422 187.798C92.7183 184.936 94.7721 181.974 96.8596 179.046C100.836 173.468 104.976 167.935 108.637 162.147C109.419 161.33 110.183 159.889 110.815 158.926L115.597 151.636C118.814 146.768 122.243 142.057 125.414 137.153C126.848 134.936 128.414 132.691 129.48 130.268C130.28 128.448 131.169 126.595 130.405 124.617C129.682 124.109 128.997 123.555 128.307 123.004C133.631 118.994 138.503 113.398 143.156 108.579C145.374 106.282 147.792 104.147 149.961 101.815C150.739 100.979 151.449 100.082 152.201 99.2234C153.637 97.5844 155.065 96.0058 156.232 94.1556C157.071 92.8262 157.806 91.4197 158.484 90.0024C160.156 86.5049 161.585 82.8638 163.095 79.2925C163.927 77.3254 164.927 75.4029 165.614 73.3772C165.807 72.807 165.966 72.1955 165.936 71.5886C165.913 71.1301 165.767 70.7185 165.409 70.4161C164.981 70.0545 164.416 69.951 163.871 69.9942C162.154 70.1304 159.733 71.4699 158.061 72.1588C155.269 73.3096 152.445 74.3734 149.669 75.5663C147.745 76.3926 145.879 77.3334 143.964 78.1719C142.905 78.6358 141.777 78.9246 140.729 79.4218C140.228 79.6599 139.762 79.9352 139.321 80.2721C136.376 82.5211 133.499 86.1265 131.009 88.9265C128.834 91.3316 126.632 93.7116 124.403 96.0664C121.749 98.8957 118.994 101.654 116.253 104.4C114.41 106.247 112.57 108.021 110.854 109.991C113.408 105.282 115.409 100.269 117.498 95.3411C119.165 91.4076 120.914 87.5066 122.63 83.5941C123.441 81.7454 124.192 79.8723 125.019 78.03C125.992 75.8635 126.94 73.6676 127.988 71.5375C131.318 64.7725 135.009 58.0634 137.321 50.8588C138.24 47.9951 138.956 45.0797 138.146 42.0977C137.324 39.073 135.169 37.1614 132.551 35.6758ZM94.4852 113.361C96.9553 114.51 99.4789 115.561 101.979 116.644C104.759 117.848 107.523 119.08 110.332 120.214C115.707 122.385 121.757 124.636 126.721 127.656C125.622 128.875 124.687 130.337 123.748 131.683C121.535 134.854 119.457 138.117 117.298 141.324C115.897 143.404 114.449 145.452 113.085 147.557C109.612 152.918 106.295 158.37 102.76 163.695C99.2877 168.927 95.5953 174.03 91.9249 179.125C89.8184 182.049 85.8511 187.976 83.1639 189.999C82.6078 190.416 81.8558 190.581 81.1727 190.624C80.65 190.656 79.6295 190.642 79.2062 190.31C78.5335 190.492 77.2662 190.029 76.5977 189.848C71.3171 188.425 65.9385 186.263 61.1978 183.525C59.2008 182.373 56.2999 180.714 55.6404 178.338C55.3773 177.392 55.5612 176.19 55.7201 175.229C56.3041 171.694 57.3873 168.192 58.2268 164.708C59.6233 158.913 60.8953 153.096 62.5566 147.368C64.8654 139.407 67.7184 131.612 70.332 123.749L72.8151 116.174C73.6185 113.709 74.3613 110.916 75.6983 108.69C76.0007 108.187 76.4212 107.574 77.0221 107.423C79.4916 106.803 91.4371 111.937 94.4852 113.361ZM105.955 72.8657C105.45 75.7303 104.547 78.5891 103.745 81.3821C102.384 86.1917 100.877 90.9548 99.2224 95.6716C97.7062 99.8906 95.9149 104.117 94.9906 108.516C93.82 107.838 92.4545 107.369 91.2024 106.857C88.2046 105.632 84.9576 104.184 81.7729 103.56C83.0012 101.62 83.5614 99.3001 84.2544 97.1275L86.4203 90.2636C88.1272 84.7859 90.0144 79.3711 92.082 74.0191C92.8585 72.0654 93.6016 70.0731 94.5505 68.1946C95.8461 70.4024 99.3155 71.8645 101.736 72.4863C103.083 72.8321 104.569 73.0637 105.955 72.8657ZM132.336 57.2268C131.255 59.4148 130.3 61.6837 129.236 63.8864C125.883 61.7957 122.112 60.1494 118.463 58.6521C116.698 57.9284 114.964 57.1889 113.116 56.6999L112.857 56.6579L112.799 56.5359C113.754 54.5205 114.79 52.5022 115.639 50.4401C118.584 51.608 121.513 52.8125 124.428 54.0536C126.51 54.9535 130.26 56.786 132.336 57.2268ZM108.263 58.9294C107.714 62.6407 107.07 66.3322 106.485 70.0374C102.989 69.5333 100.651 69.2013 97.5714 67.3336C96.833 66.9808 96.1188 66.7137 95.3081 66.5865C96.0332 65.3112 96.6634 63.9819 97.4047 62.7159C98.6207 60.6389 100.027 58.6428 101.468 56.7173C103.26 58.2381 105.975 58.748 108.263 58.9294ZM153.771 76.1653C155.259 78.7805 156.97 80.8469 159.526 82.4729C158.25 85.5318 156.925 88.6359 155.425 91.5892C154.52 90.2552 153.471 89.0623 152.377 87.882C150.093 85.5138 147.039 82.5823 144.249 80.7794C146.385 79.7972 148.471 78.6816 150.574 77.6306C151.555 77.1408 152.719 76.4609 153.771 76.1653ZM112.115 58.2316C114.052 59.8956 118.736 61.5581 121.143 62.6401C123.495 63.6967 125.92 65.0826 128.411 65.7412C127.385 67.5672 126.557 69.5696 125.674 71.4722C121.023 69.0009 115.279 66.4827 110.271 64.8499C110.439 63.892 110.564 62.8719 110.834 61.9395C111.198 60.6792 111.711 59.4876 112.012 58.2039L112.115 58.2316Z" fill="#FF9AD4"></path></g><defs><clipPath id="clip0_1655_885"><rect width="133" height="194" fill="white" transform="matrix(-0.926308 -0.376767 -0.376767 0.926308 196.292 50.1101)"></rect></clipPath></defs></svg> 