<?xml version="1.0" encoding="UTF-8"?> <svg xmlns="http://www.w3.org/2000/svg" width="24" height="26" viewBox="0 0 24 26" fill="none"><path fill-rule="evenodd" clip-rule="evenodd" d="M15.9699 24.2635C18.2616 23.6277 20.6609 23.3069 22.9883 23.013C23.4896 22.9514 23.955 23.2952 23.9909 23.7795C24.0625 24.2643 23.7042 24.7075 23.2387 24.7691C20.9829 25.052 18.6556 25.3548 16.4714 25.9669C16.0059 26.0997 15.5044 25.8264 15.3611 25.3562C15.2179 24.8863 15.5044 24.3967 15.9699 24.2635Z" fill="black"></path><path fill-rule="evenodd" clip-rule="evenodd" d="M9.02292 15.2478C12.711 11.5263 16.8647 8.28375 20.4812 4.46236C20.8034 4.10546 21.3764 4.08634 21.7344 4.41952C22.0925 4.75304 22.1282 5.31388 21.7701 5.67077C18.1536 9.50314 14 12.7563 10.3118 16.4888C9.95376 16.8372 9.38099 16.8421 9.02292 16.4994C8.70066 16.157 8.66485 15.5962 9.02292 15.2478Z" fill="black"></path><path fill-rule="evenodd" clip-rule="evenodd" d="M2.11102 0.933223C2.0036 3.06326 1.89638 5.1933 1.78896 7.32369C1.78896 7.81158 1.35907 8.18831 0.857769 8.16459C0.35647 8.14051 -0.00139141 7.7252 -0.00139141 7.23694C0.10603 5.10337 0.213241 2.97014 0.320662 0.836917C0.35647 0.349019 0.786224 -0.0252245 1.28752 0.00133015C1.75302 0.0278848 2.14682 0.445679 2.11102 0.933223Z" fill="black"></path></svg> 