<?xml version="1.0" encoding="UTF-8"?> <svg xmlns="http://www.w3.org/2000/svg" width="166" height="212" viewBox="0 0 166 212" fill="none"><path d="M66.8867 24.2641C67.8921 24.305 68.9504 24.6234 69.732 25.2721C70.2067 25.6661 70.584 26.2039 70.7394 26.8037C70.9872 27.7604 71.0975 28.8043 71.2512 29.7814C71.8648 33.6764 72.0901 37.6212 72.6461 41.523C73.9576 50.119 75.1131 58.7355 76.1128 67.3725C77.1124 76.0096 77.9555 84.6616 78.642 93.3285C79.5131 93.4286 80.388 93.5069 81.2603 93.5953C81.3306 86.8304 81.1883 80.0638 81.4195 73.3008C81.5712 68.8639 82.0379 64.4673 82.2556 60.0402C82.4709 55.6577 82.0997 51.3142 82.9285 46.9674C83.7537 42.6395 85.7617 37.4515 87.5273 33.3821C87.9335 32.4456 89.4573 28.8088 90.05 28.1722C90.247 27.9606 90.5021 27.9022 90.7877 27.9084C91.0857 27.9151 91.3494 28.0802 91.5407 28.2995C92.716 29.647 93.188 34.8396 93.4378 36.724C94.0868 41.6208 95.2179 46.4105 95.4017 51.3649C95.574 56.0136 94.8324 60.7503 94.5134 65.3882L92.3543 95.2891C94.0489 95.5562 95.7385 95.852 97.4231 96.1764C99.6474 91.5428 101.659 86.8137 103.936 82.2034C107.418 75.1527 112.375 66.9431 117.561 61.0491C117.531 58.4774 118.139 55.5961 119.125 53.218C121.06 48.5525 124.398 44.5735 128.244 41.3378C129.59 40.2058 131.063 39.0715 132.708 38.4091C133.629 38.0382 134.732 37.7686 135.682 38.2032C136.19 38.4352 136.531 38.849 136.72 39.3645C137.715 42.0674 134.667 46.9303 133.484 49.4369C134.224 49.2253 136.294 48.1401 136.939 48.4152C137.036 48.5189 137.133 48.6268 137.175 48.7659C137.418 49.5803 136.625 50.9889 136.267 51.7191C135.502 53.2805 134.526 54.7102 133.5 56.1115C130.857 59.7227 127.74 62.876 123.403 64.3483C122.628 67.1241 121.443 69.8469 120.478 72.5671C118.406 78.4683 116.144 84.2959 113.692 90.0501C112.226 93.5242 110.742 96.9889 109.046 100.359C111.05 101.388 113.353 102.731 114.787 104.5C115.662 105.58 115.685 106.449 115.936 107.742C116.066 108.411 116.237 109.088 116.314 109.765C116.633 112.558 116.493 115.75 116.592 118.597C116.923 126.471 116.926 134.346 116.6 142.219C116.488 144.745 116.433 147.303 116.156 149.817C116.08 151.805 115.786 153.827 115.564 155.805C114.588 164.52 112.873 173.545 107.985 180.997C106.965 182.552 105.826 184.089 104.464 185.365C97.8795 191.529 87.6081 191.027 79.1864 190.778C67.3957 190.43 55.1771 189.051 46.6199 179.983C43.5995 176.783 41.8314 172.735 41.2736 168.391C41.0194 166.413 41.0518 164.383 41.0978 162.394C41.2901 154.061 42.8932 145.866 44.4154 137.701C45.0726 134.092 45.7033 130.479 46.3077 126.862C47.497 120.046 48.3244 113.144 49.902 106.402C50.4711 103.97 51.171 101.499 52.1205 99.1846C52.3174 98.7047 53.4272 97.1551 53.397 96.8367C53.367 96.5188 52.5425 95.057 52.3481 94.6228C51.6292 93.0165 50.9943 91.264 50.5026 89.5732C49.7751 87.0712 49.2604 84.5207 48.65 81.9892C47.8664 78.8025 47.1605 75.5989 46.5323 72.3784C45.4965 67.3022 44.5201 62.1181 44.6809 56.9171C44.1325 56.3629 43.6457 55.7848 43.1926 55.1517C42.2482 53.8091 41.3846 52.4169 40.6019 50.9751C38.9674 47.9371 33.7485 37.0323 34.2803 34.0929C34.4661 33.0659 35.3305 32.2529 36.1566 31.6851C37.7798 30.5697 42.4783 28.6385 44.3937 29.0189C45.4453 29.2279 46.1264 29.9068 46.693 30.777C49.5807 35.2123 51.5603 47.9544 51.4333 53.3372C51.407 54.4518 51.2013 55.5074 50.9657 56.5933C55.9518 66.1741 59.2993 75.9048 61.9381 86.3421C62.5144 88.6215 63.1387 90.8966 63.6182 93.1984C64.8683 93.0473 66.142 92.9504 67.4018 92.9615C67.1793 91.363 67.0736 89.7311 66.903 88.1247C66.465 84.2514 66.0597 80.3747 65.6871 76.4946C65.062 70.9219 64.3839 65.3554 63.6529 59.7953C62.3899 49.6539 60.0798 39.524 60.3779 29.2655C60.4069 28.2628 60.6774 27.1571 61.4377 26.4596C62.8358 25.1772 64.9698 24.205 66.8867 24.2641ZM54.6589 100.695C52.4725 108.714 51.5056 117.101 50.1146 125.283L47.7993 138.844C46.2291 147.673 44.4742 157.332 44.9226 166.317C45.0703 169.276 45.8389 172.26 47.327 174.84C50.5066 180.352 56.7762 183.993 62.7889 185.613C70.3098 187.638 87.208 188.271 94.6658 186.733C96.4238 186.37 98.0891 185.778 99.6418 184.878C100.265 184.515 101.335 183.872 101.722 183.269C102.977 182.409 103.883 181.097 104.705 179.841C107.846 175.041 109.556 169.611 110.587 164.004C112.785 152.06 113.135 139.63 113.056 127.518C113.018 121.799 112.94 116.039 112.641 110.327C104.718 113.084 89.5846 110.453 81.2375 108.973C80.4414 108.831 79.6162 108.849 78.8316 108.697C77.8924 108.516 76.9557 108.144 76.0087 107.933C70.0278 106.598 63.0569 105.085 57.536 102.436C56.5142 101.945 55.5581 101.388 54.6589 100.695ZM92.2416 51.8195C90.9386 52.7511 89.3135 52.9713 87.7461 52.7073C86.7566 52.5406 85.8719 52.126 85.0298 51.5931C85.0855 54.6689 85.2932 57.7499 85.2295 60.8257C85.1828 63.0744 85.0015 65.3273 84.8808 67.5734C84.7242 70.5758 84.6147 73.58 84.5525 76.586C84.3747 85.676 84.483 94.7702 84.4219 103.861C84.3598 104.858 84.2786 105.817 83.8338 106.731C85.3431 106.982 86.8502 107.246 88.355 107.522C87.8455 104.901 88.4765 101.896 88.7598 99.2565C88.8928 98.017 88.948 96.7765 89.0672 95.5377C89.1686 94.4842 89.3369 93.4408 89.4277 92.3846C89.9354 86.4801 90.4353 80.5532 90.8423 74.6422L91.352 66.0312C91.6728 61.301 92.2786 56.5647 92.2416 51.8195ZM69.2621 30.3045C67.2821 31.672 65.0834 32.2052 62.6931 31.8546C62.9576 34.7256 63.2187 37.6169 63.6036 40.4751C64.2514 45.2858 65.0945 50.0749 65.7919 54.879C66.4449 59.6858 67.0436 64.4992 67.588 69.3193L67.672 69.5639C69.0438 70.1691 71.1074 69.6372 72.4294 69.1328C72.7847 68.9951 73.138 68.8527 73.4894 68.7056C72.4744 58.9928 70.7704 49.3579 69.8557 39.6377C69.7774 38.8057 69.3305 30.4086 69.2621 30.3045ZM73.7665 71.2762C72.7104 72.2889 71.4472 72.6602 69.9965 72.6303C69.3158 72.6162 68.6353 72.5035 67.9674 72.3762C68.4929 77.061 68.9655 81.751 69.3854 86.4462C69.547 88.1774 69.6529 89.9188 69.8491 91.6461C70.0932 93.7936 70.3469 95.9449 70.6331 98.0873C70.8919 100.025 71.3356 102.102 71.1918 104.055L72.5646 104.392C74.1537 104.772 75.7459 105.174 77.3544 105.464C76.77 101.669 76.3625 97.7732 75.9841 93.9536C75.7208 91.2958 74.0729 71.9205 73.7665 71.2762ZM105.894 83.5688C102.004 92.0336 98.5368 100.117 93.9607 108.27C95.2779 108.405 99.4712 109.016 100.463 108.786C101.345 107.231 102.508 105.889 103.593 104.475C104.475 103.326 105.305 102.095 106.062 100.859C108.682 96.5796 110.425 91.6438 112.423 87.0571C110.347 87.1549 108.327 85.8747 106.842 84.5288C106.512 84.2303 106.186 83.9036 105.894 83.5688ZM56.1023 76.3298C55.1583 77.6586 53.9257 78.4178 52.3077 78.6924C51.75 78.7871 51.1986 78.7951 50.6349 78.7721C52.2661 85.1277 53.5726 91.7101 56.7274 97.5371C57.0792 98.1868 57.4102 98.8888 57.8331 99.493L58.7633 99.9673C59.993 100.521 61.242 101.049 62.5236 101.472C62.0266 99.7948 61.9393 98.1729 61.533 96.525C60.7413 93.3132 59.8623 90.1218 59.055 86.9137C58.4042 84.3271 57.7235 81.7752 56.9654 79.2174C56.6831 78.2651 56.4429 77.2617 56.1023 76.3298ZM117.923 64.4857C113.762 69.4696 110.472 74.7939 107.437 80.5086C108.549 81.4282 109.594 82.4673 110.81 83.2517C111.654 83.7576 112.527 84.2018 113.403 84.6491C114.773 81.2515 116.08 77.8302 117.325 74.3851C118.334 71.54 119.228 68.6654 120.164 65.7969C119.343 65.7053 118.755 65.583 118.218 64.9012C118.112 64.7683 118.013 64.6298 117.923 64.4857ZM47.4557 55.4724C47.3163 59.6549 47.5061 63.5013 48.252 67.6301C48.7755 70.5282 49.5267 73.3909 50.0345 76.2886C51.243 76.0477 52.3159 75.7676 53.3934 75.1414C54.0328 74.7514 54.6749 74.366 55.3197 73.985C53.5528 68.6125 51.1225 63.4842 48.7298 58.3694C48.3173 57.4879 48.0155 56.2404 47.4557 55.4724ZM91.0318 41.0332C89.8361 41.5087 88.8107 41.6082 87.6052 41.0842C87.4026 40.9962 87.2062 40.894 87.0109 40.7914C86.1904 43.4124 85.394 45.9477 85.1599 48.7005C85.8331 49.0539 86.5023 49.4044 87.1991 49.71C89.0044 50.1635 90.1447 49.6013 91.8489 49.714C91.8907 49.7167 91.9327 49.7179 91.9746 49.7202L92.0498 49.7251C91.9093 48.4194 91.3018 41.5094 91.0318 41.0332ZM66.431 26.8667C65.4137 26.9935 64.4109 27.2096 63.4069 27.4125C63.1519 27.796 62.6479 28.4229 62.7408 28.9154C62.7857 29.1539 62.9344 29.2892 63.1423 29.3976C63.5763 29.6238 64.3985 29.5609 64.8788 29.5129C65.9803 29.3453 67.4971 28.9648 68.2024 28.0131C68.3682 27.7894 68.37 27.6835 68.3548 27.4225C68.0357 27.0088 67.5592 26.9769 67.0711 26.9119C66.8585 26.8836 66.6453 26.8725 66.431 26.8667Z" fill="#01B06F"></path></svg> 