<?xml version="1.0" encoding="UTF-8"?> <svg xmlns="http://www.w3.org/2000/svg" width="333" height="333" viewBox="0 0 333 333" fill="none"><path d="M145.215 83.583C145.215 83.583 140.852 92.3076 137.942 106.047C135.031 119.787 142.631 133.12 162.99 123.097" stroke="black" stroke-width="0.961371" stroke-miterlimit="10" stroke-linecap="round" stroke-linejoin="round"></path><path d="M162.172 100.277C162.61 98.9929 162.413 97.7627 161.731 97.5297C161.049 97.2966 160.14 98.1488 159.701 99.4332C159.262 100.718 159.46 101.948 160.142 102.181C160.824 102.414 161.733 101.562 162.172 100.277Z" fill="black" stroke="black" stroke-width="0.961371" stroke-miterlimit="10" stroke-linecap="round" stroke-linejoin="round"></path><path d="M157.542 92.4872C157.542 92.4872 162.331 90.4892 164.329 94.7316" stroke="black" stroke-width="0.961371" stroke-miterlimit="10" stroke-linecap="round" stroke-linejoin="round"></path><path d="M148.411 95.5776C148.85 94.2932 148.653 93.063 147.97 92.83C147.288 92.5969 146.379 93.4491 145.941 94.7335C145.502 96.0179 145.699 97.248 146.381 97.4811C147.064 97.7142 147.972 96.8619 148.411 95.5776Z" fill="black" stroke="black" stroke-width="0.961371" stroke-miterlimit="10" stroke-linecap="round" stroke-linejoin="round"></path><path d="M144.768 88.3514C144.768 88.3514 149.557 86.3534 151.555 90.5958" stroke="black" stroke-width="0.961371" stroke-miterlimit="10" stroke-linecap="round" stroke-linejoin="round"></path><path d="M152.154 95.4775C152.154 95.4775 150.156 98.6877 147.366 100.932C144.575 103.177 144.156 107.172 147.732 108.205" stroke="black" stroke-width="0.961371" stroke-miterlimit="10" stroke-linecap="round" stroke-linejoin="round"></path><path d="M156.077 112.074C156.077 112.074 155.271 113.832 153.866 115.537C152.328 117.409 150.063 119.247 147.326 118.634C144.922 118.102 143.563 116.397 142.79 114.685C141.871 112.687 141.778 110.689 141.778 110.689C141.778 110.689 142.437 111.142 143.843 111.595C145.674 112.174 148.738 112.787 153.22 112.414C154.119 112.347 155.065 112.234 156.077 112.074Z" fill="white" stroke="black" stroke-width="0.961371" stroke-miterlimit="10" stroke-linecap="round" stroke-linejoin="round"></path><path d="M195.844 142.724C196.324 162.963 183.35 176.663 179.713 181.032C176.077 185.401 177.296 191.095 174.752 196.183C172.208 201.272 169.41 203.689 170.017 212.187C170.623 220.672 166.38 223.216 166.38 223.216C168.924 213.999 163.47 211.215 166.14 204.302C168.811 197.389 170.017 193.759 170.862 186.12C171.708 178.488 174.252 177.635 179.101 169.75C183.949 161.878 183.596 150.003 183.596 150.003C171.102 156.916 167.466 165.155 168.205 172.421C168.924 179.7 166.014 183.09 162.99 185.754C159.967 188.425 160.926 200.666 160.926 200.666C160.926 200.666 157.775 186.247 160.926 183.21C164.076 180.186 161.052 174.971 160.926 166.12C160.812 157.269 168.318 151.462 171.955 145.521C175.598 139.573 175.511 131.581 175.511 131.581C175.511 131.581 175.511 120.426 175.511 116.543C175.511 112.667 176.41 98.8475 167.599 91.415C158.788 83.9824 157.536 76.8696 157.536 76.8696C155.158 82.6038 144.409 85.3544 144.409 85.3544C143.004 88.5579 140.08 95.9505 137.942 106.054C135.891 115.711 139.041 125.168 148.172 126.447V136.437L145.781 138.008C139.6 143.097 136.21 156.43 137.349 160.313C138.488 164.189 138.515 168.664 135.365 173.033C132.214 177.402 132.82 185.401 132.82 185.401C128.338 174.359 134.519 170.729 132.82 166.247C131.122 161.765 129.184 156.07 131.122 151.095C133.06 146.12 133.187 141.398 133.187 141.398L127.126 142.337C127.126 142.337 127 139.467 129.064 132.794C131.129 126.134 134.998 120.313 135.371 111.701C135.738 103.09 135.245 88.9108 135.977 83.5828C136.697 78.2548 143.37 71.9478 151.855 66.2535C160.34 60.5592 169.917 60.4327 172.581 63.3431C175.251 66.2535 175.618 68.1916 181.798 68.0784C187.979 67.9518 195.258 70.1296 199.607 78.0151C203.976 85.8872 202.517 106.74 203.61 119.094C204.708 131.462 210.156 152.427 210.156 152.427C204.442 144.675 195.844 142.724 195.844 142.724Z" fill="black" stroke="black" stroke-width="0.961371" stroke-miterlimit="10" stroke-linecap="round" stroke-linejoin="round"></path><path d="M182.63 228.545C182.63 228.545 186.02 203.823 192.567 190.25" stroke="black" stroke-width="0.961371" stroke-miterlimit="10" stroke-linecap="round" stroke-linejoin="round"></path><path d="M127.119 168.424C127.119 168.424 122.571 176.829 119.52 184.428C117.389 189.736 119.114 200.432 122.271 206.493C125.421 212.547 127.119 233.153 127.119 233.153" stroke="black" stroke-width="0.961371" stroke-miterlimit="10" stroke-linecap="round" stroke-linejoin="round"></path><path d="M148.405 174.632C148.405 174.632 146.92 167.033 143.004 168.651C139.087 170.269 137.616 181.745 145.701 189.337C145.701 189.337 151.815 184.995 155.771 178.881C159.727 172.767 156.59 165.421 148.405 174.632Z" fill="black" stroke="black" stroke-width="0.961371" stroke-miterlimit="10" stroke-linecap="round" stroke-linejoin="round"></path><path d="M210.136 152.421C210.136 152.421 215.378 160.107 217.502 170.196" stroke="black" stroke-width="0.961371" stroke-miterlimit="10" stroke-linecap="round" stroke-linejoin="round"></path><path d="M222.384 144.302C222.384 144.302 224.928 148.178 228.445 149.997C231.961 151.815 233.173 148.665 230.263 144.542C227.352 140.42 221.778 135.571 218.987 137.389C216.197 139.207 217.536 145.874 218.987 150.836C219.54 152.721 219.847 154.772 220.013 156.597C220.3 159.667 219.927 162.751 218.968 165.681C215.924 174.978 208.072 199.187 205.488 209.783" stroke="black" stroke-width="0.961371" stroke-miterlimit="10" stroke-linecap="round" stroke-linejoin="round"></path><path d="M226.014 139.873C226.014 139.873 229.41 124.062 231.895 119.7C234.385 115.338 236.323 118.854 235.957 121.278C235.591 123.703 232.561 139.873 232.561 139.873C232.561 139.873 244.442 123.576 247.106 122.85C249.77 122.124 250.376 124.788 248.684 127.938C246.986 131.089 239.107 142.337 239.107 142.337" stroke="black" stroke-width="0.961371" stroke-miterlimit="10" stroke-linecap="round" stroke-linejoin="round"></path><path d="M240.985 140.22C240.985 140.22 235.284 146.214 233.34 151.162C231.395 156.111 235.984 154.812 238.341 152.468C240.706 150.123 244.455 145.301 245.155 142.957C245.854 140.613 243.909 138.402 240.985 140.22Z" stroke="black" stroke-width="0.961371" stroke-miterlimit="10" stroke-linecap="round" stroke-linejoin="round"></path><path d="M244.662 144.835C244.662 144.835 239.56 150.649 237.822 155.451C236.084 160.253 240.186 158.987 242.304 156.716C244.422 154.438 247.779 149.763 248.398 147.492C249.017 145.214 247.279 143.063 244.662 144.835Z" stroke="black" stroke-width="0.961371" stroke-miterlimit="10" stroke-linecap="round" stroke-linejoin="round"></path><path d="M191.755 181.352C191.755 181.352 194.385 218.974 198.062 228.711C201.425 237.629 206.3 242.284 213.087 239.867C219.887 237.436 225.534 228.065 229.091 211.089C231.395 200.093 233.227 187.319 233.939 178.368C233.939 178.368 235.071 169.804 235.957 166.893C236.843 163.983 239.081 158.688 239.081 158.688" stroke="black" stroke-width="0.961371" stroke-miterlimit="10" stroke-linecap="round" stroke-linejoin="round"></path><path d="M97.8089 138.748C97.8089 138.748 94.9251 142.204 91.3287 143.569C87.739 144.935 86.9198 141.758 90.1765 138.108C93.4399 134.459 99.354 130.396 101.845 132.461C104.336 134.525 102.304 140.806 100.353 145.434C99.374 147.745 98.7746 150.396 98.4216 152.467C98.0553 154.598 98.1086 156.77 98.5481 158.887C100.306 167.446 105.475 192.94 106.847 203.796" stroke="black" stroke-width="0.961371" stroke-miterlimit="10" stroke-linecap="round" stroke-linejoin="round"></path><path d="M94.8052 134.066C94.8052 134.066 93.2867 118.441 91.3687 113.952C89.4506 109.47 87.1928 112.64 87.2728 115.025C87.3527 117.402 88.4849 133.34 88.4849 133.34C88.4849 133.34 78.8345 116.303 76.3437 115.311C73.8529 114.312 72.9737 116.816 74.2591 120.046C75.5445 123.276 81.8981 134.991 81.8981 134.991" stroke="black" stroke-width="0.961371" stroke-miterlimit="10" stroke-linecap="round" stroke-linejoin="round"></path><path d="M80.3197 132.747C80.3197 132.747 85.1549 139.161 86.4802 144.149C87.8056 149.137 83.5298 147.372 81.5118 144.848C79.4939 142.324 76.4036 137.256 75.9974 134.918C75.5844 132.581 77.7023 130.663 80.3197 132.747Z" stroke="black" stroke-width="0.961371" stroke-miterlimit="10" stroke-linecap="round" stroke-linejoin="round"></path><path d="M76.2637 136.789C76.2637 136.789 80.5394 142.963 81.685 147.792C82.8305 152.62 79.0143 150.942 77.2228 148.518C75.4379 146.087 72.7139 141.205 72.3676 138.941C72.0213 136.676 73.9394 134.791 76.2637 136.789Z" stroke="black" stroke-width="0.961371" stroke-miterlimit="10" stroke-linecap="round" stroke-linejoin="round"></path><path d="M80.1132 150.762C80.1132 150.762 81.6716 156.117 82.2177 159.027C82.7505 161.924 82.8904 170.323 82.8904 170.323C82.5973 179.034 82.9437 191.555 83.9427 202.417C85.5011 219.194 89.9034 228.851 96.1971 231.954C102.477 235.045 110.956 230.316 115.185 222.084C117.476 217.642 119.127 214.558 121.372 204.535" stroke="black" stroke-width="0.961371" stroke-miterlimit="10" stroke-linecap="round" stroke-linejoin="round"></path><path d="M127.119 142.331C127.119 142.331 110.376 147.872 103.237 182.511" stroke="black" stroke-width="0.961371" stroke-miterlimit="10" stroke-linecap="round" stroke-linejoin="round"></path><path d="M148.172 136.43C148.172 136.43 156.051 147.579 175.158 135.937" stroke="black" stroke-width="0.961371" stroke-miterlimit="10" stroke-linecap="round" stroke-linejoin="round"></path><path d="M192.567 314.125H151.182L149.843 290.842L138.548 314.125H96.5701L127.119 233.153C127.119 233.153 154.752 243.09 182.631 228.544C182.631 228.544 190.389 246.966 192.567 260.546C194.745 274.119 192.567 314.125 192.567 314.125Z" fill="black" stroke="black" stroke-width="0.961371" stroke-miterlimit="10" stroke-linecap="round" stroke-linejoin="round"></path><path d="M218.575 166.919C218.575 166.919 223.769 174.818 234.672 173.373" stroke="black" stroke-width="0.961371" stroke-miterlimit="10" stroke-linecap="round" stroke-linejoin="round"></path><path d="M217.362 171.642C217.362 171.642 222.557 179.54 233.46 178.095" stroke="black" stroke-width="0.961371" stroke-miterlimit="10" stroke-linecap="round" stroke-linejoin="round"></path><path d="M82.8571 169.018C82.8571 169.018 89.7568 172.035 99.8667 165.361" stroke="black" stroke-width="0.961371" stroke-miterlimit="10" stroke-linecap="round" stroke-linejoin="round"></path><path d="M83.7229 173.853C83.7229 173.853 90.6227 176.87 100.733 170.196" stroke="black" stroke-width="0.961371" stroke-miterlimit="10" stroke-linecap="round" stroke-linejoin="round"></path><path d="M144.242 138.594C144.242 138.594 153.22 153.353 175.158 140.259" stroke="black" stroke-width="0.961371" stroke-miterlimit="10" stroke-linecap="round" stroke-linejoin="round"></path><path d="M226.627 148.831C226.627 148.831 230.549 154.159 230.869 160.459" stroke="black" stroke-width="0.961371" stroke-miterlimit="10" stroke-linecap="round" stroke-linejoin="round"></path><path d="M92.2277 143.17C92.2277 143.17 87.4525 148.178 88.1318 155.284" stroke="black" stroke-width="0.961371" stroke-miterlimit="10" stroke-linecap="round" stroke-linejoin="round"></path><path d="M69.4105 71.4885C69.4105 71.4885 115.957 85.7809 112.321 33.42C112.321 33.42 158.002 66.1472 175.158 18.8745C175.158 18.8745 191.215 69.7835 234.672 42.8705C234.672 42.8705 211.222 95.1448 263.589 91.5484" stroke="black" stroke-width="0.961371" stroke-miterlimit="10" stroke-linecap="round" stroke-linejoin="round"></path></svg> 